<svg xmlns="http://www.w3.org/2000/svg" viewBox="0 0 2343.07 2658.21"><defs><style>.cls-1{opacity:0.2;}.cls-2{fill:#390176;}.cls-3{fill:#914030;}.cls-4{opacity:0.3;}.cls-5{fill:#fff;}.cls-6{fill:#ff4545;}.cls-7{fill:#875245;}.cls-8{fill:#ff73c0;}.cls-9{fill:#ffcbbd;}.cls-10{fill:#4364dd;}.cls-11{opacity:0.5;}.cls-12{fill:#f9a528;}.cls-13{fill:#ff5a5a;}.cls-14{opacity:0.7;}.cls-15{fill:#ffb5a4;}.cls-16{fill:#ff9f9f;}</style></defs><title>introAtivo 1</title><g id="Camada_2" data-name="Camada 2"><g id="Layer_1" data-name="Layer 1"><g class="cls-1"><ellipse class="cls-2" cx="1225.57" cy="2504.14" rx="1117.5" ry="154.07"/></g><path class="cls-3" d="M2232.11,1389.74c0,172.78-144.46,312.86-144.46,312.86s-144.46-140.08-144.46-312.86,144.46-312.86,144.46-312.86S2232.11,1217,2232.11,1389.74Z"/><g class="cls-4"><path class="cls-5" d="M2232.1,1389.72a315.63,315.63,0,0,1-2.4,38.64c-18.64-154.56-142-274.2-142-274.2s-123.44,119.64-142.08,274.2a315.63,315.63,0,0,1-2.4-38.64c0-172.76,144.48-312.84,144.48-312.84S2232.1,1217,2232.1,1389.72Z"/></g><g class="cls-4"><path class="cls-2" d="M2232.1,1389.72c0,172.8-144.44,312.88-144.44,312.88s-144.48-140.08-144.48-312.88a329.9,329.9,0,0,1,6.84-66.16c28.64,141,137.64,246.72,137.64,246.72s109-105.68,137.6-246.72A329.9,329.9,0,0,1,2232.1,1389.72Z"/></g><path class="cls-2" d="M2087.65,1718.6a16,16,0,0,1-11.14-4.52c-6.1-5.91-149.32-146.82-149.32-324.34s143.22-318.44,149.32-324.35a16,16,0,0,1,22.28,0c6.09,5.91,149.32,146.83,149.32,324.35s-143.23,318.43-149.32,324.34A16,16,0,0,1,2087.65,1718.6Zm0-618.47c-33.09,36.51-128.46,153.56-128.46,289.61s95.36,253.08,128.46,289.6c33.09-36.51,128.46-153.56,128.46-289.6S2120.75,1136.65,2087.65,1100.13Z"/><rect class="cls-6" x="1998.3" y="964.82" width="158.06" height="138.07" rx="69.03"/><g class="cls-4"><path class="cls-2" d="M2156.38,1033.88a69.24,69.24,0,0,1-69,69h-20a69.22,69.22,0,0,1-69-69,68.22,68.22,0,0,1,6.6-29.36,69.3,69.3,0,0,0,62.44,39.68h20a68.86,68.86,0,0,0,48.76-20.28,69.81,69.81,0,0,0,13.68-19.4A68.22,68.22,0,0,1,2156.38,1033.88Z"/></g><path class="cls-2" d="M2087.33,1118.89h-20a85,85,0,1,1,0-170.07h20a85,85,0,0,1,0,170.07Zm-20-138.07a53,53,0,0,0,0,106.07h20a53,53,0,0,0,0-106.07Z"/><path class="cls-7" d="M2268.49,456.83,2224.7,733.2c-32.81,207.07-227.27,348.33-434.33,315.52h0c-207.06-32.8-348.33-227.26-315.52-434.33L1518.63,338"/><path class="cls-3" d="M2268.49,456.83,2224.7,733.2c-32.81,207.07-227.27,348.33-434.33,315.52h0c-207.06-32.8-348.33-227.26-315.52-434.33L1518.63,338"/><g class="cls-4"><path class="cls-2" d="M2268.49,406.83,2224.7,683.2c-32.81,207.07-227.27,348.33-434.33,315.52h0C1583.3,965.92,1442,771.46,1474.84,564.39L1518.63,288"/></g><path class="cls-2" d="M1867.05,1072.39a375.84,375.84,0,0,1-58.92-4.65h0l-40.54-6.42a375.08,375.08,0,0,1-311.76-429.16L1500,353.27A16,16,0,0,1,1518.61,340L2259.72,471.3a16,16,0,0,1,13.07,17.87l-35.44,266.42C2208.07,940.41,2048.2,1072.39,1867.05,1072.39Zm-53.91-36.26C2000,1065.75,2176.08,937.81,2205.69,751l33.36-250.83-710-125.77-41.64,262.8c-29.6,186.84,98.32,362.93,285.17,392.54Z"/><path class="cls-8" d="M2110.38,1870.16H1279.7l33.48-400.56,47.48-316.44L1396.1,917l304.64-7.72,13.12,5.72,5,2.16,378.48,164.52-123.6,365.2a209.45,209.45,0,0,0,21.32,192.48l44.76,66.8c.16.28.36.52.52.8A486.11,486.11,0,0,1,2110.38,1870.16Z"/><g class="cls-4"><polygon class="cls-2" points="1713.86 915.04 1699.66 1172.2 1360.66 1153.16 1396.1 917.04 1700.74 909.32 1713.86 915.04"/></g><path class="cls-2" d="M2110.38,1886.16H1279.7a16,16,0,0,1-16-17.34l33.48-400.56c0-.35.07-.69.13-1l82.92-552.56A16,16,0,0,1,1395.69,901l304.64-7.72a16,16,0,1,1,.81,32l-291.21,7.38-80.85,538.76-32,382.7h813.29a16,16,0,0,1,0,32Z"/><path class="cls-2" d="M2040.35,1723a16,16,0,0,1-13.59-7.53l-.23-.37-44.68-66.59a225.69,225.69,0,0,1-22.91-207.18l123.24-364.72a16,16,0,1,1,30.31,10.24l-123.35,365.07c-.08.23-.17.46-.26.69a193.68,193.68,0,0,0,19.55,178.08l44.67,66.59.27.41c.3.44.58.88.85,1.34a16,16,0,0,1-13.87,24Z"/><path class="cls-9" d="M1811,1074.72l-28-4.62c-58.53-9.65-96-63.06-79.47-113.3L1737.71,853c3.25-9.91,14.27-15.87,25.81-14l140.17,23.12c11.54,1.9,20.07,11.09,20,21.51l-1,109.27C1922.17,1045.82,1869.54,1084.37,1811,1074.72Z"/><g class="cls-4"><path class="cls-2" d="M1923,950.22c-19.47,28.34-57.2,44.83-97.8,38.13l-28-4.61c-40.56-6.69-71-34.4-80.38-67.49L1737.72,853c3.23-9.89,14.26-15.86,25.79-14l140.18,23.13c11.56,1.91,20,11.1,20,21.51Z"/></g><path class="cls-2" d="M1826.22,1091.69a130.39,130.39,0,0,1-21.29-1.76l-21-3.47c-35.94-5.93-66.75-26.14-84.51-55.46-15.5-25.58-19.07-54.76-10.05-82.18l38.85-118.1A16,16,0,0,1,1746,819.93l180.43,29.77a16,16,0,0,1,13.4,15.93L1938.68,990c-.26,28.86-13,55.35-35.91,74.6C1881.74,1082.23,1854.65,1091.69,1826.22,1091.69Zm-71.91-238-34.57,105.08c-6,18.4-3.56,38.14,7,55.6,12.91,21.31,35.64,36.06,62.35,40.47l21,3.47h0c26.7,4.39,53-2.27,72-18.3,15.62-13.14,24.33-31,24.5-50.4l1-110.62Z"/><path class="cls-10" d="M1593.82,2524.14h-94.7A120.91,120.91,0,0,1,1379.39,2420l-99.68-549.89h435v533.08A120.92,120.92,0,0,1,1593.82,2524.14Z"/><g class="cls-4"><path class="cls-2" d="M1593.82,2524.14h-94.7A120.91,120.91,0,0,1,1379.39,2420l-99.68-549.89h435v533.08A120.92,120.92,0,0,1,1593.82,2524.14Z"/></g><path class="cls-10" d="M2114.54,2064.4,2050.1,2420a121,121,0,0,1-119.76,104.12h-94.68a120.94,120.94,0,0,1-120.92-120.92V1870.16h395.64A486.74,486.74,0,0,1,2114.54,2064.4Z"/><g class="cls-4"><path class="cls-2" d="M1715.38,2338.8l-.64-.24V2326.2A119.72,119.72,0,0,0,1715.38,2338.8Z"/></g><g class="cls-11"><path class="cls-5" d="M2114.54,2064.4,2050.1,2420a121,121,0,0,1-119.76,104.12h-46.4A121,121,0,0,0,2003.7,2420l64.44-355.64a486.74,486.74,0,0,0-4.16-194.24h46.4A486.74,486.74,0,0,1,2114.54,2064.4Z"/></g><path class="cls-2" d="M1593.82,2540.14h-94.69c-67.76,0-126-50.51-135.54-117.55L1264,1873a16,16,0,0,1,15.74-18.85h435a16,16,0,0,1,16,16v533.07C1730.74,2478.72,1669.32,2540.14,1593.82,2540.14Zm-295-654,96.26,531c0,.21.07.42.1.63,7.23,51.5,51.9,90.33,103.9,90.33h94.69a105,105,0,0,0,104.91-104.92V1886.15Z"/><path class="cls-2" d="M1918.34,2540.16h-70.68c-79.33,0-148.92-64-148.92-136.92V1870.16a16,16,0,0,1,16-16h395.64a16,16,0,0,1,15.61,12.48,500.35,500.35,0,0,1,4.29,200.63l-64.38,355.33C2056.57,2487.45,1990.46,2540.16,1918.34,2540.16Zm-187.6-654v517.08c0,54.91,55.73,104.91,116.92,104.91h70.68c49.84,0,108.31-36.3,115.91-90.34,0-.21.07-.42.1-.63l64.44-355.63h0a468.06,468.06,0,0,0-1.39-175.38Z"/><path class="cls-2" d="M2050.12,2436a16.47,16.47,0,0,1-2.87-.26,16,16,0,0,1-12.9-18.6l64.44-355.63A471.07,471.07,0,0,0,2027,1715.88c-.07-.11-.15-.22-.22-.34s-.31-.46-.45-.69l-44.51-66.34a16,16,0,0,1,26.57-17.83l44.68,66.6.27.41c.15.22.29.44.43.66a503,503,0,0,1,76.48,368.91l-64.44,355.63A16,16,0,0,1,2050.12,2436Z"/><path class="cls-9" d="M1011.11,1734.76a.07.07,0,0,1,.08,0"/><path class="cls-12" d="M35.64,1871.58l0,.12c27.76,71.32,71.46,110.85,89.92,125.15a6.86,6.86,0,0,1-1.4,11.72,145.16,145.16,0,0,1-21.41,7.34c31.29,46.23,65.49,79.91,92.58,100C519.49,2356.23,916,2227,916,2227l-1.67-26.11-10.91-169.36s-285.94-81-407.77-305.89c-47.72-88-44.58-191.51-21.34-286.31q1.9-7.83,4-15.54,4.2-15.6,9-30.62,3.62-11.28,7.51-22.33c.84-2.46,1.75-4.94,2.61-7.33,3.54-9.69,7.15-19.21,10.94-28.54,2.8-6.94,5.7-13.79,8.63-20.53,2-4.48,3.93-8.92,5.87-13.27q4.42-9.74,9-19.11l0-.06c2-4.13,4-8.23,6-12.19q1.47-3.07,3-6c1.12-2.23,2.25-4.4,3.38-6.56,2.26-4.34,4.49-8.6,6.71-12.67,0,0,0,.06.06,0,5.5-10.34,11-20,16.22-28.82a51.83,51.83,0,0,0,5.14-11.63,53.47,53.47,0,0,0,1.76-8.9c.12-1,.15-2,.21-3a54.61,54.61,0,0,0-.65-10.4,51.38,51.38,0,0,0-18.14-31.17,52.9,52.9,0,0,0-6-4.2,51.43,51.43,0,0,0-22-7c-2.7-.25-5.39-.44-8.19-.6s-5.68-.34-8.54-.47c-3.7-.17-7.52-.31-11.37-.36-2.11,0-4.36,0-6.53,0-.9,0-1.84,0-2.8,0-3.24.06-6.5.06-9.92.17-4.68.16-9.47.35-14.35.7-.3,0-.55.06-.8.07-4.68.35-9.4.77-14.28,1.31a6.85,6.85,0,0,0-1.11.12c-1.84.23-3.76.42-5.72.69-2.89.33-5.77.71-8.69,1.17-3.1.46-6.25,1-9.45,1.56-2,.35-4.05.71-6.09,1.13-2.58.48-5.21,1-7.9,1.62s-5.31,1.13-8,1.77l-2.42.61c-2.66.63-5.39,1.29-8.07,2-3.24.83-6.51,1.79-9.77,2.75C285,1182.9,172.24,1259.87,86,1442.65l-4.14,8.86c-.64,1.36-1.21,2.71-1.81,4l-4.75,10.67c-46.5,105-63.85,192.39-64.29,263.91a3.67,3.67,0,0,1,0,1C10.77,1787.46,21,1833.94,35.64,1871.58Z"/><path class="cls-5" d="M35.62,1871.59a.16.16,0,0,1,.07.09,501.27,501.27,0,0,0,67.09,144.22c31.29,46.26,65.51,79.9,92.61,100,154,114.21,324.3,145,460.67,145.81C806.74,2262.61,916,2227,916,2227l-1.68-26.1c-65.12,24.31-146.27,25.51-231.72,6.76-226.5-49.66-483.22-239.13-551.8-507.36-15.14-59.21-14.58-118.25-3.11-174.46,27.54-134.7,118-252.86,206.46-316.35,87.1-62.45,188.66-55.32,192.53-55L492.88,1138c-.91,0-1.84,0-2.8,0-3.27.06-6.55.07-9.95.21-4.68.14-9.45.31-14.34.66a4.11,4.11,0,0,1-.82.09c-4.68.36-9.39.77-14.23,1.32a4.48,4.48,0,0,0-1.14.12c-1.85.24-3.77.39-5.71.66-2.88.33-5.8.73-8.71,1.18-3.11.5-6.26,1-9.46,1.58-2,.32-4.05.72-6.07,1.11-2.58.48-5.19,1.06-7.91,1.62s-5.28,1.14-8,1.8l-2.39.59c-2.7.66-5.41,1.27-8.08,2-3.23.84-6.54,1.81-9.8,2.77-73,21.59-153.76,69.43-225.82,167.15-25.18,34.16-49.29,74.41-71.66,121.76l-4.14,8.84c-.66,1.38-1.23,2.74-1.82,4-1.6,3.62-3.18,7.13-4.74,10.69s-3,7-4.55,10.59c-40.68,96-56.94,180.8-59.76,253.31a3.82,3.82,0,0,1,0,1C10.77,1787.45,21,1834,35.62,1871.59Z"/><g class="cls-4"><path class="cls-2" d="M35.62,1871.59a.16.16,0,0,1,.07.09,501.27,501.27,0,0,0,67.09,144.22c31.29,46.26,65.51,79.9,92.61,100,154,114.21,324.3,145,460.67,145.81l26.51-54,89.34-182S456.91,2153,241,1872.6c-87.77-113.92-113.59-238.73-113.33-346.75.23-82,15.43-154.33,30-204.95-25.18,34.16-49.29,74.41-71.66,121.76l-4.14,8.84c-.66,1.38-1.23,2.74-1.82,4-1.6,3.62-3.18,7.13-4.74,10.69s-3,7-4.55,10.59c-40.68,96-56.94,180.8-59.76,253.31a3.82,3.82,0,0,1,0,1C10.77,1787.45,21,1834,35.62,1871.59Z"/></g><path class="cls-2" d="M662.42,2277.7c-129.27,0-312-26.95-476.58-149-19.47-14.42-57.88-47.08-96.29-103.85h0a516.11,516.11,0,0,1-69.21-148.63l-.06-.19c-36-126.88-24-263.27,35.74-405.49,1.52-3.61,3-7.18,4.59-10.74l10.89-23.95c75.14-159.26,178.58-259.32,307.47-297.47,3.47-1,6.93-2,10.36-2.91,2.47-.71,5.43-1.43,8.34-2.12l2.11-.54c3.09-.74,5.9-1.34,8.65-1.92s5.57-1.19,8.31-1.7c1.87-.39,4.11-.79,6.28-1.17,3.31-.57,6.59-1.13,9.83-1.61,3-.48,6.11-.89,9.24-1.25.9-.13,2.17-.27,3.41-.42l2.1-.25c.46-.07,1.09-.15,1.79-.19,5-.59,9.87-1,14.61-1.32l.65-.07c5.08-.36,10.09-.57,15-.73,2.36-.08,4.67-.11,6.95-.14l4.3-.06c.79,0,1.57,0,2.34,0,1,0,2.45,0,3.91,0h2.25c4.27.07,8.26.2,12.13.38,3,.14,6,.29,9,.51,2.68.14,5.56.35,8.47.61a67.25,67.25,0,0,1,28.73,9.26,66.11,66.11,0,0,1,8,5.64,67.09,67.09,0,0,1,23.67,40.77,61.94,61.94,0,0,1,.86,13.87l0,.79c-.06,1.08-.13,2.19-.25,3.27a57.46,57.46,0,0,1-2.33,11.67,66.28,66.28,0,0,1-6.59,15.17c-5.52,9.23-10.87,18.68-16,28.2-.2.38-.42.75-.65,1.11-2,3.7-4,7.55-6.06,11.46-1.09,2.09-2.18,4.17-3.25,6.31s-2,3.85-2.85,5.72c-.09.18-.18.36-.28.54-1.58,3-3.09,6.15-4.62,9.3l-.71,1.46c-.14.35-.29.69-.46,1q-4.46,9.21-8.81,18.76l-.47,1.06c-1.75,3.94-3.53,7.94-5.29,12q-4.32,9.9-8.45,20.12c-4.15,10.31-7.66,19.48-10.75,28l-.46,1.3c-.69,1.9-1.39,3.85-2.06,5.79-2.57,7.34-5,14.63-7.41,22-3.08,9.71-6,19.78-8.75,29.89-1.4,5.08-2.7,10.09-3.93,15.15-26.7,108.9-20,201.38,19.85,274.92,117.11,216.1,395.29,297.32,398.08,298.12a16,16,0,0,1,11.6,14.36L931.92,2226a16,16,0,0,1-11,16.23c-4.14,1.35-103,33.08-243.44,35.35C672.55,2277.66,667.52,2277.7,662.42,2277.7ZM51,1867l.09.3a484.3,484.3,0,0,0,65,139.61h0c35.75,52.83,71,82.87,88.85,96.08,163.5,121.24,346.32,144.46,471,142.58,108.62-1.64,193.21-22.06,223.26-30.34l-11-171.65c-54.79-17.56-295.07-104.55-406.58-310.32-43.78-80.75-51.45-180.92-22.81-297.75,1.3-5.34,2.68-10.68,4.14-16,2.82-10.47,5.9-21,9.15-31.22,2.47-7.7,5-15.25,7.66-22.77.69-2,1.44-4.1,2.18-6.15l.47-1.31c3.22-8.9,6.87-18.41,11.16-29.08,2.86-7.1,5.81-14.09,8.8-21,1.8-4.12,3.61-8.19,5.39-12.2l.53-1.18c2.9-6.38,5.79-12.54,8.71-18.59.14-.37.31-.73.48-1.09l1.18-2.42c1.63-3.36,3.24-6.68,4.93-9.91,1-2.15,2.07-4.23,3.13-6.26s2.19-4.29,3.37-6.54c2.31-4.43,4.58-8.78,6.85-12.93.17-.31.34-.6.52-.89,5.19-9.63,10.62-19.19,16.14-28.44a33.8,33.8,0,0,0,3.4-7.8c.05-.17.1-.35.16-.53a27.08,27.08,0,0,0,1.08-5.58c.08-.73.09-1.18.12-1.62l0-.81a29.69,29.69,0,0,0-.43-6.58,35.3,35.3,0,0,0-12.49-21.61,37.29,37.29,0,0,0-4.28-3,35.31,35.31,0,0,0-15-4.76c-2.55-.23-5-.41-7.63-.55-3-.22-5.71-.34-8.43-.47-3.52-.16-7.17-.29-10.86-.35H497l-10.08.09c-2,0-4.13,0-6.27.12-4.4.15-8.89.33-13.45.65l-1,.09c-4.56.28-9.05.69-13.6,1.24l-.84.08-.18,0-2.43.29c-1,.12-2.06.24-3.11.38-3,.35-5.68.7-8.36,1.13-3.14.46-6.15,1-9.22,1.51-1.85.32-3.72.65-5.57,1-2.78.52-5.27,1.05-7.81,1.59s-5.1,1.09-7.64,1.69l-2.12.55c-2.73.64-5.21,1.24-7.66,1.94-3.5.9-6.57,1.8-9.64,2.71-119.76,35.44-216.51,129.78-287.57,280.37l-10.55,23.21C88.5,1476,87,1479.43,85.53,1483,28.69,1618.24,17.07,1747.46,51,1867Zm399.76-710.74h0Zm0,0h0Z"/><g class="cls-4"><path class="cls-2" d="M2114.54,2064.4,2050.1,2420a121,121,0,0,1-119.76,104.12h-94.68a120.94,120.94,0,0,1-120.92-120.92v-64.68l.64.24c30.64,10.72,86.6,38.6,100,101.48a52.62,52.62,0,0,1,.88,5.32,123.56,123.56,0,0,0,19.36,1.52h94.68A121,121,0,0,0,2050.1,2343l64.44-355.64a486.18,486.18,0,0,0,6.28-48.36A486,486,0,0,1,2114.54,2064.4Z"/></g><g class="cls-4"><path class="cls-2" d="M1900.42,2033.48v2.68c0,120.2-104.8,224.8-185.68,283.16V1870.16h91.12c26.4,13.36,53.6,34.44,70.6,67.52C1893.22,1970.28,1900.42,2002.4,1900.42,2033.48Z"/></g><path class="cls-12" d="M1615.1,2332.92s.92.16,2.6.56c16,3.8,100.8,27.44,117.72,106.8,8.28,39-18.8,64.2-61.88,77H726.14l2.36,7.88c-42.92,4.32-85.24,1.92-118.16-7.88-43.08-12.8-70.16-38-61.88-77,8.48-39.48,34-65.56,59.6-82.28a208.94,208.94,0,0,1,59.2-26,642.91,642.91,0,0,1-60.2-45.76c-53.36-45.68-107.64-107.48-131.32-177.88-17.68-52.72-18.24-110.24,11.68-169.4,26.8-53,79-75.68,113.52-85.12,19.76-5.4,33.64-6.48,33.64-6.48l.72,6.48H1648.58l.68-6.48a199.68,199.68,0,0,1,33.64,6.48c5.44,1.48,11.24,3.28,17.32,5.44,32.88,11.6,73.6,34.36,96.24,78.44,16.76,32.6,24,64.72,24,95.8v2.68C1820.42,2166.36,1697.42,2278.28,1615.1,2332.92Z"/><path class="cls-12" d="M640.9,2340.88c2.4,1.44,4.8,2.84,7.16,4.2a238.75,238.75,0,0,0-39.68,12.72A197.78,197.78,0,0,1,640.9,2340.88Z"/><g class="cls-4"><path class="cls-5" d="M1820.42,2033.48v2.68c0,2.4,0,4.76-.12,7.12a175.38,175.38,0,0,0-19-43.6c-23.12-38.64-64.68-58.56-98.28-68.72-6.2-1.92-12.12-3.48-17.68-4.76a230.61,230.61,0,0,0-34.36-5.68l-12.43.27L637.47,1918.5l-22.81,2a231.46,231.46,0,0,0-34.36,5.68c-33.88,7.92-84.64,26.64-112.76,69.52a220.6,220.6,0,0,1,19.88-56.8c26.8-53,79-75.68,113.52-85.12,19.76-5.4,33.64-6.48,33.64-6.48l.72,6.48H1648.58l.68-6.48a199.68,199.68,0,0,1,33.64,6.48c5.44,1.48,11.24,3.28,17.32,5.44,32.88,11.6,73.6,34.36,96.24,78.44C1813.22,1970.28,1820.42,2002.4,1820.42,2033.48Z"/></g><g class="cls-4"><path class="cls-2" d="M726.14,2517.28l2.36,7.88c-42.92,4.32-85.24,1.92-118.16-7.88-43.08-12.8-70.16-38-61.88-77,8.48-39.48,34-65.56,59.6-82.28a208.94,208.94,0,0,1,59.2-26,642.91,642.91,0,0,1-60.2-45.76c-53.36-45.68-107.64-107.48-131.32-177.88C521,2160,626.14,2251.76,817.22,2261.68c267.84,13.92,269.68-121.2,269.68-121.2l56.76,376.8Z"/></g><g class="cls-4"><path class="cls-2" d="M1554.58,2517.28l-2.36,7.88c42.92,4.32,85.24,1.92,118.16-7.88,43.08-12.8,70.16-38,61.88-77-8.48-39.48-34-65.56-59.6-82.28a208.94,208.94,0,0,0-59.2-26,642.91,642.91,0,0,0,60.2-45.76c53.36-45.68,107.64-107.48,131.32-177.88-45.24,51.72-150.4,143.44-341.48,153.36-267.84,13.92-269.68-121.2-269.68-121.2l-56.76,376.8Z"/></g><path class="cls-5" d="M1673.54,2517.28H1387.9c-45.64-67.8-124.59-230.72,23.68-186,140,42.19,169.24,12.56,206.12,2.24,16,3.8,100.8,27.44,117.72,106.8C1743.7,2479.24,1716.62,2504.48,1673.54,2517.28Z"/><path class="cls-5" d="M610.34,2517.28H896c45.64-67.8,124.59-230.72-23.68-186-140,42.19-169.24,12.56-206.12,2.24-16,3.8-100.8,27.44-117.72,106.8C540.18,2479.24,567.26,2504.48,610.34,2517.28Z"/><g class="cls-4"><path class="cls-2" d="M1673.54,2517.28H1387.9c-45.64-67.8-124.59-230.72,23.68-186,140,42.19,169.24,12.56,206.12,2.24,16,3.8,100.8,27.44,117.72,106.8C1743.7,2479.24,1716.62,2504.48,1673.54,2517.28Z"/></g><g class="cls-4"><path class="cls-2" d="M610.34,2517.28H896c45.64-67.8,124.59-230.72-23.68-186-140,42.19-169.24,12.56-206.12,2.24-16,3.8-100.8,27.44-117.72,106.8C540.18,2479.24,567.26,2504.48,610.34,2517.28Z"/></g><path class="cls-2" d="M689.09,2543.15c-54.4,0-111.59-11.22-140.25-43.19-15.57-17.37-21.11-39.16-16-63,20.63-96.67,125.4-120.49,129.85-121.45a16,16,0,0,1,6.82,31.26c-1.18.27-89.13,20.73-105.37,96.86-3,13.84-.16,25.29,8.55,35,22.75,25.38,84.72,37.69,154.21,30.64a16,16,0,0,1,3.23,31.83A406.36,406.36,0,0,1,689.09,2543.15Z"/><path class="cls-2" d="M690.9,2362.87a16,16,0,0,1-8.16-2.25c-121.81-72.33-303-244.06-209.61-428.9,45.7-90.41,155.55-100,160.2-100.36a16,16,0,0,1,2.52,31.9c-1.56.14-96.8,9-134.16,82.9-103.68,205.11,185.05,379.62,197.39,387a16,16,0,0,1-8.18,29.76Z"/><path class="cls-2" d="M1593,2362.87a16,16,0,0,1-8.19-29.76c12.35-7.33,301.08-181.84,197.39-387-37.48-74.15-133.2-82.82-134.16-82.9a16,16,0,0,1,2.52-31.9c4.65.37,114.5,10,160.2,100.36,93.44,184.84-87.79,356.57-209.61,428.9A15.92,15.92,0,0,1,1593,2362.87Z"/><path class="cls-2" d="M1594.78,2543.15a406.36,406.36,0,0,1-41-2.08,16,16,0,0,1,3.23-31.83c69.48,7,131.46-5.26,154.21-30.64,8.71-9.71,11.51-21.16,8.56-35-16.27-76.24-104.64-96.54-105.53-96.74a16,16,0,0,1,6.78-31.27c4.46,1,109.41,24.65,130,121.34,5.09,23.87-.45,45.66-16,63C1706.37,2531.93,1649.18,2543.15,1594.78,2543.15Z"/><path class="cls-2" d="M855.39,2591.05c-48.94,0-95.58-14.82-116.12-32.11-53.26-44.85-28.89-105.38,2-158.68,37.45-64.67-23.73-240.22-101.18-462.47a16,16,0,1,1,30.22-10.53c91.62,262.91,141.38,415.25,98.66,489-40.63,70.17-33,98-9,118.16,16.78,14.14,70.29,30.34,123.13,22.66,26.5-3.85,62.77-15.55,85.12-49.47,38.28-58.13,45.54-185.38,18.93-332.1a16,16,0,1,1,31.48-5.71c28.45,156.84,19.59,289.7-23.69,355.41-22.86,34.7-59.94,56.67-107.24,63.54A224.93,224.93,0,0,1,855.39,2591.05Z"/><g class="cls-4"><path class="cls-2" d="M2091.22,1099.8l-40.26,119c-1,1.75-2.61,4.49-3.62,6.25L1846.5,1452.22a26.81,26.81,0,0,1-37.85,2.33l-51-45.11-85.28,82.84c-1.84,1.8-3.72,3.56-5.6,5.24A597.87,597.87,0,0,0,1706.1,1677c19.12,49,30.76,108.72,21.92,176.76-.72,5.4-1.52,10.84-2.56,16.36H1279.7l33.48-400.56,47.48-316.44L1396.1,917l304.64-7.72,13.12,5.72,5,2.16c2.68,40.48,2.56,91.12-.92,146.84l64.6-73.08A175.48,175.48,0,0,1,1818,960.28c65-42.48,153.2-38.4,214,15.32A175.43,175.43,0,0,1,2088.86,1078,173.13,173.13,0,0,1,2091.22,1099.8Z"/></g><path class="cls-12" d="M1648,1853.8a393.65,393.65,0,0,1-18.84,78.72c-84.32,242-140.24,406.08-99.92,475.76,28.32,48.92,36.76,82.92,27.2,109-4,11.08-11.32,20.68-21.72,29.44-29.88,25.16-137.24,48.64-203.16,0a.55.55,0,0,0-.16-.12,6.3,6.3,0,0,1-.6-.48c-.28-.2-.6-.48-1-.8a116.88,116.88,0,0,1-26.44-28.08c-.2-.28-.36-.56-.56-.84a139.66,139.66,0,0,1-7.44-12.72s0,0,0-.08c-26.16-50-33.72-128.36-28.32-213.76v0a1017.12,1017.12,0,0,1,14.52-117.16H1002.82c5.4,29.68,9.56,59.64,12.32,89v.08c4.2,44.92,5.12,88.6,1.92,128-3.6,43.72-12.2,82.2-26.88,111.48a145.45,145.45,0,0,1-8.68,15.16c-.2.28-.36.56-.56.84-57.44,85.64-196.64,58.68-231.36,29.44-10.36-8.76-17.64-18.36-21.68-29.44-9.6-26.08-1.16-60.08,27.2-109a75.53,75.53,0,0,0,4.52-9.2c31.08-74.28-23.64-234.64-104.44-466.56a401.29,401.29,0,0,1-19-78.72,385.43,385.43,0,0,1-3.44-64c2.24-76.08,53.2-156.12,45.6-215-8.8-68.2-129.24-238.92-192.08-341-10.12-16.44-18.36-31.24-24.92-44a276.72,276.72,0,0,1-30-102.48c-13.36-155,48.44-324.28,69.24-477.56,2.56-19,3.32-38.08,3.56-57.24s0-38.32.52-57.48C508.82,348.4,539.58,301.76,582,292.76c42-8.92,102.16,93.32,161.36,192.48,15.6,26.12,34.16,14.72,97.16-14.48,58.32-27,135.32-39.48,187.32-42.32,30-1.64,78.6,8.92,82-21.52,13.4-119.64,26.48-241.08,69.24-250.16,43.52-9.24,99.68,43.72,156.44,165.32l33.72,83.24q4.44,11,9.84,21.68l42.8,84.68c59.2,117.2,190.16,240.76,210.88,352.92,15.68,84.8,9.64,277.2-31,452.48-27.76,119.8-20.28,245.36,24.32,360C1645.22,1726,1656.86,1785.76,1648,1853.8Z"/><path class="cls-12" d="M1648,1853.8a393.65,393.65,0,0,1-18.84,78.72c-84.32,242-140.24,406.08-99.92,475.76,28.32,48.92,36.76,82.92,27.2,109-4,11.08-11.32,20.68-21.72,29.44-29.88,25.16-137.24,48.64-203.16,0a.55.55,0,0,0-.16-.12,6.3,6.3,0,0,1-.6-.48c-.28-.2-.6-.48-1-.8a116.88,116.88,0,0,1-26.44-28.08c-.2-.28-.36-.56-.56-.84a139.66,139.66,0,0,1-7.44-12.72s0,0,0-.08c-26.16-50-33.72-128.36-28.32-213.76v0a1017.12,1017.12,0,0,1,14.52-117.16H1002.82c5.4,29.68,9.56,59.64,12.32,89v.08c4.2,44.92,5.12,88.6,1.92,128-3.6,43.72-12.2,82.2-26.88,111.48a145.45,145.45,0,0,1-8.68,15.16c-.2.28-.36.56-.56.84-57.44,85.64-196.64,58.68-231.36,29.44-10.36-8.76-17.64-18.36-21.68-29.44-9.6-26.08-1.16-60.08,27.2-109a75.53,75.53,0,0,0,4.52-9.2c31.08-74.28-23.64-234.64-104.44-466.56a401.29,401.29,0,0,1-19-78.72,385.43,385.43,0,0,1-3.44-64c1.56-53.28,27-108.52,39.52-157.08,3.8-14.56,6.36-28.48,6.76-41.56a100.28,100.28,0,0,0-.68-16.36C671,1518,586.42,1390.32,522,1290.24c-13-20.2-25.16-39.28-35.72-56.4-.52-.88-1.08-1.72-1.6-2.6-9.4-15.4-17.12-29.32-23.32-41.4a276.72,276.72,0,0,1-30-102.48c-13.36-155,48.44-324.28,69.24-477.56,2.56-19,3.32-38.08,3.56-57.24s0-38.32.52-57.48C508.82,348.4,539.58,301.76,582,292.76c42-8.92,102.16,93.32,161.36,192.48,15.6,26.12,34.16,14.72,97.16-14.48,58.32-27,135.32-39.48,187.32-42.32,30-1.64,78.6,8.92,82-21.52,13.4-119.64,26.48-241.08,69.24-250.16,43.52-9.24,99.68,43.72,156.44,165.32l33.72,83.24q4.44,11,9.84,21.68l42.8,84.68c59.2,117.2,190.16,240.76,210.88,352.92,6.76,36.6,9.48,93.28,7.12,160v.12c-.64,18.56-1.68,37.92-3.16,57.84-2.48,33.4-6.12,68.36-11.08,103.92-2.24,16.52-4.84,33.16-7.68,49.8-4.64,27-10,54.12-16.2,80.8a624.29,624.29,0,0,0-13.2,203.16v.08c.24,2.2.44,4.44.72,6.64A596.47,596.47,0,0,0,1626.1,1677C1645.22,1726,1656.86,1785.76,1648,1853.8Z"/><g class="cls-4"><path class="cls-2" d="M908.42,1455.36c-35,48.88-77.56,124.48-84.84,211a1309.68,1309.68,0,0,1-151.32-29.88c4.56-16,7.36-31.24,6.76-45.32a100.28,100.28,0,0,0-.68-16.36C671,1518,586.42,1390.32,522,1290.24a475.18,475.18,0,0,0,53.24,22.92c77,73.28,190.8,134.08,308.12,141Q896,1454.94,908.42,1455.36Z"/></g><g class="cls-4"><path class="cls-2" d="M1378.58,1329.68a823.55,823.55,0,0,1-114.72,53.52c37,48.4,79.24,105.16,120.52,164a166.41,166.41,0,0,1,25.84,56.8c-147.64,54.2-350.08,96.44-586.64,61.4,7.28-93.6,49.8-175.4,84.84-228.28q-12.42-.42-25.08-1.28c-117.32-7.48-231.12-73.28-308.12-152.56,85,33.36,223.52,62.64,440.6,49.72,26.28-1.6,53.68-3.76,82.28-6.64a854.49,854.49,0,0,0,107.76-17.68c157.84-36.44,274.48-112.92,358.8-194.8C1528.22,1199.08,1464.86,1281.12,1378.58,1329.68Z"/></g><g class="cls-4"><path class="cls-2" d="M1015.14,2261.8c4.2,44.92,5.12,88.6,1.92,128-3.6,43.72-12.2,82.2-26.88,111.48a145.45,145.45,0,0,1-8.68,15.16c-.2.28-.36.56-.56.84-57.44,85.64-196.64,58.68-231.36,29.44-10.36-8.76-17.64-18.36-21.68-29.44-9.6-26.08-1.16-60.08,27.2-109a75.53,75.53,0,0,0,4.52-9.2c6.44-15.4,9.2-34.52,8.76-57.2,51.24,23.2,162.72,33.68,212.56-40.64.2-.28.36-.56.56-.84a145.45,145.45,0,0,0,8.68-15.16c9-18,15.72-39.36,20.4-63.36q2.7,20,4.56,39.84Z"/></g><g class="cls-4"><path class="cls-2" d="M1529.26,2408.28c28.32,48.92,36.76,82.92,27.2,109-4,11.08-11.32,20.68-21.72,29.44-29.88,25.16-137.24,48.64-203.16,0a.55.55,0,0,0-.16-.12,6.3,6.3,0,0,1-.6-.48c-.28-.2-.6-.48-1-.8a116.88,116.88,0,0,1-26.44-28.08c-.2-.28-.36-.56-.56-.84a139.66,139.66,0,0,1-7.44-12.72s0,0,0-.08c-26.16-50-33.72-128.36-28.32-213.76v0c1.4-22.24,3.68-45,6.76-67.8,4.84,25,12,47.16,21.56,65.56,0,0,0,0,0,.08a139.66,139.66,0,0,0,7.44,12.72c.2.28.36.56.56.84a116.88,116.88,0,0,0,26.44,28.08c.4.32.72.6,1,.8a6.3,6.3,0,0,0,.6.48.55.55,0,0,1,.16.12c55.84,41.16,141.36,30.64,184.4,11.12C1515.42,2369.32,1519.58,2391.52,1529.26,2408.28Z"/></g><path class="cls-12" d="M1002.82,2172.68h14.32c0,.36,0,.72-.08,1.08a438.69,438.69,0,0,1-6.48,48.12C1008.38,2205.48,1005.78,2189,1002.82,2172.68Z"/><path class="cls-12" d="M1267.18,2172.68h14.36c-3,16.4-5.6,32.92-7.76,49.36A441,441,0,0,1,1267.18,2172.68Z"/><path class="cls-5" d="M959.69,2388.11c34.06,5.7,55.79,39.79,46.33,73a225.87,225.87,0,0,1-15.84,40.16,145.45,145.45,0,0,1-8.68,15.16c-.2.28-.36.56-.56.84-57.44,85.64-196.64,58.68-231.36,29.44-10.36-8.76-17.53-18.41-21.68-29.44-9.83-26.13,7.33-69.15,20-95.48a58.41,58.41,0,0,1,39.17-31.41c16.59-4,36.85-6.87,61.33-7.79C898.5,2380.71,933.45,2383.71,959.69,2388.11Z"/><path class="cls-5" d="M1325.78,2388.11c-34.06,5.7-55.79,39.79-46.33,73a225.87,225.87,0,0,0,15.84,40.16,145.45,145.45,0,0,0,8.68,15.16c.2.28.36.56.56.84,57.44,85.64,196.64,58.68,231.36,29.44,10.36-8.76,17.53-18.41,21.68-29.44,9.83-26.13-7.33-69.15-20-95.48a58.41,58.41,0,0,0-39.17-31.41c-16.59-4-36.85-6.87-61.33-7.79C1387,2380.71,1352,2383.71,1325.78,2388.11Z"/><g class="cls-4"><path class="cls-2" d="M959.69,2388.11c34.06,5.7,55.79,39.79,46.33,73a225.87,225.87,0,0,1-15.84,40.16,145.45,145.45,0,0,1-8.68,15.16c-.2.28-.36.56-.56.84-57.44,85.64-196.64,58.68-231.36,29.44-10.36-8.76-17.53-18.41-21.68-29.44-9.83-26.13,7.33-69.15,20-95.48a58.41,58.41,0,0,1,39.17-31.41c16.59-4,36.85-6.87,61.33-7.79C898.5,2380.71,933.45,2383.71,959.69,2388.11Z"/></g><g class="cls-4"><path class="cls-2" d="M1325.78,2388.11c-34.06,5.7-55.79,39.79-46.33,73a225.87,225.87,0,0,0,15.84,40.16,145.45,145.45,0,0,0,8.68,15.16c.2.28.36.56.56.84,57.44,85.64,196.64,58.68,231.36,29.44,10.36-8.76,17.53-18.41,21.68-29.44,9.83-26.13-7.33-69.15-20-95.48a58.41,58.41,0,0,0-39.17-31.41c-16.59-4-36.85-6.87-61.33-7.79C1387,2380.71,1352,2383.71,1325.78,2388.11Z"/></g><path class="cls-2" d="M1429,2591.05a224.79,224.79,0,0,1-32.22-2.26c-47.32-6.86-84.42-28.84-107.29-63.55-43.26-65.68-52.11-198.54-23.66-355.42a16,16,0,1,1,31.48,5.71c-26.61,146.76-19.37,274,18.9,332.1,22.36,33.94,58.65,45.65,85.16,49.5,52.85,7.66,106.33-8.53,123.09-22.65,24-20.19,31.59-48-9-118.19-42.7-73.79,7-226.13,98.66-489,28.94-83,28-165.25-2.88-244.4a611.26,611.26,0,0,1-34.35-128.21c-12.37-79.9-9.22-161.05,9.35-241.18,6.38-27.54,12.11-56.39,17-85.74,26.24-157,25.57-296.77,13.85-360.21-11.83-64-64.28-135.63-115-204.87-34.58-47.22-70.34-96-94.44-143.75l-42.8-84.68c-3.74-7.35-7.25-15.08-10.41-22.92l-33.54-82.82c-58.13-124.4-109.63-162.16-138.45-156.06-5.45,1.15-19.57,10.27-33,69.78-10.06,44.69-16.75,104.38-23.21,162.11l-.49,4.4c-4.32,38.23-47.43,36.81-75.92,35.87-7.73-.25-15-.49-21.15-.16-51.09,2.79-125.59,15-181.47,40.87l-13.5,6.28c-53.06,24.79-82.29,38.43-104.12,1.88l-3.33-5.58c-44.16-74-110.86-185.83-141-179.45-25.63,5.44-60.22,30.75-64.61,187.11-.34,11.65-.36,23.59-.39,35.13,0,7.37,0,14.74-.12,22.11-.21,16.28-.82,37.72-3.71,59.17C509.26,665.06,497,721,485.13,775.05,462.32,879,438.74,986.47,447.32,1086a259.41,259.41,0,0,0,28.24,96.53c7.11,13.83,15.29,28.27,24.32,42.94,14.12,22.92,31.21,49.41,49.31,77.45,64.56,100.07,137.74,213.48,145,269.85,4.42,34.28-8.08,72.41-21.32,112.78-11.38,34.72-23.15,70.62-24.16,104.74a380.93,380.93,0,0,0,21.55,137c91.61,262.92,141.36,415.26,98.66,489.05-40.64,70.17-33,98-9.05,118.19,16.78,14.12,70.3,30.32,123.14,22.64,26.49-3.85,62.76-15.56,85.11-49.49,38.28-58.12,45.54-185.37,18.94-332.1a16,16,0,1,1,31.48-5.71c28.44,156.85,19.58,289.71-23.7,355.42-22.86,34.7-59.94,56.67-107.23,63.55-59.49,8.65-123.31-8.76-148.36-29.83-53.26-44.89-28.88-105.42,2-158.7,37.43-64.68-23.74-240.23-101.18-462.48a412.82,412.82,0,0,1-23.33-148.44c1.14-38.76,13.65-76.9,25.74-113.78s23.49-71.62,20-98.71c-6.35-49.2-80.55-164.2-140.17-256.59-18.19-28.2-35.37-54.83-49.66-78-9.46-15.37-18.05-30.53-25.53-45.08a291.12,291.12,0,0,1-31.67-108.4c-9-104.39,15.11-214.28,38.43-320.56,12.27-55.91,23.86-108.72,30.89-160.54,2.65-19.63,3.22-39,3.42-55.3.09-7.25.11-14.51.12-21.77,0-11.75.05-23.91.41-36,3.87-138,31.61-205.13,89.94-217.51,52.4-11.12,109.29,84.1,175.1,194.36l3.33,5.58c5.8,9.71,7,11.73,63.09-14.47l13.6-6.33c60-27.78,139.13-40.83,193.17-43.78,7.53-.41,15.87-.13,24,.13,23,.77,42.13.72,43.06-7.47l.49-4.38c14.91-133.21,27.8-248.27,81.32-259.64,55.36-11.72,115.59,48.5,174.27,174.21.11.25.23.5.33.76l33.72,83.24c2.82,7,5.93,13.87,9.27,20.43l42.82,84.72c22.91,45.36,57.88,93.1,91.69,139.27,52.84,72.14,107.48,146.74,120.64,218,12.22,66.11,13.13,210.5-13.75,371.31-5,30-10.86,59.5-17.4,87.69-17.64,76.13-20.64,153.2-8.89,229.06A578.3,578.3,0,0,0,1641,1671.23c33.69,86.45,34.8,176.14,3.28,266.55-77.44,222.25-138.61,397.8-101.19,462.48,30.84,53.29,55.19,113.82,2,158.69C1524.53,2576.24,1477.9,2591.05,1429,2591.05Z"/><path class="cls-5" d="M1378.56,1329.66c-136.16,76.65-299.1,118.69-495.23,106.18-242.45-15.5-469.72-279.91-388.44-397.52,67.41-97.63,267.51-48.13,333.67-28.44,6.5-59.65,80.09-119.23,179.17-140.25,98.15-20.83,188.92,3.14,219.86,54.06,54.85-46.5,214.37-168.44,314.12-107.49C1663.7,890.68,1590,1210.66,1378.56,1329.66Z"/><path class="cls-5" d="M1267,2289.88c-20.92,104.32,3.68,173.68,28.32,213.76,0,0,0,0,0,.08,3,5,6.12,9.48,9.08,13.56,11.32,15.56,21.4,24.72,25.36,28.08a116.88,116.88,0,0,1-26.44-28.08h-319c2.08-5.64,4-11,5.84-16,25.2-70.36,22.6-89.24,25-239.48v-.08a333.39,333.39,0,0,0-10.44-89c-25.64-100.44-93.16-182-146-318.88-7.56-19.6-14.84-40.4-21.64-62.52-67.28-218.92,119.6-417.08,119.6-417.08l193.48-134.76s120.73,145.88,234.24,307.76c45.54,65,43.71,152.65-19.58,303.43-63.53,151.35-76.9,335-97.78,439.21Z"/><g class="cls-4"><path class="cls-2" d="M1636.74,1082.56l-11.08,103.92c-2.24,16.52-4.84,33.16-7.68,49.8-4.64,27-10,54.12-16.2,80.8a624.29,624.29,0,0,0-13.2,203.16v.08c.24,2.2.44,4.44.72,6.64l-.72,6.36v.08a1233.5,1233.5,0,0,1-178.36,76.2c-3.44,1.2-6.92,2.36-10.4,3.48-7,2.32-14.12,4.64-21.36,6.84-3.64,1.16-7.28,2.28-11,3.36s-7.4,2.24-11.12,3.32q-16.8,4.86-34.36,9.48c-3.92,1-7.84,2-11.8,3q-25.38,6.42-52.28,12c-3,.64-6,1.28-9.08,1.88-3.48.68-7,1.4-10.52,2-6.12,1.2-12.28,2.36-18.56,3.44-3.2.56-6.4,1.16-9.64,1.68q-10.62,1.8-21.4,3.44c-3.72.6-7.48,1.12-11.24,1.64-3.48.52-7,1-10.48,1.48-4.08.56-8.16,1.08-12.32,1.6-8.4,1-16.92,2-25.52,2.92-.76.12-1.52.2-2.32.28-4.08.4-8.2.8-12.32,1.16-3.84.36-7.72.72-11.6,1-2.12.2-4.2.32-6.32.48-8.2.72-16.48,1.28-24.88,1.76-4.08.24-8.16.48-12.28.64-2.68.16-5.36.28-8.08.36-3,.16-6.12.28-9.2.4a.54.54,0,0,1-.36,0c-4.6.16-9.24.32-13.88.4-2.88.12-5.76.16-8.68.16-3.2.08-6.44.12-9.68.16-14.52.2-29.2.08-44.12-.32-3.52-.08-7-.2-10.56-.32s-7.08-.24-10.64-.4-7.12-.28-10.68-.48c-2.16-.08-4.28-.16-6.44-.32s-4.6-.28-6.92-.4c-2.72-.16-5.48-.32-8.2-.52-6.44-.4-12.92-.88-19.4-1.44-8.16-.68-16.36-1.4-24.64-2.28-3.6-.36-7.2-.72-10.84-1.12s-7.4-.84-11.12-1.32q-11.16-1.26-22.44-2.84c7.28-86.52,49.8-162.12,84.84-211q-12.42-.42-25.08-1.2c-117.32-6.92-231.12-67.72-308.12-141,3.48,1.24,7.08,2.52,10.76,3.76,1.4.48,2.84,1,4.32,1.48,3.52,1.16,7.08,2.32,10.76,3.44.8.24,1.56.52,2.36.72,2,.64,4,1.28,6.12,1.88.84.24,1.64.52,2.52.72,2.32.72,4.68,1.36,7.08,2,5.32,1.52,10.84,3,16.48,4.44,2.8.72,5.68,1.44,8.6,2.12q17.46,4.32,36.88,8.08c3.24.64,6.52,1.24,9.84,1.84s6.68,1.24,10.08,1.84c1.72.28,3.44.6,5.16.88l5.2.84c3.48.56,7,1.12,10.64,1.64,2.36.36,4.72.68,7.12,1l8,1.08c7,1,14.24,1.84,21.6,2.72,2.76.32,5.56.6,8.4.92,3.76.4,7.6.8,11.48,1.16,4.2.44,8.44.8,12.72,1.16,4.08.36,8.2.72,12.36,1q10.56.84,21.48,1.44c3.08.24,6.2.36,9.32.52,2.84.2,5.72.32,8.64.44,4.44.24,8.92.4,13.48.6h.16c4.6.2,9.24.32,14,.44,4,.12,8,.24,12.08.28,5.52.12,11.08.2,16.76.24,4.84,0,9.72.08,14.68.08,3.44,0,6.88,0,10.36,0s7,0,10.52-.12c5.2,0,10.48-.16,15.84-.24,4-.08,8-.2,12-.32q25.62-.66,52.84-2.16c15.16-.88,30.72-1.88,46.64-3.12,6.6-.52,13.32-1.08,20.08-1.64,5.16-.44,10.32-.92,15.56-1.4,8.56-.76,17-1.68,25.36-2.68,2.56-.32,5.12-.6,7.64-1,3-.36,5.88-.76,8.76-1.16h0q5.88-.78,11.64-1.68c1.2-.16,2.44-.36,3.64-.56,3.92-.56,7.8-1.2,11.64-1.88s7.76-1.32,11.6-2c.92-.2,1.8-.36,2.72-.52,2.88-.52,5.76-1.08,8.64-1.64,5.4-1.08,10.76-2.16,16.08-3.28q6.6-1.38,13.08-2.88c1.12-.28,2.2-.52,3.28-.8,3.72-.84,7.44-1.72,11.12-2.64,1.4-.4,2.8-.72,4.2-1.08,3.16-.8,6.32-1.6,9.44-2.48,1-.24,2-.52,3.08-.8,4.4-1.16,8.76-2.4,13.08-3.64h0q6.9-2,13.68-4.08c3.84-1.16,7.64-2.36,11.4-3.56,1.56-.48,3.08-1,4.6-1.52,3.6-1.2,7.2-2.36,10.76-3.64,8.76-3,17.4-6.12,25.84-9.4,3.88-1.48,7.72-3,11.48-4.48.52-.24,1-.44,1.6-.64,4-1.64,7.92-3.28,11.84-4.92,3.2-1.36,6.36-2.72,9.48-4.12,2.92-1.24,5.8-2.52,8.68-3.88,2.48-1.12,4.92-2.24,7.36-3.4,3.44-1.6,6.84-3.2,10.2-4.84,7-3.4,13.88-6.84,20.6-10.4q2.88-1.5,5.64-3c4.52-2.4,9-4.84,13.4-7.32s8.88-5,13.24-7.6c2.72-1.6,5.44-3.16,8.12-4.84s5.36-3.2,8-4.92c0,0,.08,0,.08,0,2.64-1.6,5.24-3.24,7.84-4.92q7.86-5,15.4-10.12c2.56-1.68,5-3.4,7.52-5.16s5-3.4,7.4-5.16c4.88-3.44,9.72-7,14.44-10.52,2.36-1.72,4.68-3.48,7-5.28s4.64-3.56,6.92-5.36,4.56-3.56,6.8-5.36c4.32-3.44,8.52-6.92,12.68-10.4,6.68-5.56,13.16-11.24,19.48-16.88A771,771,0,0,0,1636.74,1082.56Z"/></g><g class="cls-4"><path class="cls-2" d="M701,1345.5c6.84,1.18,13.8,2.29,21,3.36Q711.22,1347.26,701,1345.5Z"/></g><g class="cls-4"><path class="cls-2" d="M1329.82,2545.36a116.88,116.88,0,0,1-26.44-28.08h-319c2.08-5.64,4-11,5.84-16,25-69.92,50.08-121.13,14-320.66h0c78.89,74.51,202.88,72.27,279-5l2.84-2.88c-1.56,8.88-17.47,109.15-19.07,117.15v0c-20.92,104.32,3.68,173.68,28.32,213.76,0,0,0,0,0,.08,3,5,6.12,9.48,9.08,13.56C1315.78,2532.84,1325.86,2542,1329.82,2545.36Z"/></g><ellipse class="cls-5" cx="755.52" cy="645.58" rx="40.61" ry="78.02" transform="translate(4.94 1296.9) rotate(-81.46)"/><ellipse class="cls-5" cx="1150.23" cy="561.83" rx="78.02" ry="40.61" transform="translate(-127.53 639.43) rotate(-29.51)"/><path class="cls-2" d="M1271,709.39a139.32,139.32,0,0,0-32.64,14.41,92.11,92.11,0,0,0-25.25,22.33,80.48,80.48,0,0,0-14.14,29,85,85,0,0,0-2.58,15.88,78.28,78.28,0,0,0-.16,7.94c0,1.3.11,2.59.22,3.82l.18,1.79a6.49,6.49,0,0,0,.21,1.18l-29.5-11.8h0c5.37-3.92,9.9-6.7,14.94-9.72s10-5.64,15.07-8.18a217.26,217.26,0,0,1,31.78-12.94,158.9,158.9,0,0,1,34-6.86,112.59,112.59,0,0,1,35,2.4,9.23,9.23,0,0,1-3,18.18l-.23,0a92.31,92.31,0,0,0-28.57,2,133.75,133.75,0,0,0-27.53,9.68,187.22,187.22,0,0,0-25.66,14.85c-4.09,2.8-8.09,5.75-12,8.82s-7.85,6.45-10.72,9.27h0l-5.33,2.49a17,17,0,0,1-22.62-8.24,17.44,17.44,0,0,1-1.55-6.06c-.12-1.7-.1-2.46-.1-3.58l.08-3c.08-2,.22-3.84.41-5.72.39-3.75.9-7.44,1.64-11.07a116.88,116.88,0,0,1,6.28-21.2,109.32,109.32,0,0,1,23.9-36.59,116.73,116.73,0,0,1,34.92-24,159.4,159.4,0,0,1,38.9-11.74,8.54,8.54,0,0,1,4,16.59Z"/><path class="cls-2" d="M666.92,847.86a177.89,177.89,0,0,1,42.21-15.26,130.41,130.41,0,0,1,46.55-2.05,121.21,121.21,0,0,1,45.18,16,128.6,128.6,0,0,1,19.6,14.32c3.06,2.69,6,5.56,8.8,8.58,1.41,1.51,2.79,3.07,4.15,4.71l2,2.54c.73,1,1.26,1.63,2.26,3.14a17.35,17.35,0,0,1-12.13,26.77l-4.18.54h0c-4.63-.54-10.6-.8-16-.89s-11.13,0-16.7.34A217.34,217.34,0,0,0,755.63,911a154.08,154.08,0,0,0-31.27,10.15,104.3,104.3,0,0,0-27,17.67l-.15.14a9.23,9.23,0,0,1-13.26-12.8A124.73,124.73,0,0,1,713.46,901a178.77,178.77,0,0,1,34.7-16.27,245,245,0,0,1,36.73-9.51q9.32-1.68,18.76-2.72c6.45-.67,12.35-1.21,19.59-1.31h0l-16.31,27.31a9.55,9.55,0,0,0-.7-1.28l-1.09-1.74c-.77-1.19-1.61-2.39-2.49-3.58-1.77-2.37-3.65-4.73-5.69-7a96.24,96.24,0,0,0-13.4-12.34,92.09,92.09,0,0,0-32.91-16,106.28,106.28,0,0,0-38-2.5,159.06,159.06,0,0,0-38.9,9.38h0a8.54,8.54,0,0,1-6.81-15.63Z"/><path class="cls-5" d="M699.3,534.72S605,569.53,557.55,631.09c0,0-19-250.87,23.22-263.68S699.3,534.72,699.3,534.72Z"/><path class="cls-5" d="M1157.64,437.46S1258,431,1326.32,468c0,0-84.55-236.95-128.3-231.53S1157.64,437.46,1157.64,437.46Z"/><g class="cls-4"><path class="cls-2" d="M1238.49,1020.13s.68,79.44-65.71,109.43-106.67-18-106.67-18-15.93,60.59-88.76,61.83-108-70.47-108-70.47"/></g><path class="cls-13" d="M1143.42,1068.37c18.75,83.58-3.14,159.65-48.89,169.91s-98-49.17-116.78-132.75"/><g class="cls-4"><path class="cls-2" d="M1143.43,1068.36c18.75,83.61-3.14,159.64-48.92,169.91s-98-49.15-116.75-132.75l2.87-.64c23.91,62.3,66.8,102.56,105,94s59.89-63.3,54.89-129.85Z"/></g><path class="cls-2" d="M1081.12,1251.76c-47,0-92.87-44.59-106.95-107.36a12,12,0,0,1,23.42-5.25c12.79,57,55.13,96.22,94.31,87.42s60.73-62.32,47.95-119.33a12,12,0,0,1,23.41-5.25c15.68,69.92-14,136.31-66.1,148A72.86,72.86,0,0,1,1081.12,1251.76Z"/><path class="cls-5" d="M1222.82,977.35a195.1,195.1,0,0,1-3.15,23.49c-8.52,44.62-39.36,132.64-147.22,78.51a20.18,20.18,0,0,0-8.64-.55c-6.88.87-16.67,5.25-24.9,20.78-14.29,27.13-155.36,47.11-167.41-43.43L1039,1020l32.7-7,37.72-8.88Z"/><g class="cls-4"><path class="cls-2" d="M1219.67,1000.84c-8.52,44.62-39.36,132.64-147.22,78.51a20.18,20.18,0,0,0-8.64-.55c-14-19.89-21.35-43.77-24.85-58.82-2-8.93-2.8-14.74-2.8-14.74l77.55-50.41s-20.76,27.27-19.56,51.38c1.23,25.2,25,47.2,54.95,40.49A120.58,120.58,0,0,0,1219.67,1000.84Z"/></g><g class="cls-4"><path class="cls-2" d="M883.33,1076.28c26.76,36.7,92.24,103.12,166.65,8.1a20.43,20.43,0,0,1,7.57-4.18c4.18-24,.62-48.69-2.64-63.8-2-8.95-3.77-14.52-3.77-14.52l-91.65-12.46s30.41,15.79,39.63,38.11c9.65,23.31-2.48,53.36-32.39,60.07A120.56,120.56,0,0,1,883.33,1076.28Z"/></g><path class="cls-2" d="M1160.64,919.74c8,35.75-81,103.62-109.48,110-29.42,6.6-138-17-146-52.71s17.81-72,113.22-93.36C1111.18,862.86,1152.62,884,1160.64,919.74Z"/><g class="cls-14"><path class="cls-5" d="M1078.42,918.42c1.25,5.57-35.79,21.36-46.89,23.84-11.45,2.57-51.32,4-52.58-1.53s10.33-12.92,47.47-21.25C1062.55,911.37,1077.17,912.84,1078.42,918.42Z"/></g><path class="cls-2" d="M1233.88,986.82c5.95,11.13,5.63,22.56,3.26,33.42S1230,1041.53,1224,1051a145,145,0,0,1-21.32,26.22c-4.35,3.59-8.39,7.62-13.21,10.56l-7,4.72-7.42,3.91c-9.86,5.32-20.45,8.78-31.45,11.49-11.17,2.07-22.72,3-34.24,1.57a101.64,101.64,0,0,1-32.86-10.25,106.88,106.88,0,0,1-14.6-9c-2.26-1.79-4.55-3.5-6.7-5.48a70.25,70.25,0,0,1-6.61-6.58l20.79-4.66a69.88,69.88,0,0,1-3.17,8.77c-1.1,2.7-2.43,5.24-3.71,7.81a105.72,105.72,0,0,1-9.35,14.41,101.58,101.58,0,0,1-25.33,23.31c-9.79,6.24-20.65,10.31-31.63,13.2-11.1,2.24-22.16,3.64-33.35,3l-8.38-.37-8.35-1.28c-5.61-.6-11-2.52-16.45-3.91-10.64-3.74-21.07-8.42-30.25-14.92-2.42-1.44-4.5-3.33-6.75-5l-3.32-2.58-3.11-2.79c-4.2-3.66-8.42-7.31-12.32-11.3a47.08,47.08,0,0,1-9.3-13.85,29.24,29.24,0,0,1-2.26-8.35,26.06,26.06,0,0,1,.49-9.64,5,5,0,0,1,6.66-3.55l.62.23c11.76,4.39,17.21,11.19,23.07,18.3,2.84,3.55,5.61,7.29,9.07,10.27a47.38,47.38,0,0,0,5.22,4.39,66.43,66.43,0,0,0,5.47,4c7.39,5.27,15.68,8.88,24.1,11.91,4.36,1,8.58,2.67,13.1,3.09l6.67,1,6.81.27c9.08.54,18.3-.71,27-2.41,8.58-2.33,16.9-5.41,24.27-10.1a77.51,77.51,0,0,0,19.18-17.68,81.53,81.53,0,0,0,7.19-11.06c1-2,2-3.92,2.81-5.92a53,53,0,0,0,2.05-5.49,12.34,12.34,0,0,1,15.49-8,12.49,12.49,0,0,1,5.31,3.36,52.46,52.46,0,0,0,4.2,4.09c1.58,1.47,3.36,2.78,5.07,4.16a83.09,83.09,0,0,0,11.23,6.93,77.33,77.33,0,0,0,24.89,7.78c8.67,1.11,17.5.33,26.26-1.23,8.63-2.19,17.5-5,25.48-9.36l6-3.15,5.59-3.8c3.91-2.31,7-5.59,10.53-8.38,6.3-6.34,12.37-13.11,16.35-21.27s7.22-16.5,10.56-25.05c3.09-8.64,6.34-17.35,12.71-26.49l.39-.56a4.47,4.47,0,0,1,7.61.45Z"/><path class="cls-2" d="M1032.43,949.88l35.7,115.87a12,12,0,1,1-23,7.09,13.55,13.55,0,0,1-.42-1.84l-17.2-120a2.53,2.53,0,0,1,4.92-1.11Z"/><path class="cls-2" d="M1073.43,1167.74l-25.47-78a12.05,12.05,0,1,1,22.91-7.48,12.4,12.4,0,0,1,.51,2.23l10.26,81.37a4.23,4.23,0,0,1-8.21,1.84Z"/><path class="cls-15" d="M2184.4,644.13l-83.93-13.3,31.21-197,83.93,13.3A94.3,94.3,0,0,1,2294,555.08l-1.68,10.65A94.32,94.32,0,0,1,2184.4,644.13Z"/><path class="cls-2" d="M2199.4,661.31a112.55,112.55,0,0,1-17.5-1.38L2098,646.63a16,16,0,0,1-13.3-18.31l31.2-197a16,16,0,0,1,18.31-13.29l83.94,13.3a110.44,110.44,0,0,1,91.69,126.22l-1.69,10.65a110.38,110.38,0,0,1-108.72,93.07Zm-80.62-43.78,68.13,10.79h0a78.31,78.31,0,0,0,89.6-65.09l1.69-10.65A78.41,78.41,0,0,0,2213.11,463L2145,452.18Z"/><path class="cls-15" d="M1530.08,540.45l83.94,13.3,31.2-197-83.93-13.3a94.31,94.31,0,0,0-107.91,78.4l-1.69,10.65A94.32,94.32,0,0,0,1530.08,540.45Z"/><g class="cls-4"><path class="cls-2" d="M2294.34,552.76c-.08.76-.2,1.56-.32,2.32l-1.72,10.64a94.24,94.24,0,0,1-107.88,78.4l-84-13.28,31.2-197,9.56,1.52-22.64,142.88,83.92,13.28A94.3,94.3,0,0,0,2294.34,552.76Z"/></g><g class="cls-4"><path class="cls-2" d="M1622.58,499.68,1614,553.76l-83.92-13.32a94.24,94.24,0,0,1-78.4-107.88l1.68-10.68a93.67,93.67,0,0,1,16.08-39.6,94.26,94.26,0,0,0,78.72,105.6Z"/></g><path class="cls-2" d="M1614,569.75a15.5,15.5,0,0,1-2.53-.2l-83.93-13.3h0A110.31,110.31,0,0,1,1435.89,430l1.68-10.65a110.44,110.44,0,0,1,126.22-91.69l83.94,13.3A16,16,0,0,1,1661,359.3l-31.21,197A16,16,0,0,1,1614,569.75Zm-81.45-45.1,68.13,10.79,26.2-165.35-68.14-10.79a78.39,78.39,0,0,0-89.6,65.09L1467.49,435a78.31,78.31,0,0,0,65.1,89.61Z"/><path class="cls-9" d="M2219.46,452.59,2193.25,618a327.73,327.73,0,0,1-65,150.06c-71.66,92.28-190.23,144.16-313.18,124.68s-219.81-105.53-259.38-215.54a327.43,327.43,0,0,1-15.36-162.65l26.21-165.45C1595,169.61,1765.19,46,1944.75,74.44c89.75,14.22,165.54,63.87,215.34,132.42S2233.68,362.84,2219.46,452.59Z"/><path class="cls-15" d="M2219.46,452.6l-23.76,150L2193.26,618a327.52,327.52,0,0,1-65,150.08c-71.64,92.28-190.2,144.16-313.16,124.68s-219.84-105.56-259.4-215.56a327.37,327.37,0,0,1-15.36-162.64l7.4-46.68,18.84-118.76c18.24-115.36,95-207.6,195.16-251.28l333.56,42a332,332,0,0,1,64.8,67C2209.9,275.44,2233.7,362.84,2219.46,452.6Z"/><g class="cls-4"><path class="cls-2" d="M2203.07,556l-9.82,62c-28.45,179.53-198.63,303.19-378.16,274.74S1511.9,694.12,1540.35,514.59l9.82-62c-28.45,179.57,95.18,349.74,274.74,378.2S2174.62,735.59,2203.07,556Z"/></g><path class="cls-2" d="M1867,912.87a347.36,347.36,0,0,1-54.43-4.3h0c-91.06-14.43-171.25-63.73-225.8-138.82s-76.65-166.61-62.23-257.67l26.22-165.43c29.9-188.71,207.72-317.93,396.48-288,91.06,14.43,171.25,63.73,225.81,138.82s76.65,166.6,62.22,257.66l-26.22,165.44C2182.06,791,2034.38,912.87,1867,912.87ZM1817.59,877c171.29,27.16,332.73-90.14,359.87-261.43l26.21-165.44c13.09-82.61-7-165.66-56.51-233.84s-122.3-112.94-204.92-126C1771,63.1,1609.51,180.37,1582.37,351.66l-26.21,165.43C1529,688.39,1646.3,849.82,1817.59,877Z"/><path class="cls-2" d="M1680.61,445.11c7.57-1.83,14.8-3.18,22.3-4.32s15-1.93,22.59-2.44a198.2,198.2,0,0,1,46.91,2l.12,0a16.09,16.09,0,1,1-5.41,31.72,16.68,16.68,0,0,1-3.17-.88,170.56,170.56,0,0,0-39.16-9.77c-6.89-.94-13.88-1.61-20.93-2s-14.24-.49-21-.27h-.31a7.16,7.16,0,0,1-1.91-14.12Z"/><path class="cls-2" d="M2074.09,521.21c-6.39-2.31-13.32-4.44-20.09-6.24s-13.67-3.34-20.51-4.58a170.43,170.43,0,0,0-40.26-2.81,16.09,16.09,0,0,1-1.94-32.13,16.38,16.38,0,0,1,3.22.13l.21,0A198.51,198.51,0,0,1,2040,488.17q10.62,4.27,20.73,9.32c6.78,3.4,13.23,6.91,19.87,11a7.16,7.16,0,0,1-6.18,12.84Z"/><path class="cls-2" d="M1970.85,721.09c-8.94,56.44-69,93.83-134.07,83.51s-110.63-64.43-101.69-120.86,55.62-9.56,120.72.76S1979.79,664.65,1970.85,721.09Z"/><path class="cls-5" d="M1943.19,691.33c-19.25,26.32-55.52,41-94,34.94S1780.77,695,1770.6,664c19.12.94,48.66,19.14,84.53,24.83S1924.7,686.31,1943.19,691.33Z"/><ellipse class="cls-16" cx="1661.62" cy="663.87" rx="21.66" ry="37.5" transform="translate(745.89 2201.12) rotate(-81)"/><ellipse class="cls-16" cx="2049.38" cy="725.31" rx="21.66" ry="37.5" transform="translate(1012.29 2635.93) rotate(-81)"/><path class="cls-2" d="M1858.27,814.3a144.51,144.51,0,0,1-22.74-1.8c-33.39-5.29-63-21.59-83.48-45.89-20.72-24.63-29.54-54.51-24.85-84.14,3.78-23.82,14.84-34.86,33.62-34,11.42.56,24.82,5.63,40.34,11.49,16.56,6.26,35.33,13.36,55.9,16.62s40.58,2.31,58.26,1.48c16.58-.79,30.9-1.46,42,1.55,18.21,4.9,25.23,18.87,21.46,42.69h0C1970.19,776.33,1918.41,814.3,1858.27,814.3ZM1758,664.41c-5.28,0-12,1.91-15,20.57-4,25,3.61,50.3,21.29,71.33,18,21.36,44.15,35.7,73.74,40.39,60.63,9.58,116.67-24.88,124.92-76.87h0c3.35-21.2-4.58-23.34-9.84-24.75-8.65-2.35-21.8-1.73-37-1-18.45.87-39.35,1.85-61.51-1.66s-41.78-10.92-59.06-17.45c-14.25-5.39-26.56-10-35.48-10.48C1759.36,664.45,1758.67,664.41,1758,664.41Zm212.9,56.67h0Z"/><path class="cls-2" d="M2040.94,617.57h-.36a10,10,0,0,1-9.64-10.34c.77-22.07-12.65-32.79-25.46-35.46-15.08-3.16-34.21,3.54-42.93,25.59A10,10,0,0,1,1944,590c12.93-32.7,43.07-42.54,65.61-37.82,21.4,4.46,42.49,23.43,41.37,55.74A10,10,0,0,1,2040.94,617.57Z"/><path class="cls-2" d="M1771.37,574.86a10,10,0,0,1-10-9.38c-1.48-23.67-17.59-35.94-32.91-37.61-13-1.43-29.08,4.62-35.18,25.85a10,10,0,1,1-19.22-5.51c8.92-31.08,34.86-42.59,56.56-40.23,22.89,2.5,48.52,21.17,50.71,56.26a10,10,0,0,1-9.36,10.6Z"/><path class="cls-3" d="M1513.87,597.36l-4.92-.78,38.69-244.2,91,14.41-25.06,158.15A87.12,87.12,0,0,1,1513.87,597.36Z"/><path class="cls-2" d="M1527.72,614.46a105.35,105.35,0,0,1-16.36-1.29l-4.91-.78a16,16,0,0,1-13.3-18.31l38.69-244.21a16,16,0,0,1,18.31-13.3l91,14.42a16,16,0,0,1,13.3,18.31l-25.06,158.14a103.2,103.2,0,0,1-101.65,87Zm-.33-32h.16a71.23,71.23,0,0,0,70.21-60l22.56-142.34-59.38-9.41Z"/><path class="cls-3" d="M2191.22,704.69l4.92.78,38.69-244.21-91-14.42L2118.79,605A87.14,87.14,0,0,0,2191.22,704.69Z"/><path class="cls-2" d="M2196.16,721.47a16.69,16.69,0,0,1-2.53-.2l-4.91-.78h0a103.25,103.25,0,0,1-85.72-118l25.06-158.15a16,16,0,0,1,18.31-13.3l91,14.42a16,16,0,0,1,13.29,18.3L2211.94,708A16,16,0,0,1,2196.16,721.47Zm-39-256.32L2134.6,607.5A71.17,71.17,0,0,0,2183,686.33l33.56-211.77Z"/><path class="cls-2" d="M2247.56,569.12a15.91,15.91,0,0,1-2.73-.24c-203-34.85-365-249.57-408.19-311.78-44.21,43.11-183.39,168.55-305.67,168.56a167,167,0,0,1-19.67-1.14,16,16,0,0,1,3.75-31.77c132.54,15.6,310.63-169.9,312.41-171.78a16,16,0,0,1,25.08,2.41c1.76,2.76,179,276.4,397.71,314a16,16,0,0,1-2.69,31.77Z"/><path class="cls-9" d="M1203.87,1413.89l207.79-86.72A402.48,402.48,0,0,0,1553,1230l315.28-342.35,170.7,176.4-366.64,356.19a403.51,403.51,0,0,1-185.67,102.17l-317.16,76.74Z"/><g class="cls-4"><path class="cls-2" d="M1217.58,1521.52l-5.88,27.8a256.55,256.55,0,0,1-36,16.24l6.6-35.52Z"/></g><path class="cls-2" d="M1169.48,1615.2a16,16,0,0,1-3.75-31.56l317.17-76.74a387.94,387.94,0,0,0,178.31-98.12l355.16-345L1868.56,911l-303.8,329.88A415.79,415.79,0,0,1,1417.7,1342L1210,1428.66a16,16,0,0,1-12.33-29.53l207.8-86.73a384,384,0,0,0,135.83-93.32L1856.5,876.85a16.05,16.05,0,0,1,11.57-5.16,16.37,16.37,0,0,1,11.7,4.88L2050.47,1053a16,16,0,0,1-.35,22.6l-366.64,356.2A419.85,419.85,0,0,1,1490.42,1538l-317.16,76.74A15.82,15.82,0,0,1,1169.48,1615.2Z"/><path class="cls-9" d="M1233.31,1420.92c-17.59-41.62-57.85-63.11-59.7-64.23l-125.77-75a38.25,38.25,0,0,0-39.18,65.71l39.59,23.61c.06,0-22.76,5.89-22.76,5.89l-1.45.39H1024c-.34.07-.73.15-1.1.26l-151.21,38.22a32.55,32.55,0,0,0-23.88,37.72c.11.55.23,1.15.37,1.7a32.59,32.59,0,0,0,27.79,24.27h0l125.45-31.72L876,1479.45l-38.6,9.75a32.53,32.53,0,0,0-23.88,37.71c.11.55.23,1.15.37,1.7a32.55,32.55,0,0,0,39.41,23.51l143.48-36-102.83,25.78A32.55,32.55,0,0,0,870,1579.68a16.32,16.32,0,0,0,3.18,7.4c10,14,27.92,20,44.61,15.79l115.95-29.28-79.45,20.17a32.54,32.54,0,0,0-23.88,37.71c.11.56.23,1.15.37,1.7a32.56,32.56,0,0,0,39.42,23.55l118.4-29.94,45.66-11.53,41.42-10.45a257.43,257.43,0,0,0,55.82-22.46Z"/><path class="cls-9" d="M847.26,1448.68a24.82,24.82,0,0,1,.08-4.56,33.23,33.23,0,0,0,8.8,2.32Z"/><g class="cls-4"><path class="cls-2" d="M2039,1064.08l-366.64,356.2a403.44,403.44,0,0,1-185.68,102.16l-261.36,63.24a256,256,0,0,1-49.6,19.12l-41.4,10.44-45.68,11.56-118.4,29.92a32.54,32.54,0,0,1-39.4-23.56,11.38,11.38,0,0,1-.36-1.68,31.61,31.61,0,0,1-.44-9.28,32.47,32.47,0,0,0,20.4,1.52l118.4-30,45.64-11.52,41.44-10.44c7-1.84,13.68-4,19.84-6.24q3.45-1.26,6.68-2.54a57.47,57.47,0,0,0,35.16-41.5h0l10.24-48.48a138.44,138.44,0,0,1,7.3,23.49,19.57,19.57,0,0,0,23.7,15l202.16-48.9a403.88,403.88,0,0,0,185.68-102.2l350-340Z"/></g><path class="cls-9" d="M917.82,1602.88l116-29.28-79.44,20.16A32.47,32.47,0,0,0,930,1622.2a32.51,32.51,0,0,1-17.8-18.28A44.5,44.5,0,0,0,917.82,1602.88Z"/><path class="cls-2" d="M962.26,1673.72a48.66,48.66,0,0,1-47-36.63c-.2-.74-.4-1.69-.57-2.58a48.22,48.22,0,0,1-.61-14.73c-20.9,2.44-41.87-6.44-54-23.43a32.07,32.07,0,0,1-5.83-13.57,48.67,48.67,0,0,1-.67-14.4,48.51,48.51,0,0,1-55.33-35.85c-.19-.74-.39-1.66-.56-2.52a48.46,48.46,0,0,1,35.67-56.33l4.85-1.22a47.84,47.84,0,0,1-5.66-13.36c-.18-.69-.37-1.59-.54-2.43a48.48,48.48,0,0,1,35.64-56.42L1007,1365l-6.57-3.92a54.25,54.25,0,0,1,55.57-93.19l125.77,75c11.23,6.4,48.67,30.17,66.24,71.74a16,16,0,0,1-29.48,12.46c-13.65-32.31-43.57-51.25-52.42-56.29l-.82-.48-125.68-75a22.25,22.25,0,0,0-22.81,38.22l39.61,23.62a16,16,0,0,1,7.64,16c-1.5,10.61-7.42,12.13-23.23,16.21l-12.63,3.26c-.28.08-.56.15-.83.2l-.53.11-151.29,38.26a16.44,16.44,0,0,0-12.1,19.11l.16.77a16.63,16.63,0,0,0,12.08,12l121.83-24.25a16,16,0,0,1,6.25,31.39l-124.32,24.74-38.2,9.65a16.45,16.45,0,0,0-12.1,19.12l.16.75a16.55,16.55,0,0,0,20,12l143.51-36a16,16,0,0,1,7.79,31L897.8,1557.45a16.45,16.45,0,0,0-12.07,19.14c0,.26.09.52.16.79,0-.09.17.16.37.44,6,8.37,17.07,12.22,27.64,9.53l116-29.27a16,16,0,0,1,7.85,31l-79.45,20.17a16.44,16.44,0,0,0-12.12,19.12l.15.75a16.57,16.57,0,0,0,20,12.07l205.49-51.93c27.9-7.3,51.55-20.7,51.79-20.83a16,16,0,0,1,15.89,27.78,272.32,272.32,0,0,1-59.72,24l-205.61,52A48.24,48.24,0,0,1,962.26,1673.72Z"/><path class="cls-2" d="M996.69,1400.14a16,16,0,0,1-3.22-31.67l96.37-19.91a16,16,0,0,1,6.47,31.34l-96.37,19.91A16.44,16.44,0,0,1,996.69,1400.14Z"/><path class="cls-2" d="M1000.66,1470.63a16,16,0,0,1-2.72-31.77l5.2-.9a16,16,0,0,1,5.47,31.53l-5.2.9A16.14,16.14,0,0,1,1000.66,1470.63Z"/><g class="cls-4"><path class="cls-2" d="M2219.46,452.6l-23.76,150C1988.46,538.48,1831.06,292,1831.06,292s-149.72,157.52-283.32,175.92l18.84-118.76c18.24-115.36,95-207.6,195.16-251.28l333.56,42a332,332,0,0,1,64.8,67C2209.9,275.44,2233.7,362.84,2219.46,452.6Z"/></g><path class="cls-3" d="M2268.7,390.16a371.2,371.2,0,0,1-4.6,58.36l-16.56,104.6C2019.06,513.88,1839.06,232,1839.06,232s-183.8,193.4-325.88,176.64l12.2-77.16c32.2-203.16,224.76-343,427.88-310.84C2136.82,49.72,2268.7,209.72,2268.7,390.16Z"/><g class="cls-4"><path class="cls-5" d="M2268.7,390.16a371.2,371.2,0,0,1-4.6,58.36l-16.56,104.6-2.68-.48,8.64-54.72a366.56,366.56,0,0,0,4.64-58.36c0-180.44-131.88-340.44-315.44-369.52-188.12-29.76-367.08,87.88-418.16,266.76l.84-5.32c32.2-203.16,224.76-343,427.88-310.84C2136.82,49.72,2268.7,209.72,2268.7,390.16Z"/></g><path class="cls-2" d="M2247.54,569.12a15.51,15.51,0,0,1-2.71-.24c-203-34.85-365-249.57-408.19-311.78-44.21,43.11-183.39,168.55-305.67,168.56a167,167,0,0,1-19.67-1.14,16,16,0,0,1-13.93-18.39l12.2-77.15c33.66-212.36,233.8-357.77,446.19-324.15A389.32,389.32,0,0,1,2192,138.31c59.75,70.74,92.66,160.18,92.66,251.85a388.85,388.85,0,0,1-4.8,60.87l-16.56,104.59a16,16,0,0,1-15.8,13.5ZM1839.05,216c.51,0,1,0,1.54.07a16,16,0,0,1,12,7.31c1.72,2.69,170.43,263.23,381.8,310.81l14-88.18a356.49,356.49,0,0,0,4.4-55.85c0-174.39-129.81-326.45-301.94-353.72C1755.8,5.59,1572.07,139.05,1541.18,334l-9.44,59.7c130.35-.34,294-170.91,295.72-172.71A16,16,0,0,1,1839.05,216Z"/><path class="cls-2" d="M1024.89,1591.84a16,16,0,0,1-3.88-31.52l12.18-3a16,16,0,0,1,7.78,31l-12.18,3A15.83,15.83,0,0,1,1024.89,1591.84Z"/><path class="cls-2" d="M987.12,1534.56a16,16,0,0,1-3.63-31.58l20.35-4.77a16,16,0,1,1,7.3,31.15l-20.35,4.77A16,16,0,0,1,987.12,1534.56Z"/><path class="cls-2" d="M1302.85,2532.45a16,16,0,0,1-13.38-7.2c-43.27-65.7-52.13-198.57-23.69-355.41a16,16,0,1,1,31.48,5.71c-26.6,146.72-19.35,274,18.94,332.1a16,16,0,0,1-13.35,24.8Z"/><path class="cls-2" d="M1429,2591.05a224.93,224.93,0,0,1-32.23-2.26c-47.3-6.87-84.39-28.84-107.25-63.54a16,16,0,0,1,26.73-17.6c22.34,33.92,58.62,45.62,85.11,49.47,52.85,7.68,106.36-8.53,123.14-22.66a16,16,0,0,1,20.61,24.48C1524.53,2576.23,1477.88,2591.05,1429,2591.05Z"/><path class="cls-2" d="M855.39,2591.05c-48.94,0-95.58-14.82-116.12-32.11a16,16,0,0,1,20.61-24.48c16.79,14.14,70.3,30.34,123.14,22.66,26.5-3.85,62.77-15.55,85.12-49.47a16,16,0,1,1,26.72,17.6c-22.86,34.7-59.94,56.67-107.24,63.54A224.93,224.93,0,0,1,855.39,2591.05Z"/><path class="cls-2" d="M981.49,2532.45a16,16,0,0,1-13.35-24.8c38.28-58.13,45.54-185.38,18.93-332.1a16,16,0,1,1,31.48-5.71c28.45,156.84,19.59,289.7-23.69,355.41A16,16,0,0,1,981.49,2532.45Z"/><path class="cls-2" d="M1295.51,2516.23h-306a16,16,0,0,1,0-32h306a16,16,0,0,1,0,32Z"/><path class="cls-8" d="M2040,907.58h0c72.82,64.36,79.74,176.59,15.38,249.41L1836.75,1404.3l-264.78-234L1790.55,923C1854.91,850.14,1967.15,843.22,2040,907.58Z"/><g class="cls-4"><path class="cls-2" d="M2055.34,1157l-218.6,247.32-264.76-234,7.64-8.64,208.28,184.08,235.8-266.8a176.42,176.42,0,0,0,42.16-142.8C2113.34,1001.56,2111,1094,2055.34,1157Z"/></g><g class="cls-11"><path class="cls-5" d="M2093.58,994.64a175.68,175.68,0,0,0-36.44-44.88c-72.84-64.36-185.08-57.44-249.44,15.4l-205.16,232.16-30.56-27L1790.54,923c64.36-72.8,176.6-79.72,249.44-15.36A175.72,175.72,0,0,1,2093.58,994.64Z"/></g><path class="cls-2" d="M1967.47,1264.46c-20.28,41.19-50,74-79.07,107.45l-11.14,12.32-5.61,6.11a62.46,62.46,0,0,1-8.2,7.82,47.92,47.92,0,0,1-48.21,5.74,46.65,46.65,0,0,1-10.74-6.64c-1.89-1.52-2.55-2.21-3.66-3.18l-3.08-2.79-12.39-11.06-24.89-22-199.11-176a16,16,0,0,1-1.39-22.58l146.29-165.51,73.14-82.76,4.6-5.18,5.28-5.41c3.6-3.52,6.84-7.42,10.86-10.49,3.89-3.22,7.71-6.52,11.68-9.62l12.54-8.47a190.49,190.49,0,0,1,55.61-23c39.23-9.5,81.28-5,118.22,11.14l13.49,6.85c4.53,2.23,8.58,5.29,12.88,7.91,2.09,1.41,4.3,2.65,6.28,4.2l5.92,4.7c3.89,3.13,8.08,6.35,11.32,9.34,3.49,3.17,6.8,5.84,10.44,9.41l10.79,10.58c6.58,7.63,13.22,15.26,18.57,23.84a186.44,186.44,0,0,1,24.67,54.89c5,19.54,6.63,39.76,5.94,59.9a179.9,179.9,0,0,1-3.6,30.1c-1.37,4.88-2.67,9.79-4.23,14.61a148,148,0,0,1-5.94,14c-8.81,18.15-22.16,34.37-40.18,43.91a5.69,5.69,0,0,1-7.69-2.37,5.63,5.63,0,0,1-.39-4.42l.09-.28c6-18.38,12.43-33.65,17.9-49.43,5.32-15.72,9.58-31.73,11.28-48.31s-.1-33.42-4.13-49.58a154.83,154.83,0,0,0-20.41-45.35c-4.37-7.11-9.92-13.34-15.3-19.69l-8.94-8.73c-2.89-2.91-6.74-6.06-10.06-9.08-3.53-3.25-6.7-5.57-10-8.22l-4.88-3.91c-1.63-1.29-3.47-2.28-5.2-3.44-3.56-2.14-6.86-4.74-10.62-6.55l-11.12-5.66c-30.47-13.23-65.35-17.11-97.85-9.18a158.58,158.58,0,0,0-46,19l-10.35,7c-3.26,2.57-6.4,5.32-9.62,8-3.36,2.48-6,5.79-9,8.67l-4.39,4.45-4.56,5.14-73.15,82.76L1584,1180.86l-1.4-22.58,199.11,176,24.89,22,12.5,10.93,3.13,2.72c1,.84,2.34,2,2.65,2.21a14.54,14.54,0,0,0,3.38,2,14.14,14.14,0,0,0,14.54-2.29c1-.71,5.52-6.23,8.94-10.2l10.85-12.57c29.62-32.93,58.54-66.48,96.92-91.66a5.53,5.53,0,0,1,8,7.06Z"/></g></g></svg>