<svg xmlns="http://www.w3.org/2000/svg" viewBox="0 0 2541.52 2894.95"><defs><style>.cls-1{fill:#cef;}.cls-2{opacity:0.3;}.cls-3{fill:#000072;}.cls-4{fill:#ffa910;}.cls-5{fill:#fff;}.cls-6{opacity:0.7;}.cls-7{fill:#f958a9;}</style></defs><title>introAtivo 1</title><g id="Camada_2" data-name="Camada 2"><g id="Layer_1" data-name="Layer 1"><circle class="cls-1" cx="1270.76" cy="1296.41" r="1270.76"/><g class="cls-2"><ellipse class="cls-3" cx="1270.76" cy="2708.7" rx="1008.94" ry="186.26"/></g><path class="cls-4" d="M2246.9,1879.17c-53.9,93.52-144.23,177.7-292.78,224.65l-64.95-201.6s105.59-31.53,171.67-149.75c29.88-53.5,51.68-124.82,52-219,.18-54.47,42.81-99.32,97.11-103.07,2.44-.17,4.89-.23,7.34-.23a104.39,104.39,0,0,1,104.16,99.49C2325.79,1621.5,2316.86,1758.16,2246.9,1879.17Z"/><path class="cls-5" d="M2246.9,1879.17c-95.85-19.47-152.65-69.84-186.06-126.7,29.88-53.5,51.68-124.82,52-219,.18-54.47,42.81-99.32,97.11-103.07,2.44-.17,4.89-.23,7.34-.23a104.39,104.39,0,0,1,104.16,99.49C2325.79,1621.5,2316.86,1758.16,2246.9,1879.17Z"/><g class="cls-2"><path class="cls-3" d="M2321.41,1529.69a104.32,104.32,0,0,0-97.63-99.17,103.89,103.89,0,0,1,17.94,53.64c4.39,91.81-4.55,228.47-74.5,349.47-46.48,80.64-120.07,154.31-234.69,203.18l21.59,67c148.55-47,238.88-131.13,292.78-224.65C2316.86,1758.16,2325.79,1621.5,2321.41,1529.69Z"/></g><path class="cls-3" d="M1937.53,2135.91l-80.74-250.76,25-7.46c8.67-2.66,204.6-66.15,205.41-344.28.19-67.39,53.31-123.84,120.93-128.54A130,130,0,0,1,2347,1528.48c3.94,82.15-2.44,204.26-55.19,319.58-62.42,136.45-173.44,230.71-330,280.17Zm-16.62-218.77,49.61,154.09c299.68-108.12,332.84-383.26,325.3-540.29a78.81,78.81,0,0,0-84.13-75c-41,2.85-73.14,36.92-73.26,77.58-.48,165-65.45,262.92-119.87,316A351.39,351.39,0,0,1,1920.91,1917.14Z"/><path class="cls-4" d="M1610.62,2389.55a837.37,837.37,0,0,0,16.56,165.12c17,84.41,79.46,152.71,162.39,175.88,126,35.18,234.61,24.25,304.45,8.48,58.12-13.15,102.45-60.79,109.91-119.87a227.12,227.12,0,0,0,.57-54.07c-15.71-137-162.67-180-162.67-180,5.75-12,11-23.62,15.71-35.12a528.78,528.78,0,0,0,23.39-70c11.78-45.76,15.08-87.54,12.24-125.56a325.13,325.13,0,0,0-15.65-78.55c-28.35-85.09-88-145.2-139.91-183.79-50.88-37.85-122.6-27.72-161.82,22.14C1646.25,2079,1610.56,2250.56,1610.62,2389.55Z"/><path class="cls-5" d="M1610.62,2389.55a837.37,837.37,0,0,0,16.56,165.12c17,84.41,79.46,152.71,162.39,175.88,126,35.18,234.61,24.25,304.45,8.48,58.12-13.15,102.45-60.79,109.91-119.87,22.65-180-162.1-234.1-162.1-234.1S1856.45,2518.13,1610.62,2389.55Z"/><g class="cls-2"><path class="cls-3" d="M1610.62,2389.55a837.37,837.37,0,0,0,16.56,165.12c17,84.41,79.46,152.71,162.39,175.88,126,35.18,234.61,24.25,304.45,8.48,58.12-13.15,102.45-60.79,109.91-119.87a227.12,227.12,0,0,0,.57-54.07c-34,33.35-85.49,62.89-162.67,80.65-276.23,63.41-214.7-200.18-214.7-200.18,155.5,4.72,214.7-60.5,214.7-60.5-328.65,22.88-104.22-493-104.22-493-50.88-37.85-122.6-27.72-161.82,22.14C1646.25,2079,1610.56,2250.56,1610.62,2389.55Z"/></g><g class="cls-6"><path class="cls-5" d="M2175.47,2659a227.11,227.11,0,0,0,.57-54.07c-15.71-137-162.67-180-162.67-180,5.75-12,11-23.62,15.71-35.12a528.3,528.3,0,0,0,23.39-70c11.78-45.76,15.08-87.54,12.24-125.56a325.23,325.23,0,0,0-15.65-78.55c-28.35-85.09-88-145.19-139.91-183.79-50.88-37.85-122.6-27.71-161.82,22.15-2.84,3.61-5.58,7.23-8.33,10.85,11.34-16.94,23.55-33.86,36.79-50.7,39.22-49.86,110.94-60,161.82-22.14,51.91,38.59,111.56,98.7,139.91,183.79a325.13,325.13,0,0,1,15.65,78.55c2.84,38-.46,79.8-12.24,125.56a528.78,528.78,0,0,1-23.39,70c-4.73,11.5-10,23.16-15.71,35.12,0,0,147,43,162.67,180a227.12,227.12,0,0,1-.57,54.07,139.63,139.63,0,0,1-40.82,82.06A138.73,138.73,0,0,0,2175.47,2659Z"/></g><path class="cls-3" d="M2078.6,2728.22l2.18-6.93,2.35-7.84c1.46-5.34,3-10.73,4.32-16.21,2.78-10.94,5.17-22.11,7.09-33.46s3.42-22.86,4.67-34.62c1.55-11.8,2.11-23.7,3.68-36.31l0-.28a5.74,5.74,0,0,1,6.42-5,5.8,5.8,0,0,1,4.29,2.87,153.46,153.46,0,0,1,14.64,36.19,200.28,200.28,0,0,1,6.47,38.67,235,235,0,0,1-.08,39.52c-.57,6.6-1.42,13.21-2.59,19.82-.67,3.31-1.24,6.61-2.11,9.95-.4,1.65-.8,3.35-1.31,5.05l-.78,2.6-1,3a25.6,25.6,0,0,1-48.79-15.51Z"/><path class="cls-3" d="M1946.27,2738l2.18-6.93,2.34-7.84c1.46-5.34,3-10.73,4.33-16.21,2.77-10.94,5.17-22.11,7.09-33.46s3.42-22.87,4.67-34.62c1.54-11.8,2.11-23.7,3.68-36.31l0-.28a5.76,5.76,0,0,1,10.72-2.12A153.46,153.46,0,0,1,1996,2636.4a200.26,200.26,0,0,1,6.46,38.67,233.9,233.9,0,0,1-.07,39.52q-.85,9.9-2.6,19.81c-.66,3.32-1.24,6.62-2.11,10-.39,1.65-.79,3.34-1.31,5l-.77,2.6-1,3a25.6,25.6,0,0,1-48.79-15.51Z"/><path class="cls-3" d="M2056.72,2405.88c-1.32.79-2.21,1.23-3.22,1.76l-2.91,1.47q-2.87,1.44-5.68,2.71c-3.77,1.78-7.54,3.33-11.29,4.95-7.54,3-15,6.06-22.58,8.68a384,384,0,0,1-45.87,13.13,410.88,410.88,0,0,1-46.49,7.74c-15.5,1.93-31.09,2.4-46.49,2.68a5.83,5.83,0,0,1-1.15-11.57l.25,0c14.7-2.65,29.22-5.78,43.27-10.51a303.33,303.33,0,0,0,41-16.4,349.37,349.37,0,0,0,38.12-21.21c6.08-3.89,12-7.91,17.73-12.17,2.79-2.18,5.65-4.3,8.3-6.53,1.37-1.09,2.68-2.2,3.94-3.3l1.85-1.63a17.3,17.3,0,0,0,1.47-1.43,26.6,26.6,0,1,1,35.29,38.4Z"/><path class="cls-3" d="M1959.1,2779.51a654.65,654.65,0,0,1-176.46-24.3c-92.35-25.82-161.55-100.72-180.59-195.48-27.85-138.62-44.94-408.87,153.6-661.37,48.3-61.44,134.95-73.25,197.27-26.89h0c97.3,72.39,239.35,232,123.71,499.08,72.26,31.34,170.37,111.35,152.7,251.81-8.7,69.16-60.81,126.08-129.66,141.64A640.5,640.5,0,0,1,1959.1,2779.51Zm-90.91-885a91.8,91.8,0,0,0-72.27,35.49c-176.52,224.5-175.55,460.87-143.65,619.63,15.22,75.76,70.46,135.62,144.16,156.22,121.24,33.88,225.68,23.14,292,8.16,47.89-10.82,84.11-50.23,90.12-98.07,19.59-155.69-137.25-204.36-143.93-206.36l-28.81-8.6,13-27.09c114.37-236.92,10.69-381.65-96.43-461.33h0A90.38,90.38,0,0,0,1868.19,1894.53Z"/><path class="cls-4" d="M930.9,2389.55a838.13,838.13,0,0,1-16.56,165.12c-17,84.41-79.46,152.71-162.39,175.88-126,35.18-234.62,24.25-304.46,8.48-58.11-13.15-102.45-60.79-109.9-119.87a227.12,227.12,0,0,1-.57-54.07c15.71-137,162.67-180,162.67-180-5.75-12-11-23.62-15.71-35.12a528.78,528.78,0,0,1-23.39-70c-11.79-45.76-15.09-87.54-12.24-125.56A324.66,324.66,0,0,1,464,2075.82c28.35-85.09,88-145.2,139.91-183.79,50.88-37.85,122.6-27.72,161.81,22.14C895.27,2079,931,2250.56,930.9,2389.55Z"/><path class="cls-5" d="M930.9,2389.55a838.13,838.13,0,0,1-16.56,165.12c-17,84.41-79.46,152.71-162.39,175.88-126,35.18-234.62,24.25-304.46,8.48-58.11-13.15-102.45-60.79-109.9-119.87-22.66-180,162.1-234.1,162.1-234.1S685.07,2518.13,930.9,2389.55Z"/><g class="cls-2"><path class="cls-3" d="M930.9,2389.55a838.13,838.13,0,0,1-16.56,165.12c-17,84.41-79.46,152.71-162.39,175.88-126,35.18-234.62,24.25-304.46,8.48-58.11-13.15-102.45-60.79-109.9-119.87a227.12,227.12,0,0,1-.57-54.07c34,33.35,85.49,62.89,162.67,80.65,276.22,63.41,214.69-200.18,214.69-200.18-155.5,4.72-214.69-60.5-214.69-60.5,328.64,22.88,104.22-493,104.22-493,50.88-37.85,122.6-27.72,161.81,22.14C895.27,2079,931,2250.56,930.9,2389.55Z"/></g><g class="cls-6"><path class="cls-5" d="M366,2659a227.61,227.61,0,0,1-.56-54.07c15.7-137,162.67-180,162.67-180-5.75-12-11-23.62-15.71-35.12a529.86,529.86,0,0,1-23.4-70c-11.78-45.76-15.08-87.54-12.23-125.56a324.27,324.27,0,0,1,15.65-78.55c28.34-85.09,88-145.19,139.9-183.79C683.25,1894,755,1904.16,794.18,1954c2.84,3.61,5.58,7.23,8.34,10.85-11.35-16.94-23.56-33.86-36.8-50.7-39.21-49.86-110.93-60-161.81-22.14C552,1930.62,492.35,1990.73,464,2075.82a324.66,324.66,0,0,0-15.65,78.55c-2.85,38,.45,79.8,12.24,125.56a528.78,528.78,0,0,0,23.39,70c4.72,11.5,10,23.16,15.71,35.12,0,0-147,43-162.67,180a227.12,227.12,0,0,0,.57,54.07,139.61,139.61,0,0,0,40.81,82.06A139,139,0,0,1,366,2659Z"/></g><path class="cls-3" d="M414.6,2745.25l-1-3-.77-2.6c-.52-1.7-.92-3.4-1.31-5.05-.87-3.34-1.44-6.64-2.11-9.95q-1.76-9.92-2.6-19.82a234.94,234.94,0,0,1-.07-39.52,200.26,200.26,0,0,1,6.46-38.67,153.88,153.88,0,0,1,14.64-36.19,5.75,5.75,0,0,1,10.71,2.09l0,.31c1.58,12.61,2.14,24.51,3.68,36.31,1.25,11.76,2.75,23.27,4.68,34.62s4.31,22.52,7.08,33.46c1.33,5.48,2.87,10.87,4.33,16.21l2.34,7.84,2.18,6.93.48,1.51a25.6,25.6,0,0,1-48.79,15.52Z"/><path class="cls-3" d="M546.93,2755l-1-3-.78-2.6c-.51-1.71-.91-3.4-1.31-5-.87-3.34-1.44-6.64-2.11-10-1.17-6.6-2-13.21-2.59-19.81a235,235,0,0,1-.08-39.52,200.28,200.28,0,0,1,6.47-38.67,153.46,153.46,0,0,1,14.64-36.19,5.75,5.75,0,0,1,10.71,2.09l0,.31c1.57,12.61,2.14,24.51,3.68,36.31,1.25,11.75,2.75,23.27,4.67,34.62s4.32,22.52,7.09,33.46c1.33,5.48,2.86,10.87,4.32,16.21l2.35,7.84,2.18,6.93.47,1.51A25.6,25.6,0,0,1,546.93,2755Z"/><path class="cls-3" d="M514.58,2364.2a15.9,15.9,0,0,0,1.47,1.43l1.85,1.63c1.26,1.1,2.57,2.21,3.93,3.3,2.66,2.23,5.51,4.35,8.3,6.53,5.71,4.26,11.66,8.28,17.74,12.17A348.44,348.44,0,0,0,586,2410.47a303.73,303.73,0,0,0,41,16.4c14,4.73,28.58,7.86,43.28,10.51l.24,0a5.83,5.83,0,0,1-1.14,11.57c-15.41-.28-31-.75-46.49-2.68a410.5,410.5,0,0,1-46.49-7.74,383.48,383.48,0,0,1-45.87-13.13c-7.58-2.62-15-5.64-22.59-8.68-3.75-1.62-7.52-3.17-11.28-4.95q-2.82-1.28-5.69-2.71l-2.9-1.47c-1-.53-1.9-1-3.23-1.76l-5.38-3.21A26.6,26.6,0,1,1,506.68,2357,27.28,27.28,0,0,1,514.58,2364.2Z"/><path class="cls-3" d="M582.42,2779.51A640,640,0,0,1,441.84,2764c-68.85-15.56-120.95-72.48-129.65-141.64-17.67-140.46,80.44-220.47,152.69-251.81-115.64-267.09,26.42-426.69,123.72-499.08h0c62.31-46.35,149-34.55,197.27,26.89,198.53,252.5,181.45,522.75,153.6,661.37-19,94.76-88.24,169.66-180.6,195.48A654.93,654.93,0,0,1,582.42,2779.51Zm36.75-866.93c-107.11,79.68-210.79,224.41-96.42,461.33l13.14,27.21-29,8.5c-6.63,2-163.46,50.65-143.88,206.34,6,47.84,42.24,87.25,90.13,98.07,66.27,15,170.71,25.73,291.94-8.16,73.7-20.6,128.94-80.46,144.16-156.22,31.9-158.76,32.88-395.13-143.64-619.63-31-39.44-86.55-47.11-126.43-17.44Z"/><path class="cls-4" d="M1788,2399.34c-5.07,24.76,2.33,50.32,19,69.33,20,22.94,46.56,60.11,59.54,107.46,22.82,83.33-31.65,168.48-116.34,185.5-90.1,18.1-226,30.16-365.41-13.44-41.78-13-78.61-39.27-102.06-76.21-1.76-2.67-3.41-5.46-5-8.31a55.63,55.63,0,0,1-6.94-26.92,55.53,55.53,0,0,1-7,26.92c-1.59,2.85-3.24,5.64-5,8.31-23.45,36.94-60.28,63.18-102.06,76.21-139.45,43.6-275.31,31.54-365.41,13.44-84.7-17-139.17-102.17-116.34-185.5q2-7.52,4.61-14.68c13.88-40.36,37-72.29,54.92-92.78,16.62-19,24-44.57,19-69.33-1.6-7.91-3.36-15.59-5.3-23.11-.05-.22-.17-.45-.22-.74-.74-3.18-1.6-6.37-2.45-9.44a1.35,1.35,0,0,1-.12-.46c-4.49-16.45-9.5-31.87-14.74-46.16-12.63-34.72-26.29-62.61-35.29-81,0-.06,0-.17-.11-.23a744.92,744.92,0,0,1-41-103.31c-.85-2.84-1.76-5.63-2.56-8.42a956.52,956.52,0,0,1-24-96.65c-40-207,6-354.71,35.4-421.93,11.73-26.75,20.78-40.75,20.78-40.75s28.74-40.87,133.47-78.21c88.05-31.47,229.84-60.39,453.47-60.39,489.49,0,586.94,138.6,586.94,138.6s9,14,20.77,40.75c34.1,78.15,90.67,265,8.83,527a740.94,740.94,0,0,1-41.16,103.54C1831,2269.4,1802.77,2326.94,1788,2399.34Z"/><path class="cls-5" d="M1724.22,1488.88c-88-31.47-229.83-60.39-453.46-60.39s-365.42,28.92-453.47,60.39C729.52,1685,804,1870,804,1870c101.26,272,466.73,358.59,466.73,358.59S1636.23,2142,1737.49,1870C1737.49,1870,1812,1685,1724.22,1488.88Z"/><path class="cls-5" d="M1270.76,2636.75a55.53,55.53,0,0,1-7,26.92c-1.59,2.85-3.24,5.64-5,8.31-23.45,36.94-60.28,63.18-102.06,76.21-139.45,43.6-275.31,31.54-365.41,13.44-84.7-17-139.17-102.17-116.34-185.5,13-47.35,39.5-84.52,59.53-107.46,16.62-19,24-44.57,19-69.33,0,0,98.12,206.16,363.36,83.56C1116.85,2482.9,1270.76,2432.07,1270.76,2636.75Z"/><path class="cls-5" d="M1270.76,2636.75a55.63,55.63,0,0,0,6.94,26.92c1.6,2.85,3.25,5.64,5,8.31,23.45,36.94,60.28,63.18,102.06,76.21,139.44,43.6,275.31,31.54,365.41,13.44,84.69-17,139.16-102.17,116.34-185.5-13-47.35-39.5-84.52-59.54-107.46-16.62-19-24-44.57-19-69.33,0,0-98.13,206.16-363.37,83.56C1424.66,2482.9,1270.76,2432.07,1270.76,2636.75Z"/><g class="cls-2"><path class="cls-3" d="M1866.52,2576.13q-2.05-7.52-4.61-14.68c-128,214.69-422.33,120.15-461,75.3-41.49-48,23.79-153.85,23.79-153.85,284.08,104.61,355.06-61.81,368.66-106.67.06-.22.17-.45.23-.74,1.48-4.95,2.22-8.31,2.45-9.44a1.45,1.45,0,0,0,.11-.46c-116.44,76.4-192.18,75.87-241.24,46.89-77.11-45.56-77.66-156.5-4.34-207.94,196.58-137.92,187-334.54,187-334.54C1634,1981.47,1505,2044.19,1408.85,2078.21a414.15,414.15,0,0,1-276.18,0c-96.13-34-225.14-96.74-328.64-208.21,0,0-9.62,196.62,187,334.54,73.32,51.44,72.78,162.38-4.33,207.94-49.07,29-124.8,29.51-241.25-46.89a1.35,1.35,0,0,0,.12.46c.23,1.13,1,4.49,2.45,9.44,0,.29.17.52.22.74,13.61,44.86,84.58,211.28,368.66,106.67,0,0,65.29,105.87,23.79,153.85-38.7,44.85-333.08,139.39-461-75.3q-2.57,7.17-4.61,14.68c-22.83,83.33,31.64,168.48,116.34,185.5,90.1,18.1,226,30.16,365.41-13.44,41.78-13,78.61-39.27,102.06-76.21,1.68-2.55,3.26-5.21,4.78-7.92a55.58,55.58,0,0,0,7.17-27.31,55.68,55.68,0,0,0,7.16,27.31c1.53,2.71,3.11,5.37,4.79,7.92,23.45,36.94,60.28,63.18,102.06,76.21,139.44,43.6,275.31,31.54,365.41,13.44C1834.87,2744.61,1889.34,2659.46,1866.52,2576.13Z"/></g><g class="cls-2"><path class="cls-3" d="M1878.47,1653.37c-144.63,74.62-346.91,141.45-607.71,141.45S807.67,1728,663,1653.37c11.73-26.75,20.78-40.75,20.78-40.75s28.74-40.87,133.47-78.2c88.05-31.48,229.84-60.39,453.47-60.39,489.49,0,586.94,138.59,586.94,138.59S1866.75,1626.62,1878.47,1653.37Z"/></g><path class="cls-3" d="M774.19,2374.57l1.72,4.51q1,2.63,2.24,5.31c1.6,3.56,3.31,7.15,5.08,10.7a238.38,238.38,0,0,0,12,20.64,199.91,199.91,0,0,0,30.57,35.92c23,21.16,51.68,35.4,83.33,42,31.58,6.95,65.76,6.16,99.88,1.65,34.33-4.4,69-11.73,105.76-17.33h.06a5.55,5.55,0,0,1,4.15,9.95c-30.27,22.51-64.87,38.55-101.89,48.49-18.67,4.43-37.74,7.88-57.37,9.09-9.76,1-19.69.79-29.63.8-5-.08-10-.66-15-1a139.54,139.54,0,0,1-15-1.89c-19.93-3.14-40-8.41-58.81-17.26s-36.59-20-51.89-34.05a222.38,222.38,0,0,1-39.62-47.18,228.3,228.3,0,0,1-14.44-27c-2.12-4.66-4.07-9.4-5.79-14.31q-1.34-3.64-2.52-7.46c-.84-2.69-1.48-4.83-2.41-8.48a25.55,25.55,0,0,1,48.63-15.42Z"/><path class="cls-3" d="M1265.91,2253.75c-7.41-1.42-13.52-2.81-20.11-4.4s-12.88-3.2-19.21-5c-12.71-3.57-25.28-7.43-37.67-11.77a761.07,761.07,0,0,1-142.59-66.17,645.32,645.32,0,0,1-65.26-44.19,588.15,588.15,0,0,1-59.62-51.67c-18.61-18.6-36.62-37.88-52.36-59-8.22-10.25-15.19-21.48-22.55-32.3-6.58-11.4-13.59-22.46-19.15-34.37-2.94-5.85-5.85-11.69-8.51-17.65-2.47-6.07-5-12.06-7.37-18.16-1.16-3-2.41-6-3.49-9.1s-2-6.21-3-9.33c-1.94-6.21-3.81-12.43-5.5-18.68a4.92,4.92,0,0,1,8.87-4l.07.12c27.68,42.83,56.12,83.27,89.59,119.47,32.57,36.84,70.13,68.94,110.44,96.93s83.8,51.51,128.74,71.51c22.52,9.93,45.48,18.89,68.7,26.94,11.63,4,23.3,7.82,35,11.24,5.86,1.74,11.74,3.4,17.58,5s12,3.14,17,4.27l.71.16a25.61,25.61,0,0,1-10.41,50.14Z"/><path class="cls-3" d="M1265.91,2203.45c5-1.13,11.3-2.7,17-4.27s11.72-3.26,17.58-5c11.74-3.42,23.4-7.27,35-11.24,23.22-8.05,46.18-17,68.69-26.94,45-20,88.44-43.46,128.75-71.51s77.86-60.09,110.44-96.93c33.47-36.2,61.9-76.64,89.58-119.47l.07-.11a4.92,4.92,0,0,1,8.88,4c-1.7,6.25-3.56,12.47-5.5,18.68-1,3.12-1.92,6.24-3,9.33s-2.33,6.06-3.5,9.1c-2.31,6.1-4.89,12.09-7.36,18.16-2.67,6-5.58,11.8-8.52,17.65-5.55,11.91-12.56,23-19.14,34.37-7.36,10.82-14.33,22-22.56,32.3-15.73,21.11-33.74,40.39-52.35,59a588.15,588.15,0,0,1-59.62,51.67,647.58,647.58,0,0,1-65.26,44.19,761.85,761.85,0,0,1-142.59,66.17c-12.4,4.34-25,8.2-37.67,11.77-6.34,1.83-12.73,3.49-19.21,5s-12.7,3-20.11,4.4a25.61,25.61,0,0,1-10.46-50.13Z"/><path class="cls-3" d="M758.29,2761.73c-1.77-4.28-2.94-7.68-4.16-11.51S752,2742.77,751,2739a195.29,195.29,0,0,1-4.29-22.73,225.13,225.13,0,0,1-1.4-46.63c1.32-15.73,4.13-31.58,9.87-46.82s14.46-29.8,26.63-40.79a9.19,9.19,0,0,1,15.26,8.08l-.13.91a280.79,280.79,0,0,0-2.86,39.61c.18,12.92,1.12,25.78,2.35,38.71s3.32,26,5.28,39l3,19.65c.4,3.31,1.09,6.52,1.46,9.82.46,3.15,1,6.71,1.2,9.32l.22,2.76a25.68,25.68,0,0,1-49.34,11.75Z"/><path class="cls-3" d="M940.1,2780.13c-1.77-4.29-2.94-7.69-4.17-11.51s-2.16-7.46-3.11-11.19a196.58,196.58,0,0,1-4.28-22.73,225.11,225.11,0,0,1-1.4-46.63c1.32-15.72,4.13-31.58,9.87-46.82s14.46-29.8,26.63-40.79a9.19,9.19,0,0,1,15.26,8.09l-.13.9a279.31,279.31,0,0,0-2.86,39.61c.18,12.92,1.12,25.79,2.35,38.72s3.31,26,5.28,39l3,19.64c.39,3.31,1.09,6.52,1.46,9.83.46,3.14,1,6.7,1.2,9.31l.21,2.77a25.67,25.67,0,0,1-49.33,11.75Z"/><path class="cls-3" d="M1816.88,2387.55c-.93,3.65-1.58,5.79-2.41,8.48q-1.2,3.81-2.52,7.46c-1.72,4.91-3.68,9.65-5.79,14.31a228.3,228.3,0,0,1-14.44,27A222.38,222.38,0,0,1,1752.1,2492c-15.3,14-33.16,25.28-51.9,34.05s-38.87,14.12-58.8,17.26a139.54,139.54,0,0,1-15,1.89c-5,.37-10,1-15,1-9.94,0-19.88.17-29.64-.8-19.63-1.21-38.7-4.66-57.36-9.09-37-9.94-71.62-26-101.89-48.49a5.55,5.55,0,0,1,4.14-9.95h.07c36.77,5.6,71.42,12.93,105.76,17.33,34.12,4.51,68.3,5.3,99.88-1.65,31.65-6.56,60.29-20.8,83.32-42a199.5,199.5,0,0,0,30.57-35.92,235.83,235.83,0,0,0,12-20.64c1.78-3.55,3.49-7.14,5.08-10.7.81-1.79,1.55-3.56,2.25-5.31l1.71-4.51.93-2.43a25.55,25.55,0,0,1,48.63,15.41Z"/><path class="cls-3" d="M1734.1,2747.22c.2-2.61.74-6.17,1.21-9.32.37-3.3,1.06-6.51,1.46-9.82l3-19.65c2-13.06,4-26.1,5.27-39s2.17-25.79,2.35-38.71a280.73,280.73,0,0,0-2.85-39.61l-.13-.86a9.19,9.19,0,0,1,15.26-8.13c12.16,11,20.74,25.63,26.62,40.79s8.56,31.09,9.88,46.82a225.83,225.83,0,0,1-1.4,46.63,199.58,199.58,0,0,1-4.29,22.73c-1,3.73-1.92,7.49-3.11,11.18s-2.39,7.23-4.16,11.51a25.68,25.68,0,0,1-49.35-11.71Z"/><path class="cls-3" d="M1552.29,2765.61c.2-2.61.74-6.17,1.21-9.31.37-3.31,1.06-6.52,1.46-9.83l3-19.64c2-13.07,4-26.11,5.28-39s2.16-25.8,2.35-38.72a280.79,280.79,0,0,0-2.86-39.61l-.12-.86a9.19,9.19,0,0,1,15.25-8.13c12.17,11,20.74,25.63,26.63,40.79,5.74,15.24,8.55,31.1,9.87,46.82a225.11,225.11,0,0,1-1.4,46.63,198.75,198.75,0,0,1-4.29,22.73c-.94,3.73-1.92,7.5-3.11,11.19s-2.39,7.22-4.16,11.51a25.68,25.68,0,0,1-49.35-11.71Z"/><path class="cls-3" d="M1270.76,2662.39a25.61,25.61,0,0,1-25.61-25.62V2228.6a25.61,25.61,0,1,1,51.22,0v408.17A25.62,25.62,0,0,1,1270.76,2662.39Z"/><path class="cls-3" d="M953.51,2803.65a855.78,855.78,0,0,1-167.24-16.91,178.07,178.07,0,0,1-116.07-80.88c-25.59-41.49-32.66-90-19.91-136.49,14.27-52.08,43.2-92.66,65-117.54,11.57-13.23,16.48-30.93,13.14-47.36-13.91-68.42-41-123.95-55.51-153.78l-.51-1.07a767.54,767.54,0,0,1-42.61-107.12c-112.13-359,26.59-580,32.55-589.28l.57-.84c4.29-6.1,110.78-149.51,607.87-149.51s603.58,143.41,607.87,149.51l.56.84c6,9.23,144.69,230.29,32.56,589.28a768.77,768.77,0,0,1-42.61,107.12h0l-.52,1.07c-14.53,29.83-41.59,85.36-55.51,153.78-3.34,16.43,1.57,34.13,13.15,47.36,21.76,24.88,50.7,65.46,65,117.54,12.75,46.53,5.67,95-19.92,136.49a178.05,178.05,0,0,1-116.06,80.88c-92.56,18.57-233.3,31.22-378.15-14.1-43.19-13.51-80.38-39.18-106.34-73.07-26,33.89-63.15,59.56-106.34,73.07C1091.17,2795.56,1019,2803.65,953.51,2803.65ZM704.9,1581.76c-8.56,14.18-127.6,220.93-26.23,545.47a716.21,716.21,0,0,0,39.76,100l.51,1.06c15.54,31.87,44.45,91.21,59.66,166,6.51,32-2.76,66.12-24.79,91.3-18.23,20.84-42.42,54.64-54.12,97.35-9,32.67-3.94,66.79,14.12,96.06a126.62,126.62,0,0,0,82.54,57.54c86.69,17.41,218.27,29.32,352.77-12.76,37.36-11.69,68.64-34.95,88.08-65.5,1.47-2.3,2.88-4.66,4.21-7.06a29.63,29.63,0,0,0,3.74-14.42h51.22a29.66,29.66,0,0,0,3.73,14.41c1.34,2.41,2.75,4.77,4.21,7.06,19.44,30.56,50.73,53.82,88.08,65.51,134.51,42.08,266.08,30.17,352.77,12.76a126.62,126.62,0,0,0,82.55-57.54c18.06-29.27,23.07-63.39,14.12-96.06-11.71-42.71-35.9-76.51-54.13-97.35-22-25.18-31.29-59.31-24.79-91.3,15.22-74.8,44.13-134.14,59.66-166l.52-1.06a717.44,717.44,0,0,0,39.76-100c102.22-327.28-18.52-532.89-26.32-545.62-5-6-111.83-127.51-565.77-127.51C820.81,1454.1,711.88,1573.46,704.9,1581.76Zm1141.21,656.65h0Z"/><path class="cls-4" d="M442.83,1230.07c-299.85-20.54-341.17-173-300.19-329.32C174,780.71,253.86,658.33,302.52,591.4a395.89,395.89,0,0,0,57.83-116.46C531.45-81,906.08,97,906.08,97s1.09,7.34,2.85,20.77C929,275,1033.18,1270.54,442.83,1230.07Z"/><g class="cls-2"><path class="cls-3" d="M442.83,1230.07c-299.85-20.54-341.17-173-300.19-329.32l1.33,2c65.15,97.22,215,72.6,246.32-40.15,16.27-58.5,32.3-127.18,42.35-198.22,22.2-157.1,166.77-526.73,476.29-546.65C929,275,1033.18,1270.54,442.83,1230.07Z"/></g><g class="cls-6"><path class="cls-5" d="M285.45,659.7a396.13,396.13,0,0,0,57.83-116.46c171.09-556,545.73-378,545.73-378s1.08,7.34,2.84,20.78c10.73,84,45.42,407-14.46,683.64,82.94-289.23,43.17-660.94,31.54-751.95C907.17,104.29,906.08,97,906.08,97s-374.63-178-545.73,378A395.89,395.89,0,0,1,302.52,591.4C253.86,658.33,174,780.71,142.64,900.75c-3.39,12.94-6.21,25.85-8.37,38.67C169.88,829.26,240.79,721.13,285.45,659.7Z"/></g><path class="cls-3" d="M477.15,1256.9q-17.75,0-36.08-1.26c-166.31-11.39-272.57-64.14-315.84-156.78-76-162.66,65.49-397.19,156.58-522.51a370,370,0,0,0,54-109c62.84-204.18,160.08-336.46,289-393.17C775.32,8,911.36,71.07,917.08,73.79l12.3,5.84,2,13.47c.28,1.85,27.81,187.26,22.09,405.58-7.78,296.48-69.88,509.91-184.6,634.37C693.07,1215.33,595.05,1256.9,477.15,1256.9ZM768.93,95.6a304.89,304.89,0,0,0-124.16,25.81c-114.35,50.65-201.82,172.12-260,361a421,421,0,0,1-61.56,124c-68,93.55-218.88,326.68-151.61,470.72,34.79,74.48,126.62,117.33,272.93,127.36,117.83,8.07,214.27-27.66,286.67-106.21C966,843.65,896.1,218.12,882.73,115.15A343.37,343.37,0,0,0,768.93,95.6Z"/><path class="cls-4" d="M2098.69,1230.07c299.84-20.54,341.17-173,300.19-329.32-31.37-120-111.22-242.42-159.89-309.35a396.13,396.13,0,0,1-57.83-116.46C2010.07-81,1635.43,97,1635.43,97s-1.08,7.34-2.84,20.77C1612.49,275,1508.33,1270.54,2098.69,1230.07Z"/><g class="cls-2"><path class="cls-3" d="M2098.69,1230.07c299.84-20.54,341.17-173,300.19-329.32l-1.34,2c-65.15,97.22-215,72.6-246.31-40.15-16.28-58.5-32.3-127.18-42.35-198.22-22.2-157.1-166.77-526.73-476.29-546.65C1612.49,275,1508.33,1270.54,2098.69,1230.07Z"/></g><g class="cls-6"><path class="cls-5" d="M2256.07,659.7a395.89,395.89,0,0,1-57.83-116.46c-171.1-556-545.73-378-545.73-378s-1.08,7.34-2.85,20.78c-10.73,84-45.41,407,14.47,683.64-82.94-289.23-43.17-660.94-31.54-751.95,1.76-13.43,2.84-20.77,2.84-20.77s374.64-178,545.73,378A396.13,396.13,0,0,0,2239,591.4c48.67,66.93,128.52,189.31,159.89,309.35q5.09,19.41,8.37,38.67C2371.64,829.26,2300.73,721.13,2256.07,659.7Z"/></g><path class="cls-3" d="M2064.36,1256.9c-117.9,0-215.91-41.57-291.75-123.85-114.72-124.46-176.83-337.89-184.6-634.37C1582.29,280.36,1609.82,95,1610.1,93.1l2-13.47,12.3-5.84c5.73-2.72,141.76-65.76,292.23.42,128.93,56.71,226.17,189,289,393.17a369.47,369.47,0,0,0,54,109c91.08,125.32,232.55,359.85,156.58,522.51-43.27,92.64-149.54,145.39-315.85,156.78Q2082.11,1256.9,2064.36,1256.9ZM1658.8,115.08c-13.33,102.82-83.18,728.74,151.51,983.29,72.39,78.52,168.83,114.22,286.63,106.17,146.32-10,238.14-52.88,272.93-127.36,67.27-144-83.61-377.17-151.6-470.72a420.71,420.71,0,0,1-61.56-124c-58.27-189.33-146-310.9-260.68-361.35C1791,74.9,1692.61,102.73,1658.8,115.08Z"/><path class="cls-4" d="M1270.76,1696.8c-1044.45,0-909.5-461.6-850.93-597C426,1085.39,432,1070,437.48,1054c28.68-82.65,48.55-182.14,59.65-246.8,5.8-33.86,10-68,13.37-102.22C581-6,1270.76,25.86,1270.76,25.86S1960.55-6,2031,705c3.36,34.21,7.57,68.36,13.38,102.22,13.26,77.18,39,204.11,77.29,292.62C2180.25,1235.2,2315.21,1696.8,1270.76,1696.8Z"/><path class="cls-5" d="M2121.68,1099.79c-6.2-14.4-12.12-29.77-17.64-45.82-56.23-28.12-152-53.73-278.68-5.43a302.93,302.93,0,0,1-328.75-75.62q-11.13-11.86-22.6-25c-25.4-29.15-48.91-54.71-70.24-76.93-72.51-75.56-193.52-75.56-266,0-21.33,22.22-44.84,47.78-70.25,76.93q-11.45,13.14-22.59,25a303,303,0,0,1-328.76,75.62c-126.67-48.3-222.44-22.69-278.67,5.43-5.52,16-11.44,31.42-17.65,45.82-58.57,135.41-193.52,597,850.93,597S2180.25,1235.2,2121.68,1099.79Z"/><g class="cls-2"><path class="cls-3" d="M1270.76,1696.8c-1044.45,0-909.5-461.6-850.93-597,4-9.28,7.86-19,11.61-29C394.28,1242.43,444.88,1551,1270.76,1551c826.05,0,876.48-308.73,839.31-480.34,3.7,10.08,7.57,19.81,11.61,29.09C2180.25,1235.2,2315.21,1696.8,1270.76,1696.8Z"/></g><g class="cls-6"><path class="cls-5" d="M2121.68,1099.79c-38.3-88.51-64-215.44-77.29-292.62-5.81-33.86-10-68-13.38-102.22C1960.55-6,1270.76,25.86,1270.76,25.86S581-6,510.5,705c-3.36,34.21-7.57,68.36-13.37,102.22-11.1,64.66-31,164.15-59.65,246.8-5.52,16-11.44,31.42-17.65,45.82C398.57,1149,367.26,1241.1,386,1338.55c-1-75.31,22.52-142.41,39.57-181.84,6.21-14.4,12.13-29.77,17.65-45.82,28.69-82.65,48.55-182.14,59.65-246.8,5.8-33.87,10-68,13.37-102.22,34.09-343.92,213.1-514,388.84-598,14,27.2,77.42,33.51,146.82,13.57,68.91-19.79,119.1-58.37,117.31-88.75,64.86-7.89,107.29-5.94,107.29-5.94s689.79-31.88,760.26,679.09c3.35,34.2,7.57,68.35,13.37,102.22,13.26,77.18,39,204.11,77.3,292.62,11.49,26.58,25.93,65.73,33.81,111.48C2159.48,1198.38,2137.72,1136.86,2121.68,1099.79Z"/></g><path class="cls-3" d="M1490.1,1117c0,68.2-98.2,140.57-219.34,140.57s-219.34-72.37-219.34-140.57,98.2-123.51,219.34-123.51S1490.1,1048.76,1490.1,1117Z"/><ellipse class="cls-5" cx="1270.76" cy="1055.27" rx="116.48" ry="20.73"/><path class="cls-3" d="M932.1,1192.11c4.83,40.08,19.12,80.58,44,108.55,12.66,13.78,27.52,24.78,44.65,31.35l6.41,2.45,6.64,1.93c4.33,1.52,9,2.14,13.51,3.29,4.67.64,9.27,1.5,14,1.91,4.79.2,9.43,1,14.29.88a271.36,271.36,0,0,0,29.36-1c4.9-.38,9.78-.84,14.56-1.62,4.85-.56,9.57-1.53,14.28-2.47s9.3-2.21,13.94-3.28c4.48-1.48,9.11-2.62,13.42-4.41a166.7,166.7,0,0,0,25.19-11.62,169.54,169.54,0,0,0,43.24-34.07,203.92,203.92,0,0,0,17.76-22.64q4.06-6.12,7.92-12.58c2.46-4.24,4.92-9,7-13l.64-1.21a8.61,8.61,0,0,1,16.2,3.57,93.68,93.68,0,0,1-.76,18.06,119.88,119.88,0,0,1-3.52,17.35,138.87,138.87,0,0,1-14,32.91,148.67,148.67,0,0,1-51,51.52,170.38,170.38,0,0,1-32.76,15.56c-5.61,2.21-11.38,3.66-17.08,5.44-5.75,1.33-11.49,3-17.28,3.92s-11.57,2-17.36,2.6c-5.79.78-11.56,1.21-17.32,1.52a277.28,277.28,0,0,1-34.7-.13c-23.41-1.45-47.46-6.69-69.46-17.61a147.7,147.7,0,0,1-30.81-19.91,137.48,137.48,0,0,1-24.82-26.57A176.06,176.06,0,0,1,930.69,1292a191.44,191.44,0,0,1-10.86-32.9,207.41,207.41,0,0,1-5.12-33.56,187.81,187.81,0,0,1,.31-33.92,8.55,8.55,0,0,1,17-.16Z"/><path class="cls-3" d="M1298.94,1233.07c0-.34,0-.09,0,0l.12.53.31,1.28.76,2.84c.56,2,1.21,4,1.9,6,1.44,4,3.09,8,4.87,12a139.71,139.71,0,0,0,13.12,22.45,128.82,128.82,0,0,0,38.12,34.78,149.71,149.71,0,0,0,24,11.62c4.14,1.79,8.62,3,12.94,4.45,4.5,1.1,8.89,2.52,13.53,3.37s9.19,1.91,13.93,2.48c4.67.84,9.45,1.36,14.26,1.8a245.9,245.9,0,0,0,28.79,1.18c18.79-.34,36.89-3.33,53.23-9.91,16.46-6.4,30.7-16.9,42.79-30.24,24.28-26.7,39.31-65.65,47.79-105.6l.14-.66a8.6,8.6,0,0,1,16.86.19,163,163,0,0,1,2.52,34.25,190.36,190.36,0,0,1-3.86,34.27,168.52,168.52,0,0,1-28.26,65.63,144.55,144.55,0,0,1-25.7,27.23,152.67,152.67,0,0,1-31.79,20.37c-11.26,5.74-23.17,9.42-35.08,12.72-6,1.28-12,2.66-18,3.5-6,.64-12,1.77-18,1.94a299.32,299.32,0,0,1-35.27.34c-5.85-.24-11.73-.61-17.63-1.33-5.89-.55-11.8-1.56-17.7-2.59s-11.81-2.53-17.7-3.84c-5.86-1.75-11.77-3.19-17.55-5.39a180.62,180.62,0,0,1-90-66.36,179,179,0,0,1-18.64-33.12,165.74,165.74,0,0,1-6.57-17.92c-.92-3.09-1.78-6.2-2.54-9.43l-1.09-5-.49-2.64-.54-3.37a28.46,28.46,0,1,1,56.37-7.87Z"/><ellipse class="cls-3" cx="930.48" cy="843.15" rx="103.28" ry="131.22"/><ellipse class="cls-5" cx="957.01" cy="825.06" rx="42.77" ry="54.34"/><path class="cls-3" d="M957,881.9c-25,0-45.27-25.5-45.27-56.84s20.31-56.85,45.27-56.85,45.28,25.5,45.28,56.85S982,881.9,957,881.9Zm0-108.69c-22.2,0-40.27,23.26-40.27,51.85S934.81,876.9,957,876.9s40.28-23.26,40.28-51.84S979.22,773.21,957,773.21Z"/><ellipse class="cls-3" cx="1611.03" cy="843.15" rx="103.28" ry="131.22"/><ellipse class="cls-5" cx="1584.5" cy="825.06" rx="42.77" ry="54.34"/><path class="cls-3" d="M1270.76,1722.43c-457.95,0-748.23-88.38-862.77-262.71-90.1-137.13-46-290.74-11.67-370.1,38-87.92,63.67-217.41,75.57-286.78,5.17-30.14,9.35-62.05,13.15-100.41C522.63,322.91,735,152,906.61,75.4,1085.46-4.43,1253.68-.42,1270.76.23c17.08-.63,185.3-4.65,364.14,75.17,171.58,76.57,384,247.51,421.58,627,3.79,38.36,8,70.27,13.15,100.41,11.9,69.37,37.54,198.87,75.56,286.78,34.32,79.36,78.44,233-11.67,370.1C2019,1634.05,1728.71,1722.43,1270.76,1722.43ZM1258.54,51.29c-40.26,0-184.55,5.05-332.75,71.64C695.32,226.5,564.18,423.17,536,707.48c-3.87,39-8.33,73.08-13.64,104-15,87.48-40.91,210.27-79,298.45-30.22,69.88-69.44,204.6,7.46,321.63,46.08,70.13,127.86,125.84,243.07,165.59,142.35,49.12,336.44,74,576.89,74s434.54-24.9,576.88-74c115.22-39.75,197-95.46,243.07-165.59,76.9-117,37.68-251.75,7.47-321.63-38.13-88.17-64-211-79-298.45-5.31-31-9.77-65-13.64-104-28.16-284.31-159.3-481-389.78-584.55C1442,44.87,1273.59,51.4,1271.92,51.45l-1.16.06-1.19-.06C1269.33,51.44,1265.48,51.29,1258.54,51.29Z"/><path class="cls-7" d="M1270.81,1787.68c186.45,0,253.61-127.76,217.76-244.85-16.67-54.45-10.13-178.91-10.13-178.91s-198.74,15.78-207.68-143.38c-9,159.16-207.68,143.38-207.68,143.38s6.54,124.46-10.13,178.91c-35.85,117.09,31.31,244.85,217.76,244.85"/><path class="cls-3" d="M1296.37,1220.54c2.74,32.16,3.3,64.34,3.56,96.5q.08,48.26-2.15,96.51c-1.44,32.17-3.35,64.34-7,96.51s-8.36,64.33-16.52,96.5a3.56,3.56,0,0,1-6.91,0c-8.15-32.17-12.78-64.33-16.52-96.5s-5.6-64.34-7-96.51-2.2-64.34-2.15-96.51c.25-32.16.81-64.34,3.56-96.5a25.7,25.7,0,0,1,51.22,0Z"/><path class="cls-3" d="M1270.8,1813.3h-.09c-94.86,0-171-32.33-214.43-91-38.23-51.68-48.37-119.82-27.82-186.94,12.57-41.06,10.79-136.69,9-170.06l-1.52-29.19,29.13,2.31c.87.06,91.78,6.39,143.89-39.26,22.43-19.65,34.26-45.83,36.18-80h51.15c1.92,34.2,13.76,60.38,36.19,80,52.1,45.65,143,39.33,143.93,39.26l29-2.21-1.48,29.09c-1.74,33.37-3.53,129,9,170.06,20.55,67.12,10.41,135.26-27.82,186.94C1441.82,1781,1365.67,1813.3,1270.8,1813.3Zm-181.18-423.53c1,41.06.75,118.32-12.18,160.56-15.74,51.43-8.44,103,20,141.48,34,46,93.91,70.26,173.25,70.26h.09c79.35,0,139.26-24.29,173.25-70.26,28.47-38.49,35.77-90,20-141.48-12.94-42.24-13.14-119.5-12.18-160.56-37.81-1.37-105.08-10.15-152.92-51.92a153.45,153.45,0,0,1-28.22-32.48,153.45,153.45,0,0,1-28.22,32.48C1194.69,1379.62,1127.43,1388.4,1089.62,1389.77Z"/><path class="cls-5" d="M1172.37,1144.3s-79.28,147.59-248.81,47.57c0,0-15.45,173.2,165.87,173.2s181.33-179.29,181.33-179.29Z"/><path class="cls-5" d="M1369.15,1144.3s79.27,147.59,248.81,47.57c0,0,15.45,173.2-165.88,173.2s-181.32-179.29-181.32-179.29Z"/><g class="cls-2"><path class="cls-3" d="M1617.88,1176.63s-22.28,73.18-127.88,90.56c-39.29,6.47-69.29-2.32-91.48-15.88,55.43-27.36,91.58-70.22,91.58-111.58,0-68.2-98.2-123.5-219.34-123.5s-219.34,55.3-219.34,123.5c0,41.35,36.12,84.19,91.52,111.55-22.19,13.58-52.2,22.38-91.52,15.91-105.6-17.38-127.88-90.56-127.88-90.56s-91.46,227.47,161,250.64c0,0,93,11,186.16-67.08,93.15,78.06,186.16,67.08,186.16,67.08C1709.34,1404.1,1617.88,1176.63,1617.88,1176.63Z"/></g><path class="cls-3" d="M1490.1,1117c0,68.2-98.2,140.57-219.34,140.57s-219.34-72.37-219.34-140.57,98.2-123.51,219.34-123.51S1490.1,1048.76,1490.1,1117Z"/><ellipse class="cls-5" cx="1270.76" cy="1055.27" rx="116.48" ry="20.73"/><path class="cls-3" d="M1298.94,1240.94l-.53,3.37-.5,2.64-1.08,5c-.76,3.23-1.62,6.34-2.54,9.43a163.7,163.7,0,0,1-6.58,17.92,178.38,178.38,0,0,1-18.64,33.12,185.69,185.69,0,0,1-90,66.36c-5.79,2.2-11.7,3.64-17.55,5.39-5.9,1.31-11.79,2.91-17.7,3.84s-11.81,2-17.7,2.59c-5.91.72-11.78,1.09-17.64,1.33a299.14,299.14,0,0,1-35.26-.34c-5.94-.17-12-1.3-18-1.94-6-.84-12-2.22-18-3.5-11.91-3.3-23.82-7-35.08-12.72A152.67,152.67,0,0,1,970.36,1353a144.6,144.6,0,0,1-25.71-27.23,168.5,168.5,0,0,1-28.25-65.63,191.29,191.29,0,0,1-3.87-34.27,163,163,0,0,1,2.53-34.25,8.6,8.6,0,0,1,16.86-.2l.14.67c8.48,40,23.51,78.9,47.78,105.6,12.1,13.34,26.34,23.84,42.8,30.24,16.34,6.58,34.44,9.57,53.23,9.91a245.9,245.9,0,0,0,28.79-1.18c4.81-.44,9.58-1,14.25-1.8,4.75-.57,9.34-1.54,13.94-2.48s9-2.27,13.53-3.37c4.32-1.5,8.8-2.66,12.94-4.45a149.71,149.71,0,0,0,24-11.62,128.66,128.66,0,0,0,38.11-34.78,139.76,139.76,0,0,0,13.13-22.45c1.77-4,3.43-8,4.86-12,.69-2,1.35-4,1.91-6l.75-2.84.31-1.28.12-.53c0-.13.08-.38,0,0a28.46,28.46,0,1,1,56.37,7.87Z"/><path class="cls-3" d="M1298.94,1233.07c0-.34,0-.09,0,0l.12.53.31,1.28.76,2.84c.56,2,1.21,4,1.9,6,1.44,4,3.09,8,4.87,12a139.71,139.71,0,0,0,13.12,22.45,128.82,128.82,0,0,0,38.12,34.78,149.71,149.71,0,0,0,24,11.62c4.14,1.79,8.62,3,12.94,4.45,4.5,1.1,8.89,2.52,13.53,3.37s9.19,1.91,13.93,2.48c4.67.84,9.45,1.36,14.26,1.8a245.9,245.9,0,0,0,28.79,1.18c18.79-.34,36.89-3.33,53.23-9.91,16.46-6.4,30.7-16.9,42.79-30.24,24.28-26.7,39.31-65.65,47.79-105.6l.14-.66a8.6,8.6,0,0,1,16.86.19,163,163,0,0,1,2.52,34.25,190.36,190.36,0,0,1-3.86,34.27,168.52,168.52,0,0,1-28.26,65.63,144.55,144.55,0,0,1-25.7,27.23,152.67,152.67,0,0,1-31.79,20.37c-11.26,5.74-23.17,9.42-35.08,12.72-6,1.28-12,2.66-18,3.5-6,.64-12,1.77-18,1.94a299.32,299.32,0,0,1-35.27.34c-5.85-.24-11.73-.61-17.63-1.33-5.89-.55-11.8-1.56-17.7-2.59s-11.81-2.53-17.7-3.84c-5.86-1.75-11.77-3.19-17.55-5.39a180.62,180.62,0,0,1-90-66.36,179,179,0,0,1-18.64-33.12,165.74,165.74,0,0,1-6.57-17.92c-.92-3.09-1.78-6.2-2.54-9.43l-1.09-5-.49-2.64-.54-3.37a28.46,28.46,0,1,1,56.37-7.87Z"/></g></g></svg>