<svg xmlns="http://www.w3.org/2000/svg" viewBox="0 0 2369.8 2929.04"><defs><style>.cls-1{fill:#e8a465;}.cls-2{opacity:0.35;}.cls-3{fill:#fff;}.cls-4{opacity:0.25;}.cls-5{fill:#1d1c22;}.cls-6{fill:#f24949;}</style></defs><title>introAtivo 1</title><g id="Camada_2" data-name="Camada 2"><g id="Layer_1" data-name="Layer 1"><path class="cls-1" d="M614.88,2673.6c-39.62,146.62-428.07,136-528,80.57-108.15-60-136.67-309.11,233.29-272.66,29.83,2.93,128.23,25.86,167.06,110.75"/><g class="cls-2"><path class="cls-3" d="M320.19,2525c-208.26-20.52-290.26,49.43-302.86,125.24C3.23,2561,72.19,2457.05,320.19,2481.51c29.81,2.92,128.23,25.88,167.06,110.75C487.25,2592.26,350,2527.87,320.19,2525Z"/></g><g class="cls-4"><path class="cls-5" d="M614.86,2673.59c-39.58,146.62-428.06,136-528,80.57-53.8-29.81-87.86-106.45-63-171.43,11.62,33.36,34.58,62.26,63.05,78.06,82.67,45.84,362.76,61,479.5-18.08Z"/></g><path class="cls-5" d="M311.44,2807.92c-97.31,0-189.53-16.32-232.19-40-61.07-33.87-93.81-115.8-73-182.63C20,2541.4,78.11,2441.81,321.73,2465.83c45.27,4.46,141.13,35.26,179.83,119.88a15.75,15.75,0,1,1-28.65,13.1C432,2509.34,319.77,2497.3,318.64,2497.18c-155.3-15.29-258.19,20.25-282.28,97.51-18.63,59.74,15.69,122.15,58.17,145.7,70.33,39,299.19,55.9,427.42,1.63,43.54-18.43,69.69-42.82,77.72-72.53a15.75,15.75,0,1,1,30.41,8.23c-10.68,39.52-42.93,70.92-95.86,93.32C472.37,2797.21,390.24,2807.92,311.44,2807.92Z"/><path class="cls-5" d="M327.94,2559.5c-18.14,16.94-34.21,34.05-45.63,53.13A90.54,90.54,0,0,0,271.4,2643c-1.81,10.5-1.45,21,.33,32.25,3.67,22.32,10.87,44.81,21.52,64,5.35,9.54,11.68,18.23,18.93,24.66s15.1,10.44,23.53,11.49l.3,0a15.75,15.75,0,0,1-3.31,31.33,67.26,67.26,0,0,1-23-6.21,78.22,78.22,0,0,1-18.94-12.77c-11-10-19-21.63-25.17-33.62a185.82,185.82,0,0,1-14.41-37,209.24,209.24,0,0,1-7.1-38.59,131.33,131.33,0,0,1-.42-20.2l1-10.4c.41-3.44,1.44-6.8,2.16-10.19a112.83,112.83,0,0,1,45-64.74c10.68-7.35,22.29-13.14,34.94-15.91a1.37,1.37,0,0,1,1.61,1,1.34,1.34,0,0,1-.4,1.27Z"/><path class="cls-5" d="M176.56,2565.65c-14.34,16.16-26.12,32.22-34.22,49.44a86.16,86.16,0,0,0-7.45,27c-.18,2.32-.59,4.6-.6,6.94l0,7c0,4.65.8,9.62,1.12,14.38a132.16,132.16,0,0,0,18.94,53.05,143.76,143.76,0,0,0,17.53,22,133.74,133.74,0,0,0,10.34,9.48q2.7,2.23,5.44,4.27c1.71,1.28,3.92,2.75,5,3.45l1,.66a15.73,15.73,0,0,1-16.09,27c-3.48-1.94-5.69-3.4-8.31-5.17s-4.92-3.47-7.21-5.36a141.8,141.8,0,0,1-13.15-11.92,152.58,152.58,0,0,1-21.45-28.09,145.66,145.66,0,0,1-14-32.45c-1.81-5.6-2.72-11.42-4.07-17.1-.65-5.8-1.48-11.58-1.79-17.35,0-5.82-.42-11.45,0-17.38l.78-8.89c.31-2.95,1.1-5.87,1.65-8.79A109.55,109.55,0,0,1,123,2604.92a94.54,94.54,0,0,1,22.39-26.2c8.91-7.08,18.83-12.78,30-15.38a1.36,1.36,0,0,1,1.63,1,1.37,1.37,0,0,1-.3,1.21Z"/><path class="cls-1" d="M1904.55,2738.61H869.87l-183.3-18.51L418.06,2693c5.55,0-61.91-28.12-42.26-105.94,7.09-28.12-4-29-31.74-63.37-42.62-52.81,47-152.29,8.42-190.85-14.45-14.45-65,29.5-93.3-16.23s44.86-189.35,22.3-231.81-85.43,20.48-41.28-179.39c33.32-150.68-31.54-53.68-43.28-117.4-1.42-7.68-1-16.31.75-25.52,11.06-58.09,76.28-138.83,78.17-150.88,3.82-24.1-32.33,3-48.52-26-27-48.41,41.47-89.6,36.67-117.29-4.53-26.07-56-33.71-29.5-103.58,16.58-43.63,93.73-114.56,93.34-133.63-.59-25.36-43-12.64-29.5-71,5.95-25.8,31.08-53.61,57.9-78.42,33.94-31.46,70.57-58.13,74.23-69.86,55.1-42,45.26-62.74,50.18-62.74l55.65-3.15,776.92-44.15C1319.7,948,1337,981.59,1357.87,1008c45.29,57.42,107.12,81,109.92,128,2.71,45.18-19.85,51-8,75.46,8.12,16.78,55.81,29.26,66,63.13,8.27,27.57-22.41,26.31-12.8,45.77,8.27,16.7,39.15,25.75,41.55,48.91,1.89,18.31-1.54,27.57,3.7,41.67,18.87,50.76,54.19,54.55,69.16,83.57,14.73,28.59,1.77,44.86,8.82,66.44,11.93,36.79,39.66,37.06,52.89,51.24,33.72,36.11,12.41,58.76,20,78.81,12.68,33.79,40.41,27.33,54.67,48.16,26.66,38.91,9.45,53.48,28.9,77.15Z"/><g class="cls-2"><path class="cls-3" d="M363.94,1175.71c39.11,163.76-112,121.62-50.56,240.83s-87.87,105.9-30.72,154.11c64.7,54.62-20.05,77-85,191.84,11.06-58.09,76.28-138.83,78.17-150.88,3.82-24.1-32.33,3-48.52-26-27-48.41,41.47-89.6,36.67-117.29-4.53-26.07-56-33.71-29.5-103.58,16.58-43.63,93.73-114.56,93.34-133.63-.59-25.36-43-12.64-29.5-71,5.95-25.8,31.08-53.61,57.9-78.42,33.94-31.46,70.57-58.13,74.23-69.86,55.1-42,45.26-62.74,50.18-62.74l55.65-3.15,2.48,6.46S346.06,1101,363.94,1175.71Z"/></g><g class="cls-2"><path class="cls-3" d="M1694.6,1747.84c-13.28-16.86-3.82-38.21-37.54-74.32-13.23-14.18-41-14.49-52.89-51.28-7.05-21.54,4.77-54.58-10-83.18-15-29-29.78-22.79-53.88-66.53a144.08,144.08,0,0,1-16.26-52.37c-2.41-23.15-30.26-32.07-38.53-48.77-9.61-19.45,1-44.68-7.24-72.25-10.16-33.87-60.06-24.06-69.23-65-5.91-26.47,22-27.65,19.29-72.82-2.79-47-57.18-34.54-102.47-92-20.84-26.39-38.16-60-44.66-106.26l32-61.28C1319.7,948,1337,981.59,1357.87,1008c45.29,57.42,107.12,81,109.92,128,2.71,45.18-19.85,51-8,75.46,8.12,16.78,55.81,29.26,66,63.13,8.27,27.57-22.41,26.31-12.8,45.77,8.27,16.7,39.15,25.75,41.55,48.91,1.89,18.31-1.54,27.57,3.7,41.67,18.87,50.76,54.19,54.55,69.16,83.57,14.73,28.59,1.77,44.86,8.82,66.44,11.93,36.79,39.66,37.06,52.89,51.24,33.72,36.11,12.41,58.76,20,78.81,12.68,33.79,40.41,27.33,54.67,48.16C1790.34,1778.08,1723,1784,1694.6,1747.84Z"/></g><path class="cls-1" d="M1968.68,2270.24s223.57,40.38,248.6-107.14,95.46-60.83,100.88-171.91,48-122.44,32.51-180.31c-18.06-67.43-188.16-112.28-199.74-17.46-4.23,34.68-48.9,8.43-77.2,31.91-33.08,27.45-12,73.15-54.18,78.27-26.54,3.22-118.6-3-126.73,144.49"/><g class="cls-2"><path class="cls-3" d="M2348.32,1804.15c-54.34-40.84-160.64-52.26-169.7,22-4.21,34.66-48.91,8.43-77.19,31.9-33.08,27.45-12,73.14-54.19,78.26-26.55,3.23-118.59-3-126.74,144.49l-27.69-32.72c8.16-147.5,100.2-141.27,126.74-144.5,42.14-5.12,21.11-50.81,54.19-78.26,28.28-23.47,72.94,2.76,77.19-31.94C2162.12,1701.8,2321.31,1740.59,2348.32,1804.15Z"/></g><g class="cls-4"><path class="cls-5" d="M2318.16,1991.19c-5.4,111.1-75.86,24.38-100.86,171.91s-248.63,107.12-248.63,107.12l-75.86-222.12c.24-4,58.36-43.19,58.71-47l49.54,94.82c43.4,83.06,168.19,66.22,186.23-25.75q.57-3,1.1-6c25-147.53,95.46-60.8,100.86-171.9,3.23-65.62,19.42-96.45,28.91-122.64,16.3,11.61,28.39,25.87,32.53,41.27C2366.17,1868.74,2323.59,1880.13,2318.16,1991.19Z"/></g><path class="cls-5" d="M2033.84,2291.11a415.56,415.56,0,0,1-68-5.37,15.75,15.75,0,0,1,5.59-31h0c1.21.21,121.08,21,188.08-26.07,23.4-16.44,37.2-38.76,42.19-68.21,13.47-79.35,39.64-98.06,69.94-112.87,17.86-8.73,28.64-14,30.75-57.16,2.83-58.09,15.73-91,25.15-115,8.91-22.75,14.29-36.47,7.88-60.42-8.71-32.52-70.1-63.27-119.32-59.79-29.9,2.1-46.57,15.61-49.57,40.16-4,32.55-32.56,33.57-49.64,34.19-12.67.45-24.63.88-33.14,7.93-10.75,8.93-13.84,21.11-17.12,34-4.68,18.41-11.09,43.64-45.22,47.78-2.39.29-5.28.52-8.56.77-31.69,2.42-97.64,7.46-104.34,129a15.75,15.75,0,0,1-31.46-1.74c8.22-149.08,99.17-156,133.41-158.63,2.74-.21,5.15-.39,7.15-.63,11.69-1.42,13.65-5.27,18.48-24.27,4-15.6,8.9-35,27.54-50.49,16.77-13.91,37.21-14.63,52.14-15.17,18.77-.68,18.89-1.68,19.48-6.52,4.87-39.9,33.54-64.6,78.64-67.77,58.82-4.18,138.08,31.25,152,83.06,9.09,34,.72,55.33-9,80.07-9.11,23.24-20.44,52.16-23,105.09-2.79,57.22-22.68,71.38-48.38,83.94-20.09,9.81-40.86,20-52.71,89.83-6.39,37.67-25,67.54-55.22,88.77C2135.34,2284.17,2078.15,2291.11,2033.84,2291.11Z"/><path class="cls-3" d="M1236.29,2015c0,165.71-133.23,346.22-246.83,428.66-68,49.36-94.89-73.15-139.15-73.15-130.17,0-132.57-186-258.2-348.28-28.9-37.33-3.31-63.52-8.73-155.63-6-101.62,27.09-177,82.18-206.8,24-13,37.33-48.16,48.16-98.74,22.68-105.83,135.74-135.9,200.24-135.9,44.35,0,123.67,15.5,172.49,60.51,69.54,64.12,36.12,156.23,87.6,195.06,50.81,38.33,94,114,101.58,140.31C1303.42,1917.11,1236.29,1979.66,1236.29,2015Z"/><g class="cls-4"><path class="cls-5" d="M1588.58,2738.61H907.49a60.5,60.5,0,0,1-54.27-33.75l-358.17-726.1c-15.14-30.7,7.12-66.43,41.35-66.71l1.92,0a199.65,199.65,0,0,1,24.59,1,61,61,0,0,1,53.85,52.06c3.09,21.08,11.36,45,32.54,50.5,11.6,3,23.29,1.46,34-2.27,25.67-8.93,54.59-1.45,70.77,20.38,9.83,13.27,22.72,24,38.8,24.33,13.79.29,25.63-6.44,35.36-15.71,20-19,51.41-25.74,73.42-9.09,24,18.19,42.18,30.39,89.29,22.69,35.89-5.86,36.63-41.06,67.13-64.12,27.46-20.75,52.74,9.5,67.37-52.09,5.11-21.5,26.5-35.23,48.4-38.18a138.83,138.83,0,0,1,62.43,5.78c24.81,8.22,65.82,4.48,98.38-.72a60.52,60.52,0,0,1,66.82,40.1s94.89,83.71,149.07,206.16,3.61,161,13.55,231.66,81.7,273.95,81.7,273.95C1659.3,2697.73,1630.11,2738.61,1588.58,2738.61Z"/></g><g class="cls-4"><path class="cls-5" d="M1357.87,1008c-7.13,69.82-24.5,98.18-60.18,171.63-45.92,94.64-111.38,13.15-157.1,59.31-14.46,14.53-76.8,125.52-197.79,79.44-100.7-38.32-119.52-16.86-186.95,7.24s-115-79.47-216.73-80.69c-89.79-1-72.42-157.22-182.89-163.29,33.94-31.46,70.57-58.13,74.23-69.86,55.1-42,45.26-62.74,50.18-62.74l832.57-47.3C1319.7,948,1337,981.59,1357.87,1008Z"/></g><path class="cls-5" d="M1922.34,2754.38l-1054.07-.08-451.81-45.64.8-15.95-13.82-4.88a15.49,15.49,0,0,0,4.53,16.7c-.39-.3-1-.69-1.66-1.18-53.52-37.24-54.45-85.89-45.8-120.14,3.33-13.2,3.06-13.5-11.07-29.17-4.77-5.28-10.7-11.87-17.63-20.45-27.6-34.2-12.15-79.82,1.48-120.06,9.25-27.3,18.8-55.49,9.41-68-3.27.21-9.69,1.85-14.15,3-20.56,5.27-58.83,15.06-82.77-23.65-18.24-29.5-5.14-81,8.74-135.46,9.34-36.67,21-82.3,13-97.21-3.44-6.47-8-8.37-17.17-11.73-41.57-15.23-55.13-44.61-25.55-178.48,12.24-55.37,9.1-69.3,7.67-72.44a50.75,50.75,0,0,0-6.54-.36c-12.2-.19-37.59-.59-44.55-38.34-8-43.29,27.13-101.85,63.77-158.11,3.67-5.63,7.61-11.69,10.62-16.53-12.45-.14-30.82-2.5-42.22-22.92-21.45-38.39,2.52-71.84,20-96.27,5.84-8.15,15.61-21.79,14.88-26-.62-3.55-5.39-8.48-10.43-13.7-15.87-16.43-39.86-41.24-18.28-98.14,9.63-25.38,35.74-56.69,58.79-84.31,13-15.58,30.63-36.73,33.4-44.22-.55-1-4.09-3.36-6.22-4.78C289.47,1215,273,1199.81,283,1156.52c9.75-42.17,58.64-83.94,97.92-117.51,14.1-12,31.6-27,34.67-32.41l1.34-4.31,4-3c37-28.18,40.82-44.07,42.27-50,3.2-13.27,11.64-15.71,16.81-15.89l846.81-48.12,2,14.36C1340,979.6,1385,1017.9,1424.74,1051.7c29.14,24.8,56.67,48.24,58.78,83.38,1.53,25.57-4.11,40.56-8.22,51.51-3.71,9.86-4.32,11.91-1.35,18,1.62,2.81,11.22,8.92,17.57,13,17.49,11.12,41.44,26.35,49.29,52.49,7,23.42-5.54,36.21-11.59,42.36-.53.54-1.16,1.18-1.71,1.76,2.22,3.49,8,7.94,13.11,11.9,12.21,9.43,27.4,21.18,29.52,41.55a163.18,163.18,0,0,1,.71,19.65c-.08,7.6-.13,12.19,2.09,18.15,9.65,25.94,23.53,37.1,38.22,48.91,11.07,8.9,22.51,18.1,30.16,32.93,10.62,20.59,9.56,36.5,8.71,49.27-.5,7.51-.9,13.45,1.08,19.54,6.12,18.81,16.68,24.49,28.91,31.07,7.11,3.83,14.45,7.78,20.53,14.29,27.26,29.21,24.76,53.55,23.1,69.65-.64,6.2-1.14,11.09.09,14.36,5.19,13.8,13.08,17.57,24,22.79,9.18,4.39,20.6,9.85,28.92,22,16.41,24,18.54,41.13,20.08,53.64,1.2,9.64,1.85,14.95,8,22.43l2.91,3.54Zm-1051.69-31.5H1886.78l-109.32-900.4c-9.27-13-10.69-24.46-12-34.72-1.41-11.34-2.73-22-14.82-39.71-3.37-4.92-8.22-7.4-16.5-11.35-12.78-6.11-30.28-14.47-39.93-40.14-3.84-10.21-2.83-20-1.94-28.67,1.45-14.06,2.7-26.19-14.8-44.93-2.54-2.72-7.12-5.19-12.42-8-14.31-7.7-33.92-18.25-43.94-49.08-3.86-11.87-3.17-22.24-2.56-31.38.75-11.13,1.33-19.93-5.27-32.73-4.59-8.9-12.23-15-21.9-22.81-15.74-12.66-35.34-28.41-48-62.49-4.25-11.43-4.16-20.59-4.07-29.45a132.78,132.78,0,0,0-.54-16.07c-.67-6.47-7.34-12.07-17.44-19.87-8.63-6.67-17.56-13.57-22.55-23.68-9.52-19.26,2.72-31.7,8-37,4.92-5,5.55-5.64,3.88-11.19-4.48-14.91-21.24-25.57-36-35-12.83-8.16-23.9-15.2-29-25.84-8.94-18.5-4.07-31.43.23-42.85,3.46-9.21,7.39-19.65,6.26-38.52-1.3-21.74-21.81-39.19-47.76-61.29-37.48-31.89-88.06-75-104.3-157.41L491.55,964.21c-5,14.14-16.51,32.78-48.49,57.73-5.67,10-18.72,21.39-41.71,41-32,27.31-80.27,68.59-87.69,100.65-5.94,25.69.23,29.81,9.57,36,7.94,5.3,19.94,13.31,20.33,31.11.32,14.32-13,31-40.81,64.28-20.39,24.45-45.77,54.87-53.52,75.3-14.49,38.21-2.46,50.66,11.48,65.08,7.75,8,16.53,17.11,18.81,30.19,3,17.23-8.32,33-20.31,49.76-18,25.14-29,43.08-18.13,62.55,3.4,6.08,7.39,7,19.3,6.75,8.34-.11,18.73-.3,26,8.11,4.68,5.4,6.36,12.56,5,21.27-1.09,6.86-5.63,14.09-19.83,35.88-22.9,35.18-65.54,100.67-59.18,135.21,2.28,12.36,3.62,12.39,14,12.55,8.54.13,21.43.33,30.48,11.78,9.67,12.23,13.15,33.8-1.33,99.32C227,2038.35,245.16,2045,261.22,2050.89c10.5,3.85,24.89,9.13,34.15,26.52,13.65,25.67,2.54,69.28-10.32,119.78-10.55,41.43-23.68,93-12.47,111.12,10.6,17.14,23.42,16,48.16,9.7,14.63-3.74,31.22-8,42.9,3.7,25.42,25.42,12.24,64.32-.5,101.93-11.57,34.14-23.53,69.44-6.81,90.16,6.38,7.91,11.76,13.88,16.51,19.15,15.45,17.14,25.66,28.46,18.21,58-13.62,54,21.66,78.5,33.25,86.57l.5.34ZM415.43,1007a.24.24,0,0,0,0,.08Z"/><path class="cls-1" d="M452.2,1907.26c-6-10.75-10.2-26.9-10.95-51.55Z"/><path class="cls-1" d="M863.17,2631.92c7.48,62.11,13.51,116,4.65,148.83-44.39,164.15-479.3,152.22-591.15,90.19-44.74-24.82-76.13-82.35-78.57-138.4-.87-19.61,1.85-39,8.74-56.79,11-28.43,32.89-52.61,68.3-66.56,14.65-5.79,31-25.75,65.65-34.54,32.49-8.19,38.36,8.59,55.65,7.13,25-2.08,24.26-18.59,44.85-25.28,26-8.43,46.79,7,58.65,7.8,33.79,2.36,40.84-26.11,92.78,5.75l-.11-.63L452.2,1907.3c10.12,18.12,25.52,20.83,38.88,23,10.43,1.65,19.65,3,24.14,11,15.12,26.9-7,84.91,35.09,86.56,38.71,1.54,62.38-8.86,93.93,68.65s99.87-12.88,122,62.38c15.91,54.27,117.52,38.52,107.28,69.83-10.67,32.61-50.06,5.36-46.51,29.5,2.95,20.36,43.52,51.24,47.41,74,6.31,36.74-33.08,30.68-30.52,51.28,4,32.49,41.55,62.5,31.31,90.18-5.35,14.62-24.49,32.73-23.59,48.17,1.81,31.31,27.18,27.1,27.1,64.43C878.65,2603.05,861.28,2616.09,863.17,2631.92Z"/><g class="cls-2"><path class="cls-3" d="M642.23,2596.9c7.79,4.69,2.91,16.66-5.94,14.54-33.24-8-75.72-15.79-103.48-12.26-26.75,3.4-42.59-3.39-84.66,3.39-39.23,6.31-39.62,22.1-96.69,9.93-44.11-9.45-104,17.84-144.62,63.25,11-28.43,32.89-52.61,68.3-66.56,14.65-5.79,31-25.75,65.65-34.54,32.49-8.19,38.36,8.59,55.65,7.13,25-2.08,24.26-18.59,44.85-25.28,26-8.43,46.79,7,58.65,7.8,33.79,2.36,40.84-26.11,92.78,5.75l-.11-.63C609.92,2578,627.25,2587.88,642.23,2596.9Z"/></g><g class="cls-4"><path class="cls-5" d="M863.17,2631.92c7.48,62.11,13.51,116,4.65,148.83-44.39,164.15-479.3,152.22-591.15,90.19-44.74-24.82-76.13-82.35-78.57-138.4,40.13,67.19,148.79,116.38,354.57,108.43,304.24-11.74,284.47-230.28,228.46-316.06s1.38-150.36-28.86-223.07S714.34,2226,659.68,2207s-12.37-103.74-92.56-120.08-62.77-86.72-63.21-119.65a59.56,59.56,0,0,0-12.83-37c10.43,1.65,19.65,3,24.14,11,15.12,26.9-7,84.91,35.09,86.56,38.71,1.54,62.38-8.86,93.93,68.65s99.87-12.88,122,62.38c15.91,54.27,117.52,38.52,107.28,69.83-10.67,32.61-50.06,5.36-46.51,29.5,2.95,20.36,43.52,51.24,47.41,74,6.31,36.74-33.08,30.68-30.52,51.28,4,32.49,41.55,62.5,31.31,90.18-5.35,14.62-24.49,32.73-23.59,48.17,1.81,31.31,27.18,27.1,27.1,64.43C878.65,2603.05,861.28,2616.09,863.17,2631.92Z"/></g><path class="cls-5" d="M590,2574.53c-12.3-5-24.85-9.18-35.73-9.16a44.85,44.85,0,0,0-15.59,3.45c-5.42,2-12,5.45-20,7.47a78.25,78.25,0,0,1-12.41,2.14l-6.34.18a27.4,27.4,0,0,1-4-.26c-1.59-.16-2.5-.43-3.78-.66-8.8-2.17-14.26-4.49-20-5.87a55.76,55.76,0,0,0-15.37-1.85,38.59,38.59,0,0,0-6.91,1l-3.35,1c-1,.42-2,.74-2.81,1.21-3.5,1.78-5.83,4-11.35,9.5a62,62,0,0,1-10.74,8.57,48.69,48.69,0,0,1-14,5.84,50,50,0,0,1-6.87,1.29c-1.18.13-2.1.31-3.51.37l-4.25.09a47.54,47.54,0,0,1-15.36-3.39c-4.09-1.62-7-3-9.4-4a36.43,36.43,0,0,0-6.32-1.81,40,40,0,0,0-14,.73,102.67,102.67,0,0,0-16.5,5c-10.95,4.23-20.69,10.39-31.88,18.24-2.94,2-5.83,4-9.47,6.16a66.67,66.67,0,0,1-5.91,3.15l-5.31,2.33c-2.72,1.24-5.55,2.32-8.21,3.65l-7.83,4.23a100.29,100.29,0,0,0-26.38,22.72c-14.68,18-22,41.68-22.54,65.95s5,49.21,15.26,71.72,25.53,42.89,44.68,56.84l3.59,2.6,3.74,2.28a84.92,84.92,0,0,0,7.74,4.34c5.44,2.67,11.17,5.13,17.1,7.35A341.56,341.56,0,0,0,343,2878a638.14,638.14,0,0,0,78,13.52A940.18,940.18,0,0,0,580.27,2896a768.71,768.71,0,0,0,79.05-8.45,516.83,516.83,0,0,0,76.61-17.94c24.7-8,48.59-18.31,69.24-32.29s37.39-32.1,45.18-53.7a86.83,86.83,0,0,0,4.22-16.69,154,154,0,0,0,1.67-18.38,373.62,373.62,0,0,0-.87-38.85c-.89-13.17-2.2-26.45-3.65-39.77l-2.27-20-1.19-10-.6-5-.16-1.4-.13-2.24a26,26,0,0,1,0-4.42,44.67,44.67,0,0,1,3.86-14.89c1.79-4.06,3.68-7.43,5.36-10.45,3.35-5.88,5.78-10.67,6.1-13.51a3.24,3.24,0,0,0,.13-1,6.69,6.69,0,0,0,0-1.26l-.16-4a40.25,40.25,0,0,0-1.19-6.93c-1.17-4.21-2.87-7.09-6.74-11.61-3.62-4.24-10.25-11.09-14.25-20.14-.95-2.22-1.75-4.54-2.48-6.82-.53-2.26-1.13-4.58-1.49-6.82l-.73-6.62a39.66,39.66,0,0,1,.64-8.83c2.25-10.74,6.75-17.56,10.59-23.88s7.88-11.66,10.68-16.51a23.24,23.24,0,0,0,2.77-6,13.63,13.63,0,0,0,.59-4.65c-.09-3.5-1.54-8.29-4-13.48-4.85-10.43-12.6-21.8-19.35-35.08a102.48,102.48,0,0,1-8.38-22.63c-.41-2.21-.82-4.22-1.17-6.6-.12-3.65-.38-7.06.95-11.13a20.3,20.3,0,0,1,2.21-5.47,28.41,28.41,0,0,1,3.08-4.63c1.06-1.2,2.17-2.37,3.31-3.5,1-.92,2-1.66,3.06-2.48,3.92-2.93,7.21-4.73,9.68-6.31a39.92,39.92,0,0,0,5.75-4.13c2.21-2.39,2.71-3.4,3-7.18,0-.45.1-.85.09-1.35l-.21-1.65c-.17-1-.1-2.49-.41-3a11.19,11.19,0,0,0-.8-2.42,20,20,0,0,0-1.45-3.06,99,99,0,0,0-9.85-14.31c-7.93-10.12-17.24-19.82-26.07-32.86a58.45,58.45,0,0,1-3.24-5.3l-1.57-2.86c-.51-1-1-2.22-1.47-3.34s-1-2.17-1.37-3.51-.75-2.81-1.07-4.23a31.16,31.16,0,0,1-.72-9.4,25.63,25.63,0,0,1,1.53-6.8,19.34,19.34,0,0,1,1.87-3.81,18.44,18.44,0,0,1,2.76-3.57,24.27,24.27,0,0,1,12.22-6.75,42.46,42.46,0,0,1,7.8-1c2.17-.12,3.92-.13,5.6-.17,6.56,0,10.71-.81,12.14-1.77a5.28,5.28,0,0,0,1.93-1.93,15.06,15.06,0,0,0,1-2l.49-1.3c.1-.33-.09,0,0,0a5.56,5.56,0,0,0,.27,2.42c.28.5.26,1,.63,1.32s.19.44.42.56a19.9,19.9,0,0,0-3.53-1.91,124.66,124.66,0,0,0-17-5.25c-12.79-3.3-26.71-6.43-40.79-12a106.8,106.8,0,0,1-21.1-10.91,67.85,67.85,0,0,1-18.57-18.45c-5.17-7.25-8.21-18-9.49-21.74-1.93-5-4.35-9.12-6.79-11.51s-4.78-3.39-9-4-9.89-.06-16.13.78-13.25,2.08-21,2.71-16.5.56-25.62-2a53.58,53.58,0,0,1-24.23-14.4c-6.39-6.58-10.67-13.85-14.18-21l-2.43-5.39-2-4.58-3.82-8.89c-2.79-5.67-5.46-11.49-8.59-16.69-6.1-10.44-13.14-20.07-20.91-24.2a33.34,33.34,0,0,0-13.27-4.29,155.9,155.9,0,0,0-18.3-.71c-3.42,0-6.88,0-10.53,0l-2.69,0-3.47-.25a51.1,51.1,0,0,1-7.32-1.16A38.91,38.91,0,0,1,513.23,2022c-4.77-9.34-5.93-17.74-6.9-25.32s-1.13-14.61-1.47-21.15a148.44,148.44,0,0,0-1.74-17.73,32.89,32.89,0,0,0-1.78-6.46,8.21,8.21,0,0,0-.5-1.2l-.24-.56c-.08-.2,0,0-.05-.06s.26.14.23.12c.49-.23-4.64-2.17-11.17-3.27-6.59-1.31-14.71-2.73-22.95-6.58a51,51,0,0,1-21-17.53,62.54,62.54,0,0,1-9.63-22.86c-3.24-15.23-2.48-29.64,0-43.55a5.37,5.37,0,0,1,10.46-.49l0,.16c3.58,13,6.84,25.89,12,36.44a49.43,49.43,0,0,0,8.8,13,25,25,0,0,0,5.18,3.93,26.08,26.08,0,0,0,5.87,2.58c4.27,1.44,9.65,2.15,16.38,3a106.61,106.61,0,0,1,11.67,2,40,40,0,0,1,15.3,7.18,30.84,30.84,0,0,1,7,7.6c.45.67,1,1.52,1.32,2.08l.89,1.71a30.75,30.75,0,0,1,1.61,3.41,63.48,63.48,0,0,1,3.81,13,139.28,139.28,0,0,1,2.13,22.63c.26,7,.26,13.49.74,19.36s1.44,11,2.8,13.84c1.52,2.7,1.89,3,4.86,4.09,2.43.75,9.86.81,16.4.91a199.37,199.37,0,0,1,22.22,1,65,65,0,0,1,25,8.26c4.08,2.15,7.33,5,10.8,7.72,2.88,3,6.23,5.84,8.57,9a94.86,94.86,0,0,1,7,9.41,105.7,105.7,0,0,1,6,9.59c3.83,6.42,6.81,12.9,10,19.37l4.2,9.75,2.05,4.73,1.75,3.85a48.92,48.92,0,0,0,8.27,12.58,21.82,21.82,0,0,0,10.21,6.11c3.94,1.11,8.91,1.36,14.64.91S706.1,2113,713.2,2112s14.94-2,24.29-.82a48.78,48.78,0,0,1,14.33,4,52.42,52.42,0,0,1,6.84,3.87,50.27,50.27,0,0,1,5.91,5c7.19,7.17,11.21,15.26,14.21,22.84,3.07,9,3.66,11.52,6.27,15.48,4.71,7.3,13.9,13.18,25,17.5s23.67,7.33,37.07,10.74a150.93,150.93,0,0,1,21.71,6.89c4,1.89,8.51,3.88,13.52,8.83a31.42,31.42,0,0,1,3.58,4.51,25.61,25.61,0,0,1,3.59,18.32,42.51,42.51,0,0,1-1.21,4.91l-1.3,3.44a46.41,46.41,0,0,1-3.7,7,37,37,0,0,1-12.56,12,43.93,43.93,0,0,1-15,5.1,92.76,92.76,0,0,1-12.22.88l-4.54.13a19.63,19.63,0,0,0-2.24.22,7.37,7.37,0,0,0,3.34-2.19,8.38,8.38,0,0,0,2.42-5c.1-.43-.07.23.2.65a2.64,2.64,0,0,1,.15.7c0,.27.36.79.51,1.19s.31.83.55,1.31l.89,1.58a30.9,30.9,0,0,0,2.05,3.34c6.29,9.44,15.63,19.5,24.44,30.61a128.28,128.28,0,0,1,13,19.15,48.33,48.33,0,0,1,2.86,6.11,41.58,41.58,0,0,1,2.29,7.23,42.21,42.21,0,0,1,1,7l.31,3.4c0,1.18,0,2.47-.1,3.71a34.36,34.36,0,0,1-.91,7.66,32.34,32.34,0,0,1-2.53,7.89c-2.12,5.31-5.85,9.74-9.48,13.33a69.6,69.6,0,0,1-10.57,7.84c-3.25,2-5.87,3.56-7.35,4.7l-.9.69a.22.22,0,0,1-.17.2c-.15.06.31-.22.3-.41s.23-.48.35-.81c0-.87.32-.81.07-1.1l.63,3.38a71.87,71.87,0,0,0,5.77,15.28c5.43,10.89,13.1,21.92,19.79,36,3.25,7,6.42,15.25,6.9,25.33a45.41,45.41,0,0,1-2,15.34,54.4,54.4,0,0,1-5.61,12.45c-4,6.84-8,12.35-11.32,17.57s-5.83,10.18-6.23,12.78a12.31,12.31,0,0,0-.16,1.26l.38,3.47.66,3.08,1,2.71c1.52,3.41,4.27,6.63,9.48,12.56a75.44,75.44,0,0,1,7.59,10.42,58.22,58.22,0,0,1,5.44,13,70.39,70.39,0,0,1,2.28,13l.26,6.19a41.45,41.45,0,0,1-.6,7.81c-1.89,10.62-6.54,17.75-9.68,23.64-3.31,5.72-5.39,10.41-5.28,12.17a1.41,1.41,0,0,0,0,.65,1.51,1.51,0,0,1,0,.3c0,.13.08.76.12,1.12l.6,5.05,1.2,10.1,2.31,20.29c1.47,13.57,2.82,27.23,3.75,41.05a401.78,401.78,0,0,1,.92,42.24,185.3,185.3,0,0,1-2,22,118.44,118.44,0,0,1-5.73,22.57A127.76,127.76,0,0,1,856.38,2834a176.74,176.74,0,0,1-33.45,29.4c-24.25,16.38-50.64,27.55-77.31,36.24a546.93,546.93,0,0,1-81.27,19.06,798.19,798.19,0,0,1-82.27,8.8,971.2,971.2,0,0,1-164.77-4.61,670.19,670.19,0,0,1-81.86-14.22,372.8,372.8,0,0,1-40.59-12.25c-6.74-2.53-13.46-5.39-20.16-8.68-3.35-1.71-6.69-3.48-10-5.56l-4.9-3-4.65-3.33c-24.64-18.06-42.53-42.64-54.78-69.19s-18.85-55.88-18.11-85.71a154.33,154.33,0,0,1,7.55-44.41,130.7,130.7,0,0,1,56.28-70.77l10-5.53c3.36-1.73,6.84-3.15,10.26-4.72l4-1.79a30,30,0,0,0,3-1.68c2.18-1.32,4.8-3.21,7.42-5.07,10.75-7.9,23.78-16.76,38-22.55a120.42,120.42,0,0,1,22.23-7,73.18,73.18,0,0,1,26.26-1.09,70.23,70.23,0,0,1,13.18,3.64l9.31,3.89a13.94,13.94,0,0,0,4.33,1.1,3.66,3.66,0,0,1,.81,0c.29,0,1-.14,1.53-.19a19.91,19.91,0,0,0,3.11-.49c3.88-.93,5.41-1.79,9.81-5.75,2.12-1.95,4.93-4.81,8.46-7.64a55.41,55.41,0,0,1,12.2-7.42c17-7.55,36.2-6.24,50.88-1,7.23,2.39,14.2,5.57,18.45,7,.37.1,1.08.4,1.17.4a2.56,2.56,0,0,0,1,.23l3.8.35a51.84,51.84,0,0,0,7.69-.42c5.28-.75,11.3-2.5,18.86-4.27a59.94,59.94,0,0,1,24.5-.76c16.13,3.41,28.37,11.68,39.07,20.68a5.31,5.31,0,0,1-5.42,9Z"/><path class="cls-3" d="M2000.32,2478.17s40.89-58.89,42.28-146.53c.46-28.83,31.28-28,29-74.95-1.13-23.47-33-37-34.77-70.89-.9-16.94,33.86-31.15,25-69.08-5.45-23.39-42.94-44.55-46.83-73.64-3.16-23.6,6.85-48.88,0-71.45-9.64-31.61-45.76-43.65-51.31-71.72-3.51-17.81,6.6-36.8-13.56-68.11-16.61-25.77-49.66-22.37-68-35.93-65-48.17-114.45-39.47-136.58-9.22-14.32,19.59-10,37-18.66,49.22-10.19,14.33-37.63,16-47,37.92-7.39,17.39,4.13,41.94-3.31,55.39-11.82,21.35-38.83,21.83-38.83,63.52"/><path class="cls-1" d="M2146,2754.16c-99.91,55.42-488.35,66.05-528-80.57,0,0-47.93-72.47-25.09-248l44.94-432.87c0-2.52.11-4.92.31-7.16,2.91-34.62,27.41-36.28,38.52-56.32,7.44-13.47-4.06-38,3.31-55.42,9.33-22,36.78-23.59,47-37.92,8.66-12.21,4.33-29.62,18.67-49.19,22.09-30.29,71.52-39,136.54,9.21,18.31,13.55,51.4,10.16,68,35.92,20.16,31.31,10,50.29,13.58,68.1,5.56,28.08,41.67,40.13,51.28,71.71a54.29,54.29,0,0,1,1.81,8.31c2.84,20.36-4.53,42.42-1.77,63.17,3.9,29.07,41.39,50.26,46.83,73.61,8.82,37.93-25.92,52.15-25,69.12,1.34,25,19.1,38.95,28.71,54,3.39,5.31,5.79,10.75,6.07,16.89,2.28,46.95-28.56,46.12-29,74.95-1.18,76.28-33,129.37-41.16,141.86-.23.39-.47.71-.67,1a21.63,21.63,0,0,1-1.26,1.81s26.31.32,41.71,1.81c84.56,8.31,133.67,42.07,157,83.73C2236.87,2630.89,2204.81,2721.52,2146,2754.16Z"/><g class="cls-4"><path class="cls-5" d="M2042.59,2331.66c-1.18,76.28-33,129.37-41.16,141.86-.23.39-.47.71-.67,1l-68-.89a107.53,107.53,0,0,0-64.13,20.18h0a107.87,107.87,0,0,1-41.35,18l-41.43,8.4s-10.58-61,32.06-110.36c61.4-71,86.69-1.8,227-122.2,14.19-12.18,19.7-32.18,20.72-47.89,3.39,5.31,5.79,10.75,6.07,16.89C2073.9,2303.66,2043.06,2302.83,2042.59,2331.66Z"/></g><g class="cls-2"><path class="cls-3" d="M2198.19,2561.89c-46.86-36-136.06-54-185.56-53.84-24,.07-62.16,26.47-89.73,19.27s-76.12-3.91-111.05,33.71c-29.82,32.17-60.5,43.63-60.5,43.63s-11.46-15.47,4.8-40.32,47.34-51.12,80.27-56.09,31.19-35.52,56.55-32.25a366.84,366.84,0,0,0,108.46-2.48c-1.22,1.89-1.93,2.83-1.93,2.83s26.31.32,41.71,1.81C2125.77,2486.47,2174.88,2520.23,2198.19,2561.89Z"/></g><g class="cls-2"><path class="cls-3" d="M2016.83,1979.92c-10-13.47-27.57-14.25-56-25.16-41.55-16-16.86-61.72-29.81-91.81s-49.39-8.42-81.29-39.42-65.62,1.18-71.33,17.76c-8.62,24.89-54.19,19.58-57.5,55.69s-21.54,53.56-47.85,59.16c-16.93,3.58-28.71,18.9-34.93,29.38,2.91-34.62,27.41-36.28,38.52-56.32,7.44-13.47-4.06-38,3.31-55.42,9.33-22,36.78-23.59,47-37.92,8.66-12.21,4.33-29.62,18.67-49.19,22.09-30.29,71.52-39,136.54,9.21,18.31,13.55,51.4,10.16,68,35.92,20.16,31.31,10,50.29,13.58,68.1,5.56,28.08,41.67,40.13,51.28,71.71A54.29,54.29,0,0,1,2016.83,1979.92Z"/></g><g class="cls-4"><path class="cls-5" d="M2146,2754.16c-99.91,55.42-488.35,66.05-528-80.57,0,0-39.86-60.26-29.58-204,6.54,79.91,29.58,114.76,29.58,114.76,39.62,146.63,428.06,136,528,80.58,29-16,51.4-46.12,62.11-80.74C2229.86,2649.25,2198.67,2724.94,2146,2754.16Z"/></g><path class="cls-5" d="M1632.61,1992.7c-.82-6.58-1.46-13.43-.18-20.61a51,51,0,0,1,8.4-20.67c4.31-6.21,9.45-11.23,13.77-15.41s7.44-8,9.34-11.6c1.31-2.36.87-2.18,1.15-3.77a39.6,39.6,0,0,0-.24-6.13l-2.35-18c-.63-6.89-1.25-14.87,1.19-24a49.12,49.12,0,0,1,5.73-12.72,39.61,39.61,0,0,1,4-5.49,45,45,0,0,1,4.52-4.79,84.51,84.51,0,0,1,18.75-12.91c5.73-3.08,11-5.73,13.86-8a11.23,11.23,0,0,0,2.66-2.63,15.56,15.56,0,0,0,1.73-3.91c1.26-3.75,2.22-10.2,4-17.22a81.53,81.53,0,0,1,8.76-21.55,79.91,79.91,0,0,1,15.12-18.33c12-10.74,27.52-16.74,42.54-18.62s29.86.19,43.32,4.06a182.48,182.48,0,0,1,37.68,16.23c5.61,3.57,11.53,6.82,16.8,10.75l8.12,5.67,2.42,1.59,2.85,1.45c8.42,4,21.16,6.2,34.65,11.68a74.25,74.25,0,0,1,20.19,12A39,39,0,0,1,1956,1814a46,46,0,0,1,4.12,4.72c1.2,1.65,2.54,3.41,3.58,5l2.77,4.61a98.91,98.91,0,0,1,9,20.33A86.49,86.49,0,0,1,1979,1871c.24,7.25-.3,14-.28,19.1s.57,8.1,2.2,11.69c3.08,7.09,11,14.81,20.28,23.58,9.07,8.69,19.67,19.49,26.23,34.25a73.4,73.4,0,0,1,5.58,23.08,126.49,126.49,0,0,1-.4,21.23c-1.23,13.11-3,24.71-2.15,34.42a38.36,38.36,0,0,0,1,6.11c.36,1,.69,1.92,1,2.89s1,2,1.4,3a78.1,78.1,0,0,0,8.51,12.68c7.07,8.84,16,17.31,24.64,29.15a71.14,71.14,0,0,1,6.16,10,44.63,44.63,0,0,1,2.59,6.08,43.07,43.07,0,0,1,1.79,6.49,66,66,0,0,1,.59,24.45,64.66,64.66,0,0,1-8.76,22.65c-3.94,6.53-8.45,12-12,16.55a64.75,64.75,0,0,0-4.13,5.81c-.63,1.26-.73,1.93-.59.83a.48.48,0,0,0-.06-.11l.06.4.1.82.18,1.64a15.85,15.85,0,0,0,.56,3.22,39.77,39.77,0,0,0,1.93,6.31c3.36,8.46,10.36,16.49,18.74,27.33,4.06,5.49,8.77,12.15,11.47,21.32a34.36,34.36,0,0,1,1.42,7.1,39.48,39.48,0,0,1,.35,6.16,82.37,82.37,0,0,1-.37,11,70.27,70.27,0,0,1-5.65,22.86,80,80,0,0,1-12.32,19.29c-4.32,5.18-7.57,9-9,12-.41.76-.54,1.47-.91,2.18-.2.75-.31,1.52-.55,2.27l-.23,2.61c-.06.25-.08,1.36-.12,2.1l-.11,2.46a297.81,297.81,0,0,1-12.59,77.4,281.82,281.82,0,0,1-13.76,36.83c-2.7,6-5.67,11.89-8.79,17.73-1.66,2.9-3.23,5.81-5,8.69s-3.44,5.57-5.81,8.95l-12.54-25c10.92.16,21.6.46,32.64,1.09,5.48.29,11.34.82,16.75,1.58s11,1.31,16.53,2.21a273.74,273.74,0,0,1,65,18.54c20.9,9.17,41.14,21.6,57.63,38.67s29.47,37.87,36.07,60.78c7.06,22.78,8,47,4.55,70.09a170.2,170.2,0,0,1-24.51,65.35,165.73,165.73,0,0,1-22.24,27.6,143.73,143.73,0,0,1-28.87,21.65c-21.29,11.33-42.65,17.24-64.1,22.43-42.9,9.87-86.09,14.38-129.36,16.34a841.63,841.63,0,0,1-129.87-4.3,608.19,608.19,0,0,1-64.58-10.76,398.24,398.24,0,0,1-63.42-19.53c-20.68-8.52-41.06-19.26-59.13-34.51a135.83,135.83,0,0,1-24.28-26.57,111.33,111.33,0,0,1-15.68-33.56l2.07,4.58a93.57,93.57,0,0,1-4.75-8.57c-1.34-2.67-2.47-5.29-3.7-7.94-2.21-5.28-4.38-10.54-6.19-15.85-2-5.29-3.43-10.64-5.16-16l-4.2-16.09a358.91,358.91,0,0,1-9.65-65c-.22-5.44-.6-10.89-.62-16.32s.14-10.86.2-16.28.34-10.82.8-16.21.9-10.78,1.48-16.15c1.43-10.71,3.32-21.35,5.48-31.9,2.63-10.49,5.51-20.91,9.18-31.13a5.38,5.38,0,0,1,10.39,1.13l0,.22c1.36,10.74,1.95,21.27,2.27,31.73.38,5.24.56,10.45.85,15.65s.17,10.38.47,15.55c1,20.65,1.25,41.16,3.15,61.44,1.6,20.27,3.51,40.51,7.61,60.16,1,4.91,2.28,9.74,3.44,14.6,1.45,4.71,2.63,9.6,4.29,14.2s3.24,9.23,5.09,13.68c1,2.12,2,4.34,3,6.38s2.27,4.36,2.85,5.29l1.46,2.33.61,2.25c4.61,17,15.43,32.08,29.91,44.3s32.14,21.77,50.72,29.4c37.37,15.23,78.45,23.29,119.63,28.14a810.31,810.31,0,0,0,125,4.12c41.66-1.86,83.45-6.3,123.51-15.54,19.81-4.7,39.77-10.59,56.08-19.36a112.83,112.83,0,0,0,22-16.54,134.83,134.83,0,0,0,17.69-22c20.49-32.09,27.32-73.58,16.4-109.45-5.18-18.06-15.33-34.27-28.41-47.83s-29.8-24-47.73-31.84a242.44,242.44,0,0,0-57.43-16.32c-5-.82-10.06-1.33-15.09-2s-9.85-1.15-15-1.43c-10.2-.59-20.79-.88-31.13-1l-29.48-.43,16.94-24.62c1.18-1.72,2.9-4.32,4.3-6.7s2.86-5,4.29-7.45c2.73-5.11,5.36-10.31,7.76-15.64a251,251,0,0,0,12.29-32.91,267.23,267.23,0,0,0,11.26-69.25l.24-4.74c.17-2.22.31-4.43.63-6.66.5-2.27,1-4.56,1.65-6.78a66.5,66.5,0,0,1,2.62-6.43c4.15-8.22,9.38-13.66,12.91-18.06a48.68,48.68,0,0,0,7.78-11.9,38.71,38.71,0,0,0,3.14-13.14,50.8,50.8,0,0,0,.24-7.57v-1.94a5.06,5.06,0,0,0-.14-1.19,6.2,6.2,0,0,0-.41-2c-.76-2.81-3.05-6.71-6.39-11.11-6.61-8.84-16.62-19.54-22.69-34.29a70.9,70.9,0,0,1-3.54-11.47,38.85,38.85,0,0,1-1-5.94l-.33-3-.16-1.5-.07-.75,0-1.27c-.05-7.41,2.57-12.57,4.75-16.79a90.82,90.82,0,0,1,6.55-9.43c8.21-10.21,13.37-17.48,14.64-25.39a34.54,34.54,0,0,0-.4-12.55,13.31,13.31,0,0,0-.67-2.47,15.91,15.91,0,0,0-1.07-2.47,39.6,39.6,0,0,0-3.6-5.79c-5.94-8.3-15-17.19-23.51-27.67a108.21,108.21,0,0,1-12.12-18.26c-.85-1.82-1.75-3.56-2.51-5.45l-2-5.92A69.18,69.18,0,0,1,1999,2041c-1.18-15.13,1.2-28.27,2.16-39.85a95.94,95.94,0,0,0,.37-16,41.43,41.43,0,0,0-3.07-13c-3.6-8.11-10.39-15.8-19.23-24.16-4.33-4.23-9.1-8.59-13.91-13.91a75.9,75.9,0,0,1-13.19-19.37,57.61,57.61,0,0,1-4-12.45,69,69,0,0,1-1-12.09c0-7.29.5-13,.3-18.15a54.5,54.5,0,0,0-2.24-14.35,67.53,67.53,0,0,0-6.08-13.66l-2-3.38c-.66-1-1.25-1.68-1.85-2.55a17.48,17.48,0,0,0-2-2.29,14.3,14.3,0,0,0-2.23-2.09,43.35,43.35,0,0,0-11.77-6.85,162.55,162.55,0,0,0-16.13-5.31,145.34,145.34,0,0,1-19.75-6.9c-1.8-.85-3.64-1.84-5.43-2.79-1.8-1.12-3.8-2.44-5.37-3.52l-7.16-5c-4.72-3.48-9.79-6.09-14.67-9.17a150.09,150.09,0,0,0-30.71-12.89c-10.36-2.93-20.86-4-30.37-2.5-19,2.66-33.6,15.7-38,34.42-1.36,5-2,10.92-4.48,19a46.38,46.38,0,0,1-6.13,12.9,45.37,45.37,0,0,1-10.49,10.44c-7.17,5.15-13.25,7.65-18.46,10.41s-9.45,5-12.3,7.48a15.37,15.37,0,0,0-2,1.88,11,11,0,0,0-1.59,1.94,18.63,18.63,0,0,0-2.2,4.06,40.36,40.36,0,0,0-1.26,12.95c.12,5.56.93,11.78.84,19.14a60.32,60.32,0,0,1-1.33,12.43,35.5,35.5,0,0,1-6.16,13.2c-4.91,6.78-11.15,11.5-16.32,15.19s-9.78,6.6-13.34,10a37.26,37.26,0,0,0-8.64,12.12c-2.35,4.76-3.5,10.45-4.78,16.25l-.11.48a5.28,5.28,0,0,1-10.39-.48Z"/><path class="cls-5" d="M953.73,2471a46.11,46.11,0,0,1-11.88-1.56c-18.43-4.91-33.1-20.73-43.61-47-12-30.16-47.28-39.07-47.63-39.16a15.75,15.75,0,1,1,7.09-30.69c2.1.48,51.52,12.38,69.8,58.16,6.38,16,14.28,26,22.26,28.23s15.8-3.47,15.88-3.53a15.87,15.87,0,0,1,22,2.93,15.65,15.65,0,0,1-2.6,21.88C983.4,2461.5,970.86,2471,953.73,2471Z"/><path class="cls-5" d="M539,2642.24c-19.29,19.61-35.44,40.32-46.43,63a111.28,111.28,0,0,0-10.35,35.63,137.87,137.87,0,0,0,.49,37.31c3.58,25.51,10.44,51.19,20.76,74.12,5.33,11.31,11.45,22.12,18.91,30.51s15.94,13.71,24.57,14.89l.21,0A15.75,15.75,0,0,1,543.4,2929a61.81,61.81,0,0,1-25.69-8.69,85,85,0,0,1-19.2-16.3c-10.68-12.11-17.95-25.48-23.8-39a243.36,243.36,0,0,1-13.23-41.45,270.79,270.79,0,0,1-6.48-42.57c-1.06-14.25-.84-29.63,2.39-44.3A134.85,134.85,0,0,1,473.16,2695a128.64,128.64,0,0,1,27.67-33.61c11-9.32,23.15-17.08,36.84-21.44a1.34,1.34,0,0,1,1.68.87,1.31,1.31,0,0,1-.32,1.34Z"/><path class="cls-5" d="M343,2649.43c-15.16,18.69-26.9,37.87-34.7,58.28-2.07,5.06-3.31,10.39-4.76,15.61-.88,5.38-2.14,10.64-2.37,16.09a141.68,141.68,0,0,0-.57,16.23c.05,5.44.8,11.1,1.15,16.61.55,5.53,1.73,10.94,2.51,16.4,1.23,5.35,2.42,10.71,3.9,16,1.83,5.14,3.14,10.46,5.46,15.37l3.1,7.51,3.63,7.24A162.9,162.9,0,0,0,338,2861.56l5.25,6c1.85,1.88,3.62,3.89,5.53,5.68s3.8,3.64,5.75,5.29,4.18,3.43,5.38,4.32l1.28,1A15.72,15.72,0,0,1,343,2909.49l-2.59-1.74c-.78-.54-1.5-1.06-2.17-1.58-1.38-1.05-2.8-2.09-4.06-3.17-2.66-2.12-5.13-4.34-7.54-6.63s-4.66-4.69-7-7-4.34-4.93-6.47-7.43a171.66,171.66,0,0,1-20.94-33,185.79,185.79,0,0,1-18.3-74.53c-1.27-25,2.57-52.24,14.18-75.26a111.56,111.56,0,0,1,22-31.28c9.08-8.84,19.4-16.4,31.43-20.56a1.35,1.35,0,0,1,1.49,2.12Z"/><path class="cls-5" d="M1900.22,2557.13c12.66,2.77,24.27,8.56,35,15.91a112.83,112.83,0,0,1,45,64.74c.72,3.39,1.75,6.75,2.16,10.19l1,10.4a131.33,131.33,0,0,1-.42,20.2,210.08,210.08,0,0,1-7.1,38.59,187,187,0,0,1-14.41,37c-6.21,12-14.18,23.65-25.17,33.62a78.47,78.47,0,0,1-19,12.77,67.2,67.2,0,0,1-23,6.21,15.75,15.75,0,0,1-3.34-31.32l.34,0c8.43-1.05,16.28-5,23.53-11.49s13.57-15.12,18.93-24.66c10.64-19.19,17.84-41.68,21.52-64,1.77-11.29,2.13-21.75.33-32.25a91,91,0,0,0-10.91-30.41c-11.42-19.08-27.5-36.19-45.64-53.13l-.06-.07a1.34,1.34,0,0,1-.07-1.9A1.36,1.36,0,0,1,1900.22,2557.13Z"/><path class="cls-5" d="M2069,2563.34c11.14,2.6,21.05,8.3,30,15.38a94.54,94.54,0,0,1,22.39,26.2,109.29,109.29,0,0,1,12.84,32.91c.55,2.92,1.35,5.84,1.65,8.79l.78,8.89c.44,5.93,0,11.56,0,17.38-.3,5.77-1.14,11.55-1.79,17.35-1.35,5.68-2.26,11.5-4.07,17.1a145.62,145.62,0,0,1-13.95,32.45,152.63,152.63,0,0,1-21.46,28.09,141.8,141.8,0,0,1-13.15,11.92c-2.29,1.89-4.71,3.65-7.21,5.36s-4.83,3.23-8.31,5.17a15.73,15.73,0,0,1-16.12-27l1.08-.69c1.11-.7,3.32-2.17,5-3.45s3.64-2.78,5.44-4.27a131.92,131.92,0,0,0,10.34-9.48,143.16,143.16,0,0,0,17.53-22,132,132,0,0,0,18.94-53.05c.32-4.76,1.13-9.73,1.12-14.38l0-7c0-2.34-.43-4.62-.61-6.94a86.16,86.16,0,0,0-7.45-27c-8.1-17.22-19.88-33.28-34.22-49.44l-.07-.09a1.35,1.35,0,0,1,.11-1.91A1.39,1.39,0,0,1,2069,2563.34Z"/><path class="cls-1" d="M1641.67,619.34c-.08,0-.12,0-.08.08,1.3,4.49,40.52,140.36-8.51,224.52-44.39,76.25-75.81,28.16-75.81,28.16s-32.73,47.5-75.07,93.22c-25.83,27.93-55.25,55.22-83,70.58-16,8.9-31.51,13.82-45.41,12.56a94.93,94.93,0,0,1-10.51-1.53,64.82,64.82,0,0,1-7.8-2.09c-71.48-24.42,32.29-155,34.7-339.41,3.82-297.58-118.67-513.56-247.33-637.78l-.44-.43s67,3.51,134.22,14.34c44.35,7.13,88.85,17.44,114.25,32.1,59.24,34.1,29.7,68.13,28.24,69.74,0,0,0,0,0,.08,4.25.87,162,34.23,210.11,115.47,24,40.45-26.42,47.3-29.14,47.66,0,0-.08,0,0,.08,3,3.15,96.84,102.43,115.12,186.16C1721.42,653.21,1645,620.8,1641.67,619.34Z"/><path class="cls-1" d="M616.63,67.22a5.11,5.11,0,0,1-.43.4C487.49,191.87,365,407.85,368.83,705.43c2.4,186.13,108.11,317.35,32.73,340a63.36,63.36,0,0,1-8.2,1.93c-2.52.43-5.23.79-8.11,1.06-14.26,1.3-30.21-3.94-46.75-13.31-28.63-16.19-59-44.86-85.26-73.69a942.72,942.72,0,0,1-71.48-89.36s-31.47,48.09-75.86-28.16c-49-84.16-9.8-220-8.46-224.52a.09.09,0,0,0-.08-.08C94,620.8,17.61,653.21,43.84,532.85c18.23-83.73,112.08-183,115.07-186.16,0,0,0-.08,0-.08-2.71-.36-53.08-7.21-29.14-47.66,48.13-81.24,205.86-114.6,210.11-115.47,0,0,0,0,0-.08-1.42-1.61-31-35.64,28.24-69.74,24.65-14.22,67.19-24.34,110.19-31.43C546.88,70.85,616.63,67.22,616.63,67.22Z"/><g class="cls-2"><path class="cls-3" d="M616.63,67.22q-11,10.57-21.9,22.1c-54.94,12.32-148.91,35.21-199.48,57.54-62.54,27.56,13,50.41,12.92,50.41-4.25.86-175.1,56.2-223.34,97.08-35.88,30.4,49.35,52.61,52.06,53,0,.08-66.53,36.1-98.72,71S64.51,524.78,44.58,607.8c-7-13.19-9.21-36.11-.74-74.95,18.23-83.73,112.08-183,115.07-186.16,0,0,0-.08,0-.08-2.71-.36-53.08-7.21-29.14-47.66,48.13-81.24,205.86-114.6,210.11-115.47,0,0,0,0,0-.08-1.42-1.61-31-35.64,28.24-69.74C432,76.83,616.63,67.22,616.63,67.22Z"/></g><g class="cls-2"><path class="cls-3" d="M1125.93,67.22q11,10.57,21.9,22.1c54.94,12.32,148.91,35.21,199.48,57.54,62.54,27.56-13,50.41-12.92,50.41,4.25.86,175.1,56.2,223.34,97.08,35.88,30.4-49.34,52.61-52.06,53,0,.08,66.53,36.1,98.72,71S1678.05,524.78,1698,607.8c7-13.19,9.21-36.11.75-74.95-18.24-83.73-112.09-183-115.08-186.16,0,0,0-.08,0-.08,2.71-.36,53.09-7.21,29.14-47.66-48.13-81.24-205.86-114.6-210.11-115.47,0,0,0,0,0-.08,1.42-1.61,31-35.64-28.24-69.74C1310.52,76.83,1125.93,67.22,1125.93,67.22Z"/></g><g class="cls-4"><path class="cls-5" d="M368.83,705.43c2.4,186.13,108.11,317.35,32.73,340-5.83-2.84-11.23-5.51-15.91-7.92a43,43,0,0,0-33.6-2.4c-27.88-16.19-57.5-44.86-83.1-73.69-2-42.92.87-94.59,3.59-130.47a46,46,0,0,0-29.82-46.4C226.3,778.33,211,762.26,215.78,723c5.75-47.07,43-115.2,69.16-158.17,11.3-18.59,7.37-42.1-7.8-57.5a11.12,11.12,0,0,1-1.3-1.41C243,465,305.34,397.37,352.44,355.51c17.49-15.56,20.84-42.69,6.5-61.32-6.85-8.9-10.39-20.56-5.35-35.49,10.63-31.46,70.14-78.57,109.72-107.12,14.69-10.63,20.52-29.3,16.9-47.38-1.34-6.46.31-13.9,8.07-22C542.43,73,597.33,68.88,616.2,67.62,487.49,191.87,365,407.85,368.83,705.43Z"/></g><g class="cls-4"><path class="cls-5" d="M1493,784.59A45.9,45.9,0,0,0,1463.1,831c2.8,36.94,5.75,90.7,3.39,134.33-25.17,27.93-53.84,55.22-80.9,70.58-.23-.08-.47-.2-.71-.28a43,43,0,0,0-34.89,1.93c-4.33,2.21-9.25,4.65-14.53,7.29-71.48-24.42,32.29-155,34.7-339.41,3.82-297.58-118.67-513.56-247.33-637.78,18.43,1.23,71.08,5.16,123.86,13.91,8.27,8.31,10.08,16,8.74,22.64-3.62,18.08,2.21,36.75,16.94,47.38,39.5,28.55,99.08,75.66,109.68,107.12,5,14.93,1.5,26.59-5.36,35.49-14.33,18.63-11,45.76,6.5,61.32,47.1,41.86,109.41,109.45,76.6,150.37-.39.47-.83.94-1.26,1.41-15.2,15.4-19.1,38.91-7.84,57.5,26.16,43,63.45,111.1,69.16,158.17C1524.66,762.26,1509.38,778.33,1493,784.59Z"/></g><path class="cls-1" d="M1188.87,1110.49c-9.8,5.4-17.76,4.37-24.1.24-15.36-10-36-5.2-44.5,11l-1,1.73c-16.85,31.47-40.45,66.83-63.72,72.66-16.07,4-25.09-2.09-30.09-11.14-8.35-15.13-28-19.89-42.73-10.8A523.81,523.81,0,0,1,878,1223.6a31,31,0,0,1-20.36,0,521.71,521.71,0,0,1-104.76-49.43c-14.73-9.09-34.42-4.33-42.77,10.8-5,9-14,15.16-30.09,11.14-23.32-5.83-47-41.27-63.76-72.78-.32-.55-.59-1.06-.87-1.61-8.59-16.19-29.18-21-44.54-11-6.34,4.13-14.3,5.16-24.11-.24-44.42-24.38-40.64-136-40.64-136L867.82,797.63l361.7,176.87S1233.3,1086.11,1188.87,1110.49Z"/><path class="cls-5" d="M867.8,1241.05a47.27,47.27,0,0,1-15.26-2.52,543.51,543.51,0,0,1-108-51,15.34,15.34,0,0,0-11.87-1.75,14,14,0,0,0-8.83,6.77c-9.46,17.15-26.85,24-47.69,18.79-24.15-6-48.6-33-74.74-82.29a14.46,14.46,0,0,0-9.27-7.31,16,16,0,0,0-12.73,2.17c-12.07,7.86-26.38,8-40.3.36-51.43-28.22-49.22-137.92-48.79-150.33A15.75,15.75,0,1,1,521.83,975c-1.3,39.43,6.37,107.32,32.47,121.65,5,2.76,6.78,1.61,7.94.86a47.64,47.64,0,0,1,37.82-6.27,45.62,45.62,0,0,1,29.22,23.06c30,56.52,49.32,65.17,54.53,66.47,9.28,2.32,11-.74,12.48-3.44a45.21,45.21,0,0,1,28.41-22,47,47,0,0,1,36.41,5.42,512,512,0,0,0,101.62,48,15.62,15.62,0,0,0,10.15,0,511.59,511.59,0,0,0,101.61-48,47,47,0,0,1,36.42-5.42,45.23,45.23,0,0,1,28.41,22c1.49,2.71,3.17,5.77,12.47,3.45,5.22-1.3,24.59-10,54.54-66.47a45.62,45.62,0,0,1,29.21-23.06,47.62,47.62,0,0,1,37.82,6.26c1.16.76,2.92,1.9,8-.85,26.1-14.33,33.76-82.22,32.46-121.65a15.75,15.75,0,0,1,31.49-1.06c.42,12.41,2.64,122.11-48.8,150.33-13.9,7.63-28.22,7.5-40.29-.37a16,16,0,0,0-12.73-2.16,14.43,14.43,0,0,0-9.27,7.31c-26.15,49.34-50.59,76.25-74.74,82.29-20.84,5.2-38.23-1.63-47.7-18.8a14,14,0,0,0-8.82-6.76,15.33,15.33,0,0,0-11.87,1.75,543.51,543.51,0,0,1-108,51A47.33,47.33,0,0,1,867.8,1241.05Z"/><path class="cls-5" d="M1357.86,1064.42c-1.86,0-3.69-.08-5.51-.25-23.31-2.1-39.21-9.89-48.64-23.82-18.47-27.32-5.82-69.44,11.68-127.74,16.92-56.35,38-126.49,39-207.39,4.17-323.38-140.21-521.24-226.64-610.4h0a24.65,24.65,0,0,1,19.61-41.72C1212,58.05,1328,70.73,1378.75,100c46.2,26.62,47.36,56.19,43.13,72.73,51.84,13.55,160.09,49.19,200.93,118.17,8.69,14.67,10.86,28.27,6.46,40.43-3.44,9.5-10.73,17.28-21.31,22.86,30.11,34.92,88.12,108.86,102.61,175.3,10.29,47.23,7,78.84-10.09,96.62-9.32,9.7-22.46,14.51-37.63,14,10,47,23.46,143.79-16.14,211.81-17.7,30.39-36,46.84-55.88,50.29a43.82,43.82,0,0,1-31.15-6.42C1518.93,951.3,1427.38,1064.42,1357.86,1064.42ZM1162.76,86c90.52,98.17,227.26,299.91,223.15,619.66-1.1,85.31-22.86,157.8-40.34,216-13.87,46.2-25.85,86.09-15.75,101,3.73,5.51,12.26,8.91,25.35,10.09q1.57.15,3.21.15c46.58,0,125.47-86.07,179.84-161.23a24.63,24.63,0,0,1,16.9-10,25,25,0,0,1,19.05,5.69c5.6,4.72,9.86,4,11.27,3.72,4.55-.79,17-5.79,34-35.1,37.79-64.91,17.67-168,10.6-198.08a24.58,24.58,0,0,1,6.06-22.55,24.85,24.85,0,0,1,22.45-7.4c8.86,1.56,15.31.31,19.17-3.71,4.13-4.3,12.6-19.55,2-68.08-14.36-65.86-81.36-145.36-101.55-168.16a24.66,24.66,0,0,1,10.11-39.59c6.09-2.17,10.31-5.1,11.3-7.84s-.44-7.74-3.94-13.66c-37.79-63.83-153.89-96.87-188.57-105.47a24.64,24.64,0,0,1-16.21-12.76,25.13,25.13,0,0,1-.49-21c6.88-16.37-11.11-31-27.41-40.4C1332.23,109.56,1258.09,94.34,1162.76,86Zm-12.38-13.09h0s0,0,0,0Z"/><path class="cls-5" d="M381.14,1064.42c-69.52,0-161-113.1-201.82-168.67a44,44,0,0,1-31.13,6.43c-19.91-3.45-38.2-19.9-55.9-50.3C52.68,783.86,66.11,687,76.15,640.07c-15.16.59-28.31-4.24-37.63-14-17.09-17.78-20.38-49.39-10.09-96.62C42.91,463.08,100.91,389.14,131,354.2c-10.58-5.57-17.86-13.35-21.3-22.85-4.41-12.16-2.24-25.77,6.44-40.44,40.85-69,149.09-104.62,200.94-118.17-4.23-16.54-3.08-46.1,43.13-72.73,66.31-38.22,247.84-48.13,255.54-48.54l42.14-2.21L627.55,78.55c-74.55,71.86-247.46,276.77-243,626.68,1.05,80.89,22.1,151,39,207.38,17.5,58.29,30.15,100.42,11.67,127.74-9.42,13.93-25.33,21.72-48.63,23.82C384.84,1064.34,383,1064.42,381.14,1064.42ZM180.9,861.52a22.78,22.78,0,0,1,3,.19,24.58,24.58,0,0,1,16.9,10c55.63,76.92,137,165.13,183,161.1,13.1-1.18,21.63-4.58,25.36-10.09,10.1-14.94-1.88-54.83-15.75-101-17.48-58.25-39.24-130.73-40.34-216C349,383.78,490.42,179.85,576.37,86,519.22,91.05,418,103.08,376,127.3c-16.3,9.4-34.29,24-27.41,40.4a25.17,25.17,0,0,1-.49,21,24.66,24.66,0,0,1-16.21,12.76C297.18,210.1,181.09,243.13,143.29,307c-3.5,5.92-4.93,10.9-3.93,13.66s5.22,5.68,11.32,7.84A24.64,24.64,0,0,1,160.79,368c-20.2,22.8-87.21,102.32-101.57,168.18-10.58,48.53-2.11,63.78,2,68.08,3.86,4,10.31,5.27,19.16,3.71a24.78,24.78,0,0,1,22.45,7.4A24.52,24.52,0,0,1,108.91,638C101.85,668,81.73,771.12,119.52,836c17.07,29.32,29.5,34.32,34.05,35.11,1.4.24,5.68,1,11.28-3.75A25,25,0,0,1,180.9,861.52Z"/><path class="cls-1" d="M886.87,36.27c56.08-36.21,91-13.55,108,5.32a39.58,39.58,0,0,0,34.3,12.76c45.58-5.64,123.22,5,175.84,43.19,12.93,9.38,15.77,18.11,14.27,25.35-3.32,16,2,32.46,15.32,41.85,35.85,25.23,89.84,66.83,99.45,94.62,4.57,13.19,1.37,23.5-4.84,31.37-13,16.46-10,40.42,5.9,54.16,42.69,37,99.19,96.7,69.44,132.83a16.81,16.81,0,0,1-1.17,1.26c-13.76,13.6-17.33,34.38-7.09,50.79,23.7,38,57.51,98.16,62.7,139.73,4.34,34.73-9.51,48.93-24.39,54.46-17.16,6.37-28.49,22.74-27.06,41,4.17,53.3,8.6,146.19-7.87,175.16-11.8,20.76-43.8,12.82-63,5.62a39.9,39.9,0,0,0-31.63,1.71c-21.79,10.79-60,28.74-81.4,33-156.5,31.5-282.22-42-332.31-77.92a40.18,40.18,0,0,0-46.9,0c-50.08,36-175.8,109.42-332.3,77.92-21.36-4.29-59.61-22.24-81.4-33A39.9,39.9,0,0,0,399,945.73c-19.24,7.2-51.24,15.14-63-5.62-16.48-29-12-121.86-7.87-175.16,1.42-18.25-9.9-34.62-27.06-41-14.88-5.53-28.74-19.73-24.4-54.46,5.2-41.57,39-101.74,62.7-139.73,10.24-16.41,6.68-37.19-7.09-50.79-.42-.42-.81-.84-1.16-1.26-29.75-36.13,26.75-95.83,69.44-132.83,15.85-13.74,18.89-37.7,5.9-54.16-6.21-7.87-9.41-18.18-4.85-31.37C411.21,231.57,465.2,190,501,164.74c13.35-9.39,18.65-25.88,15.33-41.85-1.5-7.24,1.33-16,14.27-25.35,50-36.28,122.71-47.71,168.92-43.9a40.05,40.05,0,0,0,37.09-18.09c11.81-18.3,40.52-34.83,110,2.46A39.69,39.69,0,0,0,886.87,36.27Z"/><g class="cls-2"><path class="cls-3" d="M1324.39,298.6c-19.53-25.91-60.69-57.26-89.83-77.78-13.35-9.42-35.25-39.94-38.6-55.92-1.89-9-5.9-18.58-18.81-28-52.62-38.12-102.45-32.12-148-26.48a39.6,39.6,0,0,1-34.3-12.76C977.9,78.8,943,56.12,886.88,92.35a39.67,39.67,0,0,1-40.21,1.73c-69.51-37.29-98.22-20.75-110-2.48a39.79,39.79,0,0,1-37.06,18.12c-45.71-4.17-110.17-2.62-143.28,21.77-12.9,9.49-10.39,20.39-7.9,31.23,3.65,15.92-34,48.68-47.35,58.1-29.14,20.52-70.3,51.87-89.83,77.78a36.49,36.49,0,0,0-4.77-7.88c-6.22-7.87-9.41-18.19-4.84-31.35,9.61-27.8,63.6-69.39,99.44-94.63,13.35-9.38,18.67-25.88,15.32-41.87-1.5-7.21,1.34-16,14.3-25.32,50-36.28,122.68-47.74,168.91-43.92a40,40,0,0,0,37.06-18.07C748.45,17.24,777.16.7,846.67,38a39.69,39.69,0,0,0,40.21-1.73c56.08-36.2,91-13.55,108,5.31a39.57,39.57,0,0,0,34.3,12.76c45.57-5.63,123.23,5,175.85,43.21,12.92,9.37,15.75,18.11,14.26,25.32-3.31,16,2,32.49,15.32,41.87,35.84,25.24,89.83,66.83,99.44,94.63,4.57,13.16,1.38,23.48-4.84,31.35A36.1,36.1,0,0,0,1324.39,298.6Z"/></g><path class="cls-5" d="M588.33,1003.84a401.84,401.84,0,0,1-79.39-7.92c-22.06-4.44-58.55-21.13-85.28-34.36a24.23,24.23,0,0,0-19.12-1.07c-53.88,20.15-74.67.77-82.26-12.59C308.12,923,304.8,861,312.4,763.72c.85-10.89-5.91-20.94-16.84-25C280.06,733,255,716.07,261,667.55c5.43-43.4,38.32-103.41,65-146.11,6-9.66,4.05-22.51-4.79-31.25a31.07,31.07,0,0,1-2.25-2.44C298.56,463,294.39,416.06,390.22,333c9.66-8.36,11.39-22.94,3.85-32.49C383.44,287,380.89,271,386.71,254.21c8.57-24.79,44-59.22,105.27-102.35,7.7-5.42,11.14-15.3,9-25.77s-.41-26.18,20.44-41.3c52.74-38.24,128.15-51.11,179.46-46.85A24.5,24.5,0,0,0,723.41,27c13.07-20.25,47.44-47.56,130.7-2.87A23.91,23.91,0,0,0,878.33,23h0c69.13-44.65,112.7-9.26,128.22,8a23.77,23.77,0,0,0,20.64,7.64c52.43-6.49,133.51,7.27,187,46.08,20.84,15.12,22.62,30.8,20.44,41.3s1.26,20.35,9,25.77c61.28,43.13,96.69,77.56,105.27,102.35,5.82,16.8,3.27,32.8-7.37,46.28-7.53,9.55-5.8,24.13,3.85,32.49,95.84,83.08,91.66,130,71.29,154.76-.66.79-1.41,1.62-2.25,2.45-8.85,8.74-10.82,21.59-4.8,31.25,26.64,42.7,59.54,102.72,65,146.11,6.06,48.52-19,65.41-34.55,71.18-10.92,4-17.69,14.1-16.83,25,7.6,97.31,4.28,159.28-9.89,184.18-7.59,13.36-28.37,32.75-82.25,12.59a24.26,24.26,0,0,0-19.13,1.07c-26.72,13.23-63.2,29.92-85.27,34.36-163.76,33-295.55-45.36-344.6-80.57a24.43,24.43,0,0,0-28.53,0C812.7,944.65,714.53,1003.83,588.33,1003.84ZM412.77,927.52a56.12,56.12,0,0,1,24.87,5.8c34.87,17.26,63.13,28.81,77.52,31.71,151.61,30.53,274.3-42.48,320-75.27a55.9,55.9,0,0,1,65.27,0c45.71,32.79,168.39,105.78,320,75.27,14.4-2.9,42.65-14.45,77.52-31.71a55.85,55.85,0,0,1,44.14-2.34c17,6.35,38.62,10.51,43.83,1.35,10.37-18.25,12.56-80.36,5.86-166.16-2-25.07,13-48,37.27-57,5-1.84,18.13-6.73,14.25-37.73-3.68-29.42-25.14-76.78-60.43-133.34-13.88-22.25-10-51.18,9.38-70.34,15.82-19.19-9.45-60.65-67.52-111-22.57-19.56-26.06-52.86-8-75.82,3.91-5,4.61-9.88,2.33-16.46-6-17.37-41-49.85-93.63-86.89-17.87-12.57-26.38-35.31-21.69-57.94.26-1.23-1.69-4.74-8.09-9.38C1149.3,76.63,1076.24,64.38,1031.06,70a55.27,55.27,0,0,1-47.95-17.86c-22.35-24.89-51.84-25.76-87.69-2.62h0a55.41,55.41,0,0,1-56.2,2.38c-26.18-14-72.59-33.74-89.34-7.8a55.74,55.74,0,0,1-51.62,25.25c-44.06-3.61-112.41,7.62-158.37,41-6.4,4.64-8.35,8.15-8.09,9.38,4.69,22.63-3.82,45.37-21.69,57.94-52.61,37-87.62,69.52-93.63,86.89C414.2,271.09,414.9,276,418.8,281c18.12,22.95,14.63,56.26-7.94,75.82-58.07,50.34-83.34,91.8-67.6,110.92,19.48,19.23,23.34,48.16,9.46,70.4C317.43,594.68,296,642,292.29,671.46c-3.88,31,9.29,35.89,14.24,37.73,24.26,9,39.24,31.91,37.28,57-6.7,85.8-4.51,147.91,5.86,166.16,5.21,9.15,26.86,5,43.83-1.35A54.92,54.92,0,0,1,412.77,927.52ZM886.87,36.27h0Z"/><g class="cls-4"><path class="cls-5" d="M1188.87,1110.49c-9.8,5.4-17.76,4.37-24.1.24-15.36-10-36-5.2-44.5,11l-1,1.73c-96.49-16.38-243.63-78.06-251.9-164-8.23,85.65-154.62,147.21-251.18,163.83-.32-.55-.59-1.06-.87-1.61-8.59-16.19-29.18-21-44.54-11-6.34,4.13-14.3,5.16-24.11-.24-44.42-24.38-40.64-136-40.64-136L867.82,797.63l361.7,176.87S1233.3,1086.11,1188.87,1110.49Z"/></g><g class="cls-2"><path class="cls-3" d="M1290.36,876.67c10,22.57,20.6,55.53,16,86.88-5.63-43.83-30.79-82.66-30.79-82.66A64.72,64.72,0,0,0,1290.36,876.67Z"/></g><g class="cls-2"><path class="cls-5" d="M867.82,816.53v.32c-.2-1.07-.32-2.17-.44-3.23,0-.12,0-.2,0-.32C867.54,814.37,867.66,815.47,867.82,816.53Z"/></g><g class="cls-2"><path class="cls-5" d="M867.38,813.62c-.11,1.06-.23,2.16-.43,3.23v-.32c.16-1.06.28-2.16.4-3.23C867.35,813.42,867.38,813.5,867.38,813.62Z"/></g><path class="cls-5" d="M771.22,281.92c-16.34-10.15-32.54-19.2-49-26.44s-33-12.55-48.87-13.84a84.42,84.42,0,0,0-23,1.1A38.65,38.65,0,0,0,645,244a37.84,37.84,0,0,0-5.29,1.69,45.71,45.71,0,0,0-5.23,2.06l-2.61,1.14a14.29,14.29,0,0,0-1.6.91c-7.78,4.25-17,21.15-21.6,35.37l-4.93,15.3-13.93-2.85c-9.79-2-20.17-4.06-29.94-5.54-4.82-.78-9.82-1.26-13.52-1.48-1.18-.21-3.24.25-5.23.57-2.09.16-3.79,1-5.78,1.49-7.53,2.53-14.31,8.45-19.85,16.46A96.43,96.43,0,0,0,503,337.61a70.59,70.59,0,0,1,0-33.82,56.58,56.58,0,0,1,3-8.58L508,291l2.5-4.06c1.58-2.81,4-5.12,6.05-7.71a65.61,65.61,0,0,1,7.71-6.42c2.86-1.7,5.68-3.84,8.83-4.9a48,48,0,0,1,10.22-3.4,108.88,108.88,0,0,1,18.41-1.53,266.91,266.91,0,0,1,33.56,1.91l-18.85,12.44c.7-3.22,1.31-5.46,2.06-8.13s1.62-5,2.54-7.56a113.9,113.9,0,0,1,6.6-14.9,85.55,85.55,0,0,1,9.76-14.5,54.17,54.17,0,0,1,15.15-12.9c1.5-.81,3.34-1.88,4.59-2.38l3.84-1.62a60.47,60.47,0,0,1,7.92-2.85,65.82,65.82,0,0,1,8.21-2.09,69.28,69.28,0,0,1,8.33-1.4,99.8,99.8,0,0,1,32.94,1.63c21.18,4.55,39.41,14.88,54.84,27.25C748.53,250.36,761.67,265,771.22,281.92Z"/><path class="cls-5" d="M965.39,281.92c9.55-16.88,22.69-31.56,38.05-44.09,15.43-12.37,33.66-22.7,54.85-27.25a99.73,99.73,0,0,1,32.93-1.63,69.45,69.45,0,0,1,8.34,1.4,66.12,66.12,0,0,1,8.2,2.09,60.47,60.47,0,0,1,7.92,2.85l3.85,1.62c1.24.5,3.09,1.57,4.58,2.38a54.17,54.17,0,0,1,15.15,12.9,85,85,0,0,1,9.77,14.5,116.63,116.63,0,0,1,6.6,14.9c.91,2.51,1.77,5,2.53,7.56s1.36,4.91,2.07,8.13l-18.86-12.44a267,267,0,0,1,33.56-1.91,109.08,109.08,0,0,1,18.42,1.53,47.68,47.68,0,0,1,10.21,3.4c3.15,1.06,6,3.2,8.84,4.9a67.29,67.29,0,0,1,7.71,6.42c2.08,2.59,4.47,4.9,6,7.71l2.5,4.06,1.94,4.26a57.76,57.76,0,0,1,3,8.58,70.71,70.71,0,0,1,0,33.82,96.67,96.67,0,0,0-12.43-28.5c-5.55-8-12.33-13.93-19.86-16.46-2-.5-3.69-1.33-5.77-1.49-2-.32-4.06-.78-5.24-.57-3.7.22-8.69.7-13.52,1.48-9.76,1.48-20.14,3.52-29.94,5.54l-13.92,2.85-4.93-15.3c-4.59-14.22-13.82-31.12-21.6-35.37a15.63,15.63,0,0,0-1.61-.91l-2.61-1.14a45.56,45.56,0,0,0-5.22-2.06,38,38,0,0,0-5.3-1.69,38.51,38.51,0,0,0-5.43-1.25,84.51,84.51,0,0,0-23-1.1c-15.91,1.29-32.51,6.67-48.87,13.84S981.74,271.77,965.39,281.92Z"/><path class="cls-6" d="M997.15,901.76s-5.08,98.81-31.78,181.83c-19.34,60.14-50,112-98.38,112s-78.92-51.67-98.26-111.69c-26.82-83.1-31.9-182.15-31.9-182.15Z"/><g class="cls-2"><path class="cls-3" d="M997.15,901.76s-5.08,98.81-31.78,181.83c-19.34,60.14-50,112-98.38,112s-78.92-51.67-98.26-111.69c-26.82-83.1-31.9-182.15-31.9-182.15h1.61c3,30.21,11.11,90.86,30.29,144.14,19.34,53.84,50,100.19,98.26,100.19s79-46.51,98.38-100.46c19.1-53.25,27.14-113.74,30.17-143.87Z"/></g><path class="cls-5" d="M860.64,1083.61,851.2,914.74A15.78,15.78,0,0,1,882.71,913a17.22,17.22,0,0,1,0,1.76l-9.45,168.87a6.32,6.32,0,0,1-12.62,0Z"/><path class="cls-5" d="M867,1211.36c-126.39,0-144.28-277.2-145.9-308.81a15.75,15.75,0,0,1,31.46-1.62c4,77.58,32.39,278.92,114.44,278.92S977.45,978.51,981.43,900.93a15.76,15.76,0,0,1,31.47,1.62C1011.28,934.16,993.39,1211.36,867,1211.36Z"/><g class="cls-4"><path class="cls-5" d="M997.15,901.76s-5.08,98.81-31.78,181.83c-52.3-23.15-93.69-56.08-98-100.46-4.29,44.62-46,77.62-98.69,100.78-26.82-83.1-31.9-182.15-31.9-182.15Z"/></g><path class="cls-1" d="M749.45,587.74s-124-9.63-189.18,37.53c-47.95,34.68-13.54,55.32-13.54,55.32S432.22,721.38,421.88,810.24c-3.83,32.8,37.42,38.15,37.42,38.15S393,950.55,451.36,1010.62c24.39,25.12,83,41,130.85,38.09,91.08-5.47,275.9-71.43,285.22-168,9.29,96.55,194.07,162.51,285.15,168,47.88,2.87,106.47-13,130.85-38.09,58.33-60.07-7.9-162.23-7.9-162.23s41.25-5.35,37.42-38.15c-10.38-88.86-124.89-129.65-124.89-129.65s34.41-20.64-13.54-55.32c-65.14-47.16-189.18-37.53-189.18-37.53"/><g class="cls-2"><path class="cls-3" d="M1309.74,828.31c-26.35-82.12-187.35-146.55-187.35-146.55s61.52-23.94,25.21-39.18c-74.16-31.08-506.87-28-553.85,1.69C543.77,675.89,619,684,619,684s-112,20.77-193.92,144.38a29.5,29.5,0,0,1-3.23-18.16c10.36-88.85,124.84-129.65,124.84-129.65s-34.42-20.64,13.55-55.29C625.41,578.11,867,620.61,867,620.61s242.45-42.5,307.59,4.68c47.93,34.65,13.51,55.29,13.51,55.29s114.52,40.8,124.92,129.65A29.14,29.14,0,0,1,1309.74,828.31Z"/></g><g class="cls-4"><path class="cls-5" d="M1283.39,1010.62c-24.38,25.12-83,40.95-130.83,38.08-91-5.48-275.53-71.25-285.18-167.66-9.64,96.41-194.2,162.18-285.17,167.66-47.85,2.87-106.46-13-130.83-38.08C423.57,982,424,943.9,432.2,911.76c3.7,11.19,18,49.51,71.24,69.51C616.55,1023.81,852.3,912.63,867,816.85c.2-1.07.32-2.17.43-3.23.12,1.06.24,2.16.44,3.23,14.65,95.78,250.4,207,363.51,164.42,53.24-20,67.54-58.32,71.24-69.51C1310.73,943.9,1311.2,982,1283.39,1010.62Z"/></g><path class="cls-5" d="M749,593c-21.8,2.55-43.57,5.11-64.84,8.5S642,609,622,614.85s-38.67,14.27-53.83,25.72c-1.81,1.48-3.84,2.89-5.51,4.4s-3.27,3-4.73,4.54c-2.54,3-5.05,6.13-5.64,8.28-.8,2.29-.7,3-.38,4.15a7.13,7.13,0,0,0,1.31,2.32,14.1,14.1,0,0,0,1.25,1.34,7.26,7.26,0,0,0,.67.59,1.56,1.56,0,0,0,.26.21c.11.09.17.13-.16-.06l-3,29.89c-3.87,1.38-8.69,3.36-13,5.29s-8.83,4.1-13.17,6.32A237.18,237.18,0,0,0,501,722.7c-16,10.87-30.7,23.49-41.89,38.29s-18.9,31.41-21.25,49c-.52,2.53-.22,3.47-.43,5a17.07,17.07,0,0,0,.24,1.84l.06.91.32.76a11.56,11.56,0,0,0,3.87,5.87,30.8,30.8,0,0,0,8.62,5.24,42.74,42.74,0,0,0,5.52,1.94c.95.3,1.92.5,2.88.75l2.38.46,23.51,4.59L472.52,857c-3,4.82-6.35,10.89-9.17,16.59s-5.54,11.74-7.93,17.74a182.88,182.88,0,0,0-10.55,36.61c-4.3,24.55-1.11,49,13.17,66.43a76.59,76.59,0,0,0,5.61,6.21l2.91,2.69,3.34,2.55a96.71,96.71,0,0,0,15.38,9.07,178.59,178.59,0,0,0,35.89,12.46,224.16,224.16,0,0,0,38.27,5.6,207,207,0,0,0,38.57-1.5c26.21-3.29,52.55-9.54,78.22-17.43a497.81,497.81,0,0,0,74.71-29.56c23.82-11.85,46.5-26,65.39-43.14s33.23-38.1,35.42-60.26h31.36c2.18,22.16,16.63,43.19,35.4,60.25s41.56,31.3,65.38,43.14A496.37,496.37,0,0,0,1058.6,1014c25.66,7.88,52,14.13,78.2,17.42a206.15,206.15,0,0,0,38.57,1.5,224.16,224.16,0,0,0,38.27-5.6,178.5,178.5,0,0,0,35.88-12.46,96.16,96.16,0,0,0,15.37-9.07l3.35-2.55,2.91-2.7a76.77,76.77,0,0,0,5.61-6.21c14.28-17.41,17.47-41.87,13.17-66.42a182.19,182.19,0,0,0-10.54-36.61c-2.38-6-5-11.93-7.92-17.75s-6.14-11.76-9.16-16.58L1250,837.35l23.49-4.59,2.39-.46c1-.25,1.93-.45,2.88-.75a42.74,42.74,0,0,0,5.52-1.94,31.09,31.09,0,0,0,8.62-5.24,11.56,11.56,0,0,0,3.87-5.87l.31-.76.07-.91c0-.63.27-1.15.24-1.85-.21-1.53.09-2.47-.43-5-2.37-17.58-10-34.29-21.27-49s-25.78-27.55-41.75-38.51a255.66,255.66,0,0,0-25-15.08c-4.32-2.28-8.7-4.46-13.12-6.5s-9.12-4-13-5.47L1180,667.07c-.42.25.59-.44.93-.8a14.92,14.92,0,0,0,1.37-1.39,8.5,8.5,0,0,0,1.56-2.56c.47-1.41.54-2.44-.32-4.91-1.75-5-8.52-12-16.35-17.58-15.4-11.51-34.68-18.72-54.62-24.12s-40.89-9.15-62.09-12.4-42.82-6.26-64.69-10.33l-.24-.05a5.37,5.37,0,0,1-.58-10.42c22.29-6.75,45-8.81,67.9-8.75a276.36,276.36,0,0,1,68.63,9.32c22.65,6.17,45.09,16.07,65.08,31.3,2.45,2,4.91,3.81,7.31,6s4.76,4.49,7.06,7c4.45,5.35,9.09,10.83,12.09,19a28.24,28.24,0,0,1,1.85,6.31l.64,3.36c.13,1.16.13,2.38.17,3.58v3.6c-.1,1.2-.34,2.41-.54,3.61a29.35,29.35,0,0,1-1.93,6.94,40.44,40.44,0,0,1-7,11.57,45.17,45.17,0,0,1-4.44,4.52,41.38,41.38,0,0,1-5.63,4.25l-2.81-28.35c5.79,2.15,10.52,4.21,15.6,6.53s9.86,4.72,14.69,7.27a282.81,282.81,0,0,1,28.11,16.94c18.09,12.43,35.12,27.21,49,45.42s24.25,40.16,27.4,63.71a65.86,65.86,0,0,1,.72,10.45,49.79,49.79,0,0,1-.64,5.85l-.46,2.93-.9,2.93a43.21,43.21,0,0,1-12.73,19.85,61.77,61.77,0,0,1-17.64,11,74.11,74.11,0,0,1-9.1,3.2c-1.52.47-3.08.82-4.63,1.2s-3,.65-5.24,1l11.19-24.19a223.12,223.12,0,0,1,10.94,19.7q4.9,9.87,9,20.14a213.43,213.43,0,0,1,12.33,43,138,138,0,0,1,.34,46.7,112.85,112.85,0,0,1-7.09,23.39,104.5,104.5,0,0,1-12.79,21.11,106,106,0,0,1-8.28,9.18l-4.72,4.33-4.89,3.76a127.08,127.08,0,0,1-20.28,12,209.13,209.13,0,0,1-42.35,14.77,254.89,254.89,0,0,1-43.76,6.4,239.1,239.1,0,0,1-44.24-1.68c-28.72-3.62-56.42-10.24-83.63-18.58a529,529,0,0,1-79.47-31.48c-25.64-12.79-50.52-28-72.63-48.13-11-10.09-21.24-21.53-29.49-35s-14.31-28.93-16-45.5h31.36c-1.66,16.56-7.75,32.16-16,45.5s-18.51,24.85-29.49,34.94c-22.12,20.07-47,35.33-72.64,48.13a529.05,529.05,0,0,1-79.48,31.47c-27.21,8.34-54.91,15-83.63,18.59a238.35,238.35,0,0,1-44.25,1.68,254.89,254.89,0,0,1-43.76-6.4,209.13,209.13,0,0,1-42.35-14.77,126.66,126.66,0,0,1-20.29-12l-4.89-3.76-4.72-4.33a106,106,0,0,1-8.28-9.18,104.12,104.12,0,0,1-12.79-21.12,113.49,113.49,0,0,1-7.1-23.39,138.22,138.22,0,0,1,.35-46.7,213.92,213.92,0,0,1,12.34-43q4.1-10.29,9-20.14a224.45,224.45,0,0,1,10.95-19.7L457.28,864c-2.28-.32-3.56-.62-5.24-1s-3.11-.73-4.63-1.2a73.67,73.67,0,0,1-9.11-3.2,61.87,61.87,0,0,1-17.63-11,43.16,43.16,0,0,1-12.73-19.85l-.9-2.92-.47-2.93a52.13,52.13,0,0,1-.63-5.86,65.92,65.92,0,0,1,.71-10.44c3.14-23.55,13.5-45.64,27.38-63.71s30.8-33.13,48.87-45.66a303.16,303.16,0,0,1,28-17.16q7.21-3.9,14.64-7.44c5.07-2.38,9.77-4.49,15.6-6.72l-3,29.89c-.92-.56-1.42-.91-1.87-1.23s-1-.69-1.4-1c-.85-.67-1.75-1.33-2.52-2.06a45.76,45.76,0,0,1-4.56-4.57,41.17,41.17,0,0,1-7.2-11.81,29.94,29.94,0,0,1-2-7.13c-.21-1.24-.44-2.48-.55-3.72l0-3.7c0-1.23.05-2.49.17-3.69l.66-3.45a29.07,29.07,0,0,1,1.88-6.48c3-8.39,7.78-14,12.34-19.34,2.35-2.49,4.77-4.67,7.18-7s4.93-4,7.4-6c20.25-15.29,43.21-24.08,65.88-29.71s45.77-8.06,68.55-8.34c22.83-.05,45.39,1.69,67.75,6.92a5.31,5.31,0,0,1-.58,10.44Z"/><path class="cls-5" d="M1004.33,752.68c0,67.29-80.21,119-117.67,139.48a39.27,39.27,0,0,1-37.71,0C811.49,871.68,731.28,820,731.28,752.68,731.28,664.88,1004.33,664.88,1004.33,752.68Z"/><g class="cls-2"><path class="cls-3" d="M942.22,731.29c0,15.41-44.22,27.25-64.87,31.94a49.56,49.56,0,0,1-20.79,0c-20.65-4.69-64.87-16.53-64.87-31.94C791.69,711.19,942.22,711.19,942.22,731.29Z"/></g><path class="cls-5" d="M1745.61,2608a15.76,15.76,0,0,1-14.31-22.31c2.24-4.9,4.46-10.15,6.73-15.51,10.75-25.36,22.94-54.09,45-67.25,17.24-10.3,32.16-10.22,43.06-10.14,6.19,0,11.08.07,15.11-1.66,14.42-6.17,21.74-12.43,28.2-18,5.17-4.42,10.52-9,17.86-11.87,19.86-7.79,38.51-1.91,48.53,1.25,1.74.55,3.9,1.23,4.69,1.38,17.31,3.16,24.89,1.19,32.92-.89,7.41-1.92,15.8-4.09,28.37-2.29a15.75,15.75,0,1,1-4.49,31.18c-6.29-.9-9.94,0-16,1.61-10,2.58-22.35,5.8-46.51,1.37a72.23,72.23,0,0,1-8.48-2.31c-8-2.54-18.06-5.69-27.57-2-2.39.93-5.11,3.26-8.87,6.47-7.36,6.3-17.44,14.92-36.28,23-10.06,4.3-19.46,4.23-27.7,4.2-9.53-.1-17-.11-26.72,5.68-13.19,7.88-23.24,31.58-32.11,52.5-2.39,5.64-4.73,11.16-7.09,16.31A15.76,15.76,0,0,1,1745.61,2608Z"/><path class="cls-1" d="M1327.5,1837.67c-4,71.34-23.17,97.83-86.69,101.15-64.26,3.35-38.83,71.34-59.6,101.14-20.38,29.23-103,9-91.21,95.72,6.19,45.76-71.67,61-85.67,86.25-12.74,23,24.9,37.81,16.58,62.76-7.22,21.67-51.92,15.8-38.38,49.67,9.63,24.07,34.35,13.45,31.61,39.73-3.61,34.62-48.16,61.11-39.29,92.11,6.06,21.19,29.79,31.78,28.61,54.34-1.33,25.5-24.42,47.5-26,72.39-1.66,25.44,23,27.08,23,38.53.26,58.52,4.17,111.51,14.38,149.29C1059.2,2944.9,1494.12,2933,1606,2871c87.6-48.57,101.22-205.74-38-275.31-15.65-7.82-94.52-34-94.52-34-.3-7.12-30.08-74.23,7.22-99.94,62-42.75,36.58-68.63,46.36-95.73,11.74-32.51,41.09-22.57,54.84-55.67,18.76-45.16-44.27-94.6-29-120.42,13.32-22.58,48.84-21.38,55.47-57.5,7.12-38.85-78-106.25-55.47-123.09,76.24-56.92-2.37-134.18-8-158.76-8-35,43.55-19.17,43.55-54.39,0-79.47-88.34-109.05-80.83-144.94,4.07-19.42,37.4-19.4,36.88-67.28-.6-55.39-49.07-77.66-53-144.49"/><path class="cls-1" d="M1603.27,2863.26c-111.85,62-546.8,74-591.15-90.19-10.2-37.77-14.1-90.78-14.38-149.3,0-11.43-24.69-13.08-23-38.52,1.61-24.89,24.69-46.91,26-72.39,1.18-22.57-22.57-33.16-28.6-54.35-8.9-31,35.69-57.5,39.27-92.12,2.76-26.26-22-15.63-31.59-39.69-13.54-33.87,31.16-28,38.36-49.71,8.31-24.93-29.3-39.73-16.58-62.73,14-25.29,91.89-40.49,85.66-86.25-11.73-86.69,70.85-66.48,91.22-95.75,20.79-29.77-4.65-97.79,59.62-101.13,5.59-.28,10.87-.75,15.8-1.46,51-6.85,67.18-34.62,70.89-99.68l164.07-398.25c3.9,66.84,52.38,89.09,53,144.5.51,47.89-32.81,47.85-36.86,67.27-7.53,35.88,80.81,65.45,80.81,144.93,0,35.25-51.51,19.38-43.56,54.39,5.59,24.61,84.2,101.85,8,158.75-22.57,16.86,62.58,84.25,55.45,123.12-6.62,36.11-42.14,34.89-55.45,57.5-15.24,25.79,47.77,75.26,29,120.39-13.74,33.12-43.08,23.2-54.82,55.69-9.81,27.1,15.64,53-46.39,95.74-37.3,25.72-7.52,92.79-7.21,99.92,0,0,3.66,1.22,9.61,3.23,21.5,7.2,72.66,24.65,84.91,30.8,52.77,26.38,83.61,65.33,96.69,106.21a156,156,0,0,1,7.28,38.09C1672.74,2786.77,1647.38,2838.8,1603.27,2863.26Z"/><g class="cls-4"><path class="cls-5" d="M1606,2870.94c-111.85,62-546.8,74-591.14-90.19-10.2-37.77-14.1-90.78-14.38-149.3,0-11.43-24.69-13.08-23-38.52,1.62-24.89,24.7-46.91,26-72.39,1.19-22.57-22.56-33.16-28.59-54.35-8.9-31,35.68-57.5,39.27-92.12,2.75-26.27-22-15.63-31.59-39.69-13.55-33.87,31.15-28,38.36-49.71,8.31-24.93-29.3-39.73-16.58-62.73,14-25.29,91.88-40.49,85.66-86.25-11.74-86.69,70.85-66.48,91.21-95.75,20.8-29.77-4.64-97.79,59.63-101.13,5.59-.28,10.87-.75,15.79-1.46-16.07,11.22-31.11,30.92-27.53,65.14,7.21,69.08-18.6,99.64-72.25,135-50.65,33.37,9.93,101.14-53.3,163.45-77.14,76-17.11,160.76-27.08,221.25s-55.67,148.93,19,250.07c69.43,94,504.81,129.22,576.57-32.31C1675.46,2794.45,1650.09,2846.48,1606,2870.94Z"/></g><path class="cls-5" d="M1321,2640c13.7,4.36,25.89,12.12,36.85,21.44a128.64,128.64,0,0,1,27.67,33.61,134.58,134.58,0,0,1,15.76,41.61c3.23,14.67,3.46,30,2.4,44.3a270.79,270.79,0,0,1-6.48,42.57,243.36,243.36,0,0,1-13.23,41.45c-5.85,13.55-13.12,26.92-23.81,39a84.7,84.7,0,0,1-19.19,16.3,61.81,61.81,0,0,1-25.69,8.69,15.75,15.75,0,0,1-3.75-31.27l.24,0c8.63-1.18,17-6.48,24.57-14.89s13.58-19.2,18.9-30.51c10.33-22.93,17.19-48.61,20.76-74.12a137.88,137.88,0,0,0,.5-37.31,111.29,111.29,0,0,0-10.36-35.63c-11-22.63-27.13-43.34-46.42-63l-.07-.07a1.34,1.34,0,0,1,0-1.9A1.37,1.37,0,0,1,1321,2640Z"/><path class="cls-5" d="M1517.09,2647.21c12,4.16,22.34,11.72,31.43,20.56a111.56,111.56,0,0,1,22,31.28c11.61,23,15.45,50.25,14.18,75.26a185.79,185.79,0,0,1-18.3,74.53,172.15,172.15,0,0,1-20.94,33c-2.13,2.5-4.26,5-6.47,7.43s-4.54,4.79-7,7-4.88,4.51-7.54,6.63c-1.27,1.08-2.68,2.12-4.06,3.17-.67.52-1.4,1-2.17,1.58l-2.59,1.74a15.72,15.72,0,0,1-18.2-25.62l1.31-1c1.2-.89,3.57-2.69,5.38-4.32s3.83-3.48,5.74-5.29,3.68-3.8,5.54-5.68l5.24-6a162.31,162.31,0,0,0,17.7-26.83l3.63-7.24,3.1-7.51c2.32-4.91,3.63-10.23,5.46-15.37,1.48-5.25,2.67-10.61,3.9-16,.78-5.46,2-10.87,2.51-16.4.34-5.51,1.1-11.17,1.15-16.61a141.68,141.68,0,0,0-.58-16.23c-.23-5.45-1.48-10.71-2.36-16.09-1.45-5.22-2.69-10.55-4.76-15.61-7.8-20.41-19.55-39.59-34.71-58.28l-.08-.1a1.35,1.35,0,0,1,.2-1.89A1.37,1.37,0,0,1,1517.09,2647.21Z"/><g class="cls-2"><path class="cls-3" d="M1662,2694.18c-27.61-22.41-73.06-55.45-114.73-68.45-65.65-20.44-46.08-28.27-90.19-16.38-29.1,7.84-51,7.68-81.72-8.58s-76.44,26.46-128.23,12.05a165.29,165.29,0,0,0-49-5.91c-8.63.28-11.38-11.58-3.51-15.16a255.9,255.9,0,0,1,34-12.65c34.7-10,77-7.91,89.87-16.54,28.28-19,70,6.66,97.83,6.31,15.48-.24,39.9-6.7,64.08-11.7,21.5,7.2,72.66,24.65,84.91,30.8C1618.07,2614.35,1648.91,2653.3,1662,2694.18Z"/></g><path class="cls-5" d="M1332.75,1838a232.59,232.59,0,0,1-.71,36.69c-1.43,12.41-4.31,25.22-10.74,37.59s-17.81,23.07-30.37,29.32-25.77,9.19-38.45,11l-9.49,1-3.94.45a27.3,27.3,0,0,0-3.52.53,33.78,33.78,0,0,0-11.67,4.05,22.6,22.6,0,0,0-7.31,7.12,37.71,37.71,0,0,0-4.69,11.57c-2.4,9.29-3.06,20.62-4.57,33a142,142,0,0,1-3.58,19.83c-2,7.06-4.6,14.58-10.74,22.25-6.42,7.83-14,11.72-20.59,14.76a166.06,166.06,0,0,1-18.66,6.67c-11.55,3.51-22,6.61-29.87,11.13s-12.73,9.75-15.55,17.26a51.57,51.57,0,0,0-2.69,12.8,89.45,89.45,0,0,0,.31,14.92l.38,4.06c.16,2.12.41,4.2.4,6.35a51.46,51.46,0,0,1-1.62,12.92,57.44,57.44,0,0,1-11.32,21.87c-9.86,11.8-21.11,19.13-31.78,25.74s-21.36,12-30.52,17.79c-4.49,2.83-8.77,5.85-11.23,8.43a20.39,20.39,0,0,0-1.53,1.71c-.25.47-.61.78-.67,1.23-.44.93-.55,1.22-.5,1.68-.13.67.83,3.73,3.67,7.94s6.64,9.16,10.37,15.8c.94,1.6,1.82,3.62,2.68,5.42a65.06,65.06,0,0,1,2.22,6.32,66.15,66.15,0,0,1,1.27,7.19,74,74,0,0,1-.14,7.59c-.42,2.44-1,4.86-1.61,7.24a54.16,54.16,0,0,1-3.47,7.59,59.15,59.15,0,0,1-4.9,6.16,60.83,60.83,0,0,1-5.26,4.53c-7,5-13.19,7.48-18.09,9.94-4.94,2.26-8.33,4.81-8.36,5.26,0,0-.07,0-.17,0,.08,0,.14,0,.14,0s0,.06,0,.22c-.19,0,0,.66.1,1.19a4.53,4.53,0,0,1,0,.83l.44,1.24c.31.82.5,1.74.81,2.52s.69,1.45,1,2.12a13.62,13.62,0,0,0,2.51,3.05,21.37,21.37,0,0,0,4.27,2.9c2.1,1.13,4.74,2.36,8.3,4.37a34.46,34.46,0,0,1,12,11.17c3.59,5.67,4.37,11.37,4.72,16.12.1,2.36-.09,4.35-.18,6.53s-.6,4-.93,5.94c-.55,4-2,7.46-3,11.13a109.71,109.71,0,0,1-9.49,18.63c-7,11.19-14.49,20.44-20,29.36-2.55,4.34-5,8.68-5.92,12.23s-1.29,6.45-.49,9.18c1.2,6.31,7.75,13.61,16.1,24,4.05,5.21,8.7,11.9,11.27,20.59a36.27,36.27,0,0,1,1.44,6.62,39.68,39.68,0,0,1,.44,6.78,46.21,46.21,0,0,1-.42,6.15,49.44,49.44,0,0,1-.95,5.74c-3.29,15-10.06,26.42-15.23,36.66-5.32,10.14-9.3,19.49-9.44,26.7-.06,3.53.51,5.19,1.77,7.14a24,24,0,0,0,3.5,3.58l7,5.6a39.09,39.09,0,0,1,5.3,5.37,26.88,26.88,0,0,1,2.93,4.57,22.71,22.71,0,0,1,2.08,6.16c.2,1.12.34,2.26.43,3.39l.06,1.18v.55l0,2.2,0,4.39.3,17.57c.56,23.38,1.84,46.69,4.42,69.61,1.31,11.45,3,22.79,5.17,33.87,1.07,5.54,2.37,11,3.76,16.34l2.26,7.23c1,2.31,1.77,4.7,2.89,7,8.46,18.32,23.46,33.88,41.36,46.24s38.56,21.88,59.93,29.53a468.57,468.57,0,0,0,66.45,17.78c45.39,8.85,92,12.78,138.7,13.52a923.37,923.37,0,0,0,139.53-8.33,581.16,581.16,0,0,0,67.88-13.44c21.87-6.06,43.75-13.3,59.9-25.29,16.62-12.1,29.57-29.43,37.63-48.93s11.2-41.23,9.58-62.46-8.39-42.08-19-60.71a168.84,168.84,0,0,0-19-26,191.83,191.83,0,0,0-24-22c-8.87-6.43-18-12.64-27.89-17.67-2.37-1.24-5.07-2.84-7-3.63-2.17-1-4.83-2.08-7.47-3.1-5.26-2.09-10.78-4.1-16.26-6.11-22-8-44.49-15.63-66.85-23.1l-10.77-14.29c0,.66.23,1.79.12,1.35l-.13-.51-.57-2-1.46-4.82c-1-3.33-2-6.8-3-10.31a203.08,203.08,0,0,1-4.79-21.77,126.18,126.18,0,0,1-1.65-23.44,76.77,76.77,0,0,1,4.71-25.23,56.83,56.83,0,0,1,16-23.12c.9-.78,1.86-1.47,2.79-2.2l2.57-1.93,3.82-2.81c2.5-1.91,5.24-3.67,7.46-5.72,9.67-7.78,17.57-16.58,21.61-25.51a43.22,43.22,0,0,0,3.33-14.61c.42-5.52-.07-12.1.27-20.32a68.42,68.42,0,0,1,1.83-13.18,59.42,59.42,0,0,1,2.12-6.76l2.66-6.17a57.06,57.06,0,0,1,18.22-21.12c7.25-5.11,13.92-8.12,18.78-11.1s8.16-5.65,10.79-9.27a38.63,38.63,0,0,0,3.49-6.17,28.42,28.42,0,0,0,2.25-6.46,36.33,36.33,0,0,0,0-14.33c-1.79-10.39-7.25-21.77-13.49-33.37-3.14-5.84-6.54-11.81-9.91-18.28s-6.8-13.35-9.22-22.27a44.48,44.48,0,0,1-1.31-15.94,33.25,33.25,0,0,1,2.45-9.32,37.27,37.27,0,0,1,2.2-4.26l2.12-3.11c5.88-8.23,13.47-13.6,19.9-17.6s12.34-7.08,16.93-10.29a35.23,35.23,0,0,0,10.14-9.88c.49-1,1-1.89,1.56-2.81l1.2-3.1a29,29,0,0,0,.92-3.42c.13-.56.34-1.22.42-1.68a6.9,6.9,0,0,1,.09-1c.35-2.82-.85-7.78-2.92-12.8-4.28-10.3-11.65-21.26-19.34-32s-16.22-21.62-24.38-33.94c-2-3.14-4.06-6.32-6-9.93a64.51,64.51,0,0,1-5.38-12.44c-.36-1.34-.72-2.56-1-4s-.45-3.19-.59-4.8a47.79,47.79,0,0,1,.35-5.84,32.06,32.06,0,0,1,2-6.53,26.72,26.72,0,0,1,3.93-5.9c.76-.81,1.56-1.59,2.39-2.33l1.79-1.52,3.45-2.79c9.19-7.44,16.16-16.24,19.76-25.87,3.79-9.58,3.92-20.36,1.51-31.6s-7.43-22.71-13.49-34c-3-5.68-6.38-11.35-9.87-17.16s-7.16-11.67-10.85-18.7c-.93-1.92-1.84-3.63-2.76-6a42.82,42.82,0,0,1-2.28-24.65,32.1,32.1,0,0,1,10.48-16.86,52.59,52.59,0,0,1,12.61-7.59c7.4-3.21,13.25-5.23,16.44-7.42a9.32,9.32,0,0,0,2.78-2.53,6.45,6.45,0,0,0,1-3,6.72,6.72,0,0,0,.09-1.25,11,11,0,0,0,0-1.71l-.15-4.36a85.12,85.12,0,0,0-1-8.62,80.37,80.37,0,0,0-4.53-16.72c-4.07-10.9-10.63-21.16-18.55-30.86s-17.34-18.86-27.22-28.62c-4.93-4.93-10.08-10-15.18-15.92s-10.5-12.82-13.82-23.44a38.86,38.86,0,0,1-1.16-17.61,36.35,36.35,0,0,1,7.81-16.88,27,27,0,0,1,2.55-2.92c.82-.84,1.72-1.8,2.5-2.53,1.5-1.36,3.18-2.89,4.46-4,2.87-2.43,5-4.31,7.1-6.2a33.61,33.61,0,0,0,8.41-11.11,49.28,49.28,0,0,0,3.71-14.25,98.34,98.34,0,0,0-.15-16.81,78.91,78.91,0,0,0-3.79-16.65c-3.53-11.18-9.83-22.41-16.2-34.68s-13-25.53-17-39.8a117.76,117.76,0,0,1-4.21-43.5,5.31,5.31,0,0,1,10.45-.75l0,.13a162.94,162.94,0,0,0,13.29,36.56c2.93,5.66,6.2,11.16,9.7,16.62s7.37,10.88,11.2,16.46c7.87,11.13,16,23.41,22.13,38a106.39,106.39,0,0,1,7.68,47.29,79.83,79.83,0,0,1-6.18,25.49,67.58,67.58,0,0,1-15.93,21.71c-3,2.79-6.07,5.29-8.44,7.27-1.37,1.11-2.21,1.9-3.28,2.81-.48.43-.74.75-1.13,1.12a5.27,5.27,0,0,0-.85.92c-1.13,1.2-.59,1-1,1.44a5.16,5.16,0,0,0,.12,2.72c.56,2.62,3.29,7.19,7,11.68s8.19,9.31,12.91,14.11c9.49,9.63,19.72,19.81,29,31.4s17.81,24.68,23.37,39.53a111.77,111.77,0,0,1,6.2,22.91,117.34,117.34,0,0,1,1.33,11.8l.2,5.92a31.16,31.16,0,0,1,0,3.43,33.25,33.25,0,0,1-.32,3.87,38,38,0,0,1-5.82,16.21,40.64,40.64,0,0,1-11.9,11.66c-8.35,5.33-15.75,7.44-20.84,9.83a24.18,24.18,0,0,0-5,2.81c-.65.67-.14.13-.28.25a8.77,8.77,0,0,0,.25,3.5,7.39,7.39,0,0,0,.64,2.07c.29.83,1,2.16,1.55,3.33,2.67,5.12,6.27,11,9.82,16.86s7.2,12.09,10.63,18.5c6.82,12.82,13.16,26.64,16.53,42.27,3.41,15.42,3.5,33.27-2.82,49.37-6,16.12-17.15,29.28-29.17,39l-4.56,3.66c-.14.12-.49.38-.46.38a2.14,2.14,0,0,0,.32-.2,2.35,2.35,0,0,0,.54-.55c.23-.41.92-1,1.06-1.67a3.63,3.63,0,0,0,.5-1.64.83.83,0,0,0,0-.7.3.3,0,0,1,.06.3l.27.94c1,3.31,4.12,8.93,7.49,14,7,10.57,15.49,21.43,23.65,32.86s16.5,23.36,22.87,38.41c3,7.61,5.94,16.19,5.19,27.13l-.46,4.1c-.22,1.21-.5,2.2-.76,3.32a62.73,62.73,0,0,1-1.79,6.49c-.82,2.16-1.65,4.33-2.56,6.46-1.11,2.08-2.26,4.15-3.43,6.19a66.91,66.91,0,0,1-18.84,18.92c-6.7,4.61-13.08,7.91-18.2,11.12s-8.83,6.19-10.92,9.19l-.8,1.11c-.27.37,0,.22-.16.31a1.47,1.47,0,0,0-.12.58,14,14,0,0,0,.53,4.43c1.14,4.35,3.67,9.92,6.65,15.59s6.35,11.64,9.7,17.88c6.6,12.51,13.69,26,16.77,42.77a67.78,67.78,0,0,1-.22,26.53,60,60,0,0,1-4.41,12.94,69.55,69.55,0,0,1-6.7,11.65c-5.4,7.58-13.12,13.62-20,17.63s-12.74,6.85-16.68,9.72a25,25,0,0,0-8.42,9.66,31.54,31.54,0,0,0-3.29,13.49c-.29,5.48.22,12.63-.29,20.81a75.17,75.17,0,0,1-5.92,25.23c-7.38,16.15-18.94,27.77-30.46,37.2-2.85,2.57-5.89,4.55-8.85,6.8l-4.46,3.28-2.8,2.14a25.26,25.26,0,0,0-7.08,10.4c-3.36,8.6-3.29,20.6-1.39,32.58a172.28,172.28,0,0,0,4.06,18.38c.85,3.1,1.77,6.21,2.75,9.43l1.53,5,.84,2.94.48,2a25.21,25.21,0,0,1,.54,3.89l-10.78-14.29c22.65,7.57,45.11,15.21,67.7,23.39,5.66,2.08,11.28,4.13,17,6.42,2.89,1.13,5.73,2.28,9,3.72,3.51,1.53,5.9,3,8.79,4.51,11.26,5.74,21.85,12.89,32.15,20.4a220.7,220.7,0,0,1,28.34,26,199,199,0,0,1,22.89,31.32c12.86,22.56,21.26,47.95,23.11,74s-1.74,52.59-11.87,76.93-26.38,46.49-48.17,62.37a152.42,152.42,0,0,1-34.73,18.67,329.54,329.54,0,0,1-35.56,11.59,607.75,607.75,0,0,1-71.67,14.21,952.59,952.59,0,0,1-144.4,8.64c-48.21-.77-96.5-4.8-144.3-14.1a501.53,501.53,0,0,1-70.93-19c-23.24-8.34-46.18-18.74-67.33-33.33-21-14.49-40.47-34-52-58.94-1.49-3.07-2.62-6.31-3.92-9.47-1.09-3.22-2.11-6.56-3-9.75-1.59-6.12-3-12.23-4.23-18.33-2.43-12.2-4.19-24.35-5.57-36.47-2.73-24.25-4-48.37-4.62-72.41l-.31-18,0-4.5,0-2.25v-.56c0-.33,0-.21,0,.06a4,4,0,0,0,.12,1.2,10.06,10.06,0,0,0,.67,2c.4.59.25.6.53.84.07.12-.23-.27-1-.89-3-2.63-10.14-7.2-15.65-14.78a40.52,40.52,0,0,1-6.17-13,43.83,43.83,0,0,1-1.51-13.42,70.13,70.13,0,0,1,4.74-22.34,165.63,165.63,0,0,1,8.18-17.88c5.63-10.78,10.7-20.33,12.4-28.67a20,20,0,0,0,.5-3,15.7,15.7,0,0,0,.2-2.7,9,9,0,0,0-.13-2.09,7.35,7.35,0,0,0-.45-2.05q-1.12-4.12-6-10.28c-3.15-4.09-7.26-8.68-11.38-14.36s-8.28-12.7-10.34-21.18c-2.41-8.82-1.39-18.21.85-25.91,2.27-7.94,5.9-13.95,9.33-19.8,7-11.21,14.54-20.45,20.06-29.43a78.39,78.39,0,0,0,6.72-13c.5-2,1.49-4.11,1.62-6,.13-.94.43-2,.49-2.84s.12-1.75.09-2.35c-.14-1.1-.23-1.49,0-.84s.4.28-1.09-.62l-7.46-3.89a52.89,52.89,0,0,1-10.33-7.18A45.39,45.39,0,0,1,971,2346.6c-1.07-1.93-1.95-3.9-2.88-5.87s-1.35-3.94-2-5.92c-.3-1-.61-2-.88-3l-.53-3.59a27.93,27.93,0,0,1-.29-7.65,26.66,26.66,0,0,1,1.74-8.43c.52-1.41,1.08-2.82,1.7-4.17s1.53-2.43,2.36-3.61a39,39,0,0,1,10.66-10,87.61,87.61,0,0,1,9.54-5.28c5.73-2.75,10.55-5,13.17-7,.71-.49.93-.88,1.49-1.25.29-.35.33-.58.67-.76-.09-.27,0-.24.19-.51a4.82,4.82,0,0,1,.35-1.44c.19-1.53-.19-3.64-2.3-7.46s-5.45-8.18-9.22-13.89a64.65,64.65,0,0,1-5.59-10.25,34.27,34.27,0,0,1-2.22-6.73c-.28-1.25-.56-2.48-.77-3.74s-.17-2.74-.2-4.11a38.34,38.34,0,0,1,7.2-21.92,49.64,49.64,0,0,1,4.27-5c5.8-6,11.44-9.65,16.9-13.24,10.9-6.93,21.31-12.37,30.82-18.3s18.09-12.12,23.37-18.73a24.84,24.84,0,0,0,4.86-9.5,18.69,18.69,0,0,0,.5-4.69c0-.81-.17-1.68-.19-2.52l-.54-4.79a121.82,121.82,0,0,1-.67-20.61,84.26,84.26,0,0,1,4.37-22,61.44,61.44,0,0,1,12.17-20.69,71.42,71.42,0,0,1,18.13-14.42c12.81-7.21,25.47-10.62,36.52-14.12a135.07,135.07,0,0,0,14.83-5.29c4.17-1.85,7.23-3.94,8.31-5.42,1.42-1.54,3.31-5.29,4.47-9.62a111.81,111.81,0,0,0,2.92-15.13c1.54-11.17,2.54-23.66,6.37-37.32a69.61,69.61,0,0,1,9.56-20.85,52.14,52.14,0,0,1,18.73-16.61,64.79,64.79,0,0,1,22.08-6.6,52.27,52.27,0,0,1,5.32-.52l4.93-.29,8.24-.42c10.85-.71,21.35-2.33,30.32-5.92s16.56-8.78,22.15-17c5.81-8,9.75-18.33,13-29.13,3-10.93,5.23-22.39,7.35-34l0-.11a5.28,5.28,0,0,1,10.47.71Z"/><path class="cls-5" d="M1423.92,2588.92c-1.7,0-3.45-.08-5.27-.24-8.43-.76-15.72-4.36-23.44-8.17-11.35-5.6-24.22-11.94-46-12.77-5.91-.27-14,3.23-23.4,7.23-16.88,7.2-40,17.07-70.37,13a15.75,15.75,0,1,1,4.21-31.22c21.76,2.9,38.05-4,53.81-10.72,12.34-5.26,24-10.27,36.94-9.74,28.54,1.09,46.73,10.06,58.78,16,5,2.47,9.75,4.81,12.33,5,7,.62,12.21-1.52,19.38-4.5,8.61-3.59,19.33-8,33.89-6.88a15.75,15.75,0,0,1-2.5,31.41c-7-.54-12.15,1.59-19.29,4.56C1445.32,2585.06,1436.05,2588.92,1423.92,2588.92Z"/><ellipse class="cls-5" cx="647.28" cy="483.8" rx="112.28" ry="86.37" transform="translate(55.41 1034.02) rotate(-79.69)"/><ellipse class="cls-3" cx="680.77" cy="466.61" rx="38.73" ry="23.15" transform="translate(113.11 1065.73) rotate(-80.97)"/><ellipse class="cls-3" cx="601.35" cy="506.44" rx="19.37" ry="11.57" transform="translate(-23.66 983.39) rotate(-77.45)"/><ellipse class="cls-5" cx="1090.34" cy="483.8" rx="86.37" ry="112.28" transform="translate(-59.51 166.39) rotate(-8.5)"/><ellipse class="cls-3" cx="1057.42" cy="465.56" rx="23.15" ry="38.73" transform="translate(-50.07 136.4) rotate(-7.21)"/><ellipse class="cls-3" cx="1135.53" cy="507.89" rx="11.57" ry="19.37" transform="translate(-74.72 220.34) rotate(-10.73)"/></g></g></svg>