<svg xmlns="http://www.w3.org/2000/svg" viewBox="0 0 2238.61 2646.69"><defs><style>.cls-1{opacity:0.2;}.cls-2{fill:#390176;}.cls-3{fill:#f8ac4c;}.cls-4{opacity:0.3;}.cls-5{fill:none;}.cls-6{fill:#f9a528;}.cls-7{fill:#fddda0;}.cls-8{opacity:0.4;}.cls-9{fill:#fff;}.cls-10{fill:#fc7e81;}.cls-11{fill:#3bc130;}.cls-12{fill:#e80f1f;}.cls-13{fill:#f6ceca;}.cls-14{opacity:0.5;}</style></defs><title>introAtivo 1</title><g id="Camada_2" data-name="Camada 2"><g id="Layer_1" data-name="Layer 1"><g class="cls-1"><ellipse class="cls-2" cx="1151.81" cy="2528.86" rx="1086.8" ry="117.83"/></g><path class="cls-3" d="M654.64,1965c-311.06-61.56-317-641.63-394.59-674.46-72-30.46-310.7,390.4-113,632.34,0,0-128.53-7.56-129.61,43.2-.64,30.22,33.13,122.41,236.18,240.5,0,0-129.25-8.28-108.73,53.28C160.9,2308.05,373.2,2485.26,729,2388.77"/><g class="cls-4"><path class="cls-2" d="M625.84,2410c-293.48,40.78-466.54-106.85-481-150.15-20.52-61.55,108.72-53.29,108.72-53.29-203-118.07-236.79-210.28-236.14-240.49,1-50.78,129.59-43.21,129.59-43.21C-50.67,1681,188,1260.12,260.07,1290.55c23.69,10-133.93,402.12,82.73,632.34,0,0-87.42.24-94.39,50.55-7.64,55.15,22.6,107.65,159.49,194,0,0-36.9,13.88-43,54-7.72,50.58,156.3,69,266.89-8C654.48,2197.69,594.56,2405.33,625.84,2410Z"/></g><path class="cls-2" d="M526.11,2434.43c-94.13,0-169.11-19-222.83-39.62C199,2354.74,138.22,2295,128.35,2265.38c-7.18-21.52-.61-36.53,6.18-45.33,12.89-16.74,37.5-24.73,61.32-28.41C8.12,2070.28-.36,1983.06,0,1965.73c.27-12.59,5.58-24,15.35-33,22.06-20.35,65.86-26,97.29-27.32-118-180.66-39.56-443.56,56.86-572.25,37.12-49.54,70.76-69.82,97.32-58.57C298.64,1288,314,1343,343,1456c46.25,180.23,116.14,452.59,315,492a17.38,17.38,0,1,1-6.74,34.11c-220.36-43.61-293.53-328.74-341.94-517.42-18.13-70.65-38.68-150.73-56.06-158.08-3.05-1.32-22.69,3-55.93,47.39-73.83,98.54-185.63,375.84-36.87,557.93l25,30.65L146,1940.26c-31.87-1.85-89.09,1.41-107,18-3.59,3.31-4.13,6-4.17,8.21-.67,31.7,46,119.54,227.53,225.1l63.8,37.1L252.46,2224c-29.62-1.87-78.87,2.36-90.39,17.33-1.16,1.5-3.56,4.62-.73,13.11,12.26,36.77,215.08,212,563.1,117.6a17.39,17.39,0,1,1,9.11,33.56C656.7,2426.39,587.35,2434.43,526.11,2434.43Z"/><path class="cls-5" d="M1067.33,1462.75a.13.13,0,0,1,.11,0"/><path class="cls-3" d="M664.4,1612.65C604.26,1574.76,462.71,1604.3,450,1767c-19,243.25,111.54,364.71,192.62,463.59,0,0-151.88,28.84-153.46,166-1.41,121.88,145.75,119.68,145.75,119.68h1287s147.16,2.2,145.76-119.68c-1.58-137.2-153.46-166-153.46-166,81.08-98.88,211.6-220.34,192.61-463.59-12.69-162.68-154.25-192.22-214.39-154.33Z"/><g class="cls-4"><path class="cls-2" d="M664.4,1612.65C604.26,1574.76,462.71,1604.3,450,1767c-19,243.25,111.54,364.71,192.62,463.59,0,0-151.88,28.84-153.46,166-1.41,121.88,145.75,119.68,145.75,119.68h1287s147.16,2.2,145.76-119.68c-1.58-137.2-153.46-166-153.46-166,81.08-98.88,211.6-220.34,192.61-463.59-12.69-162.68-154.25-192.22-214.39-154.33Z"/></g><path class="cls-3" d="M664.4,1612.67h151l-74.81,28.82c-60.13-36.69-201.71-8.08-214.41,149.42-19,235.48,111.55,353,192.63,448.76,0,0-193.27-9.72-229.6,160.42C465.41,2511.44,701,2516.28,710.57,2516.28H634.93S478.13,2518,489.17,2396.6c14.42-158.68,153.45-166,153.45-166C561.55,2131.68,431,2010.22,450,1767,462.69,1604.28,604.28,1574.76,664.4,1612.67Z"/><path class="cls-3" d="M1892.45,1612.67h-151l74.82,28.82c60.12-36.69,201.71-8.08,214.4,149.42,19,235.48-111.55,353-192.62,448.76,0,0,193.26-9.72,229.59,160.42,23.78,111.35-211.81,116.19-221.38,116.19h75.64s156.8,1.72,145.76-119.68c-14.42-158.68-153.45-166-153.45-166,81.07-98.9,211.62-220.36,192.62-463.58C2094.16,1604.28,1952.57,1574.76,1892.45,1612.67Z"/><path class="cls-2" d="M634.05,2533.68c-9.19,0-82.49-1.47-127.6-46.44-23.43-23.35-35.1-53.91-34.67-90.83,1.29-111.86,93.32-158.51,140.45-175.08l-10.17-11.95c-78.89-92.52-186.91-219.24-169.38-443.75,8.25-105.86,66.49-150.29,100.47-167.35,47-23.57,103.43-23.71,140.52-.34a17.38,17.38,0,1,1-18.53,29.42c-21.88-13.77-64.49-19-106.38,2-47.36,23.78-76.27,73.13-81.42,139-16.4,210.18,82.06,325.67,161.18,418.48,9.67,11.35,18.81,22.07,27.55,32.72l18.57,22.65-28.77,5.46c-5.6,1.09-137.92,28.11-139.32,149.16-.31,27.51,7.65,49,24.34,65.7,36.7,36.7,102.89,36.37,103.8,36.39H1921.94c.94-.05,67.32.33,104-36.39,16.7-16.7,24.66-38.19,24.34-65.7-1.4-121-133.72-148.07-139.35-149.16l-28.64-5.55,18.47-22.56c8.74-10.65,17.88-21.37,27.55-32.72,79.12-92.81,177.58-208.3,161.18-418.48-5.14-65.85-34.06-115.2-81.41-139-41.89-21-84.51-15.77-106.38-2a17.39,17.39,0,0,1-18.54-29.42c37.1-23.38,93.57-23.24,140.52.34,34,17.06,92.22,61.49,100.48,167.35,17.52,224.51-90.5,351.23-169.38,443.75-3.46,4.06-6.85,8-10.18,11.95,47.13,16.57,139.16,63.22,140.45,175.08.43,36.92-11.24,67.48-34.66,90.83-47.27,47.11-125.48,46.49-128.74,46.44H634.05Z"/><path class="cls-6" d="M1801,1146.68c-.1-1.11-.25-2.16-.35-3.27.46,3.93.91,7.85,1.41,11.78C1801.67,1152.37,1801.32,1149.5,1801,1146.68Z"/><path class="cls-6" d="M1398.61,2029.28h18.57c-3.88,21.22-7.24,42.59-10,63.86A568.75,568.75,0,0,1,1398.61,2029.28Z"/><path class="cls-3" d="M1815.35,1193.93c11.47,104.36,85,206.4,79,391.21-6.94,211.13-209.88,689.7-209.88,689.7s161.37,51,118.26,196.57c-20.35,68.7-102.73,78-159,77.22-91.56-1.2-176.07,9.89-235.84-66.14-84.58-107.59-12.12-333,9.3-453.2Z"/><path class="cls-3" d="M1149,2482.5c-59.77,76-144.28,64.95-235.83,66.12-56.25.74-138.63-8.52-159-77.2-32.56-110,51.69-166.07,94.77-186.85a198.54,198.54,0,0,1,23.52-9.73s-203-478.59-209.88-689.69c-6.09-184.79,67.47-286.87,78.94-391.24l94.21,197.62,304,637.78C1161.11,2149.51,1233.54,2374.91,1149,2482.5Z"/><g class="cls-4"><path class="cls-2" d="M848.94,2284.57a198.54,198.54,0,0,1,23.52-9.73s-203-478.59-209.88-689.69c-6.09-184.79,67.47-286.87,78.94-391.24l33.87,174.8c-40.78,47-55,169.4-2,342.9,55.67,182.08,141.53,259.66,200,370.12,35.91,67.82,60.82,173.15,60.82,173.15S959.06,2257.4,848.94,2284.57Z"/></g><path class="cls-2" d="M1800.61,1143.41c.46,3.93.91,7.85,1.41,11.78-.35-2.82-.7-5.69-1.06-8.51C1800.86,1145.57,1800.71,1144.52,1800.61,1143.41Z"/><path class="cls-2" d="M1803.73,1167.47a9.76,9.76,0,0,0,.2,1.26h0A5.49,5.49,0,0,1,1803.73,1167.47Z"/><path class="cls-3" d="M1626.65,1652.49H935.71a282,282,0,0,1-28.39-16.6c-98.94-65.43-291.26-268.75-110-710.38h967.77C1966,1415.18,1707.73,1611.85,1626.65,1652.49Z"/><g class="cls-4"><path class="cls-2" d="M836.51,1575c-92.73-101.07-182.15-301.13-39.21-649.47H943.14C887.24,1040,720.13,1193.3,836.51,1575Z"/></g><g class="cls-4"><path class="cls-2" d="M1726.84,1575c92.73-101.07,182.15-301.13,39.21-649.47H1620.2C1676.11,1040,1843.21,1193.3,1726.84,1575Z"/></g><path class="cls-7" d="M1597.54,1722.68c-71.06,143.53-150.63,335.23-192.75,480.07-24.91,85.7-22.19,184.95-27.83,194.36-28.13,34.93-94.26,34.68-94.26,34.68h-4.28s-66.13.25-94.27-34.68c-5.63-9.41-2.91-108.66-27.83-194.36-42.12-144.84-121.69-336.54-192.75-480.07-113.08-228.49-69.25-357.78,0-417.77,26.14-22.64,78-21.7,132.46-11.88a1038.65,1038.65,0,0,0,368.8,0c54.54-9.85,106.53-10.84,132.71,11.84C1666.74,1364.9,1710.63,1494.19,1597.54,1722.68Z"/><path class="cls-2" d="M1142.67,2028.73c14.71,46.5,29.45,92.9,41,140.65s20.36,96.54,22.43,146.75c1.05,25.08.56,50.51-3.12,76.06a276.25,276.25,0,0,1-8,38.2,216.65,216.65,0,0,1-14.76,37.16c-1.39,3.06-3.34,5.9-5,8.86a90.6,90.6,0,0,1-5.45,8.63l-6,8.37c-2.11,2.62-4.33,5.12-6.51,7.69l-6.58,7.61-7.35,7c-2.52,2.27-4.79,4.81-7.53,6.85l-8.1,6.27-4.07,3.11-4.34,2.74-8.73,5.39c-2.88,1.86-6,3.12-9.08,4.69s-6.09,3.11-9.23,4.36a211.17,211.17,0,0,1-38.34,11.68c-25.84,5.4-51.44,6.72-76.19,7.13l-73.39.48c-12.75-.1-25.59-.7-38.52-2.08a272.08,272.08,0,0,1-39-7.26,182.53,182.53,0,0,1-38.37-15.51,125.72,125.72,0,0,1-33.52-28c-9.64-11.55-16-25.47-20.48-39.24-3.58-12.92-6.51-26.2-7.51-40a166.4,166.4,0,0,1,2.11-41.72,149.24,149.24,0,0,1,13.65-39.88c12.74-25.15,31.88-45.76,53-62a243.09,243.09,0,0,1,33.42-21.51c5.79-3.16,11.71-6,17.75-8.76,3-1.36,6.06-2.65,9.18-3.89s6-2.36,10-3.68L853.21,2283c-33.7-80.62-65-161.62-94.62-243.62-29.24-82.07-56.6-164.91-79.4-249.5-11.34-42.32-21.12-85.2-28.32-129-3.45-21.94-6.42-44-7.39-66.82l-.44-8.5-.08-8.37-.14-16.75.47-16.75c.11-5.59.35-11.17.8-16.74A658.47,658.47,0,0,1,666,1395.09c11.42-42.89,26.91-84.12,40.14-124.66l0-.12a17.39,17.39,0,0,1,33.15,10.5c-12.94,42.13-27.21,82.51-37.41,123.67A620.21,620.21,0,0,0,682.5,1529.1c-.37,5.24-.55,10.49-.59,15.74l-.29,15.76.31,15.78.15,7.89.49,7.74c1.07,20.57,4.07,41.5,7.58,62.34,7.24,41.76,17.37,83.4,28.63,124.81,22.66,82.85,50.09,164.76,79.31,246s60.42,162.06,93.55,241.52l8.71,20.87-21.63,7.18c-1.79.59-4.71,1.66-7.12,2.64s-5.1,2.09-7.62,3.23c-5.07,2.27-10.1,4.71-15,7.37a210.6,210.6,0,0,0-27.93,17.89c-17.45,13.23-32.16,29.28-41.55,47.61a107.49,107.49,0,0,0-10.09,28.87,124.76,124.76,0,0,0-1.7,31c.68,10.52,3,21.11,5.79,31.65,3.11,9.28,6.84,17.9,12.87,25.16a85.48,85.48,0,0,0,22.1,18.59,143.37,143.37,0,0,0,29.12,11.87,235.1,235.1,0,0,0,32.72,6.26c11.27,1.26,22.75,1.88,34.33,2l72.61.2c23.86-.11,47.13-1.22,69-5.58a172.64,172.64,0,0,0,31.48-9.17c2.52-1,4.85-2.27,7.29-3.37a78.53,78.53,0,0,0,7.17-3.58l6.83-4.14,3.42-2.07,3.18-2.43,6.4-4.82c2.19-1.53,4-3.61,6-5.37l5.92-5.5,5.39-6.15c1.78-2.06,3.65-4.08,5.37-6.16l4.69-6.47a64.53,64.53,0,0,0,4.34-6.74c1.33-2.34,2.93-4.49,4-7a180.27,180.27,0,0,0,12.45-30.46,241.37,241.37,0,0,0,7.3-33.1c3.52-22.61,4.28-46,3.53-69.57-1.55-47.14-8.49-94.67-15.61-142.45l-10.89-72c-3.33-24.17-6.71-48.48-7.93-73.1a3.08,3.08,0,0,1,6-1.08Z"/><path class="cls-2" d="M800,926.61c-6.06,34.06-15.93,66.21-22.87,99.12q-2.82,12.27-6.09,24.35c-2.11,8.08-3.29,16.38-5.16,24.5l-5.3,24.4c-.83,4.07-1.94,8.09-2.72,12.16l-2,12.28c-1.29,8.19-2.88,16.32-4.32,24.48l-2.26,12.22c-.84,4.07-1.09,8.19-1.67,12.28l-3.11,24.6-1.6,12.31c-.56,4.1-.55,8.22-.86,12.33l-1.3,24.71c-.16,4.12-.51,8.25-.53,12.36l.33,12.33.67,24.68a107.12,107.12,0,0,0,1.09,12.27l1.45,12.21c3.11,32.72,11.19,64.58,21.31,95.46l8.59,22.82a110.12,110.12,0,0,0,4.8,11.17l5.1,11,5.06,11.06,5.81,10.66c4,7,7.45,14.41,11.95,21.14s8.42,13.85,13.05,20.49l14.1,19.83,15.31,19c5.27,6.18,10.59,12.36,16.13,18.34A715,715,0,0,0,937,1649.9l0,0a3,3,0,0,1-2.63,5.15c-17.11-4.35-33.22-11.76-48.57-20.37-7.58-4.45-15-9.17-22.28-14.23s-14.16-10.53-20.86-16.3-13.16-11.8-19.37-18.11l-17.86-19.65c-5.52-6.91-11.05-13.84-16.47-20.86s-9.93-14.68-14.91-22a416.62,416.62,0,0,1-44.44-96.19,122.27,122.27,0,0,1-3.73-12.7l-3.34-12.8c-2.21-8.53-4.66-17-6-25.71l-4.78-25.93a121.82,121.82,0,0,1-1.73-13l-1.37-13.07L707.37,1311a124.88,124.88,0,0,1-1-13.08l-1-26.19-.54-13.1c0-4.36.23-8.71.33-13.07l.78-26.14c.19-4.36.07-8.74.52-13.07l1.26-13,2.61-26c.53-4.32.74-8.7,1.53-13l2.32-12.81c1.61-8.53,3.08-17.08,4.84-25.58l2.55-12.76c1-4.21,2.15-8.38,3.32-12.55l7.07-25c1.14-4.16,2.44-8.29,3.69-12.42s2.37-8.31,4-12.32q4.39-12.16,9.25-24.18C760.75,984.53,777,954,794.62,924.41a2.92,2.92,0,0,1,5.39,2Z"/><path class="cls-2" d="M1855.6,1285.43c13.57,40.07,28.32,81,38.82,123.54q7.86,31.88,12.82,64.57c3.16,21.78,5.11,43.73,6.19,65.71.24,11,.76,22,.47,33-.11,5.51,0,10.94-.29,16.53l-.9,16.74c-1.89,22.11-4.57,44-8.44,65.4-7.38,43-17.49,85.06-28.72,126.69-22.71,83.2-49.77,164.72-78.6,245.51-29.23,80.71-60.07,160.47-93.27,239.86l-12.93-28.06c4,1.32,6.77,2.39,10,3.68s6.17,2.53,9.19,3.89c6,2.71,12,5.6,17.74,8.75a246.77,246.77,0,0,1,33.44,21.51c21.14,16.23,40.28,36.83,53,62a148.49,148.49,0,0,1,13.65,39.89,165.93,165.93,0,0,1,2.11,41.72c-1,13.79-3.93,27.07-7.51,40-4.45,13.78-10.83,27.7-20.48,39.25a126.15,126.15,0,0,1-33.53,28,183.06,183.06,0,0,1-38.37,15.51,274.88,274.88,0,0,1-39,7.26c-12.93,1.38-25.78,2-38.52,2.07l-73.39-.47c-24.76-.4-50.35-1.73-76.2-7.13a210.42,210.42,0,0,1-38.34-11.69c-3.14-1.24-6.16-2.9-9.24-4.35s-6.19-2.84-9.08-4.69l-8.73-5.39-4.33-2.74-4.07-3.12-8.1-6.27c-2.75-2-5-4.57-7.53-6.85l-7.35-7-6.59-7.61c-2.17-2.57-4.39-5.06-6.51-7.69l-6-8.37a90.75,90.75,0,0,1-5.45-8.64c-1.66-2.95-3.61-5.79-5-8.86a214.94,214.94,0,0,1-14.76-37.15,276.43,276.43,0,0,1-8-38.21c-3.68-25.55-4.17-51-3.12-76.06,2.06-50.21,10.77-99.09,22.39-146.76s26.3-94.15,41.06-140.64a3.08,3.08,0,0,1,6,1.08c-1.2,24.63-4.57,48.94-7.9,73.11l-10.87,72c-7.14,47.77-14.08,95.31-15.66,142.44-.74,23.53,0,47,3.54,69.57a242,242,0,0,0,7.3,33.1,180.17,180.17,0,0,0,12.45,30.45c1.12,2.49,2.72,4.64,4.05,7a62,62,0,0,0,4.34,6.74l4.69,6.47c1.72,2.08,3.59,4.1,5.37,6.16l5.39,6.15,5.92,5.5c2,1.76,3.81,3.83,6,5.37l6.39,4.82,3.18,2.42,3.42,2.08,6.83,4.13c2.24,1.45,4.8,2.36,7.17,3.58s4.77,2.42,7.29,3.37a172.64,172.64,0,0,0,31.48,9.17c21.89,4.36,45.16,5.47,69,5.58l72.6-.2c11.59-.15,23.07-.76,34.33-2a234.81,234.81,0,0,0,32.72-6.25,143.07,143.07,0,0,0,29.11-11.88,85.64,85.64,0,0,0,22.1-18.58c6-7.26,9.76-15.88,12.87-25.15,2.82-10.54,5.11-21.13,5.79-31.65a125.62,125.62,0,0,0-1.7-31,108.19,108.19,0,0,0-10.09-28.87c-9.4-18.32-24.1-34.37-41.55-47.6a204.72,204.72,0,0,0-27.92-17.9c-4.89-2.67-9.92-5.11-15-7.38-2.53-1.14-5.09-2.22-7.62-3.22s-5.34-2-7.13-2.65l-21.63-7.18,8.71-20.87c32.63-78.23,63.36-157.86,92.22-237.78s56-160.58,78.55-242.1c11.21-40.75,21.65-81.71,29.09-122.82,3.94-20.55,6.64-41.11,8.61-61.52l1-15.23c.34-5.07.27-10.33.43-15.48.38-10.36,0-20.71-.12-31.06-.8-20.68-2.42-41.32-5.17-61.84s-6.73-40.89-11.5-61.15c-9.27-40.62-22.73-80.45-35.81-121.49a17.39,17.39,0,0,1,33-10.87Z"/><path class="cls-2" d="M1625.35,1649.89c53.52-41.64,97.33-90.71,131-146.19a478.27,478.27,0,0,0,41.56-87.88c1.3-3.86,2.83-7.64,4-11.56l3.33-11.78c1.08-3.94,2.31-7.83,3.26-11.8l2.68-12,2.68-12,2-12.13c1.25-8.09,2.55-16.18,3.14-24.38l1.16-12.25c.45-4.08.76-8.17.84-12.29l1-24.64-.47-24.7c0-4.11-.22-8.22-.58-12.34l-.88-12.34-.88-12.33c-.33-4.11-1-8.2-1.4-12.31l-2.91-24.6c-2.79-16.32-4.75-32.75-8.24-49-5.65-32.71-14.16-64.93-22-97.45-1.7-8.21-4.1-16.24-6-24.43l-5.66-24.68c-3.86-16.48-7.82-33-10.34-50.27v-.12a3,3,0,0,1,2.5-3.36,3,3,0,0,1,2.88,1.28,485,485,0,0,1,26.36,44.68c7.26,15.59,14.9,31.14,20.84,47.33s11.77,32.46,16.11,49.21l7,25,5.64,25.39,2.76,12.71c.86,4.25,1.42,8.57,2.15,12.85l4.05,25.76,2.67,26c.41,4.34.91,8.66,1.17,13l.58,13.08a611,611,0,0,1-3.23,104.7c-.76,8.73-2.26,17.38-3.71,26l-2,13-2.67,12.91-2.68,12.91c-1,4.3-2.21,8.52-3.3,12.79-2.23,8.52-4.48,17-7.31,25.4-10.53,33.65-25,66.37-44,96.33a352.13,352.13,0,0,1-69.38,79.81,298.77,298.77,0,0,1-43,30.45,219.34,219.34,0,0,1-47.87,21.32,2.94,2.94,0,0,1-2.66-5.13Z"/><path class="cls-3" d="M1861.49,841.52h43.34S1881.18,965,1770.89,1059c-34.43,29.39-77.38,55.91-130.67,74.86H924.76c-55.47-19.73-99.68-47.6-134.81-78.46C683.23,961.94,660.14,841.52,660.14,841.52H702.4C552,532.57,635.93,336.12,731,226.18l0,0c56.73-65.65,117.38-100.47,134.46-110C900.15,96.68,940.88,79.59,984.83,65c192-63.6,402.25-63.6,594.22,0,44,14.6,84.77,31.69,119.42,51.12,18.13,10.13,85.25,48.64,144.72,122.24C1933.74,350.38,2006.55,543.65,1861.49,841.52Z"/><g class="cls-8"><path class="cls-9" d="M1943,555.57c-14.13-249.36-211.36-363-244.53-381.51-34.65-19.39-75.38-36.52-119.42-51.13-192-63.6-402.2-63.6-594.22,0-44,14.61-84.68,31.74-119.37,51.13-33.12,18.52-230.4,132.19-244.53,381.59C604.8,265.74,829.9,136,865.46,116.11,900.15,96.68,940.88,79.59,984.83,65c192-63.6,402.25-63.6,594.22,0,44,14.6,84.77,31.69,119.42,51.12C1734.07,136,1959.13,265.69,1943,555.57Z"/></g><path class="cls-2" d="M1822.19,932.84a17.4,17.4,0,0,1-15-26.07C1915.56,718.54,1950.37,550,1910.6,405.69c-44.41-161.1-169.07-245.57-220.6-274.41-32.58-18.23-71.74-35-116.39-49.77-188.06-62.32-395.2-62.32-583.28,0-44.65,14.8-83.81,31.54-116.38,49.77-51.54,28.84-176.2,113.31-220.61,274.41-39.77,144.26-5,312.85,103.46,501.08a17.38,17.38,0,1,1-30.13,17.35C613.43,727.54,577.48,550,619.82,396.44,667.71,222.71,801.62,131.91,857,100.93,891.46,81.63,932.65,64,979.4,48.5c195.12-64.67,410-64.66,605.15,0C1631.29,64,1672.48,81.63,1707,100.93c55.34,31,189.25,121.78,237.15,295.51,42.33,153.57,6.38,331.1-106.85,527.68A17.39,17.39,0,0,1,1822.19,932.84Z"/><path class="cls-2" d="M677.21,838.25c.66,3.18,1.69,7.4,2.74,11.18s2.22,7.78,3.44,11.66c2.49,7.76,5.16,15.51,8.18,23.15a414.88,414.88,0,0,0,76.82,125.4,331,331,0,0,0,35.23,34.23c12.51,10.6,26.24,19.54,39.57,29,27,18.49,54.92,35.29,83.53,55.58l.07,0a6,6,0,0,1-3.95,10.87c-35.87-2.85-69.8-16.59-100.1-35.6a351.94,351.94,0,0,1-42.19-33.16c-13.19-12.06-26.25-24.28-38-37.7a449.81,449.81,0,0,1-83.36-136c-3.27-8.3-6.19-16.75-8.92-25.29q-2-6.42-3.83-13c-1.23-4.47-2.27-8.57-3.35-13.77a17.38,17.38,0,1,1,34-7.08Z"/><path class="cls-2" d="M1921.92,844.8c-1.08,5.2-2.12,9.3-3.35,13.77s-2.47,8.7-3.83,13c-2.73,8.54-5.65,17-8.92,25.29a449.81,449.81,0,0,1-83.36,136c-11.79,13.42-24.85,25.64-38,37.7a351.94,351.94,0,0,1-42.19,33.16c-30.3,19-64.23,32.75-100.1,35.6a6,6,0,0,1-4-10.87l.07,0c28.61-20.29,56.49-37.09,83.53-55.58,13.33-9.42,27.06-18.36,39.57-29a330.06,330.06,0,0,0,35.23-34.23,414.88,414.88,0,0,0,76.82-125.4c3-7.64,5.69-15.39,8.18-23.15,1.22-3.88,2.38-7.78,3.44-11.66s2.08-8,2.74-11.18l.12-.57a17.39,17.39,0,0,1,34,7.12Z"/><g class="cls-4"><path class="cls-2" d="M786.65,540.35c5.43,70.69,15,136,23.3,195.84,18.6,133.37,31.43,239.88-20,319.22C683.23,961.94,660.14,841.52,660.14,841.52H702.4C552,532.57,635.93,336.12,731,226.18l0,0C779.13,188.05,768.65,306,786.65,540.35Z"/></g><path class="cls-3" d="M862.24,113.85c-27.12,19-93.59,90.29-75.59,324.56,5.43,70.73,15,136,23.3,195.88C836.16,822,850.81,956.46,691.18,1036.93,421.83,1172.78,591.33,929.6,509.6,820.18,433.31,718,364.4,656.59,394.88,558.09c8.74-28.17,25.56-59.34,52.64-95.38C514.47,373.64,550,321.47,611,248.35,693.92,148.93,794.51,43.94,862.81,97.81A10.05,10.05,0,0,1,862.24,113.85Z"/><g class="cls-8"><path class="cls-9" d="M862.24,113.85c-12.43,8.74-33.17,28.47-50.21,69.9C746.39,173.1,662.1,262.61,590.85,348c-61,73.12-96.51,125.29-163.46,214.36-16.52,22-29.21,42.17-38.6,61-2.78-20.35-1.17-41.73,6.09-65.25,8.74-28.17,25.56-59.34,52.64-95.38C514.47,373.64,550,321.47,611,248.35,693.92,148.93,794.51,43.94,862.81,97.81A10.05,10.05,0,0,1,862.24,113.85Z"/></g><g class="cls-4"><path class="cls-2" d="M691.18,1036.93C421.83,1172.78,591.33,929.6,509.6,820.18,433.31,718,364.4,656.59,394.88,558.09c5.6,150.32,149.41,151.24,189.8,247.27,29.17,69.38,141,22.56,181.4-28.74,22.3-28.43,37.22-102.55,43.87-142.33C836.16,822,850.81,956.46,691.18,1036.93Z"/></g><path class="cls-3" d="M862.24,113.85c-1.39,1-2.91,2.13-4.52,3.43,1.57-6.82,3.31-13.3,5.13-19.43A10,10,0,0,1,862.24,113.85Z"/><path class="cls-2" d="M573.6,1094.56c-13.92,0-25.25-3.16-34.59-9.36-30.95-20.59-27.85-64.77-24.25-115.93,3.4-48.47,7.27-103.41-19.08-138.7-12.15-16.26-24.07-31.44-35.61-46.13-81.93-104.3-141.13-179.66-26.47-332.19C453.31,426,469.94,403.51,486,381.72c38.16-51.72,68.3-92.56,111.61-144.49C658.16,164.66,784.09,13.62,873.57,84.14h0a27,27,0,0,1,10.34,22.15,27.63,27.63,0,0,1-11.68,21.76c-20.48,14.4-85.91,79.21-68.25,309,5,64.58,13.22,123.52,21.21,180.52C852.34,811.31,873.78,964.33,699,1052.46,642.68,1080.87,602.56,1094.56,573.6,1094.56ZM821,100.78c-56.07,0-132.77,82.12-196.66,158.73C581.69,310.64,551.82,351.12,514,402.36c-16.12,21.86-32.8,44.46-52.59,70.79-98.62,131.17-54.35,187.52,26,289.81,11.66,14.85,23.72,30.2,36.12,46.8,34.09,45.65,29.74,107.44,25.91,162-2.6,36.94-5.28,75.15,8.83,84.53,9,6,37.28,9.45,125.08-34.83,152.53-76.91,134.57-205,107.38-399-7.68-54.85-16.4-117-21.44-182.68-17-221.55,40.87-304.53,74.55-333.57A49.05,49.05,0,0,0,821,100.78Z"/><g class="cls-4"><path class="cls-2" d="M1861.49,841.52h43.34S1881.18,965,1770.89,1059c-80.59-114.94-18.52-288.87-.65-521,18-234.27,18.78-347.38,73-299.65C1933.74,350.38,2006.55,543.65,1861.49,841.52Z"/></g><path class="cls-3" d="M1694.06,97.79a10,10,0,0,0,.58,16c27.12,19.07,93.58,90.31,75.59,324.56-22.46,292.35-115.1,492.38,95.44,598.55,269.38,135.83,99.86-107.33,181.59-216.77,98.08-131.34,184-195.33,62.1-357.47-67-89.06-102.53-141.24-163.48-214.33C1863,148.93,1762.36,44,1694.06,97.79Z"/><path class="cls-2" d="M1458.75,925.51c-48.44,15-63.38,136.52-175.77,136.52h-.62C1170,1062,1155,940.48,1106.6,925.51"/><path class="cls-10" d="M1420.49,901.42c-37.91,15.91-49.61,145.11-137.57,145.11h-.49c-88,0-99.66-129.2-137.58-145.11"/><path class="cls-10" d="M1420.49,901.42c-37.91,15.91-49.61,145.11-137.57,145.11h-.49c-88,0-99.66-129.2-137.58-145.11"/><path class="cls-2" d="M1283,1079.42h-.62c-80.22,0-116.91-55.25-143.7-95.6-13-19.54-25.23-38-37.19-41.69a17.39,17.39,0,0,1,10.26-33.23c23.81,7.35,39.4,30.83,55.9,55.68,26.14,39.36,53.17,80.07,114.73,80.07h.62c61.57,0,88.6-40.71,114.74-80.07,16.5-24.85,32.09-48.33,55.9-55.68a17.39,17.39,0,1,1,10.26,33.23c-12,3.69-24.21,22.15-37.19,41.69C1399.9,1024.16,1363.2,1079.42,1283,1079.42Z"/><g class="cls-4"><path class="cls-2" d="M1492.8,1000.41c-76.46,53.13-196.1,29-211.57-30.95-15.57,60-135.2,84.08-211.67,30.95-55-38.21-59.86-88.33-57.34-116.46,8.26,22.13,23.65,45.34,51,65.56,34.91,25.69,78.46,29.21,117.63,19.47.09,0,.13,0,.18,0,49-9.26,92.46-41.73,101.2-77.38,8.74,35.86,52.69,68.56,102,77.55,39,9.57,82.33,6,117.07-19.6,25.34-18.69,40.38-40,49.08-60.56C1551.93,917.73,1544.71,964.38,1492.8,1000.41Z"/></g><g class="cls-4"><path class="cls-2" d="M1865.68,1036.93c269.35,135.85,99.86-107.33,181.58-216.75C2123.56,718,2192.46,656.59,2162,558.09c-5.61,150.32-149.42,151.24-189.8,247.27-29.17,69.38-141,22.56-181.41-28.74-22.3-28.43-37.21-102.55-43.86-142.33C1720.7,822,1706.05,956.46,1865.68,1036.93Z"/></g><g class="cls-8"><path class="cls-9" d="M1694.62,113.85c12.44,8.74,33.17,28.47,50.21,69.9C1810.48,173.1,1894.77,262.61,1966,348c61,73.12,96.51,125.29,163.45,214.36,16.52,22,29.22,42.17,38.61,61,2.78-20.35,1.17-41.73-6.09-65.25-8.74-28.17-25.56-59.34-52.65-95.38-66.94-89.07-102.5-141.24-163.45-214.36C1863,148.93,1762.35,43.94,1694.06,97.81A10.06,10.06,0,0,0,1694.62,113.85Z"/></g><path class="cls-2" d="M1983.26,1094.56c-29,0-69.07-13.68-125.42-42.1-174.76-88.12-153.31-241.14-126.16-434.87,8-57,16.25-116,21.21-180.53,17.65-229.8-47.78-294.61-68.25-309A27.68,27.68,0,0,1,1673,106.29a27,27,0,0,1,10.35-22.15c89.46-70.51,215.41,80.52,275.93,153.09,43.31,51.93,73.46,92.77,111.62,144.49,16.08,21.79,32.71,44.32,52.41,70.53,114.67,152.53,55.47,227.89-26.47,332.19-11.53,14.69-23.45,29.87-35.6,46.13-26.35,35.29-22.49,90.23-19.08,138.7,3.59,51.16,6.7,95.34-24.26,115.93C2008.52,1091.4,1997.18,1094.56,1983.26,1094.56ZM1713,106.16c33.68,29,91.57,112,74.54,333.57-5,65.66-13.76,127.83-21.44,182.68-27.18,194-45.14,322.09,107.38,399,87.81,44.28,116.07,40.82,125.09,34.83,14.11-9.38,11.42-47.59,8.82-84.53-3.83-54.51-8.17-116.3,25.92-162,12.39-16.6,24.45-32,36.12-46.8,80.36-102.29,124.62-158.64,26-289.81-19.79-26.33-36.47-48.93-52.6-70.79-37.82-51.24-67.68-91.72-110.33-142.85C1859.43,171.86,1769.53,77,1713,106.16Zm-8.18,5.28h0Zm-10.78-13.65h0Z"/><path class="cls-2" d="M867.55,2259.26c4.48-1.81,8-3,12-4.17s7.76-2.17,11.66-3a224.54,224.54,0,0,1,23.42-4c15.66-2,31.4-2.22,47-2s31.21,1.37,46.67,3.18c7.73.91,15.42,2.13,23.08,3.41s15.28,3,22.85,4.83a2.36,2.36,0,0,1,1.76,2.85,2.39,2.39,0,0,1-1.9,1.79h-.07c-7.68,1.31-15.3,2.34-22.89,3.34-7.58,1.23-15.14,2-22.67,3.19q-22.56,3.12-44.75,6.72l-43.94,7.72-21.65,3.8-10.72,1.83c-3.42.57-7.31,1.21-10.13,1.59l-1.46.2a16.32,16.32,0,0,1-8.3-31.31Z"/><g class="cls-4"><path class="cls-2" d="M1709.56,2284.57a198.54,198.54,0,0,0-23.52-9.73s203-478.59,209.88-689.69c4.28-129.9-26.92-207.09-52.12-284.78-10.65-32.82-40.33,99.79-34,123.5,16.83,62.81,13.79,161.8-24.72,287.74-55.68,182.08-141.53,259.66-200,370.12-35.91,67.82-60.82,173.15-60.82,173.15S1599.44,2257.4,1709.56,2284.57Z"/></g><path class="cls-2" d="M1681.19,2290.37c-2.82-.38-6.71-1-10.14-1.59l-10.71-1.83-21.65-3.8-43.94-7.72q-22.18-3.58-44.76-6.72c-7.52-1.19-15.08-2-22.66-3.19-7.59-1-15.21-2-22.89-3.34h-.07a2.37,2.37,0,0,1-.15-4.64c7.58-1.8,15.2-3.46,22.85-4.83s15.36-2.5,23.09-3.41c15.46-1.81,31-2.92,46.67-3.18s31.38.06,47,2a224.28,224.28,0,0,1,23.43,4c3.9.79,7.77,1.89,11.66,3s7.52,2.36,12,4.17a16.32,16.32,0,0,1-8.29,31.31Z"/><g class="cls-4"><path class="cls-2" d="M1145.93,2061.21h0a197.49,197.49,0,0,0,265,0h0s-113.32,353.37,28.1,451.94H1126.93s48.39-22,62.08-131.69S1145.93,2061.21,1145.93,2061.21Z"/></g><g class="cls-4"><path class="cls-2" d="M763,2491.88s-25.6-69.72,31-81.84c138.06-29.57,260.16,113.47,395-42.53,0,0-11.14,165-166.85,178.87S792.48,2553.12,763,2491.88Z"/></g><g class="cls-4"><path class="cls-2" d="M1793.87,2491.88s25.6-69.72-31-81.84c-138.06-29.57-260.17,113.47-395-42.53,0,0,11.14,165,166.85,178.87S1764.39,2553.12,1793.87,2491.88Z"/></g><path class="cls-11" d="M1673.53,1189.5c-6.25,4.66-58.25-8.34-97.11-48.94s-28-78.09-23.4-100.14c.45-2.15.83-4.17,1.12-6.13,5-30.2-3.3-40.6-1.38-44.09l29.69-3.89s38.67,6.23,62.81,39.13a94,94,0,0,1,15.53,33.7c6.45,26.28-3.27,52.57-.77,73.2C1664,1165.5,1677.42,1186.62,1673.53,1189.5Z"/><g class="cls-4"><path class="cls-2" d="M1554.14,1034.29c5-30.2-3.3-40.6-1.38-44.09l29.69-3.89s38.67,6.23,62.81,39.13C1621.57,1031.21,1585.21,1033.56,1554.14,1034.29Z"/></g><path class="cls-2" d="M1668.69,1203c-24.48,0-70.75-21.36-101.54-53.52-41.38-43.22-32.35-85.26-27.51-107.85l.81-3.77c4.45-21.53,1.89-32.24.36-38.64-1-4.33-2.32-9.72.74-15.22a12.84,12.84,0,0,1,23.93,8l.3,1.24c1.76,7.36,5.42,22.68-.19,49.81l-.84,4c-4.65,21.66-11,51.32,21,84.71,24.48,25.57,54.47,39,71.58,43.84a200.64,200.64,0,0,1-10-41.63c-1.22-10.1,0-20.43,1.19-31.37,1.52-13.4,3.08-27.25-.12-40.32-13.11-53.37-65.74-62.83-68-63.21a12.84,12.84,0,0,1,4.12-25.34c2.91.47,71.55,12.28,88.78,82.42,4.3,17.54,2.39,34.43.7,49.34-1.06,9.4-2.07,18.28-1.21,25.39,2.06,17,6.73,30.44,10.15,40.27,3.9,11.23,7.59,21.84-1.72,28.74C1678.32,1201.94,1674,1203,1668.69,1203Zm-7.25-14.72h0Z"/><path class="cls-11" d="M1618.68,938.57c33.53-25,52.25-47.94,47.25-100.1a503.54,503.54,0,0,0-18.55-94.28c-4.41-14.91-4.78-33.49-17.32-15.87-24.16,34-56.29,62.37-75.28,100.39-18.94,37.78-15.73,98.38,25.78,118.56,3.88,2.16,0,12.2,9.19,9C1589.75,956.31,1607.64,947.61,1618.68,938.57Z"/><g class="cls-8"><path class="cls-9" d="M1665.94,838.45a502.69,502.69,0,0,0-18.55-94.26c-4.43-14.92-4.78-33.47-17.33-15.89-24.17,34-56.29,62.4-75.26,100.4-7.67,15.24-11.72,34.24-11.07,52.76a99.21,99.21,0,0,1,6.06-15.21c19-38,51.1-66.44,75.26-100.39,12.55-17.62,12.9,1,17.33,15.85A502.67,502.67,0,0,1,1660.93,876c.39,4,.65,7.87.71,11.56C1666.26,874.33,1667.87,858.54,1665.94,838.45Z"/></g><g class="cls-4"><path class="cls-2" d="M1665.94,838.45c-.16-1.73-.35-3.43-.51-5.16a118,118,0,0,1-37.59,46.35c-15.9,15.46-32.08,15.39-35.93,13.24-20.22-9.85-36-36.39-39.87-58.09-15.76,37.91-10.85,93.37,28.53,112.5,3.85,2.15,0,12.19,9.18,9,0,0,17.88-8.69,28.92-17.74C1652.2,913.62,1671,890.64,1665.94,838.45Z"/></g><path class="cls-2" d="M1586.67,969.77a16.09,16.09,0,0,1-8.13-2.14,17.11,17.11,0,0,1-7.9-11.09c-15.9-9.1-27.67-23.92-34.18-43.15-9.43-27.82-6.75-63.32,6.84-90.43,12.6-25.22,30.45-46.2,47.71-66.48,10.24-12,19.9-23.39,28.6-35.6,2.82-4,10.36-14.48,21.69-12.27s14,13.77,16.38,23.94c.6,2.62,1.24,5.37,2,8a514.13,514.13,0,0,1,19,96.7c5.43,56.59-15,83.75-52.13,111.46-12.08,9.8-30.44,18.78-31.22,19.16l-1.42.59A22.32,22.32,0,0,1,1586.67,969.77Zm3.08-13.46h0Zm44.38-211.89c-7.6,9.93-15.69,19.44-23.56,28.7-17,20-33.1,38.89-44.3,61.32-10.52,21-12.72,49.39-5.5,70.71,4.91,14.48,13.46,24.77,25.41,30.58l.62.32a15.44,15.44,0,0,1,5.15,4.61c5.64-3.11,13.18-7.59,18.6-12l.47-.36c32-23.85,46.49-43.19,42.13-88.59a487.63,487.63,0,0,0-18.08-91.86C1634.74,746.71,1634.43,745.56,1634.13,744.42Z"/><path class="cls-2" d="M1616,820.2c-4.16,20.55-7.6,41.4-10,62.09-1.24,10.35-2,20.69-2.39,30.84s-.11,20.43,1.83,28.48a12.87,12.87,0,0,1-25,6.06,13.34,13.34,0,0,1-.31-1.84v-.11c-1.13-12.91.49-23.8,2.24-34.72s4.16-21.41,6.86-31.81c5.34-20.83,11.6-41.13,18.62-61.3a4.26,4.26,0,0,1,8.19,2.24Z"/><path class="cls-11" d="M1711.4,931s-131.57,21.35-320.12,13c-167.9-7.42-485.35,2.41-533.54,56.4L895,1064.71s107.28-49.07,240.38-66.85,349.62-3.68,422.81-8.21c83.19-5.15,143.33-13.95,161.21-26.13"/><g class="cls-4"><path class="cls-2" d="M1719.43,963.53c-17.88,12.16-78,21-161.21,26.12-73.21,4.53-289.72-9.56-422.82,8.22S895,1064.72,895,1064.72l-37.3-64.29c4.53-5.1,11.46-9.78,20.45-14.12h0a58.44,58.44,0,0,0,68.48,25.84c43.69-14.26,115.86-34.36,197.52-43.2,133.35-14.47,349.6,2.63,422.87-.35,69.68-2.89,123.28-8.44,149.5-16.72Z"/></g><path class="cls-2" d="M889.77,1081.23,842,998.82l6.2-7c60.41-67.67,444.23-65.06,543.69-60.67,184.92,8.17,316.19-12.65,317.5-12.86a12.84,12.84,0,0,1,4.11,25.34c-1.34.22-135,21.48-322.75,13.17-179.35-7.94-456.44,4.34-516.59,46.24l26.28,45.3c30.59-12.84,122.53-48.45,233.31-63.25,87.65-11.71,208.45-9.78,305.52-8.24,50,.8,93.18,1.48,118.2-.06,122.13-7.57,149.34-20.23,154.78-23.93a12.84,12.84,0,0,1,14.45,21.22c-19.24,13.11-75.64,22.64-167.65,28.33-26,1.61-69.65.92-120.19.11-96.21-1.53-216-3.44-301.71,8-129.51,17.3-235.68,65.32-236.74,65.8Z"/><path class="cls-12" d="M1990.73,999a33.94,33.94,0,0,1-5-10.78c-2.25-9.28,1-18,8.44-27s13.93-19.74,14.89-32.36c5.65-9.53,9.5-5.42,9.92,2.25.51,9.34,10.62,23.46,16.72,34.89a41.82,41.82,0,0,1,4.14,10C2048.08,1012,2015.18,999.86,1990.73,999Z"/><path class="cls-13" d="M1661.24,839.07s0,.1,0,.13a.29.29,0,0,1,0-.16Z"/><path class="cls-12" d="M1932.18,1006.15c33.73-19.09,55.69-49,70.26-84.57.06-4.75,1.41-9.34,2.08-13.92,4.34-29.28,7.19-58.51-17.71-81.52-98.34-38-180.31-6.71-253.94,59.92-3.91,3.56-7.63,7.31-11.42,11-16.66,33.64-7,64.77,9,95.32C1794.59,1041.75,1862.25,1045.69,1932.18,1006.15Z"/><g class="cls-8"><path class="cls-9" d="M2007.13,869.1a62.27,62.27,0,0,0-13.64-17.81c-98.34-38-180.31-6.71-253.94,59.92-3.91,3.56-7.64,7.32-11.42,11a80.08,80.08,0,0,0-7.87,47.95c-8.92-23.5-11.45-47.57,1.19-73.11,3.79-3.66,7.51-7.42,11.43-11,73.62-66.63,155.59-97.92,253.93-59.92C2000.64,838.87,2005.91,853.57,2007.13,869.1Z"/></g><g class="cls-4"><path class="cls-2" d="M2004.53,907.65c-.68,4.59-2,9.18-2.09,13.93-14.57,35.56-36.52,65.47-70.26,84.57-69.93,39.54-137.58,35.59-201.77-13.8-13.58-26-22.6-52.45-14.7-80.46A207.84,207.84,0,0,0,1726.17,935c64.19,49.4,131.84,53.34,201.78,13.8,33.73-19.09,55.68-49,70.25-84.57.07-4.75,1.42-9.34,2.09-13.93.26-1.7.51-3.4.74-5.1C2010.14,864.29,2007.74,886,2004.53,907.65Z"/></g><path class="cls-2" d="M1839.15,1045.9c-40,0-79-14.46-116.58-43.37l-2.24-1.73-1.31-2.51c-15.74-30.16-29.13-66.46-9.08-106.95l1-2,4.89-4.75c2.77-2.71,5.54-5.41,8.41-8,86.32-78.11,173.7-98.53,267.21-62.4l2.28.88,1.8,1.67c31.18,28.8,25.7,65.81,21.7,92.82-.26,1.75-.59,3.51-.94,5.27a43.1,43.1,0,0,0-1,7l0,2.44-.92,2.26c-17.22,42-42,71.74-75.81,90.88h0Q1888,1045.91,1839.15,1045.9Zm-98.67-62c59.22,44.5,119.89,48.12,185.38,11.09,28.07-15.89,49-40.85,63.87-76.26a76.67,76.67,0,0,1,1.35-8.87c.27-1.36.54-2.71.74-4.06,4.12-27.83,5.83-50.67-12-68.59-83.77-31.48-159.56-12.89-238.31,58.37-2.62,2.38-5.17,4.88-7.71,7.37l-1.74,1.7C1721.32,927.75,1723.8,951,1740.48,983.89Zm191.7,22.26h0Z"/><path class="cls-12" d="M1952.75,1069.93c16.49-.16,40.68-.36,57.18-.29,7.06,0,10.61-12.49,13.08-20.9,2.18-7.31-6.52-11.23-11.65-15.63-11.07-9.53-25-16.14-31.36-30.49-.25-2-.51-4-.77-6-5.68-8.86-9.69-6-13.54-2.09-1.38,1.45-2.76,3-4.17,4.24a8.3,8.3,0,0,0-.71.55c-35.91,30.68-78,44.25-124.72,45.12q-2.94-.2-5.87-.48c-30.08-2.67-58.38-10.88-84.48-26.93-5.61-3.43-9.46-10.53-17.52-9.59,8,12.38,21.39,17.69,32.09,27.82C1827.17,1098.49,1921.81,1070.25,1952.75,1069.93Z"/><path class="cls-12" d="M1955.07,803.47c-24.71-5.78-49.65-7.29-79.08-3,3.56-4.71,6.77-9.37,9.66-14a166.25,166.25,0,0,0,18.07-40.09c14.5,3.21,29.27,5.3,42.75,12.29a58.07,58.07,0,0,1,21.5,19.2v0c.77,1.15,1.54,2.34,2.25,3.56.32,2.63.7,5.26,1,7.93C1972.94,807.19,1972.56,807.51,1955.07,803.47Z"/><g class="cls-8"><path class="cls-9" d="M1968,777.83c-31.71-11.43-61.94-1.93-82.32,8.6a166.25,166.25,0,0,0,18.07-40.09c14.5,3.21,29.27,5.3,42.75,12.29A58.07,58.07,0,0,1,1968,777.83Z"/></g><path class="cls-12" d="M1890,754.56l-2.41,5.1c-1.22,2.6-2.47,5.23-3.82,7.8-10.65,20-22.24,37.2-47.53,43.17-33.6,7.92-62.42,27.31-90.19,47.56-10.78,11.72-24.52,20.67-32.8,34.79l-.48-.09c-3.14-.58-6.06-1.26-2.73-5.59,8.93-11.65-2.85-31.71,9.73-40.21,14.31-15.15,30.23-33.9,48.08-44.45,32.32-19.2,83.83-41.6,112.49-66.25C1882.76,734.27,1888.09,746.28,1890,754.56Z"/><g class="cls-8"><path class="cls-9" d="M1890,754.56l-2.41,5.1c-19.13,15.41-59.82,22.79-96.28,45.93-41.28,26.22-68.52,69.55-78.54,87.3-3.14-.58-6.06-1.26-2.73-5.59,8.93-11.65-2.85-31.71,9.73-40.21,14.31-15.15,30.23-33.9,48.08-44.45,32.32-19.2,83.83-41.6,112.49-66.25C1882.76,734.27,1888.09,746.28,1890,754.56Z"/></g><path class="cls-2" d="M1713.79,959.33a12.83,12.83,0,0,1-12.25-9.05l-.13-.36c-6.61-17.74-24.47-79.55,23-130.29,27.52-29.38,63.19-47.61,94.67-63.7,26-13.29,50.6-25.85,64.59-41.93l10.33-11.86,9.55,12.49c3.05,4,28.1,40.9-30.95,107.76a12.84,12.84,0,0,1-19.25-17c23.5-26.6,30.59-45.92,32-58.31-15.59,11.79-34.71,21.56-54.59,31.72-31,15.86-63.15,32.27-87.61,58.38-36.41,38.88-24.53,85.53-17.74,103.78a16.06,16.06,0,0,1,1,3.68,12.84,12.84,0,0,1-10.86,14.55A11.74,11.74,0,0,1,1713.79,959.33Z"/><path class="cls-2" d="M1965,831.58a12.84,12.84,0,0,1-8.06-22.84c3.2-2.67,18.95-17.27,6.44-36.66-10.64-16.48-49.94-13.33-62.87-10.94a12.83,12.83,0,0,1-4.73-25.23c6.83-1.28,67.36-11.57,89.17,22.25,20.48,31.74,1.17,60-11.9,70.57A12.74,12.74,0,0,1,1965,831.58Z"/><path class="cls-2" d="M1877.83,1087.6c-34.12,0-72.58-5.36-107.39-27.17-63.63-39.86-63.86-90.51-63.84-92.64a12.83,12.83,0,0,1,12.83-12.71h.13a12.83,12.83,0,0,1,12.71,12.84c0,1.81,1.2,39.05,51.8,70.75,46.82,29.35,102.38,24.11,143,20.3,6.23-.59,12-1.13,17.25-1.5,10.7-.74,21.74-.4,32.42-.06,36.14,1.12,45.1-1,45.68-10.94.33-5.51-10.56-13.68-20.17-20.89-16.37-12.27-36.75-27.54-40.78-53a12.84,12.84,0,0,1,25.36-4c2.41,15.21,16.85,26,30.82,36.51,15.51,11.63,31.54,23.65,30.41,42.94-2.19,37.28-41,36.06-72.13,35.09-10-.31-20.41-.64-29.82,0-5,.35-10.63.88-16.64,1.44C1914.5,1085.94,1896.84,1087.6,1877.83,1087.6Z"/><path class="cls-2" d="M2008.09,1024.83c-1.07,0-2.16,0-3.27-.07a12.84,12.84,0,0,1,1.19-25.65c9.41.46,16.79-2.25,20.69-7.57,2.81-3.85,3.11-8.18,2.15-10.76-.28-.78-.74-1.91-1.31-3.32-4-10.06-12.43-31-14.47-51.37-1.65-16.58-14.91-29.84-15-30a12.84,12.84,0,0,1,17.91-18.39c.82.79,20.08,19.73,22.68,45.82,1.68,16.76,9.44,36.1,12.75,44.36.68,1.68,1.21,3,1.57,4,4.13,11.17,2,24.51-5.52,34.82C2042.37,1013.6,2030.67,1024.83,2008.09,1024.83Z"/><g class="cls-4"><path class="cls-2" d="M2027.67,952.13c-9.76,11.59-23.3,23.27-38,27.67-13.83,24-32.42,44.22-57.52,58.44-69.93,39.54-137.58,35.59-201.77-13.8-12.68-24.26-21.38-48.88-16.05-74.84,2.69,14.5,8.7,28.69,16.05,42.75,64.19,49.39,131.84,53.34,201.77,13.8,33.74-19.1,55.69-49,70.26-84.57.06-4.75,1.41-9.34,2.09-13.93.64-4.43,1.28-8.83,1.76-13.22,2.41,14.5.51,29.91-1.76,45.31-.42,2.89-1.13,5.81-1.58,8.73a48.62,48.62,0,0,0,6.07-19.61c5.65-9.53,9.5-5.42,9.92,2.25C2019.45,940.45,2021.57,940.71,2027.67,952.13Z"/></g><path class="cls-3" d="M1556.47,797.9s28.63,89.89-55.11,151.59c-79.17,58.33-203,2.47-219-63.31-16.11,65.78-139.91,121.64-219.08,63.31-83.69-61.7-55.11-151.59-55.11-151.59Z"/><g class="cls-4"><path class="cls-2" d="M1501.37,949.51c-79.16,58.29-203,2.43-219-63.34-16.13,65.77-139.94,121.63-219.1,63.34-75.77-55.91-59.52-134.85-55.78-149.28,6.44,26.38,21.91,55.94,55.78,80.94,79.16,58.3,203-70.69,219.1-136.47,16,65.78,139.85,194.77,219,136.47,33.82-24.95,49.29-54.47,55.77-80.81C1561,815.09,1577,893.78,1501.37,949.51Z"/></g><path class="cls-2" d="M1013.66,799.68c3.08,12.32,4.68,23.81,6.38,34.7a232,232,0,0,0,6.21,31.7c2.85,10.2,6.19,20.3,11.31,29.67A109.57,109.57,0,0,0,1057,921.41c15.92,15.7,34,27,54.91,31.76,20.76,5.06,43.27,4.21,64.75-1.06l4.16-.52a17,17,0,0,0-12.07,5l8.07-4.55a158,158,0,0,0,55.22-25.92,110.11,110.11,0,0,0,21.16-20.41c5.83-7.49,10.15-15.65,12.23-23.73l17.25-66.91,16.53,67c3.17,12.83,12.2,25.54,23.6,36.12a148,148,0,0,0,18.94,14.4,172.87,172.87,0,0,0,21.47,11.22c29.81,12.67,63.88,16.83,93.9,8.19a103.74,103.74,0,0,0,21.49-8.67A121.47,121.47,0,0,0,1498,930,128.57,128.57,0,0,0,1528.64,894a110.71,110.71,0,0,0,9.28-21.48c2.54-7.44,3.19-15.39,3.79-23.18s1.19-15.61,2.25-23.68a97,97,0,0,1,7-25.94l.5-1.14a6.7,6.7,0,0,1,8.81-3.48,7,7,0,0,1,1.74,1.1c9,7.88,13.28,17.34,15.71,27.21a81.1,81.1,0,0,1,.91,30.19,188.39,188.39,0,0,1-7.5,29.5A149.92,149.92,0,0,1,1559,911a163.5,163.5,0,0,1-38.75,45.82,155.74,155.74,0,0,1-25.08,17.12,138.32,138.32,0,0,1-28.45,11.5,161.57,161.57,0,0,1-59.88,5.07,195.65,195.65,0,0,1-57.24-14.75,205.63,205.63,0,0,1-26.3-13.76,180.07,180.07,0,0,1-24-18.23c-14.74-13.82-28.15-31.15-33.84-53.48l33.78,0c-3.58,14-10.42,26.27-18.52,36.72A145,145,0,0,1,1252.93,954a192.5,192.5,0,0,1-67.66,31.82l8.07-4.55a17.77,17.77,0,0,1-12.41,5.11l4.16-.51c-26.18,6.41-54.17,7.68-81.3,1.12a139.05,139.05,0,0,1-38.8-15.61,169,169,0,0,1-32.42-25.26,185.81,185.81,0,0,1-25.83-32.25A133,133,0,0,1,990,875.6a115.91,115.91,0,0,1-3.11-41.22c1.76-13.67,6.06-26.85,15.71-38.21a6.23,6.23,0,0,1,8.79-.72,6.15,6.15,0,0,1,2,3.24Z"/><path class="cls-2" d="M1282,844.41c-58.08,0-156.16-119.63-117.87-178.86C1174.77,649,1202,641,1233.34,636.78a366.57,366.57,0,0,1,97.26,0c31.37,4.21,58.57,12.26,69.24,28.77C1438.14,724.78,1340.05,844.41,1282,844.41Z"/><g class="cls-14"><path class="cls-9" d="M1282,699.09c-37.48,0-100.79-20.63-76.07-30.84,6.89-2.85,24.44-4.24,44.68-5,20.82-.75,42-.75,62.78,0,20.24.72,37.8,2.11,44.68,5C1382.76,678.46,1319.45,699.09,1282,699.09Z"/></g><path class="cls-2" d="M1282.33,903.57A17.38,17.38,0,0,1,1265,886.26l-.36-80.85A17.37,17.37,0,0,1,1281.9,788h.07a17.38,17.38,0,0,1,17.39,17.31l.36,80.84a17.39,17.39,0,0,1-17.31,17.47Z"/><ellipse class="cls-2" cx="1027.35" cy="509.37" rx="135.97" ry="101.47" transform="translate(385.48 1459.58) rotate(-82.33)"/><ellipse class="cls-9" cx="1062.16" cy="498.02" rx="40.86" ry="27.74" transform="translate(426.9 1484.24) rotate(-82.33)"/><path class="cls-2" d="M1636,449.37a440.72,440.72,0,0,0-46.84,20.07,299.8,299.8,0,0,0-41.92,25.62c-6.62,4.6-12.54,9.93-18.67,15l-8.5,8.25c-1.37,1.41-2.91,2.66-4.21,4.13l-3.89,4.43c-10.89,11.38-19.23,24.77-27.43,38.29l-30.59-30.06c1.45-.74,2.37-1.14,3.36-1.59s2-.89,2.92-1.26c1.91-.77,3.82-1.53,5.69-2.17,3.76-1.39,7.51-2.51,11.27-3.65a184,184,0,0,1,22.78-4.95,173.37,173.37,0,0,1,46.17-1c15.25,1.78,30.32,5.18,44.22,11.22,14.13,5.33,26.85,13.58,38.44,22.45a7.73,7.73,0,0,1-6.57,13.64l-.89-.23c-6.67-1.66-12.9-4-19.35-5.42s-12.74-3-19.18-3.71a179.17,179.17,0,0,0-37.91-1.67,175.73,175.73,0,0,0-36.75,5.7c-3,.73-5.92,1.71-8.88,2.53l-8.67,3c-2.83,1.09-5.67,2.15-8.36,3.38-1.39.57-2.66,1.2-3.94,1.82-.66.31-1.28.6-1.83.89l-1.32.69-.52.27a22.36,22.36,0,0,1-30.07-30.33c9.24-17.38,19.64-34.58,33.6-48.8,6.39-7.64,14.32-13.7,21.69-20.25,8-5.71,15.85-11.73,24.54-16.25a200.54,200.54,0,0,1,53.69-21.13c18.7-4.21,37.36-6.19,56.81-4.13a7.78,7.78,0,0,1,1.87,15Z"/></g></g></svg>