<svg xmlns="http://www.w3.org/2000/svg" viewBox="0 0 2981.99 2193.02"><defs><style>.cls-1{fill:#ff8f08;}.cls-2{fill:#fff;}.cls-3{fill:#000072;}.cls-4{opacity:0.3;}.cls-5{fill:red;}.cls-6{opacity:0.6;}.cls-7{fill:#ef7fd2;}.cls-8{fill:#b199c5;}</style></defs><title>introAtivo 1</title><g id="Camada_2" data-name="Camada 2"><g id="Layer_1" data-name="Layer 1"><path class="cls-1" d="M773.13,1320.12l-132.77-25.51-69.23-13.25c-51.71,27.51-268.73-9.64-363.57-277.13-20.89-58.64-35.86-128.34-41.89-210.81C154.19,517,337,301.74,585.81,326.42a420.88,420.88,0,0,1,61.29,10.7,47.48,47.48,0,0,1,28,72.48,480.08,480.08,0,0,0-33.55,59.23c-49,102.71-83.36,269.32,48.75,462.74C911.16,1255,773.13,1320.12,773.13,1320.12Z"/><path class="cls-2" d="M640.36,1294.61l-69.23-13.25c-63,33.55-371.8-29-405.46-487.94C154.19,517,337,301.74,585.81,326.42c-394.41,69.87-435.94,848.68,6.45,923.46A418.31,418.31,0,0,1,640.36,1294.61Z"/><path class="cls-3" d="M773.11,1337.88a17.2,17.2,0,0,1-3.35-.32l-196.4-37.68c-35.71,14.26-105.88,8-178.87-32.25C312,1222.12,170.38,1100.17,148,794.72l0-.57c-6.81-163.8,54.34-314.77,163.57-403.84,93.95-76.6,214.64-101.61,339.87-70.41h0a64.46,64.46,0,0,1,45,39.66,65.5,65.5,0,0,1-6.55,59.86c-60.38,90.89-138.71,277,15.06,502.16,103.48,151.52,144.86,269.11,123,349.5-13,47.75-43.78,63.47-47.25,65.11A17.79,17.79,0,0,1,773.11,1337.88Zm-202-74.25a18,18,0,0,1,3.35.32l195,37.43c6.31-4.89,18.43-17,24.6-41.44,12.19-48.19,1.53-142.54-118.53-318.34C602.48,834.51,571.1,724,582.34,613c9.48-93.54,47.63-167.6,78-213.26a29.71,29.71,0,0,0-17.52-45.42c-114.1-28.43-223.78-5.89-308.84,63.47-100.55,82-156.82,222-150.55,374.58,21.25,288.57,152.12,402.13,228.25,444.15,69,38.06,131,39.91,151.17,29.16A17.83,17.83,0,0,1,571.15,1263.63Z"/><g class="cls-4"><path class="cls-3" d="M902.29,1890.06l-145,77.93s147.92,115.37,269.21-8.88"/></g><g class="cls-4"><path class="cls-3" d="M773.13,1320.12l-132.77-25.51-69.23-13.25c-51.71,27.51-268.73-9.64-363.57-277.13l214.47,86S301.75,667.33,465.46,499.65s176.08-30.82,176.08-30.82c-49,102.71-83.36,269.32,48.75,462.74C911.16,1255,773.13,1320.12,773.13,1320.12Z"/></g><path class="cls-1" d="M902.29,1890.06l-145,77.93s147.92,115.37,269.21-8.88"/><g class="cls-4"><path class="cls-3" d="M902.29,1890.06l-145,77.93s147.92,115.37,269.21-8.88"/></g><path class="cls-5" d="M561.77,1298.45s-191-17.78-305.38,214.94c0,0-24.65,53.25,64.59,116.36s223.35,34.57,223.35,34.57"/><g class="cls-6"><path class="cls-2" d="M561.79,1298.46l-1.25,26c-50.41,2.25-194.12,25.8-287.13,215.07,0,0-9.71,21,5.15,52.19-37.58-45-22.19-78.28-22.19-78.28C370.8,1280.65,561.79,1298.46,561.79,1298.46Z"/></g><path class="cls-3" d="M472.69,1688.61c-48.34,0-111.26-8.51-162-44.37-100.16-70.83-71.71-135.58-70.45-138.31,118.6-241.3,314.82-225.93,323.14-225.15a17.75,17.75,0,0,1-3.25,35.35c-7.61-.63-180.44-12.86-287.59,204.56-1.36,3.69-13.77,43.36,58.65,94.57,81.68,57.77,208.15,32,209.42,31.69a17.75,17.75,0,0,1,7.37,34.73C545.34,1682.25,514.46,1688.61,472.69,1688.61Z"/><path class="cls-3" d="M394.93,1497.47a168.78,168.78,0,0,1-.25,30.92A180.12,180.12,0,0,1,389,1559a154.66,154.66,0,0,1-11.41,29.84c-4.66,9.81-11,18.84-17.8,27.67a17.87,17.87,0,0,1-28.32-21.79,18.38,18.38,0,0,1,2.32-2.49l.62-.54c6.35-5.55,12.79-11.43,18.05-18.48a127.35,127.35,0,0,0,14.41-22.6A159.87,159.87,0,0,0,377.26,1525a157,157,0,0,0,5.84-27.25l.06-.45a5.92,5.92,0,0,1,11.77.17Z"/><path class="cls-1" d="M1582.7,1760.22c0,10.3-16.27,117.54-16.27,117.54l118.16-7.62,26.4-53.26"/><g class="cls-4"><path class="cls-3" d="M1582.7,1760.22c0,10.3-16.27,117.54-16.27,117.54l118.16-7.62,26.4-53.26"/></g><path class="cls-1" d="M1872,2063.48c-4.92,21.42-15.27,44-32,67.21,0,0-77.93,57.22-158.75-43.36,0,0-41.3,31.77-101.65,57-70.11,29.47-165.84,50.23-252.4,2.55h-.06c-53.13-29.23-102.77-84.32-140.93-178.92,0,0-180.46,15.74-304.71-77.92a223.63,223.63,0,0,1-17.45,14.08c-52.78,39-220.87,139-443.93,29-7.87-3.91-15.8-8.05-23.79-12.49,23.67,104.31-122.47,138.16-198,109.64-1.31-.41-2.61-1-3.85-1.48-.89-.41-1.66-.71-2.25-1-2.54-1.12-5-2.36-7.39-3.66-156.8-119.82-.6-389.79,158.27-458.54,0,0,71.94-14.68,151.46,49.58l.89.71s0-2,.06-5.68c.06-7.4.41-21.54,1.6-40.35,5.44-87.16,29.22-275,131.94-358.26,308.31,55.74,573.08,153.84,773.3,314.53A1035.5,1035.5,0,0,1,1568,1692.51s21.65,120.58-21.77,197.56c7.92-2.84,16-5.33,24-7.46l1.24-.35a.45.45,0,0,1,.3-.06c106.08-27.46,220.21,4.85,273.4,69.64C1870.43,1982.66,1881.91,2020.88,1872,2063.48Z"/><g class="cls-6"><path class="cls-2" d="M1170.36,1671.17s7.64,437.54,282.47,503.76C1266.16,2175.2,1110.29,1959.48,1170.36,1671.17Z"/></g><path class="cls-5" d="M494.63,1615.24,488.12,1650s-139,136.08-71,270.68l3.08,12.49c-7.87-3.91-15.8-8.05-23.79-12.49,25.15,110.94-141.7,142.18-211.51,103.55-156.8-119.82-.6-389.79,158.27-458.54C343.17,1565.66,415.11,1551,494.63,1615.24Z"/><g class="cls-6"><path class="cls-2" d="M1568,1692.51s.29,1.6.71,4.49c-208.39-241.45-525.58-377.12-910.75-446.76-102.71,83.31-126.5,271.1-131.94,358.25-1.18,18.76-1.54,33-1.6,40.35-.06,3.67-.06,5.68-.06,5.68a9.93,9.93,0,0,1-.88-.76c-79.52-64.2-151.47-49.53-151.47-49.53-138.27,59.82-274.47,272-204.18,405.11-127.39-125.9,22.78-377.66,175.37-443.68,0,0,71.94-14.68,151.46,49.58l.89.71s0-2,.06-5.68c.06-7.4.41-21.54,1.6-40.35,5.44-87.16,29.22-275,131.94-358.26C1032,1284.5,1360.59,1429.69,1568,1692.51Z"/></g><path class="cls-5" d="M1872,2063.48c-4.92,21.42-15.27,44-32,67.21,0,0-77.93,57.22-158.75-43.36,0,0-41.3,31.77-101.65,57,74.91-124.37-9.46-261.75-9.46-261.75l1.24-.35a.45.45,0,0,1,.3-.06c18.75-5.39,206.66-55.27,273.4,69.64a183.94,183.94,0,0,1,17.1,47.21A444.37,444.37,0,0,1,1872,2063.48Z"/><g class="cls-4"><path class="cls-3" d="M1872,2063.48c-4.92,21.42-15.27,44-32,67.21,0,0-77.93,57.22-158.75-43.36,0,0-41.3,31.77-101.65,57-70.11,29.47-165.84,50.23-252.4,2.55,179.33,26.5,296.84-107.92,197.73-130.17s-63.6-134.13-63.6-134.13c45.38-240.16-212.11-272.11-212.11-272.11l97.74-78.33c2.6-.3,25.15-3.08,55.38-6A1035.5,1035.5,0,0,1,1568,1692.51s21.65,120.58-21.77,197.56c7.92-2.84,16-5.33,24-7.46l1.24-.35a.45.45,0,0,1,.3-.06c106.08-27.46,220.21,4.85,273.4,69.64C1870.43,1982.66,1881.91,2020.88,1872,2063.48Z"/></g><path class="cls-3" d="M1441.25,2193a263.42,263.42,0,0,1-69.46-9c-84.61-23.06-150.86-89.49-197.06-197.55-43.36,1.73-183.67.79-292.32-73.91-20,15.78-65.65,47.62-131.54,68.55-76.45,24.28-194.71,37.44-334.54-30.12-2.37,28.3-16.6,53.18-41.72,72-51.66,38.8-144.33,46.61-198.31,16.74a18.59,18.59,0,0,1-2.18-1.43c-55.1-42.11-79.34-104.19-70.1-179.54,14.94-121.7,119.05-260.49,232.1-309.4a18.25,18.25,0,0,1,3.5-1.1c2.93-.6,65.21-12.51,139,33.73,3.87-82.55,25-291.37,139.34-384.13a17.75,17.75,0,1,1,22.37,27.57c-128,103.85-127.08,387.52-127.05,390.37a17.75,17.75,0,0,1-29,13.91c-66.21-54-125.27-48.48-136-46.91-100.3,44.49-195.76,172.29-209,280.29-5.29,43.06.08,103.24,55.34,146.18,38,20.15,114.87,18.25,158.7-14.66,23.63-17.75,32.31-41.31,25.81-70A17.74,17.74,0,0,1,405,1905.12c269.62,148.85,462.57-26.27,464.49-28a17.75,17.75,0,0,1,22.78-1.19c117.17,88.32,290.77,74.57,292.5,74.42a17.78,17.78,0,0,1,18,11c42,104.11,101.93,167.48,178.23,188.34,138.26,37.81,288-75.31,289.52-76.47a17.78,17.78,0,0,1,24.65,3c62.73,78.05,119.29,49.79,132.32,41.6,38-54.45,40.53-106.39,7.37-150.36-53-70.24-179.78-97.45-282.65-60.65a17.75,17.75,0,0,1-21.44-25.43c39.68-70.36,20-184.58,19.76-185.73a17.75,17.75,0,0,1,34.94-6.25c.8,4.46,16.68,95.89-8.2,173.28,109.61-24.57,229.65,8.79,285.93,83.4,42.72,56.64,39.55,127.71-8.68,195a17.74,17.74,0,0,1-3.92,4c-.88.65-85.4,60.8-172.17-33.82C1643.46,2135,1547.22,2193,1441.25,2193Z"/><path class="cls-3" d="M513.24,1615c-.32,11-.21,22.77.08,34.19s.9,23,1.81,34.46c1.89,22.9,4.87,45.77,11,67.7l0,.13a5.93,5.93,0,0,1-11.07,4.15c-10.38-21.87-17.43-44.91-23.37-68.08-2.93-11.61-5.51-23.28-7.85-35s-4.41-23.37-6.14-35.67a17.82,17.82,0,1,1,35.46-2.05Z"/><path class="cls-3" d="M384.67,1934l-67.61-75.43a6,6,0,0,1,7.83-8.87l83.27,57.68a17.88,17.88,0,0,1-20.36,29.39A19.38,19.38,0,0,1,384.67,1934Z"/><path class="cls-3" d="M417.14,1938.41a17.76,17.76,0,0,1-15.86-9.75c-73.06-144.54,68.37-285.45,74.43-291.38a17.75,17.75,0,0,1,24.84,25.36h0c-1.29,1.27-128.87,128.77-67.59,250a17.75,17.75,0,0,1-15.82,25.76Z"/><path class="cls-3" d="M244.23,1903.06a130.39,130.39,0,0,1-9.55,32.73,117,117,0,0,1-18.6,29.66,89.67,89.67,0,0,1-6.19,6.61l-6.86,6.11c-2.4,1.92-5,3.58-7.55,5.38-1.3.86-2.55,1.82-3.9,2.58l-4.14,2.17c-11,6.27-23.27,9.31-35.57,11.65a17.86,17.86,0,1,1-3.71-35.4h1.3c8.75-.13,17.82-.39,26.15-3.36l3.23-.93c1.06-.34,2-.88,3.06-1.31,2-.94,4.15-1.73,6.15-2.79l5.88-3.52c2-1.14,3.7-2.75,5.61-4.1a96.52,96.52,0,0,0,19.55-21.23,116.42,116.42,0,0,0,13.54-26.6l.17-.47a5.91,5.91,0,0,1,11.43,2.83Z"/><path class="cls-3" d="M323.75,1948.16a162.47,162.47,0,0,1,1.5,26.57,135.7,135.7,0,0,1-3.17,27.09,98.74,98.74,0,0,1-10.46,27.3,76.41,76.41,0,0,1-22.17,23.52l-.41.29a17.91,17.91,0,0,1-20.24-29.55,18.92,18.92,0,0,1,3.83-2,43.19,43.19,0,0,0,15.07-9.66,71.68,71.68,0,0,0,12-17.5,114.65,114.65,0,0,0,8-21.86,148.62,148.62,0,0,0,4.27-23.57l0-.34a5.94,5.94,0,0,1,11.79-.29Z"/><path class="cls-3" d="M869.53,1877c20.78-21.21,40.88-42.46,58.29-65.32s32.06-47.28,42.68-73.67,17.09-54.61,20.15-83.71,2.69-58.93,1.24-89.08v-.11a5.94,5.94,0,0,1,11.68-1.8,387.34,387.34,0,0,1,13.2,92.14,289.29,289.29,0,0,1-13.61,94.29c-9.84,30.74-25.45,59.6-44.52,85.17s-41.3,48.18-65,68.15a17.77,17.77,0,0,1-24.2-26Z"/><path class="cls-3" d="M1182.76,1666.84c-6.73,23.78-10.24,49.25-11.86,74.13a520.48,520.48,0,0,0,1.07,74.84l2.25,18.56c.52,6.19,1.63,12.33,2.69,18.46s1.92,12.29,3.09,18.4l3.93,18.26,1.85,9.14,2.4,9,4.56,18.14c3.26,12,7.19,23.93,10.24,36.13l.34,1.37A17.73,17.73,0,0,1,1169.6,1974c-4.84-12.42-9.57-24.92-13.54-37.69L1150.8,1917l-2.51-9.72-2-9.87-3.6-19.78c-1.1-6.62-1.68-13.33-2.41-20-1.78-13.3-1.87-26.8-2.39-40.17a400.7,400.7,0,0,1,7.67-79.92c5.52-26.25,13.15-51.76,26.46-75.72a5.91,5.91,0,0,1,10.86,4.48Z"/><path class="cls-3" d="M1562,1898.2,1520.9,1952a6,6,0,0,1-10.51-5.43l20-64.63a18,18,0,0,1,34.44,10.69A18.36,18.36,0,0,1,1562,1898.2Z"/><path class="cls-3" d="M1668.76,2074.75l47.81-31.07a6,6,0,0,1,8.37,8.37l-31.08,47.81a18.14,18.14,0,1,1-30.42-19.78A18.63,18.63,0,0,1,1668.76,2074.75Z"/><path class="cls-3" d="M1579.67,2162.13a17.76,17.76,0,0,1-15.19-26.91c68.27-113.39-8.64-242-9.42-243.32a17.75,17.75,0,0,1,30.26-18.56c3.68,6,89.12,148.08,9.57,280.19A17.74,17.74,0,0,1,1579.67,2162.13Z"/><path class="cls-5" d="M1720.76,1818.33c-125.24-15.06-220.3-157.74-220.3-157.74l285.07,93.83"/><path class="cls-3" d="M1720.78,1836.08a17.19,17.19,0,0,1-2.14-.13c-131.84-15.85-228.88-159.41-233-165.52a17.75,17.75,0,0,1,29.54-19.68c1.27,1.89,92.39,136.1,207.65,150a17.75,17.75,0,0,1-2.1,35.38Z"/><path class="cls-5" d="M2277,1890.07c-62.72,102.29-177.62,126.08-277.2,25.67-32.48-2.42-61.47-11.3-85.08-30.11-1.24-1-2.48-2-3.67-3,0,0-26.62,84.37-145,90.29s-100.59-53.25-100.59-53.25,29.41-134.49,160.64-159.46l331.92,6L2266,1878.53Z"/><g class="cls-6"><path class="cls-2" d="M1906.93,1761.67a98.3,98.3,0,0,0-7,19.11l-37.27-.65c-131.23,25-160.64,159.46-160.64,159.46a34.86,34.86,0,0,0,6.57,29.64c-54.14-12.48-43-49.58-43-49.58s29.41-134.49,160.64-159.46Z"/></g><path class="cls-1" d="M2522,1829q-57.6,31-107.27,46.26-192.59,59.2-265.36-117.74l252.11-93.24,193.06-71.36c140.63-36.33,199.62,97,199.62,97C2850.34,1817.11,2632.9,1951.72,2522,1829Z"/><path class="cls-5" d="M2522,1829q-57.6,31-107.27,46.26l-2.19-1.89c-94.67-75.44-57.45-156.79-57.45-156.79.06-2.54,19.11-24.32,46.39-52.3l193.06-71.36c140.63-36.33,199.62,97,199.62,97C2850.34,1817.11,2632.9,1951.72,2522,1829Z"/><path class="cls-3" d="M2325.13,1907.67q-36.8,0-68-11.17c-54.29-19.44-96.06-63.94-124.15-132.28a17.75,17.75,0,0,1,32.83-13.49c24.11,58.64,58.86,96.44,103.28,112.34,60.52,21.67,142.79,4.93,244.51-49.76a17.76,17.76,0,0,1,21.58,3.74c53.46,59.16,132.42,50,187,14.58,44.58-28.92,79.13-81.74,55.8-134.55-2.17-4.83-55-119-178.93-87a17.75,17.75,0,0,1-8.89-34.37c153.39-39.68,219.63,105.53,220.29,107,27.51,62.28-.2,134.09-68.95,178.69-61.92,40.17-156.08,52.55-222.88-10.59C2445.29,1888.67,2380.56,1907.67,2325.13,1907.67Z"/><g class="cls-4"><path class="cls-3" d="M2522,1829q-57.6,31-107.27,46.26-192.59,59.2-265.36-117.74l172.82-63.9c-17.21,22.78-28,38.4-28,38.4s106.5-6.56,281.39,10.71c148.1,14.56,131.77-107.44,123.31-145.19,66.14,26.56,95.25,92.42,95.25,92.42C2850.34,1817.11,2632.9,1951.72,2522,1829Z"/></g><path class="cls-3" d="M2628.77,1745.61a160.85,160.85,0,0,1,27.67,20.46,144.63,144.63,0,0,1,23,26.73,107.19,107.19,0,0,1,14.52,34.32c3,12.64,2.46,26,.46,39a17.85,17.85,0,1,1-35.28-5.4,17.16,17.16,0,0,1,.65-2.79l.39-1.15c2.67-8.11,5-16.66,4.48-25.62a80,80,0,0,0-6.06-27.18,123.22,123.22,0,0,0-15.2-25.92,147.23,147.23,0,0,0-21.13-22.61l-.29-.25a5.92,5.92,0,0,1,6.81-9.63Z"/><path class="cls-3" d="M2696,1687.93a66,66,0,0,1,19.19,2.57l4.56,1.34,4.42,1.72a76.7,76.7,0,0,1,8.62,4,104.12,104.12,0,0,1,29.35,24c8.57,9.5,14.76,20.46,20.65,31.54q3.87,8.44,7.45,17.1l5.95,17.53a17.85,17.85,0,1,1-34.54,8.59l-.19-1.22-2.44-15.72c-1.18-5.09-2.4-10.21-3.71-15.32-3.25-9.81-6.73-19.82-12.21-28.45a83.86,83.86,0,0,0-19.87-23.13,61.16,61.16,0,0,0-6.29-4.41l-3.3-2-3.45-1.7a56,56,0,0,0-14.19-4.65l-.84-.14a5.89,5.89,0,0,1,.84-11.7Z"/><path class="cls-3" d="M2412.5,1891.07a17.64,17.64,0,0,1-11.05-3.87c-104.31-83.12-62.95-177.12-62.52-178.06a17.75,17.75,0,0,1,32.33,14.67c-1.35,3.09-29.46,70.47,52.31,135.63a17.75,17.75,0,0,1-11.07,31.63Z"/><path class="cls-3" d="M2133.94,1997.83c-49.21,0-97.86-22.2-142-65-28.85-2.89-53.32-10.6-74.09-23.38-17.12,28.78-59.14,76.59-150.81,81.18-54.32,2.71-91-7.48-108.85-30.31a52.62,52.62,0,0,1-9.85-44.94c2.42-10.61,36-146.27,174.57-172.61a17.75,17.75,0,0,1,6.63,34.87c-117.77,22.39-145.51,140.8-146.63,145.82a7.39,7.39,0,0,1-.33,1.27,17.31,17.31,0,0,0,3.89,14.1c4.84,5.86,22.19,19.16,78.8,16.34,103.66-5.18,128-75,129-78a17.8,17.8,0,0,1,28.46-8c19.74,17,45.41,26.41,78.47,28.84a17.75,17.75,0,0,1,11.31,5.21c43.08,43.46,90.24,63.58,136.38,58.24,44.17-5.13,84.33-33.79,113.07-80.69a17.75,17.75,0,0,1,30.27,18.55c-34.56,56.4-84,91-139.25,97.4A165.11,165.11,0,0,1,2133.94,1997.83Z"/><path class="cls-3" d="M2003.78,1937.41a17.75,17.75,0,0,1-7.75-33.73c76.43-37,48.29-128.18,47-132a17.75,17.75,0,0,1,33.77-10.94c13.94,42.82,18.22,134.48-65.35,174.93A17.6,17.6,0,0,1,2003.78,1937.41Z"/><path class="cls-3" d="M1911.07,1900.38a17.76,17.76,0,0,1-17-12.76c-25.54-87.24,21.92-130.79,24-132.6a17.75,17.75,0,0,1,23.75,26.38c-1.63,1.54-32.49,31.84-13.63,96.24a17.77,17.77,0,0,1-17,22.74Z"/><path class="cls-3" d="M1897.55,1843.18a36.74,36.74,0,0,0-5-.64c-1.88-.18-3.83-.22-5.78-.32-3.92-.08-7.9,0-11.9.24a135.83,135.83,0,0,0-24,3.6,130.88,130.88,0,0,0-23.39,7.82,142.79,142.79,0,0,0-22,12.08l-.31.2a5.93,5.93,0,0,1-7.44-9.14,156.89,156.89,0,0,1,20.82-18.45,152.11,152.11,0,0,1,24.16-14.71,162.66,162.66,0,0,1,26.73-10.48c4.63-1.37,9.35-2.54,14.17-3.54,2.43-.45,4.84-.93,7.36-1.28a74.5,74.5,0,0,1,8.21-.84l2.15-.1a18.09,18.09,0,1,1,1.67,36.14A18.61,18.61,0,0,1,1897.55,1843.18Z"/><path class="cls-3" d="M2081.68,1851.91a30.34,30.34,0,0,0,1.83,3.78c.78,1.4,1.56,2.8,2.43,4.19,1.7,2.78,3.56,5.51,5.54,8.15a97.65,97.65,0,0,0,13.32,14.52,69.67,69.67,0,0,0,16.31,10.63c5.94,2.8,12.41,4.12,19.2,4.82l.63.06a5.92,5.92,0,0,1,.42,11.72,73.17,73.17,0,0,1-25,.49,90.23,90.23,0,0,1-24.22-7.74,123.88,123.88,0,0,1-21.41-13.45c-3.33-2.58-6.54-5.31-9.63-8.23-1.57-1.43-3.08-3-4.59-4.5s-2.87-3-4.68-5.28l-2-2.5a18.3,18.3,0,0,1,28.71-22.69A18.74,18.74,0,0,1,2081.68,1851.91Z"/><path class="cls-5" d="M1643,893.41l-52.54,340.38-415.94,220.1s-190.45-26-556.75-232.29q-20-11.26-39-21.71c-335.89-185.19-449.85-197.14-561-339,0,0,66.68-8.17,102.12-70.29C142.24,751.41,194.66,675,321,664.26c73.9-6.28,173,9.94,306.18,69.22l84-112.48,9.23-12.36S801.7,462.2,974.77,548a214.85,214.85,0,0,0,25.5,16.69c33,18.75,94.13,44.55,160.87,27.51C1260.48,566.87,1643,893.41,1643,893.41Z"/><g class="cls-4"><path class="cls-3" d="M1643,893.41l-52.54,340.38-415.94,220.1s-190.45-26-556.75-232.29q-20-11.26-39-21.71c712.54,165.55,539.48-69.11,549.36-212.47,9-131.76-108.81-383.22-127.86-422.74,33,18.75,94.13,44.55,160.87,27.51C1260.48,566.87,1643,893.41,1643,893.41Z"/></g><g class="cls-6"><path class="cls-2" d="M321,664.26s14.2,13.6,39.94,35.79c-139.64,4.5-196,86.38-219.45,127.39C113.78,876,67,891.57,47.87,896.07c-10.18-10.83-20.18-22.48-30.12-35.2,0,0,66.68-8.17,102.12-70.29C142.24,751.41,194.66,675,321,664.26Z"/></g><g class="cls-6"><path class="cls-2" d="M1643,893.41l-2.54,16.68c-85.44-70.82-373.46-302.52-457.71-281-99.34,25.38-186.38-44.26-186.38-44.26C823.3,499.06,742,645.5,742,645.5l-25.68,34.38c-5.56-20.42-7.63-40.18-5.15-58.88l9.23-12.36S801.7,462.2,974.77,548c0,0,87,69.58,186.37,44.2S1643,893.41,1643,893.41Z"/></g><path class="cls-3" d="M1174.51,1471.61a18.25,18.25,0,0,1-2.43-.16c-7.91-1.08-198-28.83-563-234.35-129.93-73.15-228.12-121-307-159.41C159.25,1008.15,80.61,969.84,3.78,871.82a17.75,17.75,0,0,1,11.81-28.57c2.31-.3,58.51-8.23,88.87-61.47,87.88-154.08,266.45-178.25,516.91-70.22l84.22-112.82c9.11-15,99.93-154.45,277.06-66.65a17.53,17.53,0,0,1,3.2,2c.78.62,81.63,63.7,170.9,40.89,17.35-4.44,70.17-17.91,293,143.93,107.37,78,203.81,160.15,204.77,161a17.73,17.73,0,0,1,6,16.2L1608,1236.49a17.75,17.75,0,1,1-35.08-5.42l51-330.55c-146.31-124-393.69-307.63-458.41-291.1C1065.29,635,978.6,573.22,965.32,563.13,811.1,487.75,738.85,612,735.84,617.31a18.58,18.58,0,0,1-1.27,2L641.39,744.09a17.76,17.76,0,0,1-21.44,5.6c-150.69-67.07-272.73-85.37-362.71-54.42-77.85,26.79-111,85-122,104.1C111.2,841.62,74.55,861.65,49,870.91c66.41,76.41,137.44,111,268.53,174.86,79.33,38.64,178.05,86.73,308.9,160.4C984.54,1407.76,1175,1436,1176.91,1436.28a17.75,17.75,0,0,1-2.4,35.33Z"/><path class="cls-3" d="M640.85,722.17c15.81,19.46,33.15,39,50.61,57.79S727,817.3,745.52,835.32A1450.66,1450.66,0,0,0,861.79,937.57C902.37,969.49,944.86,999,989.47,1025c22.27,13.06,45.24,24.85,68.56,35.9a751.89,751.89,0,0,0,71.84,28.72l.1,0a5.91,5.91,0,0,1-3.62,11.26,767.32,767.32,0,0,1-74.29-26.49c-24.17-10.34-48-21.48-71.21-33.92-46.43-24.73-90.82-53.16-133.34-84.07a1479.43,1479.43,0,0,1-122.23-99.56Q696,830.45,668,802.56c-18.69-18.69-36.73-37.46-54.56-57.78a17.76,17.76,0,0,1,26.69-23.43l.39.46Z"/><path class="cls-1" d="M2964.24,1291.54c-84-5.5-128.34,81.71-221.88,182.41,0,0-230.75,254.41-650.83,289.91-298.61,25.27-489.6-47.45-606.93-111.76h-.06c-47.74-26.21-83.3-50.94-108.92-67.22-88.75-56.2-119.81,42.9-119.81,42.9-11.42-70.58-5.33-103.3-.71-116.5,0-.06,0-.06.06-.12,1.95-5.56,3.61-7.63,3.61-7.63-54.73-7.39-97.63-65.08-97.63-65.08,167.15-109.46,105-261.81,130.17-403.81-128.57-211.52-204.66-440.38-173.72-704.38a54.85,54.85,0,0,1,31.07-43.13c172.94-81.89,450.9,38.46,596.75,136.61,90-46.5,211.81-67.27,351-73.95,67.45-140.11,158.45-251.46,281.22-324.24,20.41-12.07,46.45-9.88,64,6.1,55.26,50.17,98.27,110.52,131,179.27,40.3,84.61,65.15,182,78.28,289,8.88,71.65,12.48,147.62,12.07,226.9q-.09,20.87-.53,42.07c36.21,67.33,65.85,142.18,87.74,225.84,52.42,99.87,114.19,140.82,183.42,135.08q-11.8,59.28-39.41,86.79c.54.24,1,.42,1.48.65l7.4,3.26C2945.78,1240.42,2963.11,1264.56,2964.24,1291.54Z"/><g class="cls-6"><path class="cls-2" d="M1288.23,1055.17q7.82,13.39,15.92,26.8c-24.08,136.08,31.95,281.69-110.47,389.85a218.13,218.13,0,0,1-32.54-33.37C1320.24,1334.26,1271.6,1191.13,1288.23,1055.17Z"/></g><g class="cls-6"><path class="cls-2" d="M2627.28,367.83C2592.79,252.58,2537.53,154.36,2454.52,79c-17.57-16-43.61-18.16-64-6.09-109.16,64.73-193.18,159.92-257.91,278.73,149.87,4.91,308.79,130.58,308.79,130.58-209.21-92.48-332.1-85.08-332.1-85.08-110.41,5.3-209.89,19.46-291.22,48.3-38.92,13.79-81.76,10.39-117.55-10.21-153.24-88.24-386.8-172.82-539-100.75a54.85,54.85,0,0,0-31.07,43.13c-14.49,123.78-5.5,239.87,21.48,350-36.68-124.13-50.94-255.71-34.32-397.36a54.85,54.85,0,0,1,31.07-43.13c172.94-81.89,450.9,38.46,596.75,136.61,90-46.5,211.81-67.27,351-73.95,67.45-140.11,158.45-251.46,281.22-324.24,20.41-12.07,46.45-9.88,64,6.1C2535.81,117.14,2594.27,232.05,2627.28,367.83Z"/></g><g class="cls-6"><path class="cls-2" d="M2627.28,367.83c37.46,124.67,50.59,269.33,48.4,426.59-4.26-8.64-8.7-17.16-13.19-25.56C2665.74,622.84,2656.33,487.23,2627.28,367.83Z"/></g><path class="cls-7" d="M2563.68,592.19c-88.68-90.7-175.48-156-260.51-197.56,23.08-85.43,50.82-164.42,91.95-224.95,10.11-14.79,31.59-16.5,43.36-3C2523.92,264.88,2559,413.33,2563.68,592.19Z"/><g class="cls-4"><path class="cls-3" d="M2523.8,324.17a393.45,393.45,0,0,0-51.3-75.8c-11.77-13.54-33.25-11.83-43.36,3-32.19,47.4-56.15,106-76.09,170.28-16.69-9.94-33.31-18.87-49.88-27,23.08-85.43,50.82-164.42,91.95-224.95,10.11-14.79,31.59-16.5,43.36-3C2476.17,210,2504,263.05,2523.8,324.17Z"/></g><path class="cls-2" d="M2964.24,1291.54c-84-5.5-128.34,81.71-221.88,182.41,0,0-230.75,254.41-650.83,289.91s-627.16-122.77-715.91-179-119.81,42.9-119.81,42.9c-11.42-70.58-5.33-103.3-.71-116.5,0-.06,0-.06.06-.12,2.3-5,3.61-7.63,3.61-7.63,156.79-131.64,304.23-103.54,426.47-61.12s223.41-55.85,223.41-55.85c20.12-70.17,86.15-127.8,122.24-155a84.63,84.63,0,0,0,33-57c4-31.89.59-67.28-18.93-110.35-53.25-99.1-28.81-177.5,48.1-203.35,87.09,1.53,124.31,53.6,119.81,147.91,0,0-5.91,49.35,10.77,100.11,14.62,44.61,52.3,78.16,98.1,88.45,30.88,7,81.35,29.41,138.63,98.46,0,0,100.11,38.4,158.5-15.62s71.54-97.1,276.9-63l7.4,3.26C2945.78,1240.42,2963.11,1264.56,2964.24,1291.54Z"/><g class="cls-4"><path class="cls-3" d="M2043.25,1747.77c420.08-35.5,650.83-289.92,650.83-289.92,93.54-100.7,137.91-187.91,221.87-182.41-1.12-27-18.46-51.12-61.12-71.06l-7.39-3.25c-.48-.24-1-.41-1.48-.65q24.78-24.8,36.87-75.44h0a145,145,0,0,1-29.71-12.19h0c-56.27-7.84-107-50.15-151.18-134.24-16.33-62.37-36.92-119.82-61.36-172.89q-6.66-14.46-13.67-28.4c-4.14-8.28-8.4-16.51-12.72-24.55.06-2,.06-3.91.12-5.8-49.56-111.72-122.11-196-176.15-248.3C2556.09,731.44,2997,1762.88,1484.6,1652.1A904,904,0,0,0,1609.94,1709C1719.62,1742.19,1861.46,1763.15,2043.25,1747.77Z"/></g><path class="cls-3" d="M1972.33,1786.77c-319.72,0-496.33-115.29-586.19-173.94-7.26-4.74-13.92-9.09-20-12.95-21.38-13.54-39.95-17.61-55.17-12.09-26.45,9.58-38.11,45-38.22,45.36a17.76,17.76,0,0,1-34.44-2.54c-9.6-59.3-7.53-94.31-3-114.48-50.59-17-86.64-64.8-88.34-67.09a17.75,17.75,0,0,1,4.52-25.44c113.12-74.08,113.84-169.47,114.61-270.45.28-37.65.58-76.51,6.68-115-144.15-239.29-200.67-471.6-172.77-710A72.13,72.13,0,0,1,1141,271.1c186-88.05,472.17,44.84,605.61,132.17,81.64-39.71,192.58-62.87,338.45-70.68C2157.36,186,2250.17,80.52,2368.59,10.29c27.49-16.3,61.66-13,85,8.21,162.09,147.19,234.18,384.35,226.73,746.11,36.26,68.15,65.37,143.35,86.56,223.61,46.95,88.66,101,129.18,165.31,123.89a17.74,17.74,0,0,1,18.86,21.17c-6.3,31.46-16,57.21-29,76.92,38.4,20.8,58.52,47.84,59.9,80.57a17.76,17.76,0,0,1-18.89,18.46c-54.46-3.6-90.86,40-146,105.82-18.06,21.57-38.53,46-61.72,71-2.29,2.52-60.51,66.1-171.57,134.67-102.18,63.09-270.28,142.22-490.77,160.85C2050.69,1785.13,2010.49,1786.77,1972.33,1786.77ZM1325,1549.83c18.89,0,39,6.7,60.09,20.06,6.22,3.94,13,8.38,20.42,13.21,97.27,63.49,299.64,195.6,684.5,163.08,408.39-34.52,636.91-281.66,639.18-284.15,22.71-24.45,42.87-48.53,60.65-69.77,51.16-61.12,92.77-110.83,152.15-117.88-6-11.79-20.28-27-54.66-41.44a17.76,17.76,0,0,1-5.68-28.93c12.44-12.42,22.3-31.29,29.43-56.25-69-4.26-128.33-52.85-176.58-144.81a18,18,0,0,1-1.45-3.75c-20.95-79.92-50-154.57-86.22-221.9a17.61,17.61,0,0,1-2.11-8.82c7.92-353.34-60.4-583.3-215-723.7-11.56-10.5-29.26-12.12-43-4C2272,108.88,2182.24,212.46,2112.46,357.48a17.78,17.78,0,0,1-15.15,10c-151.59,7.26-264,30.82-343.75,72a17.76,17.76,0,0,1-18.06-1c-143.58-96.64-416.33-212.41-579.27-135.28a36.86,36.86,0,0,0-21,29.12c-27.54,235.34,26.88,455.58,171.28,693.11a17.76,17.76,0,0,1,2.31,12.31c-6.67,37.67-7,77.33-7.27,115.69-.76,101.14-1.54,205.55-114,288.35,15.08,15.81,42.69,40,73.66,44.17,6.8.92,13.29,4.78,15.37,11.31,2,6.34,1.11,12.4-3.51,17-1.48,3.11-7.83,19.13-5.41,60.73a84,84,0,0,1,31-20.5A76.19,76.19,0,0,1,1325,1549.83Zm-52.49-35.1Z"/><path class="cls-3" d="M2662.49,786.64a17.77,17.77,0,0,1-16.57-11.38c-92.34-239.93-303.2-396.16-550.29-407.74a17.75,17.75,0,0,1,1.66-35.46c125.4,5.87,244.86,47.06,345.45,119.1,105.19,75.33,186.91,183,236.31,311.35a17.75,17.75,0,0,1-16.56,24.13Z"/><path class="cls-2" d="M2543.42,1375.58c150.85,79.08-3.7,230-88,88l-493.3,103.54c6.65,156.06-206.35,113.9-130.17-53.24-125-97.63,16.27-240.37,110.2-85.59l486.64-94.87C2416.21,1167,2669.88,1228.41,2543.42,1375.58Z"/><g class="cls-4"><path class="cls-3" d="M2455.41,1463.59l-493.33,103.54c6,138.93-162.24,120.76-145.43-2.83,35.67,60.7,139.45,48.93,134.78-60.77L2444.76,1400c51.53,86.86,129.39,64.14,147.56,15.32C2648.94,1493.71,2526.94,1584.06,2455.41,1463.59Z"/></g><g class="cls-4"><path class="cls-3" d="M1831.91,1513.89c-8.4,18.34-13.25,35.14-15.26,50.41-10.71-18.23-15.33-43-8.94-73.55A160.31,160.31,0,0,0,1831.91,1513.89Z"/></g><path class="cls-3" d="M2563.64,610a17.75,17.75,0,0,1-17.73-17.29c-5-191.14-44.51-326.66-120.82-414.29a9.06,9.06,0,0,0-7.53-3.12,10,10,0,0,0-7.74,4.42c-34.64,50.95-62.25,118.67-89.53,219.58A17.75,17.75,0,0,1,2286,390c28.35-104.9,57.48-175.92,94.44-230.28a45.24,45.24,0,0,1,35-19.89,44.54,44.54,0,0,1,36.41,15.24c81.95,94.11,124.32,236.95,129.54,436.68a17.74,17.74,0,0,1-17.28,18.2Z"/><path class="cls-3" d="M1890.09,1682a90.34,90.34,0,0,1-64.25-27.07c-15.16-15.44-45.63-58.62-15.35-135.94-37-33.49-52.84-75.43-42.49-114.3,8.74-32.82,35.5-57.06,68.17-61.75,19.75-2.83,69.06-1.64,114.41,65.59l460.05-89.69c1-47.84,23.8-83.68,62.89-97.39,40.15-14.08,87.29,0,109.65,32.72,10.73,15.73,29.19,56.81-13.27,116.37,55.67,36.76,56.51,80,53.91,98.07-5,34.59-32.09,62.56-67.43,69.59-40,8-80.17-12.39-109.32-54.76l-467.21,98.07c-1.93,45.1-21.82,78.75-55.83,93.51A85.15,85.15,0,0,1,1890.09,1682Zm-41.73-304.43a50.22,50.22,0,0,0-7.14.51c-18.85,2.71-33.76,16.4-38.91,35.75-7.51,28.17,7.66,60.33,40.56,86a17.75,17.75,0,0,1,5.22,21.35c-20.91,45.89-19.79,85.56,3.08,108.85,15.6,15.89,39.2,20.86,58.72,12.4,23.5-10.2,36.07-37.4,34.48-74.61a17.76,17.76,0,0,1,14.09-18.13l493.3-103.54a17.73,17.73,0,0,1,18.91,8.31c21.79,36.7,50.54,54.51,78.79,48.89,20.29-4,36.41-20.42,39.22-39.84,3.76-26.14-15.74-52.48-53.51-72.28A17.74,17.74,0,0,1,2530,1364c30.17-35.12,38.88-67.84,23.9-89.79-13.37-19.58-43.5-28-68.58-19.24-28,9.83-41.8,37.21-38.79,77.1a17.75,17.75,0,0,1-14.3,18.76l-486.65,94.87a17.71,17.71,0,0,1-18.57-8.21C1903.6,1399,1875.33,1377.61,1848.36,1377.61Z"/><path class="cls-7" d="M1530.94,530.78c-105.34-84-214.71-141.2-331.34-149.93-5.52,177.94,38.72,335.81,130.1,474.65a10.3,10.3,0,0,0,18.52-2.76c36.85-129.06,92.91-236.34,182.43-305.68A10.34,10.34,0,0,0,1530.94,530.78Z"/><g class="cls-6"><path class="cls-2" d="M1571.07,575.54C1481.5,644.88,1414.88,765.93,1378,895a10.3,10.3,0,0,1-18.52,2.78q-16.34-24.76-30.65-50.41a10.32,10.32,0,0,0,15.68-5.68c35.85-125.55,100.4-244.18,185.66-313.64q20.68,14.91,41.12,31.24A10.35,10.35,0,0,1,1571.07,575.54Z"/></g><g class="cls-4"><path class="cls-3" d="M1530.63,547.05q-10.47,8.16-20.35,16.92c-80.76-52-164.19-85.91-251.75-92.42-4.38,142.12,23,271.46,80.76,388.55a10.16,10.16,0,0,1-9.58-4.62c-91.42-138.8-135.61-296.72-130.11-474.63,116.62,8.76,226,65.91,331.33,149.93A10.31,10.31,0,0,1,1530.63,547.05Z"/></g><path class="cls-3" d="M1338.22,877.93a27.75,27.75,0,0,1-23.34-12.67c-93.83-142.54-138.58-305.71-133-485a17.74,17.74,0,0,1,19.06-17.15c110.14,8.25,221.71,58.54,341.09,153.75a27.72,27.72,0,0,1,10.5,22,28.11,28.11,0,0,1-11,22.17c-79.12,61.28-136.76,158.28-176.23,296.53a27.69,27.69,0,0,1-22.68,20A28.41,28.41,0,0,1,1338.22,877.93ZM1217,400.38c-1.65,158.69,38.27,303.77,118.82,431.76,40.28-133.38,98.23-229.56,176.72-293.33C1408.54,457.35,1311.57,411.91,1217,400.38Zm302.93,144.27h0Z"/><path class="cls-3" d="M2106.42,1283.61c40.58-37.41,94.86-45.71,140.41-14.66a13.14,13.14,0,0,1,4.85,15.68c-7.94,19.72-21.91,35.8-39,47.4a55.12,55.12,0,0,1-48.92,6.71c-21.09-7.22-39-20.24-57.06-35.35A13.15,13.15,0,0,1,2106.42,1283.61Z"/><path class="cls-2" d="M2191.38,1333.43l6.82,38.12c5.23,29.26-9.07,59-35.81,72-35.36,17.17-82.24,15-111.67-22.36-8-10.18-13.33-22.25-16.57-34.8l-8.69-33.72Z"/><path class="cls-2" d="M2332.14,1295.79c85,103.7-90.72,192-133.17,81.46l31.6-43.82"/><path class="cls-3" d="M2215.53,1370.88c8.56,17.74,21,30.43,37.46,35.3a65.58,65.58,0,0,0,26.31,2.14,81,81,0,0,0,26.62-8.39c16.62-8.88,30.13-23.33,34.24-41.28,2.28-8.94,2-18.82-.38-28.86s-6.93-20.1-12.21-30.25l-.15-.28a6,6,0,0,1,9.3-7.22,103.77,103.77,0,0,1,23.54,30,78.82,78.82,0,0,1,8.57,40.24,81.81,81.81,0,0,1-14,40.31,98.3,98.3,0,0,1-30.52,29,106.43,106.43,0,0,1-39.39,14.8,95.39,95.39,0,0,1-43.33-2.75,86.2,86.2,0,0,1-37.71-23.43,98.46,98.46,0,0,1-21.43-36.67,17.76,17.76,0,0,1,32.86-13.31Z"/><path class="cls-3" d="M2208.85,1330.3c1.53,6.54,3.07,13.08,4.45,19.65l2.1,9.85,1,4.93c.34,1.74.67,3,1,5.37a84.75,84.75,0,0,1-6.71,50.56,83.12,83.12,0,0,1-35,37.72c-1.91,1-3.92,2.13-5.75,2.92l-5.49,2.34c-3.68,1.5-7.46,2.75-11.25,3.92a120.07,120.07,0,0,1-23.46,4.18c-15.86,1.17-32.32-.83-47.31-7.07a94.28,94.28,0,0,1-38.08-28.34,91.07,91.07,0,0,1-12.41-19.87,99.51,99.51,0,0,1-7-21.56c-.38-1.81-.71-3.63-1-5.44l-.69-5-1.35-10.05c-.82-6.72-1.58-13.45-2.18-20.23a6,6,0,0,1,11.46-3c2.75,6.22,5.34,12.48,7.87,18.76l3.68,9.45,1.83,4.68c.55,1.43,1.13,2.85,1.74,4.24,5,11.2,11.27,20.68,19.77,28.11,8.15,7.85,17.92,12.93,28,16.2a73.44,73.44,0,0,0,15.76,2.79,74.45,74.45,0,0,0,16.19-.48,90.55,90.55,0,0,0,15.93-3.82c2.58-.9,5.16-1.83,7.65-2.95l3.72-1.73c1.23-.57,2.09-1.18,3.16-1.74A48.06,48.06,0,0,0,2175,1404a50.5,50.5,0,0,0,4.37-28l-2.86-19.5c-1-6.64-1.8-13.31-2.64-20a17.78,17.78,0,0,1,34.95-6.25Z"/><path class="cls-3" d="M2379.67,1492c-.71,2.22-1.28,3.45-1.89,5s-1.26,2.82-1.9,4.2c-1.25,2.77-2.66,5.36-4.1,7.9a84.41,84.41,0,0,1-4.49,7.47c-1.62,2.39-3,4.92-4.84,7.15a146,146,0,0,1-10.77,13.29c-1.91,2.09-3.73,4.27-5.74,6.26l-6.17,5.79c-16.61,15.27-36,26.76-56.13,35.11l-15.33,5.64c-5.16,1.66-10.45,2.79-15.65,4.19l-7.82,2c-2.61.64-5.29.88-7.92,1.34l-15.82,2.41c-10.56,1.22-21.17,1.39-31.68,2.11l-31.48-1a5.91,5.91,0,0,1-.22-11.8l.53,0,30.29-2c9.94-1.67,19.93-2.78,29.68-4.87l14.47-3.65c2.38-.65,4.84-1.1,7.16-1.92l7-2.52c4.6-1.73,9.3-3.19,13.78-5.12l13.15-6.34c17.07-9.09,32.59-20.56,45.08-34.5l4.63-5.23c1.49-1.79,2.77-3.73,4.17-5.58a112.2,112.2,0,0,0,7.62-11.5c1.29-1.9,2.16-4,3.26-6a58.11,58.11,0,0,0,2.9-6.08c.91-2,1.78-4.07,2.45-6.08.35-1,.78-2,1-3s.63-2.06.64-2.32a18.08,18.08,0,1,1,35.3,6.12Z"/><path class="cls-2" d="M1845.26,793.43c-34.6-46.09-122-56.53-175.54,13.75a13.52,13.52,0,0,0,3.85,19.63c14.78,9.09,43.92,23,89.42,27.72,17.63,1.84,32.23,3.46,44.2,4.85C1843.31,863.58,1867.1,822.51,1845.26,793.43Z"/><path class="cls-2" d="M2384.24,761.05c-31.8,27.81-59.47,14.48-69.33-14.42-9.53-27.94,2.6-58.69,27.25-74.94,34.18-22.53,72.35-30.12,119.78-3,15,8.61,15.7,30.18,1.41,40C2438.54,725.7,2405.75,736.34,2384.24,761.05Z"/><g class="cls-4"><path class="cls-3" d="M2663,726.79,2552,559.35V442.5c50.77-80.41,11.66-226.13,11.66-226.13l9-5.45C2640,352.21,2664.09,529.12,2663,726.79Z"/></g><path class="cls-3" d="M2688.88,821.82a161.82,161.82,0,0,1-13.49-27.93c-.06-.18-.12-.3-.18-.47Q2682.22,807.36,2688.88,821.82Z"/><path class="cls-3" d="M897.78,2034.24c-82.92,0-150.33-51.45-151.36-52.26a17.75,17.75,0,0,1,21.8-28h0c5.55,4.3,137.08,103.92,245.62-7.26a17.75,17.75,0,0,1,25.4,24.8C993,2018.87,943.07,2034.24,897.78,2034.24Z"/><g class="cls-4"><path class="cls-3" d="M1043.28,1055.17C668.58,997.3,321,664.26,321,664.26c73.9-6.28,173,9.94,306.18,69.22l84-112.48C688.52,791.7,1043.28,1055.17,1043.28,1055.17Z"/></g><g class="cls-4"><path class="cls-3" d="M1038.65,1416.85s220,204-76,378.08l-64.28,108S1066,1996.58,1166.56,1968c0,0-70.5-281,75.93-390.5l16.28-74-72.48-38.14"/></g><g class="cls-4"><path class="cls-3" d="M864.13,1904.15c-52.78,39-220.87,139-443.93,29-7.87-3.91-15.8-8.05-23.79-12.49,23.67,104.31-122.47,138.16-198,109.64,51.53,18.16,126.26-37.28,94.48-140.22-32.54-105.56,54.26-123.9,54.26-123.9,429.9,277.49,633.08-294.35,633.08-294.35s21.42,122.47,22.48,132.29C1021.21,1781.61,873.71,1892.08,864.13,1904.15Z"/></g><g class="cls-4"><path class="cls-3" d="M2277,1890.07c-62.72,102.29-177.62,126.08-277.2,25.67-32.48-2.42-61.47-11.3-85.08-30.11-10.06-28.28-15.91-52.9,2.31-34.91,35.56,35,146.91-7.81,146.91-7.81l-10.77,30.41c106.62,53.25,130.23-54.31,130.23-54.31l41,40.58,41.53,18.94Z"/></g><path class="cls-3" d="M2553.4,942.43c-9,3.54-18.6,7.29-27.57,11.5-4.56,2-9,4.29-13.46,6.29l-13.11,6.71A342.53,342.53,0,0,0,2451,998.09c-7.62,5.58-14.38,12-21.4,18.1l-9.68,10c-1.56,1.7-3.33,3.21-4.81,5l-4.39,5.33c-12.38,13.72-21.68,29.71-30.78,45.86l-34.64-32.06c1.62-.89,2.66-1.38,3.79-1.94s2.25-1.09,3.32-1.55c2.17-1,4.34-1.91,6.48-2.71,4.29-1.75,8.6-3.18,12.9-4.64a216.29,216.29,0,0,1,26.17-6.56c4.43-.73,8.83-1.55,13.28-2l13.36-1.22a227.25,227.25,0,0,1,26.75.34c17.73,1.46,35.3,4.8,51.65,11.22,16.59,5.59,31.68,14.6,45.51,24.35a8.51,8.51,0,0,1-6.85,15.23l-.91-.22c-3.89-.93-7.67-2-11.44-3s-7.38-2.3-11.24-2.86c-7.6-1.38-14.94-3.19-22.49-3.85a207.06,207.06,0,0,0-44.39-.92,204.94,204.94,0,0,0-42.87,7.78c-3.49.94-6.89,2.19-10.33,3.24l-10.08,3.75c-3.28,1.38-6.59,2.7-9.69,4.24-1.62.72-3.1,1.5-4.58,2.27-.77.38-1.5.75-2.14,1.11l-1.58.88-.64.36a24.61,24.61,0,0,1-34-32.42c10.12-20.42,21.57-40.69,37.22-57.63l5.64-6.52c1.87-2.18,4.07-4,6.13-6,4.2-3.91,8.36-7.85,12.61-11.67,9.09-6.91,17.92-14.16,27.81-19.73A235.3,235.3,0,0,1,2486,932.92c5.4-1.26,10.72-2.68,16.13-3.74s10.81-2,16.3-2.56a174.39,174.39,0,0,1,33.21-1,8.55,8.55,0,0,1,2.52,16.49Z"/><path class="cls-3" d="M1853.49,975.93c-65.5-13-131.63,47.24-147.7,134.56s24,168.63,89.51,181.63,131.63-47.24,147.7-134.55S1919,988.93,1853.49,975.93Z"/><path class="cls-2" d="M1846,1012.42c-21.66,5.92-33.07,35-25.47,65s31.31,49.51,53,43.59,33.06-35,25.47-65S1867.63,1006.51,1846,1012.42Z"/><path class="cls-8" d="M1760.37,1194.87c-10.49,5.76-13,22.19-5.6,36.71s21.89,21.62,32.37,15.86,13-22.2,5.6-36.71S1770.85,1189.11,1760.37,1194.87Z"/></g></g></svg>