<svg xmlns="http://www.w3.org/2000/svg" viewBox="0 0 2525.56 2269.17"><defs><style>.cls-1{opacity:0.2;}.cls-2,.cls-5{fill:#380072;}.cls-2,.cls-3,.cls-4,.cls-8{fill-rule:evenodd;}.cls-3{fill:#ffb375;}.cls-4{fill:#fff;}.cls-6{opacity:0.6;}.cls-7{opacity:0.4;}.cls-8{fill:#783129;}.cls-9{opacity:0.3;}</style></defs><title>introAtivo 1</title><g id="Camada_2" data-name="Camada 2"><g id="Layer_1" data-name="Layer 1"><g class="cls-1"><path class="cls-2" d="M1347.19,2010.77c650.8,0,1178.37,57.84,1178.37,129.2s-527.57,129.2-1178.37,129.2S168.82,2211.33,168.82,2140s527.57-129.2,1178.37-129.2"/></g><path class="cls-3" d="M258.27,1157.7c-194.88-424.09,168.21-875.24,497-910.94-24.5-51.76,31.91-109.56,144.16-101q-54.07-109.84,118.41-73.5,111.14,30,186.41,79.09c3.25,2.15,6.46,4.3,9.67,6.47a1215.16,1215.16,0,0,1,103.5,79.59v0A221.43,221.43,0,0,1,1658.2,355.86c232.58,71.83,193.14,360.36-65.87,536.74-4.5,59.64-10.65,118.54-14.35,172.86q-132.46-28.49-259.15-20.79c-254.07,23.25-498.4,146.28-642,366.6C482.85,1373.7,318.22,1288.14,258.27,1157.7Z"/><path class="cls-2" d="M525.73,617c39.67,5,66.56,50.79,60.08,102.29s-43.89,89.2-83.56,84.2-66.56-50.78-60.08-102.29,43.9-89.2,83.56-84.2"/><path class="cls-4" d="M542.54,671.16c11.56,1.46,19.32,15.41,17.34,31.15s-13,27.35-24.52,25.9S516,712.8,518,697s13-27.34,24.53-25.88"/><path class="cls-5" d="M676.81,1431.6a20.44,20.44,0,0,1-3.87-.37c-217.19-42.06-375.07-138.66-433.14-265h0c-86.45-188.1-74.07-397.46,34.85-589.5,104.77-184.73,281.25-318.55,455-347-1.72-17.52,2.86-35.13,13.56-50.69,22.82-33.17,68.86-52.6,126.34-54.3-6.21-23.38-3.71-42.45,7.54-56.92,20.94-27,67-31.87,144.93-15.43l1.1.26c75.77,20.46,140.43,47.94,192.22,81.69,3.43,2.27,6.7,4.47,10,6.68,33.11,22.82,64.51,46.64,93.62,71a241.77,241.77,0,0,1,355.55,127.75c87.5,30.26,142.35,92.47,154.93,176.15,19.52,129.88-65.67,281.28-217.51,387.88-1.88,24-4,48-6.06,71.18-2.84,32.12-5.53,62.45-7.53,91.84a20.33,20.33,0,0,1-24.56,18.51c-86.06-18.51-171.28-25.35-253.34-20.39-266,24.43-494.37,154.69-626.52,357.42A20.34,20.34,0,0,1,676.81,1431.6ZM276.75,1149.21c51.39,111.82,193.4,198.7,390.68,239.44,140.07-206.69,376-339.19,649.55-364.23l.61-.05c78.54-4.78,159.77.78,241.8,16.55,1.74-22.48,3.78-45.5,5.9-69.52,2.33-26.22,4.73-53.33,6.76-80.33a20.34,20.34,0,0,1,8.84-15.28C1722.74,779.19,1806.43,637,1789.15,522c-10.61-70.6-59.24-122.69-137-146.69a20.32,20.32,0,0,1-13.52-13.73,201.1,201.1,0,0,0-309.09-107.89,19.77,19.77,0,0,1-3.74,2.23,20.34,20.34,0,0,1-21.74-3.06,1202.37,1202.37,0,0,0-101.79-78.25c-3-2-6.15-4.16-9.34-6.27-48-31.25-108.54-56.94-179.94-76.26-84.54-17.73-101.35-2.53-103.87.7-5.07,6.53-1.91,23,8.46,44a20.34,20.34,0,0,1-19.8,29.26c-67.55-5.16-106.83,15.22-121.14,36-7.91,11.5-9,23.61-3.1,36A20.32,20.32,0,0,1,757.41,267C591.47,285,411.68,417.53,310,596.75,207.74,777.11,195.92,973.31,276.75,1149.21Z"/><g class="cls-6"><path class="cls-4" d="M753.35,242.37v0c21.29-93.18,101-114.57,237.68-46.71-123-39.7-194.09-15.19-211.6,56.1Z"/></g><g class="cls-6"><path class="cls-4" d="M917.32,147.25q-74.94-125.52,201.61-23.11Q915.07,67.79,917.32,147.25"/></g><g class="cls-7"><path class="cls-2" d="M707,1368.34l-2,2.63c1-1.38,1.69-2.27,2-2.63M361.42,499.1c-114.49,202.8-92.2,429-24.64,547.08q215.18,88.59,498.9,189.14L799.4,1266.6Q628,1223,498.15,1176.63h0l0,0q-51.93-15.33-6.44,18,117.77,64.36,300.61,78.68a761.38,761.38,0,0,0-85.29,95q-411.13-85-474.74-364.59C155.59,869.7,259.29,630.28,361.42,499.1Z"/></g><g class="cls-7"><path class="cls-2" d="M1629.84,865.06q-17.92,14.16-37.51,27.54c-4.48,59.33-10.59,117.94-14.29,172.05q-28.66-6-60.27-10.32a936.36,936.36,0,0,0-178.35-10.68c65.88-8.85,68.14-39.57-4.09-51.59-53.18-8.85-99-53.62-77.84-171.58,20.68-115.6,65.45-233.48,77.84-368.61Q1575.6,653.4,1629.84,865.06"/></g><path class="cls-8" d="M1321.88,234.3h0l1-.68,1.69-1.14.47-.29,1.64-1.05,1.08-.69,1.79-1.11,1-.58,1.59-1,1.65-1,1-.56,1.67-1,1.59-.88,1.06-.59,1.71-.93,1.27-.68,1.61-.85,1.21-.62,1.92-1,.78-.39,2-1,.86-.41,2.29-1.07.39-.17,2.31-1.05.35-.17,2-.89.91-.39.6-.25,2.31-1,.21-.11,2.68-1.07.6-.23,2.34-.89.18-.08,2.39-.87.62-.23,2.47-.87.53-.18.84-.29,2.2-.73,2.65-.87.39-.1,2.74-.85.31-.08,2.84-.83.23-.06,2.92-.81.15,0,3-.79h.08l3.09-.75h0l3.08-.7.1,0,3-.64.18-.05,2.94-.57.26-.05,2.88-.51.34-.07,2.8-.45,2.17-.33,1-.17.51-.06,2.65-.37.59-.06,2.56-.31.67-.09,2.5-.27.16,0,2-.18,1-.09.85-.08,2.33-.18.38,0,2.33-.14.63,0,2.52-.12.74-.05,2.74-.1h.31l2.6-.06h.79l2.08,0H1447l1.84,0,1.44,0,.84,0,1.67,0,1.5.06,2.07.08,1,.07,2,.1,1.41.08,2.4.19.48,0,2.3.19.75.06,1.35.14.81.09,2,.22.93.11,2.11.27,1.35.16,1.86.27.45.06,2.19.33.31,0,2.08.33,1.19.2,2.12.38.81.14.83.17,2.42.47.75.15,2.49.53.66.15,1,.23,2,.45.12,0,2.64.64.5.15,2.73.7.42.1,2.79.77.33.11,2.87.82.25.06,3,.91.16.07,3,1,.07,0,3.1,1.05c2.12.73,4.21,1.49,6.3,2.3l1.63.62,1.49.6.48.19,2,.78.66.29.38.15,2.68,1.16.15.06q2.89,1.24,5.73,2.58l.18.09,2.89,1.38.1.07.61.29,1.86.93.49.24.26.13,2.28,1.18.41.2.27.17c1.86,1,3.68,2,5.5,3l0,0c1.81,1,3.59,2,5.36,3.12l.33.19,1.45.89,1.35.85,2.16,1.36.61.4,1.13.74,1.61,1.06.12.08,1.71,1.16.89.62.23.14,2.28,1.62.17.12,2.51,1.8.15.12.52.38,1.66,1.24.45.33,1.19.91,1.41,1.1.22.16,1.63,1.28.71.58.89.73,1.59,1.3,0,0,.39.33,2,1.68.13.1.61.52,1.55,1.36.31.27,1.23,1.1.39.35,1.15,1,1.51,1.38.56.52,1,.89,1.42,1.34.07.09,2.12,2.07.14.14.68.68,1.45,1.45.17.19,1.26,1.3,1,1,.42.46,1.41,1.51.4.41,1,1.1,1.21,1.32.16.21,1.37,1.53.05.06,1.23,1.43.07.08,1.34,1.56.06.06,1.26,1.53.82,1,.49.6,1.3,1.59.27.36,1,1.28.35.45.9,1.16,1.25,1.66.48.62.76,1,.72,1,.46.62.25.36.69,1,.71,1,.26.35.43.65.69,1,.69,1,0,.06,1.82,2.73.14.21.67,1,.65,1,.33.51.32.52.65,1,.64,1,.13.21.5.83.63,1,.57,1,0,.08,1.62,2.75.23.38.6,1.07.58,1.06.21.35.4.7,1.15,2.13,0,0,1.54,2.92.14.27,1.1,2.15.26.52.29.58,1.16,2.38.44.91.52,1.1.46,1,0,.12.51,1.12.51,1.12.3.66.19.45,1,2.24.15.35,0,.1,1.22,2.92v0l.91,2.23.33.85.12.31.89,2.28.18.52.25.64L1654,343l.06.19.35,1,.41,1.18.35,1,0,.17.79,2.34.21.68.17.5.37,1.18.37,1.18.11.33.26.84.7,2.36q5.37,1.68,10.54,3.48l2.51.93c2.51.91,5,1.8,7.43,2.75,1.45.58,2.84,1.18,4.27,1.76,1.81.74,3.63,1.49,5.4,2.25,1.44.65,2.83,1.31,4.24,2,1.71.78,3.45,1.57,5.11,2.38,1.32.64,2.61,1.32,3.91,2,1.71.87,3.44,1.74,5.11,2.63l3.78,2.11c1.58.89,3.15,1.78,4.69,2.69,1.28.77,2.52,1.53,3.78,2.32,1.53,1,3.06,1.9,4.55,2.87l3.44,2.32c1.42,1,2.85,1.94,4.23,2.94s2.5,1.82,3.72,2.75,2.47,1.86,3.68,2.79,2.37,1.91,3.53,2.86,2.45,2,3.64,3.06l3.21,2.83q1.86,1.68,3.64,3.37l2.85,2.76c1.16,1.13,2.29,2.31,3.41,3.47l2.88,3c1.07,1.16,2.08,2.32,3.1,3.48s1.79,2,2.65,3.06c1.06,1.28,2.09,2.56,3.11,3.85.78,1,1.57,2,2.32,3,1,1.36,2,2.75,3,4.13.69.95,1.4,1.91,2.07,2.88,1,1.49,2,3,3,4.53l1.72,2.67c1,1.63,2,3.29,3,5l1.43,2.47c1.1,1.94,2.12,3.92,3.14,5.91l.87,1.66q1.94,3.84,3.67,7.82v0c1.15,2.58,2.23,5.21,3.26,7.86.38,1,.72,2,1.09,3,.63,1.71,1.28,3.41,1.85,5.15.33,1,.62,2,.93,3,.56,1.76,1.14,3.51,1.65,5.32.32,1.09.59,2.21.89,3.3.44,1.68.91,3.33,1.3,5,.3,1.2.55,2.42.82,3.66.36,1.64.73,3.27,1.06,4.91l.68,3.76c.28,1.61.57,3.21.8,4.82l.57,4.08c.21,1.55.42,3.1.59,4.65.16,1.39.29,2.79.42,4.18.15,1.61.29,3.21.4,4.82l.25,4.1.2,4.94.1,4c0,1.68,0,3.38,0,5.07,0,1.45,0,2.9-.07,4.33l-.17,4.73-.22,4.41-.36,5-.39,4.57-.53,4.75c-.17,1.49-.34,3-.55,4.49s-.46,3.34-.72,5-.46,3.06-.72,4.61c-.29,1.72-.62,3.44-.94,5.15-.27,1.39-.5,2.8-.78,4.18-.36,1.85-.79,3.66-1.19,5.51-.31,1.4-.61,2.81-.94,4.24-.47,1.94-1,3.89-1.48,5.85-.32,1.22-.61,2.46-.94,3.68-.6,2.24-1.25,4.45-1.91,6.67l-.89,3.1c-.93,3.08-1.93,6.18-3,9.29l-.14.43v0c-1.07,3.17-2.19,6.33-3.37,9.52l-.05.12-1.62,4.18c-.73,1.9-1.45,3.81-2.21,5.71l-1.72,4.08c-.78,1.9-1.57,3.8-2.41,5.71l-1.84,4.07c-.88,2-1.76,3.91-2.68,5.86-.64,1.38-1.32,2.75-2,4.11-.92,1.87-1.82,3.75-2.77,5.61l-2.28,4.43c-.95,1.82-1.89,3.64-2.88,5.46l-2.35,4.26c-1,1.84-2,3.68-3.1,5.52l-2.62,4.47-3.18,5.34-2.6,4.22-3.65,5.75-2.58,3.95c-1.26,1.9-2.53,3.79-3.82,5.69l-3,4.37-3.54,5-3.39,4.7-3.67,4.9-3.72,4.9-3.55,4.51-3.93,4.93-4.17,5.06-3.55,4.25c-1.51,1.78-3,3.53-4.6,5.31l-3.62,4.14c-1.59,1.78-3.23,3.56-4.87,5.36l-3.72,4.05c-1.66,1.78-3.36,3.54-5.06,5.32l-3.7,3.87c-1.94,2-3.92,4-5.9,5.92l-3.28,3.28q-4.62,4.53-9.42,9l0,0c-3.21,3-6.47,6-9.78,9l-3.3,2.9c-2.21,1.94-4.42,3.91-6.69,5.85l-4.28,3.58c-2.08,1.76-4.15,3.52-6.27,5.26l-4.37,3.51c-1.81,1.45-3.58,2.9-5.4,4.33-217,148.43-356.91,128.59-321.28-48.93,14.67-73.07,31.17-141.35,41-207.45q16.14-112.27-21.82-228.56-27.52-67.28-5.24-146.32"/><g class="cls-9"><path class="cls-4" d="M1668.74,359.34q-9.39,21.5-9.38,21.49,75.33,19,140.73,101.16-40.21-94.74-131.35-122.65m-326.09,8.37c15.78,139.88,12.34,285.57-17.21,473C1406.85,612.76,1410.29,467.07,1342.65,367.71ZM1321.88,234.3h0l1-.68,1.69-1.14.47-.29,1.64-1.05,1.08-.69,1.79-1.11,1-.58,1.59-1,1.65-1,1-.56,1.67-1,1.59-.88,1.06-.59,1.71-.93,1.27-.68,1.61-.85,1.21-.62,1.92-1,.78-.39,2-1,.86-.41,2.29-1.07.39-.17,2.31-1.05.35-.17,2-.89.91-.39.6-.25,2.31-1,.21-.11,2.68-1.07.6-.23,2.34-.89.18-.08,2.39-.87.62-.23,2.47-.87.53-.18.84-.29,2.2-.73,2.65-.87.39-.1,2.74-.85.31-.08,2.84-.83.23-.06,2.92-.81.15,0,3-.79h.08l3.09-.75h0l3.08-.7.1,0,3-.64.18-.05,2.94-.57.26-.05,2.88-.51.34-.07,2.8-.45,2.17-.33,1-.17.51-.06,2.65-.37.59-.06,2.56-.31.67-.09,2.5-.27.16,0,2-.18,1-.09.85-.08,2.33-.18.38,0,2.33-.14.63,0,2.52-.12.74-.05,2.74-.1h.31l2.6-.06h.79l2.08,0H1447l1.84,0,1.44,0,.84,0,1.67,0,1.5.06,2.07.08,1,.07,2,.1,1.41.08,2.4.19.48,0,2.3.19.75.06,1.35.14.81.09,2,.22.93.11,2.11.27,1.35.16,1.86.27.45.06,2.19.33.31,0,2.08.33,1.19.2,2.12.38.81.14.83.17,2.42.47.75.15,2.49.53.66.15,1,.23,2,.45.12,0,2.64.64.5.15,2.73.7.42.1,2.79.77.33.11,2.87.82.25.06,3,.91.16.07,3,1,.07,0,3.1,1.05c2.12.73,4.21,1.49,6.3,2.3l1.63.62,1.49.6.48.19,2,.78.66.29.38.15,2.68,1.16.15.06q2.89,1.24,5.73,2.58l.18.09,2.89,1.38.1.07.61.29,1.86.93.49.24.26.13,2.28,1.18.41.2.27.17c1.86,1,3.68,2,5.5,3l0,0c1.81,1,3.59,2,5.36,3.12l.33.19,1.45.89,1.35.85,2.16,1.36.61.4,1.13.74,1.61,1.06.12.08,1.71,1.16.89.62.23.14,2.28,1.62.17.12,2.51,1.8.15.12.52.38,1.66,1.24.45.33,1.19.91,1.41,1.1.22.16,1.63,1.28.71.58.89.73,1.59,1.3,0,0,.39.33,2,1.68.13.1.61.52,1.55,1.36.31.27,1.23,1.1.39.35,1.15,1,1.51,1.38.56.52,1,.89,1.42,1.34.07.09,2.12,2.07.14.14.68.68,1.45,1.45.17.19,1.26,1.3,1,1,.42.46,1.41,1.51.4.41,1,1.1,1.21,1.32.16.21,1.37,1.53.05.06,1.23,1.43.07.08,1.34,1.56.06.06,1.26,1.53.82,1,.49.6,1.3,1.59.27.36,1,1.28.35.45.9,1.16,1.25,1.66.48.62.76,1,.72,1,.46.62.25.36.69,1,.71,1,.26.35.43.65.69,1,.69,1,0,.06,1.82,2.73.14.21.67,1,.65,1,.33.51.32.52.65,1,.64,1,.13.21.5.83.63,1,.57,1,0,.08,1.62,2.75.23.38.6,1.07.58,1.06.21.35.4.7,1.15,2.13,0,0,1.54,2.92.14.27,1.1,2.15.26.52.29.58,1.16,2.38.44.91.52,1.1.46,1,0,.12.51,1.12.51,1.12.3.66.19.45,1,2.24.15.35,0,.1.62,1.47c27.62,105.69,19.41,221.8-42.84,335.33,96.78-331.47-6.21-472.32-290.78-409.56Q1318.49,246.35,1321.88,234.3Z"/></g><path class="cls-5" d="M676.81,1431.6a20.44,20.44,0,0,1-3.87-.37c-217.19-42.06-375.07-138.66-433.14-265h0c-86.45-188.1-74.07-397.46,34.85-589.5,104.77-184.73,281.25-318.55,455-347-1.72-17.52,2.86-35.13,13.56-50.69,22.82-33.17,68.86-52.6,126.34-54.3-6.21-23.38-3.71-42.45,7.54-56.92,20.94-27,67-31.87,144.93-15.43l1.1.26c75.77,20.46,140.43,47.94,192.22,81.69,3.43,2.27,6.7,4.47,10,6.68,33.11,22.82,64.51,46.64,93.62,71a241.77,241.77,0,0,1,355.55,127.75c87.5,30.26,142.35,92.47,154.93,176.15,19.52,129.88-65.67,281.28-217.51,387.88-1.88,24-4,48-6.06,71.18-2.84,32.12-5.53,62.45-7.53,91.84a20.33,20.33,0,0,1-24.56,18.51c-86.06-18.51-171.28-25.35-253.34-20.39-266,24.43-494.37,154.69-626.52,357.42A20.34,20.34,0,0,1,676.81,1431.6ZM276.75,1149.21c51.39,111.82,193.4,198.7,390.68,239.44,140.07-206.69,376-339.19,649.55-364.23l.61-.05c78.54-4.78,159.77.78,241.8,16.55,1.74-22.48,3.78-45.5,5.9-69.52,2.33-26.22,4.73-53.33,6.76-80.33a20.34,20.34,0,0,1,8.84-15.28C1722.74,779.19,1806.43,637,1789.15,522c-10.61-70.6-59.24-122.69-137-146.69a20.32,20.32,0,0,1-13.52-13.73,201.1,201.1,0,0,0-309.09-107.89,19.77,19.77,0,0,1-3.74,2.23,20.34,20.34,0,0,1-21.74-3.06,1202.37,1202.37,0,0,0-101.79-78.25c-3-2-6.15-4.16-9.34-6.27-48-31.25-108.54-56.94-179.94-76.26-84.54-17.73-101.35-2.53-103.87.7-5.07,6.53-1.91,23,8.46,44a20.34,20.34,0,0,1-19.8,29.26c-67.55-5.16-106.83,15.22-121.14,36-7.91,11.5-9,23.61-3.1,36A20.32,20.32,0,0,1,757.41,267C591.47,285,411.68,417.53,310,596.75,207.74,777.11,195.92,973.31,276.75,1149.21Z"/><path class="cls-4" d="M1033.2,1116.46c-18.51-95.79-91.92-109.26-155.89-28.49q-186.1-93.63-583.09-217.68C263.86,587.71,15.49,701.57,121,854.41c-52.11,5.85-97.21,22.92-100.33,75.26-7.14,119.8,85.1,152.71,211.55,74.08q387.6,158.45,603.42,231.57Q942.87,1152.63,1033.2,1116.46Z"/><path class="cls-5" d="M839.47,1258.08l-10.32-3.5C687.22,1206.48,487,1129.73,234,1026.44c-73,43.07-137.48,52.2-182.24,25.54C15.21,1030.2-3,986.34.41,928.46c3.63-60.88,52.2-81.64,88.26-89.57-20.07-42.79-18.73-86,4.76-119.75a98,98,0,0,1,105.64-39.25c28.51,7.3,95.25,38.93,113.75,174.92,248.34,78,436.32,147.84,559.29,207.88,34.39-37.7,73.21-54.29,108.2-45.76,36.79,9,62.67,43,72.86,95.67l3.19,16.49-15.59,6.24c-58.21,23.32-123,62.38-192.67,116.1ZM230.34,981l9.61,3.93c250.63,102.46,449.71,179,592,227.66,63-47.84,122.6-84.14,177.4-108.17-8-26.64-21.7-43.82-38.68-48-22.3-5.42-51.22,11.07-77.41,44.15l-10.29,13-14.8-7.44c-122.48-61.62-317.62-134.43-580-216.43l-12.73-4L274,872.47c-9.09-84.61-40.87-141.88-85-153.18a57.72,57.72,0,0,0-62.19,23.11c-18.36,26.35-14.25,63.9,11,100.45l19.31,28-33.78,3.8c-70,7.86-80.9,32.85-82.3,56.26-1.77,29.67,2.28,68.7,31.6,86.15,31.91,19,87.58,7.59,148.91-30.55Z"/><g class="cls-7"><path class="cls-2" d="M115.49,845.8c1.74,2.86,3.56,5.71,5.55,8.61-52.11,5.85-97.21,22.92-100.33,75.26-7.14,119.8,85.1,152.71,211.55,74.08q387.6,158.45,603.42,231.57,32.4-25,63.25-45.74Q527.85,1045.76,241.44,945.31c-171.85,99.48-220.73-15.64-85.85-75.61-.77-1.87-1.51-3.73-2.22-5.55-28-59.06-27.49-131.74,30.45-164.44q-31.68.4-73.63,30.93-13.87,91.1,23.12,125.28c-7-4-13.8-7.68-17.82-10.12"/></g><path class="cls-3" d="M666.27,2118.22c-191.86,41.33-316.64-94.69-120-225.57-6.23-525.38,371-811.24,772.57-848q178.74-10.89,369,50.33l0,0q50.84-50.67,83.27-126.63a54.58,54.58,0,0,1,62.42-32c63.67,14.48,70.28,125.43,25.56,228.93a939.25,939.25,0,0,1,194.73,147.52c129.69,147,207.29,354.08,191.44,622.36,129.95,88.06,125.78,153.54-13.06,194.5-78.93,23.27-264.15,48.2-342.85,19.36-353.4,61.59-404.08,2.77-389.81-121.14a626,626,0,0,1-362.24-42.39c27.61,119.68-5.27,166.06-104.16,166.84Q706.83,2188.81,666.27,2118.22Z"/><g class="cls-7"><path class="cls-2" d="M764.79,1648.39c-19.93-34.94-47.13-74.6-62.74-101.16-38.21,145.88-50.07,272.35-54.49,361.59q-28.06,33.36-43.7,61.94-40.82,43.32-78.61,27.06-42.08-33.54,34.85-87.09Q440,1961.78,449.76,2025l-2.69-2.44a144.27,144.27,0,0,0,8.9,22.57A110.43,110.43,0,0,0,466.53,2063l.18.25h0A144.12,144.12,0,0,0,658.63,2105a128.37,128.37,0,0,1,91.55-184q-9.69-174.21,14.61-272.7"/></g><g class="cls-7"><path class="cls-2" d="M1154.85,1984.7q58.17-52.47,58.48-90.54,492.29,58,768-117.1-8.24,106.14,33.46,174.23,19.44,166.65,206,129.47,111.32-28.4,9.83-131,108.54,54.52,108.91,93.78l0,0,0,0q.18,20.48-29,36.74-103.12,101.1-389.59,76.69-78-2.64-49.35-4.95-208.21,39.29-311.24,7.41-33.87-90.45,1-153.32Q1349,2078.4,1154.85,1984.7"/></g><path class="cls-5" d="M1663.49,2193.92c-75.07,0-123.62-13.52-152.6-40.87-29.36-27.7-35-65.93-33.7-101.05a643.38,643.38,0,0,1-313.06-33.8c7.2,51.13.83,87.63-19.43,113.31-21.35,27.06-57.46,40.51-110.36,41.11-268.61,30-348-.2-376.77-32-105.21,18.82-195.92-11.82-223.28-76.6-11.73-27.77-25.59-100.12,91.56-182.1-.44-244.86,82.25-455.95,239.5-611C906.67,1131.59,1102.58,1044,1317,1024.42l.62-.05c117.31-7.14,239.81,8.8,364.32,47.43,28.14-30.33,51.81-67.76,70.46-111.43A74.76,74.76,0,0,1,1838,916.48c23.6,5.36,42.49,20.84,54.63,44.76,23.4,46.11,20,121.29-8.11,195.3a960.57,960.57,0,0,1,183.54,141.74c.34.33.66.67,1,1,141.39,160.29,209.44,376.39,197.12,625.56,68.84,48.53,99.28,91.89,93,132.36-6.16,39.59-45.81,69.65-121.22,91.9-77.16,22.75-262.58,49.11-350.27,20.79C1795.07,2185.87,1721.39,2193.92,1663.49,2193.92Zm-164-186.42a20.34,20.34,0,0,1,20.2,22.66c-5.48,47.61.23,75.52,19.09,93.32,40.26,38,150.51,39.71,347,5.47a20.38,20.38,0,0,1,10.49.94c72.75,26.66,255.07,2.34,330.1-19.78,56.32-16.62,89.19-37.62,92.54-59.14,2.17-14-6-45.39-85.13-99a20.32,20.32,0,0,1-8.89-18c14.34-242.76-50-452.71-185.93-607.17a919.26,919.26,0,0,0-190-143.83,20.35,20.35,0,0,1-8.6-25.74c29.18-67.52,35.59-138.87,16-177.52-6.67-13.15-15.63-20.84-27.38-23.51a34.19,34.19,0,0,0-39.17,20.11c-22.41,52.49-51.61,97-86.84,132.32a20.3,20.3,0,0,1-21.36,5.79c-123.75-39.82-245.3-56.46-361.25-49.41-379.71,34.89-760,304.22-753.77,827.46a20.32,20.32,0,0,1-9.07,17.16c-70.55,47-102.62,98.8-85.78,138.66,17.1,40.48,89.59,71.79,190.24,50.11a20.32,20.32,0,0,1,21.91,9.75c10.2,17.75,64.43,55.62,346.95,24a21,21,0,0,1,2.1-.12c40.35-.32,66.46-8.71,79.82-25.64,16.41-20.79,17.94-58.84,4.68-116.3a20.34,20.34,0,0,1,28-23.21,603.57,603.57,0,0,0,350.47,41A20.25,20.25,0,0,1,1499.51,2007.5Z"/><g class="cls-6"><path class="cls-4" d="M1687.66,1094.94l.19.06,0,0,2.57-2.59A581.69,581.69,0,0,0,1788,973q-60.62,234.81-238.32,220.83,78.15-43.24,138-98.86"/></g><g class="cls-6"><path class="cls-4" d="M2207.24,1588.42c31.44,101.3,45.67,216.82,38,346.7a855.51,855.51,0,0,0-404-734l40.84-22.33a787,787,0,0,1,325.15,409.64M1118.09,1084.93a950.29,950.29,0,0,1,157.54-35.29q34.11-4.41,68.59-6.15,166.82-5.37,343.63,51.51l-39.75,33.74a979.34,979.34,0,0,0-909,200A877.84,877.84,0,0,1,1118.09,1084.93Z"/></g><path class="cls-3" d="M572.13,1064.73a123.11,123.11,0,0,1-101.49-214c205.72,146.91,328.25,165.67,328.25,165.67-25.54,31.67-75.1,72.76-115.76,71.51s-87.44,10-111-23.15"/><g class="cls-6"><path class="cls-4" d="M1088.83,1238.76C832.29,1363.94,699,1652.13,769.66,1928.68q29.67-452.75,319.17-689.92"/></g><path class="cls-5" d="M666.29,2138.56a20.31,20.31,0,0,1-17-9.11,148.69,148.69,0,0,1,97.2-228.36,20.34,20.34,0,0,1,7.32,40A108,108,0,0,0,683.23,2107a20.35,20.35,0,0,1-16.94,31.57Z"/><path class="cls-5" d="M729.9,1922.67c-5.19-68.81-5.15-138.39,3.24-207.48s25.33-137.59,53.32-202a665.47,665.47,0,0,1,49.59-92.85c19-29.56,40.11-58,64.37-83.5a483.65,483.65,0,0,1,80.23-67.8c29-19.46,59.87-36,92.5-47.91a6.87,6.87,0,0,1,6.73,11.76l0,0c-26.4,21.67-52.47,42.54-77.26,64.57a963.81,963.81,0,0,0-70.53,69c-22.15,24.08-43.22,49.24-61.4,76.52a537.74,537.74,0,0,0-46.88,86.37c-26.21,60.29-42.31,125-50.27,190.75s-8.08,132.78-3.06,199.39v.1a20.34,20.34,0,0,1-40.56,3.06Z"/><path class="cls-5" d="M704.81,1536.16c7,8.89,13.35,17.6,19.87,26.1s12.78,16.91,19.18,25,12.84,16,18.73,23.82c3,3.87,5.86,7.72,8.53,11.45s5.32,7.18,7.45,10.84l1.62,2.79A20.43,20.43,0,0,1,751,1663.36a71.24,71.24,0,0,1-14.31-12.87,100,100,0,0,1-10.63-14.42c-6.21-9.94-10.69-20.58-14.57-31.28a238.7,238.7,0,0,1-9-32.83c-2.07-11.17-3.51-22.47-3.19-34a3.08,3.08,0,0,1,5.5-1.82Z"/><path class="cls-5" d="M1060.28,1825.21c21.44-.35,40.64,3.35,59.37,8.1q14.22,3,28,7.07l27.46,8.38q27.93,6.81,55.64,14.06l56.11,11.74c75,14.33,151.86,21.43,228.45,17.15l57.26-4.74,56.9-8.08,56.32-11.4c18.51-4.94,37-9.93,55.32-15.47,18-6.46,36.11-12.7,54.3-18.58,17.91-6.68,36.08-12.73,54.44-18.55,18-6.77,36.24-13,54.86-18.87,18.17-6.79,36.62-13.31,56-18.59l.18,0a3.18,3.18,0,0,1,2.93,5.45c-15,13.2-31,25.16-47.33,36.86-16.78,10.72-34,20.78-51.57,30.46-17.92,8.77-36.24,16.79-54.7,24.47-18.85,6.61-38,12.24-57.16,18-19.41,4.74-38.8,9.42-58.1,14.5L1636.38,1919l-59.25,8.42-59.65,4.94c-79.64,4-160,1-238.82-13-19.54-4.24-39.17-8.12-58.6-12.81-19.19-5.6-38.44-11-57.43-17.17-18.7-7.06-37.65-13.43-55.58-22.34-17.49-10-34.51-21-49.29-36.11a3.36,3.36,0,0,1,2.33-5.7Z"/><path class="cls-5" d="M1137.29,2005.76a20.33,20.33,0,0,1-11.23-37.3c44.77-29.59,72-59.64,80.8-89.32a20.34,20.34,0,0,1,39,11.61c-11.8,39.63-43.65,76.15-97.36,111.65A20.22,20.22,0,0,1,1137.29,2005.76Z"/><path class="cls-5" d="M1445.66,2014.77c21-4.69,42.21-9.35,63.6-15s43-11.44,64.66-18,43.33-13.43,65-20.66c21.79-7.08,43.57-14.51,65.8-21.33a2.95,2.95,0,0,1,2.62,5.19c-18.82,13.76-38.41,26.28-58.41,38.2S1608.32,2006,1587.1,2016s-43,19.27-65.75,26.21-46.51,12.19-71.12,13a20.4,20.4,0,0,1-5.11-40.3Z"/><path class="cls-5" d="M1906.48,2174.39a20.18,20.18,0,0,1-7.11-1.29c-51.85-19.39-83.46-84.81-96.54-199.92-24.51-24-47.43-55.12-68.23-92.49a20.34,20.34,0,1,1,35.54-19.78c20.28,36.46,42.47,66,65.94,87.79a20.35,20.35,0,0,1,6.38,12.78c10.49,100,35.09,160,71.15,173.52a20.34,20.34,0,0,1-7.13,39.39Z"/><path class="cls-5" d="M642.09,1114.12c-29.14,0-54.1-8.73-73.3-25.64a125.64,125.64,0,0,1-132.7-68.56c-67.18-137.25,15.69-204.48,111.63-282.33,19.91-16.15,40.48-32.84,61.09-51.13a20.33,20.33,0,1,1,27,30.42c-21.28,18.88-42.21,35.87-62.45,52.29-95.83,77.76-153.67,124.69-100.72,232.88a84.77,84.77,0,0,0,97.5,44.61,20.34,20.34,0,0,1,20.37,6.15c14,15.73,34.71,22.55,61.47,20.21,54.73-4.76,121.53-47.16,152.1-96.54a20.33,20.33,0,0,1,34.58,21.4c-37.19,60.1-115.94,109.82-183.17,115.65Q648.66,1114.13,642.09,1114.12Z"/><path class="cls-5" d="M580.45,1091.16a20.29,20.29,0,0,1-15.35-7c-7.4-8.5-19.75-25.3-37.78-51.37a20.34,20.34,0,1,1,33.45-23.14c21.08,30.49,30.67,42.83,35,47.81a20.34,20.34,0,0,1-15.33,33.69Z"/><path class="cls-2" d="M602,838c39.84,13.55,67.84,37.18,62.53,52.78S607,954,567.14,940.4,515,857.24,520.27,841.66,562.17,824.43,602,838Z"/><path class="cls-5" d="M582.41,953a57.4,57.4,0,0,1-18.55-3c-20.05-6.82-36.63-26.31-46.67-54.87-7.62-21.66-10.38-45.53-6.55-56.77,2.32-6.82,10.23-18.45,37.09-19.66,16.63-.76,37.11,2.67,57.54,9.63h0c40.62,13.82,77.33,40.81,68.88,65.67C668.32,911.14,624.58,953,582.41,953ZM552.28,839c-1.24,0-2.45,0-3.63.08-12.4.55-18.09,3.91-18.76,5.89-1.56,4.57-.72,23,6.48,43.48,4.59,13.06,15.12,35.92,34,42.36,32.87,11.18,80.44-31.42,84.49-43.31,1.84-5.39-15.58-26.05-56.18-39.86h0C582.4,842.05,565.72,839,552.28,839Z"/><g class="cls-7"><path class="cls-2" d="M1226.35,1885c-81.78-19.47-125.83-31.68-163.33-58.1-9.44,65.62-44.08,107.38-72.72,146.75,19.09,181.26-440.45,139-246.18-33.58C616.5,1946.7,531,2268.35,1009.39,2154.86q187.73-9.34,127.88-169.43,75.24-50.7,89.08-100.48"/></g><g class="cls-7"><path class="cls-2" d="M764.4,1641.21c46.59-184.82,157.1-314.58,313.88-424.45-164.06,67.46-294.59,162.32-374,319.73q60.12,104.73,60.1,104.72"/></g><g class="cls-7"><path class="cls-2" d="M1063,1821.77c284.66,159,633.47,142.25,899.89-45.76C1678.2,1857.36,1373.16,1882.78,1063,1821.77Z"/></g><path class="cls-5" d="M997.48,205.05A20.26,20.26,0,0,1,985.3,201c-37.71-28.25-74.55-39.75-112.63-35.23a20.33,20.33,0,1,1-4.82-40.38c48.3-5.78,96,8.72,141.84,43.06a20.34,20.34,0,0,1-12.21,36.61Z"/><path class="cls-5" d="M877.56,307.87a20.23,20.23,0,0,1-10.81-3.13c-24.52-15.43-63.31-28.21-115.3-38a20.34,20.34,0,1,1,7.53-40c57.83,10.89,100.16,25.14,129.43,43.55a20.34,20.34,0,0,1-10.85,37.55Z"/><path class="cls-5" d="M1640.94,882.17c-32.15,21.87-65.46,42.34-100.68,60a545.65,545.65,0,0,1-54.56,23.74A324.45,324.45,0,0,1,1426.93,982c-20.43,3.42-42.21,4.48-64.63-.27a56.53,56.53,0,0,1-8.38-2.18c-2.78-.91-5.58-1.65-8.33-2.77-5.49-2.39-11-4.71-16.1-8.13a51.87,51.87,0,0,1-7.54-5.2c-2.37-2-4.86-3.79-7.07-5.92l-6.34-6.69a79.29,79.29,0,0,1-5.56-7.26l-2.64-3.71c-.8-1.28-1.48-2.6-2.21-3.9-1.41-2.62-2.92-5.23-4.19-7.9-2.12-5.39-4.63-10.79-5.93-16.27-.74-2.73-1.58-5.47-2.2-8.2l-1.47-8.17c-1.16-5.49-1.25-10.81-1.83-16.22-1.34-21.46,1-42,4.67-61.93,3.7-19.36,7.65-37.76,11.61-56.57l11.48-56c7.44-37.25,13.66-74.45,18.94-111.38s9.28-73.69,10.08-110.58a665.51,665.51,0,0,0-6.86-111.44,6.86,6.86,0,0,1,13-3.92c16.8,35.48,26,74.64,29.77,114s2,79.08-3,117.75-13.36,76.51-21.41,114-16.49,74.89-23.6,111.62c-3.32,17.57-5.14,35.26-4.06,51.93.49,4.07.48,8.35,1.38,12.21l1,5.92c.44,1.92,1,3.73,1.53,5.61.84,3.87,2.56,7.08,3.81,10.61.79,1.63,1.73,3.13,2.55,4.73.43.77.81,1.59,1.27,2.34l1.55,2.09A46.78,46.78,0,0,0,1351,934.15c2.8,2,6.16,3.27,9.39,4.77,1.66.7,3.52,1.11,5.25,1.71a28.56,28.56,0,0,0,5.46,1.42c15,3.19,32,2.81,49.17-.14a283.81,283.81,0,0,0,51.48-14.19,506.54,506.54,0,0,0,50.37-21.93c33-16.57,64.92-36.13,95.87-57.18l.1-.06a20.33,20.33,0,1,1,22.87,33.62Z"/><path class="cls-5" d="M1545.09,1171.59c14.29-15.67,29.54-24,44.76-32.82,3.85-2.07,7.54-4.39,11.31-6.56s7.66-4.12,11.32-6.48l11.32-6.46,11-7a235.42,235.42,0,0,0,40.16-33.42,316.19,316.19,0,0,0,33.81-40.27c5.3-7,9.88-14.61,14.69-22,2.37-3.72,4.44-7.66,6.68-11.48s4.48-7.65,6.41-11.66c4.08-7.9,8.15-15.81,11.67-24l2.76-6.08,3.43-7.36a72.51,72.51,0,0,1,10.66-15.86,74.48,74.48,0,0,1,31.39-21.23,74.87,74.87,0,0,1,37.78-3.14,76.7,76.7,0,0,1,34.37,15.35A89.34,89.34,0,0,1,1891.39,959a126.68,126.68,0,0,1,11.56,31,187.28,187.28,0,0,1,4.63,31,277.1,277.1,0,0,1-2.93,60.16,386.3,386.3,0,0,1-36.06,111.89c-17.51,35.09-40.18,67.88-68.33,96-7,7-14.46,13.66-22.11,20.08s-15.24,13-23.38,19a92,92,0,0,1-27,13.61c-9.84,2.79-20.51,3.8-32.15.15a8.61,8.61,0,0,1-5-12.33l.19-.35a76.66,76.66,0,0,1,18.85-22.6,155,155,0,0,1,21.13-14.66c7.31-4.41,14.83-8.73,21.5-14.24s13.1-11.3,19.25-17.43c24.61-24.55,44.92-53.78,60.64-85.3a346.08,346.08,0,0,0,32.26-99.92,237.28,237.28,0,0,0,2.56-51.19c-1.18-16.56-4.57-32.89-11.43-45.45-6.78-12.76-16.31-20.35-28.32-22.4A34.29,34.29,0,0,0,1795.67,967a32.14,32.14,0,0,0-4.87,7.24l-1,2-1.49,3.29-3,6.64c-3.86,8.92-8.3,17.57-12.76,26.22-2.12,4.37-4.63,8.57-7,12.8s-4.75,8.52-7.37,12.65c-5.31,8.23-10.39,16.58-16.3,24.44-22.5,32.23-51.16,60.12-82.61,84.2a212,212,0,0,1-51,30.39c-4.63,1.78-9.27,3.5-14,5a100.54,100.54,0,0,1-14.56,3.24,75.23,75.23,0,0,1-15.07,1.15,77.58,77.58,0,0,1-15.63-1.72,7.83,7.83,0,0,1-4-12.87Z"/><path class="cls-5" d="M1641.3,276.08a298.44,298.44,0,0,1,37.19,98.13c.78,4.31,1.77,8.59,2.36,12.92l1.57,13c1.22,8.67,1.35,17.38,1.79,26.06a361.16,361.16,0,0,1-2,51.75c-3.55,34.22-11.63,67.45-22.12,99.49s-24.78,62.75-45.47,89.76a1.75,1.75,0,0,1-2.44.33,1.77,1.77,0,0,1-.66-1.68c5.33-33.51,13.9-64.7,21.36-96.05a514.64,514.64,0,0,0,13.52-94.55,412.74,412.74,0,0,0-.8-47c-.76-7.74-1.2-15.52-2.67-23.13l-1.73-11.47c-.63-3.81-1.63-7.53-2.41-11.31a320.07,320.07,0,0,0-32.63-85.79l-.08-.15a20.34,20.34,0,0,1,35.21-20.35Z"/><path class="cls-8" d="M886.61,98.06c-421.31-319.62-732,452.51-576,458.2C418.09,386.17,591,264.59,755.22,246.76c-22.8-48.16,24.47-101.58,121.62-101.83a152,152,0,0,1,22.07-.08Q885.17,116.55,886.61,98.06Z"/><path class="cls-5" d="M321.52,577l-11.68-.42c-26.88-1-47.15-18.23-55.6-47.33-28.14-96.76,71.29-350,242.21-467.52C586.42-.11,729.26-46.84,898.9,81.85l8.86,6.72-.88,11.08c-.47,5.92,1,17,10.32,36.31l15.38,31.66-35.1-2.49a134.24,134.24,0,0,0-19.12.08l-1.48.06c-56.86.14-89.55,19.89-101.18,38.32-7,11.06-7.69,22.66-2.11,34.46l12.23,25.84L757.41,267C600.93,284,432.29,401.78,327.77,567.13Zm360-536.54q-82.14,0-162,54.78C360.28,204.73,271.42,442.68,293.29,517.91c2.29,7.87,5.31,12.28,8.32,14.76C407.76,372,572.23,255.85,729.53,229.76c-1.68-16.42,2.28-32.84,11.78-47.88,21.64-34.29,69.21-55.4,128.12-57.16a96,96,0,0,1-3-16.32C804.28,63.13,742.46,40.47,681.47,40.47Z"/><g class="cls-9"><path class="cls-4" d="M886.61,98.06C532-171,255.8,333.42,270.22,503.28q217.23-587,619.63-381.12-4.07-13.64-3.24-24.1"/></g><g class="cls-7"><path class="cls-2" d="M1882.09,1178.78l-20.7-19.07q-55.79,162.51-175.12,196.16,140-4.15,195.82-177.09"/></g><g class="cls-7"><path class="cls-2" d="M1852,1180.52q-95.51,164.48-175.28,140.39,237.4-247.26,119.7-379.92,153.15,3,55.58,239.53"/></g><path class="cls-5" d="M1663.49,2193.92c-75.07,0-123.62-13.52-152.6-40.87-29.36-27.7-35-65.93-33.7-101.05a643.38,643.38,0,0,1-313.06-33.8c7.2,51.13.83,87.63-19.43,113.31-21.35,27.06-57.46,40.51-110.36,41.11-268.61,30-348-.2-376.77-32-105.21,18.82-195.92-11.82-223.28-76.6-11.73-27.77-25.59-100.12,91.56-182.1-.44-244.86,82.25-455.95,239.5-611C906.67,1131.59,1102.58,1044,1317,1024.42l.62-.05c117.31-7.14,239.81,8.8,364.32,47.43,28.14-30.33,51.81-67.76,70.46-111.43A74.76,74.76,0,0,1,1838,916.48c23.6,5.36,42.49,20.84,54.63,44.76,23.4,46.11,20,121.29-8.11,195.3a960.57,960.57,0,0,1,183.54,141.74c.34.33.66.67,1,1,141.39,160.29,209.44,376.39,197.12,625.56,68.84,48.53,99.28,91.89,93,132.36-6.16,39.59-45.81,69.65-121.22,91.9-77.16,22.75-262.58,49.11-350.27,20.79C1795.07,2185.87,1721.39,2193.92,1663.49,2193.92Zm-164-186.42a20.34,20.34,0,0,1,20.2,22.66c-5.48,47.61.23,75.52,19.09,93.32,40.26,38,150.51,39.71,347,5.47a20.38,20.38,0,0,1,10.49.94c72.75,26.66,255.07,2.34,330.1-19.78,56.32-16.62,89.19-37.62,92.54-59.14,2.17-14-6-45.39-85.13-99a20.32,20.32,0,0,1-8.89-18c14.34-242.76-50-452.71-185.93-607.17a919.26,919.26,0,0,0-190-143.83,20.35,20.35,0,0,1-8.6-25.74c29.18-67.52,35.59-138.87,16-177.52-6.67-13.15-15.63-20.84-27.38-23.51a34.19,34.19,0,0,0-39.17,20.11c-22.41,52.49-51.61,97-86.84,132.32a20.3,20.3,0,0,1-21.36,5.79c-123.75-39.82-245.3-56.46-361.25-49.41-379.71,34.89-760,304.22-753.77,827.46a20.32,20.32,0,0,1-9.07,17.16c-70.55,47-102.62,98.8-85.78,138.66,17.1,40.48,89.59,71.79,190.24,50.11a20.32,20.32,0,0,1,21.91,9.75c10.2,17.75,64.43,55.62,346.95,24a21,21,0,0,1,2.1-.12c40.35-.32,66.46-8.71,79.82-25.64,16.41-20.79,17.94-58.84,4.68-116.3a20.34,20.34,0,0,1,28-23.21,603.57,603.57,0,0,0,350.47,41A20.25,20.25,0,0,1,1499.51,2007.5Z"/><g class="cls-7"><path class="cls-2" d="M1463.34,952.16c253.41-104.85,395.53-294.2,335.81-472.73,6.62,263.45-384.71,512.24-433.69,399.82-32.35-74.27,5.75-196-8.56-346.47q-23.31,181.07-50.59,292.62-9.18,189.14,157,126.76"/></g><g class="cls-7"><path class="cls-2" d="M755.22,246.76Q739.44,147,892.43,129.83q-157-55.43-215.21,91.25A576.4,576.4,0,0,0,293.66,551.79Q603.28,236,755.22,246.76"/></g><path class="cls-5" d="M321.52,577l-11.68-.42c-26.88-1-47.15-18.23-55.6-47.33-28.14-96.76,71.29-350,242.21-467.52C586.42-.11,729.26-46.84,898.9,81.85l8.86,6.72-.88,11.08c-.47,5.92,1,17,10.32,36.31l15.38,31.66-35.1-2.49a134.24,134.24,0,0,0-19.12.08l-1.48.06c-56.86.14-89.55,19.89-101.18,38.32-7,11.06-7.69,22.66-2.11,34.46l12.23,25.84L757.41,267C600.93,284,432.29,401.78,327.77,567.13Zm360-536.54q-82.14,0-162,54.78C360.28,204.73,271.42,442.68,293.29,517.91c2.29,7.87,5.31,12.28,8.32,14.76C407.76,372,572.23,255.85,729.53,229.76c-1.68-16.42,2.28-32.84,11.78-47.88,21.64-34.29,69.21-55.4,128.12-57.16a96,96,0,0,1-3-16.32C804.28,63.13,742.46,40.47,681.47,40.47Z"/><path class="cls-5" d="M1080.77,749.2a446.92,446.92,0,0,0-52.41,15.48A315.75,315.75,0,0,0,980.46,787c-7.64,4.11-14.61,9.12-21.77,13.79l-10.08,7.83c-1.63,1.35-3.43,2.51-5,3.94l-4.68,4.3c-13,10.93-23.49,24.32-33.81,37.89l-27.51-33.58c1.59-.61,2.6-.92,3.7-1.29s2.18-.71,3.21-1c2.1-.6,4.21-1.19,6.25-1.65,4.13-1.05,8.23-1.81,12.33-2.6a200,200,0,0,1,24.67-2.68,185.93,185.93,0,0,1,49,4.07c16,3.57,31.55,8.83,45.63,16.74,14.41,7.18,27,17.29,38.38,27.92a7.82,7.82,0,0,1-8.11,13l-.86-.33c-6.87-2.61-13.22-5.85-19.91-8.19s-13.21-4.8-20-6.35a190.92,190.92,0,0,0-40.32-6.44,188.44,188.44,0,0,0-40,1.68c-3.29.42-6.55,1.12-9.82,1.65l-9.65,2.14c-3.16.84-6.34,1.63-9.36,2.64-1.56.45-3,1-4.46,1.49-.75.25-1.46.49-2.08.74l-1.55.61-.63.24a22.62,22.62,0,0,1-26.88-33.82c11.78-17.32,24.77-34.34,41.16-47.79A102.72,102.72,0,0,1,920.59,772l12.95-9c9.15-5.14,18.11-10.64,27.81-14.46A216.59,216.59,0,0,1,1020.61,732c5.08-.46,10.1-1.08,15.16-1.37s10.1-.46,15.17-.28a161,161,0,0,1,30.37,3.29,7.87,7.87,0,0,1,.17,15.36Z"/></g></g></svg>